<svg xmlns="http://www.w3.org/2000/svg" width="80.177" height="82.122" viewBox="0 0 80.177 82.122"><defs><style>.a{fill:#8c3ee8;stroke:#fff;}</style></defs><g transform="translate(-859.5 -7109.504)"><g transform="translate(860 7110)"><path class="a" d="M893.8,361.833c8.329,0,16.659-.073,24.988.031a14.282,14.282,0,0,1,10.356,4.741,15,15,0,0,1,4.2,10.807q-.034,16.5,0,33a15.409,15.409,0,0,1-15.8,15.626q-10.8,0-21.594-.01a2.17,2.17,0,0,0-1.552.565q-8.508,7.382-17.049,14.729a5.458,5.458,0,0,1-5.124,1.444,5.3,5.3,0,0,1-4-6.268q.763-4.806,1.526-9.613c.146-.911.148-.919-.769-.967a15.166,15.166,0,0,1-12.89-7.892,13.878,13.878,0,0,1-1.878-6.382c-.031-.528-.035-1.059-.037-1.588q0-16.212-.007-32.424a15.27,15.27,0,0,1,6.564-13.059,13.444,13.444,0,0,1,7.866-2.718c8.4-.062,16.8-.022,25.206-.022Zm-17.874,71.083c.048.029.1.057.143.088.126-.1.254-.2.376-.3,4.809-4.117,9.628-8.222,14.415-12.365a5.172,5.172,0,0,1,3.6-1.346c7.7.035,15.408.016,23.113.018a9.157,9.157,0,0,0,2.293-.209c4.01-1.033,6.532-4.138,6.544-8.808.028-10.832.008-21.665.009-32.5a9.341,9.341,0,0,0-.252-2.36,8.33,8.33,0,0,0-8.5-6.337q-23.834-.005-47.667,0a10.172,10.172,0,0,0-2.222.224,8.264,8.264,0,0,0-6.525,8.185q-.02,16.716-.007,33.436a8.79,8.79,0,0,0,.151,1.577,8.256,8.256,0,0,0,7.115,6.7c1.8.2,3.608.043,5.412.092a3.445,3.445,0,0,1,3.542,4.152c-.165,1.168-.365,2.33-.55,3.493q-.5,3.131-.995,6.263" transform="translate(-854.165 -361.808)"/><path class="a" d="M896.923,413.574a13.014,13.014,0,0,1-12.456-9.362,3.329,3.329,0,0,1,1.913-4.159,3.394,3.394,0,0,1,4.353,1.626,6.754,6.754,0,0,1,.357.865,6.046,6.046,0,0,0,5.825,4.142,5.976,5.976,0,0,0,5.823-4.227c.962-2.842,4.076-3.612,5.944-1.451a3.225,3.225,0,0,1,.676,3.1,12.97,12.97,0,0,1-11.473,9.393c-.361.03-.72.05-.963.068" transform="translate(-857.315 -365.776)"/><path class="a" d="M886.82,390.49a5.13,5.13,0,1,1,5.094-5.172,5.134,5.134,0,0,1-5.094,5.172" transform="translate(-857.038 -363.734)"/><path class="a" d="M908.737,390.49a5.13,5.13,0,0,1,.007-10.26,5.13,5.13,0,1,1-.007,10.26" transform="translate(-859.336 -363.734)"/></g></g></svg>