<svg xmlns="http://www.w3.org/2000/svg" width="76" height="76.06" viewBox="0 0 76 76.06"><defs><style>.a{fill:#8c3ee8;}</style></defs><g transform="translate(-212.512 -361.808)"><path class="a" d="M259.388,361.894c-2.1,2.1-4.09,4.072-6.064,6.061a1.006,1.006,0,0,1-.827.226H235.809c-5.434,0-10.869.009-16.3-.016-.588,0-.693.169-.693.714q.022,30.97,0,61.943c0,.562.109.748.72.748q30.969-.027,61.939,0c.582,0,.737-.145.735-.732q-.027-16.433-.023-32.867a1.494,1.494,0,0,1,.492-1.171c1.769-1.739,3.517-3.5,5.273-5.256.146-.146.3-.284.529-.5.013.295.031.5.031.7q0,19.706,0,39.414a6.326,6.326,0,0,1-4.837,6.5,7,7,0,0,1-1.841.213q-31.321,0-62.644,0A6.316,6.316,0,0,1,212.716,433a6.753,6.753,0,0,1-.2-1.779q0-31.356,0-62.714a6.35,6.35,0,0,1,6.56-6.634q19.864-.019,39.73,0c.142,0,.285.013.583.027" transform="translate(0 -0.006)"/><path class="a" d="M230.109,414.068c0-2.439.007-4.878-.01-7.319a1.2,1.2,0,0,1,.394-.947q21.157-20.965,42.3-41.939a6.287,6.287,0,0,1,9.356.061q3.03,3.05,6.051,6.112a6.219,6.219,0,0,1,1.681,6.693,6.757,6.757,0,0,1-1.74,2.658l-39.579,40.029c-.766.775-1.537,1.55-2.294,2.336a.926.926,0,0,1-.727.306q-7.413,0-14.826.024c-.447,0-.582-.12-.579-.57.019-2.482.01-4.964.01-7.446Zm19.008-4.739c.146-.135.287-.258.419-.387q3.94-3.91,7.88-7.82Q270.5,388.114,283.6,375.113c.341-.337.392-.518.016-.884q-2.934-2.872-5.81-5.805c-.3-.3-.456-.3-.753,0q-16.943,17.142-33.9,34.261c-.259.261-.327.405-.027.7,1.906,1.876,3.789,3.773,5.68,5.664.091.09.19.169.315.281m-3.394,6.323-9.212-9.211a.819.819,0,0,0-.022.163c0,2.868.011,5.734-.014,8.6,0,.518.275.471.606.471q4.107,0,8.214,0c.161,0,.338.058.429-.019" transform="translate(-1.784 0)"/></g></svg>