<svg xmlns="http://www.w3.org/2000/svg" width="51.047" height="43.713" viewBox="0 0 51.047 43.713"><defs><style>.a{fill:#707070;}</style></defs><g transform="translate(-1644.856 1382.023)"><path class="a" d="M1664.418-1347.9H1647.1c-1.682,0-2.245-.554-2.245-2.2q0-14.893,0-29.786c0-1.606.529-2.133,2.142-2.134h46.847c1.56,0,2.058.5,2.058,2.052v30.062c0,1.449-.565,2.009-2.048,2.01q-8.393,0-16.785,0c-.769,0-.768,0-.525.731.557,1.671,1.133,3.336,1.66,5.016.147.47.346.666.857.636.8-.045,1.605-.029,2.407,0a1.686,1.686,0,0,1,1.607.98,1.483,1.483,0,0,1-.21,1.612,1.247,1.247,0,0,1-.907.551c-.319.029-.639.062-.959.062q-10.628.005-21.257,0a2.543,2.543,0,0,1-1.4-.211,1.6,1.6,0,0,1-.791-1.749,1.691,1.691,0,0,1,1.628-1.243c.916-.031,1.834-.008,2.751-.009.248,0,.469.031.58-.314.63-1.96,1.289-3.91,1.935-5.865C1664.456-1347.743,1664.433-1347.793,1664.418-1347.9Zm6.034-30.957c-7.22,0-14.441.008-21.662-.014-.608,0-.758.156-.757.76q.031,13.1,0,26.2c0,.617.143.81.787.809q21.594-.027,43.187,0c.626,0,.744-.188.742-.772q-.029-13.1,0-26.2c0-.6-.123-.8-.773-.8C1684.8-1378.845,1677.626-1378.854,1670.451-1378.854Zm-.069,37.328c1.374,0,2.748-.007,4.121,0,.373,0,.551-.034.393-.489-.627-1.814-1.229-3.637-1.82-5.463a.52.52,0,0,0-.583-.43c-1.4.014-2.794.017-4.19,0a.521.521,0,0,0-.585.421c-.6,1.824-1.2,3.647-1.817,5.464-.135.4-.068.509.359.5C1667.635-1341.54,1669.009-1341.526,1670.383-1341.526Z" transform="translate(0)"/><path class="a" d="M1777.019-1311.475a1.575,1.575,0,0,1-1.566-1.268,3.9,3.9,0,0,1-.039-.685q-.025-8.108-.045-16.216a2.283,2.283,0,0,1,.3-1.383,1.669,1.669,0,0,1,2.486-.245q3.776,2.691,7.536,5.4c1.321.948,2.647,1.888,3.96,2.846a1.6,1.6,0,0,1-.013,2.865q-5.714,4.113-11.435,8.216A1.759,1.759,0,0,1,1777.019-1311.475Zm1.61-15.484v10.651c.067.021.1.04.108.032q3.574-2.548,7.148-5.1c.281-.2.151-.3-.043-.44-.617-.435-1.229-.876-1.843-1.314Z" transform="translate(-112.556 -43.394)"/></g></svg>