<svg xmlns="http://www.w3.org/2000/svg" width="47.542" height="45.711" viewBox="0 0 47.542 45.711"><defs><style>.a{fill:#707070;}.b{fill:none;stroke:#707070;stroke-width:3px;}</style></defs><g transform="translate(-1474.125 -214.33)"><path class="a" d="M1497.843,321.05h-17.129a6.32,6.32,0,0,1-3.538-.791,5.782,5.782,0,0,1-3.008-4.84c-.068-2.831-.035-5.664-.037-8.5,0-5.286.008-10.572,0-15.858a6,6,0,0,1,3.463-5.72,6.175,6.175,0,0,1,2.925-.566c11.6,0,23.2.015,34.793-.013a6.131,6.131,0,0,1,6.154,4.478,6.845,6.845,0,0,1,.2,1.855q0,11.81,0,23.619a6.046,6.046,0,0,1-4.635,6.156,7.654,7.654,0,0,1-1.991.172Q1506.441,321.055,1497.843,321.05Zm.066-2.9q8.6,0,17.191,0c2.44,0,3.64-1.183,3.641-3.591q0-11.673,0-23.345c0-2.285-1.224-3.524-3.5-3.525q-17.325-.008-34.65,0c-2.325,0-3.549,1.228-3.55,3.556q-.007,11.639,0,23.278a4.453,4.453,0,0,0,.162,1.453,3.177,3.177,0,0,0,3.385,2.173Q1489.246,318.15,1497.909,318.145Z" transform="translate(0 -61.009)"/><path class="a" d="M1556.167,247.063a3.58,3.58,0,0,0-.468,0c-.475.063-.741-.038-.859-.6a1.847,1.847,0,0,0-1.65-1.445,6.069,6.069,0,0,0-1-.054c-8.07,0-16.14.012-24.21-.013-1.4,0-2.472.327-2.8,1.86-.05.235-.213.248-.4.247-.535,0-1.071-.016-1.6.005-.362.015-.437-.112-.41-.468a4.523,4.523,0,0,1,3.669-3.978,11.051,11.051,0,0,1,1.531-.109q12.239-.01,24.478,0a4.624,4.624,0,0,1,4.763,3.334c.019.064.032.13.048.195.248.983.219,1.023-.756,1.023Z" transform="translate(-42.13 -24.407)"/><path class="a" d="M1590.322,214.333c2.208,0,4.415-.008,6.623,0a2.767,2.767,0,0,1,2.879,2.118c.113.432.1.689-.453.632a9.865,9.865,0,0,0-1-.007c-.2,0-.386.008-.466-.26-.131-.436-.507-.537-.9-.537q-6.623-.006-13.245,0a.93.93,0,0,0-.835.328c-.12.163-.081.469-.4.464-.512-.008-1.026.014-1.536-.025-.231-.018-.113-.247-.1-.386a2.692,2.692,0,0,1,1.959-2.219,4.292,4.292,0,0,1,1.128-.113Q1587.144,214.336,1590.322,214.333Z" transform="translate(-92.432 0)"/><path class="b" d="M1595.416,359.57q0-3.646,0-7.291c0-1.976,1.039-2.57,2.753-1.557q6.443,3.809,12.871,7.646c1.384.825,1.362,2.025-.031,2.823q-6.234,3.572-12.467,7.144a7.163,7.163,0,0,1-.709.372c-1.482.641-2.41.039-2.416-1.579C1595.409,364.609,1595.416,362.089,1595.416,359.57Z" transform="translate(-105.056 -117.717)"/></g></svg>