<svg xmlns="http://www.w3.org/2000/svg" width="44.841" height="43.136" viewBox="0 0 44.841 43.136"><defs><style>.a{fill:#707070;stroke:#707070;}</style></defs><g transform="translate(-2194.651 -47.631)"><path class="a" d="M2195.152,69.24q0-7.026,0-14.052a6.839,6.839,0,0,1,7.042-7.055q12.547-.015,25.093,0a1.787,1.787,0,0,1,2.025,2.04c0,.669.029,1.34-.009,2.007-.024.435.112.616.552.688a10.471,10.471,0,0,1,6.063,3.157,10.9,10.9,0,0,1-4.413,17.941,8.992,8.992,0,0,1-1.663.385c-.434.051-.54.206-.539.627.015,4.33.009,8.659.009,12.989,0,1.728-.572,2.3-2.3,2.3q-12.34,0-24.679,0a6.882,6.882,0,0,1-7.008-5.276,10.684,10.684,0,0,1-.175-2.7Q2195.144,75.764,2195.152,69.24Zm2.267,9.024c3-1.665,3-1.665,6.448-1.665q10.778,0,21.557,0c.508,0,1.182.165,1.481-.093.352-.3.06-1,.126-1.52.058-.452-.163-.556-.558-.612a10.577,10.577,0,0,1-3.981-1.392,10.81,10.81,0,0,1-4.706-12.95,10.554,10.554,0,0,1,8.675-7.187c.421-.072.625-.19.574-.653a5.771,5.771,0,0,1,0-1.179c.042-.448-.125-.564-.562-.564q-12.166-.011-24.332-.047a4.556,4.556,0,0,0-2.866.925,4.756,4.756,0,0,0-1.855,4.017q0,11.162,0,22.324Zm22.022-14.653a8.645,8.645,0,1,0,8.524-8.627A8.677,8.677,0,0,0,2219.441,63.611Zm-5.374,24.367c4.133,0,8.267-.006,12.4.009.431,0,.594-.1.568-.553a18.032,18.032,0,0,1,0-2.124c.034-.532-.119-.69-.672-.69q-12.016-.01-24.031-.064a5.054,5.054,0,0,1-.766-.03,1.078,1.078,0,0,1-.824-1.514,1.329,1.329,0,0,1,1.367-.725c3.8.012,7.6.012,11.4.021q6.465.015,12.93.046c.454,0,.625-.109.6-.587a19.631,19.631,0,0,1,0-2.242c.033-.517-.116-.652-.642-.651q-12.046.018-24.09-.006c-.178,0-.355,0-.531.014a4.553,4.553,0,0,0,.426,9.1C2206.156,87.986,2210.111,87.978,2214.068,87.978Z" transform="translate(0 0)"/><path class="a" d="M2466.514,170.809c0,.768.017,1.536,0,2.3a1.147,1.147,0,1,1-2.274.01q-.026-2.332,0-4.665a1.165,1.165,0,0,1,1.1-1.228,1.147,1.147,0,0,1,1.164,1.218c.027.786.006,1.575.006,2.362Z" transform="translate(-237.288 -105.032)"/><path class="a" d="M2465.448,138.033a1.142,1.142,0,1,1,.058-2.284,1.143,1.143,0,0,1-.058,2.284Z" transform="translate(-237.374 -77.271)"/></g></svg>