<svg xmlns="http://www.w3.org/2000/svg" width="43.258" height="41.866" viewBox="0 0 43.258 41.866"><defs><style>.a{fill:#707070;stroke:#f8e7fc;stroke-width:0.25px;}</style></defs><g transform="translate(-655.206 908.608)"><path class="a" d="M676.709-866.882h-19.6c-1.374,0-1.773-.4-1.773-1.8q0-9.489-.009-18.978a2.652,2.652,0,0,1,.849-2.029c1.533-1.5,3.031-3.031,4.557-4.535a1.091,1.091,0,0,0,.364-.86c-.016-1.916-.011-3.833-.007-5.749,0-1.295.492-1.788,1.795-1.794,1.9-.008,3.792-.013,5.687.006a1.261,1.261,0,0,0,.971-.41c1.385-1.353,2.682-2.8,4.153-4.06a4.8,4.8,0,0,1,6.344-.015c1.45,1.279,2.786,2.689,4.152,4.062a1.3,1.3,0,0,0,1.027.424c1.875-.02,3.75-.013,5.625-.007,1.284,0,1.8.52,1.8,1.795,0,1.875.013,3.75-.008,5.625a1.28,1.28,0,0,0,.417,1.024c1.573,1.544,3.12,3.116,4.681,4.674a1.4,1.4,0,0,1,.531,1.556,1.753,1.753,0,0,0-.011.553c0,6.2-.031,12.405.023,18.607a1.683,1.683,0,0,1-1.914,1.925C689.815-866.9,683.262-866.882,676.709-866.882Zm.215-32.857c-4.1,0-8.2.007-12.3-.01-.48,0-.678.074-.675.624.024,4.121.019,8.243,0,12.365a.722.722,0,0,0,.464.754q5.99,3,11.964,6.022a1.164,1.164,0,0,0,1.162-.009q5.877-3.012,11.769-5.995a.761.761,0,0,0,.484-.8c-.016-4.1-.024-8.2.006-12.3,0-.581-.188-.66-.7-.657C685.043-899.73,680.984-899.739,676.924-899.739Zm-3.643,21.517c-.23-.127-.369-.209-.513-.282q-6.973-3.572-13.948-7.142c-.586-.3-.59-.3-.59.388q0,7.045,0,14.09a1.019,1.019,0,0,0,.092.642Zm7.3-.062c.109.216.3.252.465.333q6.936,3.51,13.874,7.015c.6.306.61.3.61-.382q0-6.952,0-13.9v-.734Zm-17.42,8.611h27.432c-.221-.135-.3-.192-.389-.237q-6.429-3.286-12.856-6.577a1.166,1.166,0,0,0-1.167.031q-6.312,3.245-12.629,6.48C663.419-869.906,663.238-869.883,663.163-869.673Zm17.147-33a30.318,30.318,0,0,0-2.124-2.271,1.965,1.965,0,0,0-2.665.026c-.749.65-1.392,1.424-2.178,2.244ZM692.673-887.7c.582-.309,1.069-.566,1.555-.825.13-.069.281-.145.116-.314-.53-.543-1.065-1.081-1.671-1.695Zm-31.6-2.767c-.583.567-1.1,1.068-1.611,1.565-.163.157-.145.265.059.37.505.258,1,.527,1.552.816Z"/><path class="a" d="M833.343-737.024c0,1.36.007,2.719,0,4.079-.007,1.141-.49,1.623-1.614,1.624q-4.141,0-8.281,0c-1.026,0-1.562-.467-1.571-1.483q-.038-4.264,0-8.528A1.334,1.334,0,0,1,823.4-742.8q4.2-.016,8.4,0a1.341,1.341,0,0,1,1.536,1.513C833.354-739.867,833.343-738.446,833.343-737.024Zm-8.588-.029c0,.8.016,1.6-.007,2.405-.011.384.132.489.5.485q2.374-.025,4.749,0c.377,0,.493-.107.489-.487q-.028-2.4,0-4.811c0-.38-.114-.49-.49-.486q-2.374.028-4.749,0c-.37,0-.511.1-.5.486C824.771-738.657,824.755-737.855,824.755-737.053Z" transform="translate(-155.04 -154.071)"/><path class="a" d="M1032.929-636.073c-.515,0-1.03.019-1.543,0a1.319,1.319,0,0,1-1.315-1.354,1.324,1.324,0,0,1,1.247-1.482c1.089-.044,2.182-.045,3.27,0a1.326,1.326,0,0,1,1.228,1.443,1.337,1.337,0,0,1-1.283,1.391c-.041,0-.082.005-.123.005h-1.481Z" transform="translate(-348.889 -250.769)"/><path class="a" d="M1032.923-721.816c.515,0,1.03-.02,1.543,0a1.322,1.322,0,0,1,1.341,1.331,1.317,1.317,0,0,1-1.171,1.49,29.419,29.419,0,0,1-3.391,0,1.3,1.3,0,0,1-1.184-1.475,1.307,1.307,0,0,1,1.319-1.349C1031.893-721.837,1032.408-721.816,1032.923-721.816Z" transform="translate(-348.879 -173.608)"/></g></svg>