<svg xmlns="http://www.w3.org/2000/svg" width="45.907" height="28.602" viewBox="0 0 45.907 28.602"><defs><style>.a{fill:#707070;}</style></defs><g transform="translate(-2309.051 841.431)"><path class="a" d="M2331.928-812.847c-7.361,0-14.722-.011-22.083.018-.676,0-.794-.193-.792-.82q.031-13.528,0-27.056c0-.61.181-.725.748-.724q22.212.023,44.425,0c.6,0,.733.172.732.746q-.027,13.56,0,27.12c0,.611-.184.731-.753.73Q2343.066-812.862,2331.928-812.847Zm.131-3.383c6.263,0,12.526-.009,18.789.015.608,0,.728-.177.726-.746q-.029-10.169,0-20.339c0-.578-.13-.75-.734-.749q-18.853.028-37.707,0c-.589,0-.7.168-.7.717q.028,10.2,0,20.4c0,.563.129.715.705.713C2319.447-816.238,2325.753-816.23,2332.059-816.23Z"/><path class="a" d="M2373.759-702.155c-5.356,0-10.712-.006-16.068.01-.482,0-.69-.088-.65-.624.051-.685.024-1.376.008-2.064-.007-.31.108-.435.412-.4.106.011.215,0,.322,0q16,0,32.008-.012c.574,0,.811.122.752.735a9.8,9.8,0,0,0,0,1.74c.044.53-.161.63-.65.629C2384.514-702.161,2379.137-702.155,2373.759-702.155Z" transform="translate(-41.787 -118.593)"/><path class="a" d="M2364.9-792.544c1.57,0,3.139.013,4.708-.008.413-.006.554.106.549.536-.022,1.87-.017,3.741,0,5.611,0,.356-.094.481-.467.48q-4.8-.02-9.61,0c-.353,0-.492-.087-.489-.464.016-1.892.019-3.784,0-5.675-.005-.43.177-.489.54-.485C2361.723-792.536,2363.313-792.544,2364.9-792.544Z" transform="translate(-44.013 -42.565)"/><path class="a" d="M2486.537-765.9c2.777,0,5.553.01,8.329-.01.474,0,.651.114.617.61a16,16,0,0,0,0,1.936c.024.439-.146.536-.554.533-2.109-.017-4.219-.008-6.328-.008-3.465,0-6.931-.009-10.4.01-.492,0-.693-.111-.656-.635a14.591,14.591,0,0,0,0-1.871c-.027-.468.156-.576.594-.573C2480.941-765.889,2483.739-765.9,2486.537-765.9Z" transform="translate(-146.73 -65.769)"/></g></svg>