<svg xmlns="http://www.w3.org/2000/svg" width="89.865" height="82.903" viewBox="0 0 89.865 82.903"><defs><style>.a{fill:#8c3ee8;}</style></defs><g transform="translate(581.243 1889.804)"><path class="a" d="M-473.026-1889.792c1.937,0,3.874-.027,5.81.007,2.2.04,3.579,1.293,3.588,3.19.009,1.917-1.361,3.159-3.553,3.22-2.613.073-2.63.073-2.6,2.707.01,1.053-.428,2.354.183,3.092s1.977.433,3.008.609a35.536,35.536,0,0,1,28.372,27.8,35.177,35.177,0,0,1-16.592,37.292,34.706,34.706,0,0,1-19.679,4.94c-1.918-.08-3.089-.925-3.475-2.394-.571-2.176.986-4.051,3.462-4.01a32.972,32.972,0,0,0,8.5-.847,28.9,28.9,0,0,0,21.514-32.547,28.843,28.843,0,0,0-35.7-23.449c-9.826,2.526-16.407,8.758-20.044,18.174a13.69,13.69,0,0,1-.522,1.278,3.123,3.123,0,0,1-4.021,1.7,3.171,3.171,0,0,1-1.8-4.1,33.293,33.293,0,0,1,5.026-9.79c.658-.868.8-1.446-.158-2.23a34.264,34.264,0,0,1-3.144-3.111c-1.481-1.575-1.561-3.4-.26-4.7,1.359-1.349,3.222-1.287,4.8.207a39.044,39.044,0,0,1,2.922,2.944c.759.886,1.3.94,2.226.159a33.625,33.625,0,0,1,14.262-6.984,32.633,32.633,0,0,1,3.68-.593c.66-.077,1-.268.974-1-.043-1.428-.035-2.859,0-4.288.014-.664-.242-.9-.894-.866a19.149,19.149,0,0,1-2.074,0,3.247,3.247,0,0,1-3.247-3.116,3.153,3.153,0,0,1,3.219-3.265c2.072-.075,4.149-.017,6.224-.017Z" transform="translate(-53.854)"/><path class="a" d="M-559.923-1718.1q8.71,0,17.42,0c1.327,0,2.557.149,3.4,1.39a3.081,3.081,0,0,1-1.716,4.84,7.491,7.491,0,0,1-1.908.227q-17.144.02-34.287.011a6.2,6.2,0,0,1-1.778-.183,3.19,3.19,0,0,1-2.449-3.248,3.223,3.223,0,0,1,2.93-2.976,13.5,13.5,0,0,1,1.517-.058Q-568.356-1718.108-559.923-1718.1Z" transform="translate(0 -124.181)"/><path class="a" d="M-529.887-1671.608q6.432,0,12.863,0a3.361,3.361,0,0,1,3.191,1.527,3.107,3.107,0,0,1-1.89,4.7,6.752,6.752,0,0,1-1.507.142q-12.724.012-25.449.007a4.452,4.452,0,0,1-2.027-.333,3.148,3.148,0,0,1-1.743-3.289,3.018,3.018,0,0,1,2.736-2.683c1.1-.11,2.21-.063,3.315-.065Q-535.143-1671.615-529.887-1671.608Z" transform="translate(-25.134 -157.806)"/><path class="a" d="M-377.086-1772.57a2.71,2.71,0,0,1-.8,2.148c-4.365,4.368-8.728,8.737-13.146,13.05a3.06,3.06,0,0,1-3.7.456,3.266,3.266,0,0,1-1.493-3.57,2.836,2.836,0,0,1,.889-1.523q6.328-6.381,12.7-12.72a3.068,3.068,0,0,1,3.685-.677A3.116,3.116,0,0,1-377.086-1772.57Z" transform="translate(-133.765 -82.495)"/><path class="a" d="M-500.139-1619.006c-2.716,0-5.434.066-8.147-.019-2.636-.082-4.165-2.148-3.295-4.331a3.289,3.289,0,0,1,3.279-2.09q8.216-.062,16.433,0a3.317,3.317,0,0,1,3.6,3.213c.017,1.8-1.43,3.165-3.588,3.213C-494.615-1618.96-497.378-1619.006-500.139-1619.006Z" transform="translate(-50.205 -191.172)"/></g></svg>