<svg xmlns="http://www.w3.org/2000/svg" width="40.368" height="40.36" viewBox="0 0 40.368 40.36"><defs><style>.a{fill:#707070;}</style></defs><g transform="translate(-806.397 1578.647)"><path class="a" d="M839.749-1568.23c1.44,0,2.747.012,4.053-.007.371-.005.5.208.635.481a19.439,19.439,0,0,1,.866,16.6c-2.922,7.269-8.446,11.5-16.14,12.648a19.191,19.191,0,0,1-14.754-3.91,19.333,19.333,0,0,1-7.667-12.445,19.494,19.494,0,0,1,3.363-15.228,20.054,20.054,0,0,1,14.256-8.438c4.106-.552,6.529.818,8.192,4.637a23.176,23.176,0,0,1,1.278,3.814,46.862,46.862,0,0,1,1.167,8.838c.031.655.221.833.864.821q3.021-.059,6.044,0c.669.015.768-.213.671-.8a17.784,17.784,0,0,0-2.07-5.64C840.285-1567.269,840.057-1567.673,839.749-1568.23Zm-13.187,11.715c-1.226,0-2.453.034-3.678-.014-.64-.025-.86.131-.82.814a42.662,42.662,0,0,0,1.446,9.231,8.176,8.176,0,0,0,1.769,3.575,1.556,1.556,0,0,0,2.507.062,5.621,5.621,0,0,0,1.308-2.151,35.979,35.979,0,0,0,1.958-10.89c.026-.527-.162-.643-.638-.634C829.131-1556.5,827.846-1556.514,826.561-1556.515Zm-.011-3.921c1.255,0,2.511-.019,3.766.009.544.012.762-.113.737-.728a40.2,40.2,0,0,0-1.436-9.318,7.946,7.946,0,0,0-1.762-3.576,1.57,1.57,0,0,0-2.621.053,5.943,5.943,0,0,0-1.194,2.021,36.722,36.722,0,0,0-1.971,10.889c-.03.5.129.668.628.659C823.981-1560.453,825.266-1560.436,826.55-1560.435Zm6.283,16.849a15.749,15.749,0,0,0,9.749-12.223c.111-.614-.082-.724-.643-.716q-3.1.042-6.209,0c-.506-.006-.7.114-.739.662-.154,1.915-.342,3.83-.583,5.736A30.356,30.356,0,0,1,832.833-1543.587Zm-12.428.159c-.28-.822-.508-1.414-.685-2.021a43.122,43.122,0,0,1-1.515-10.184c-.028-.637-.166-.92-.894-.9-2.041.054-4.085.039-6.128.006-.6-.01-.761.181-.648.748A16.385,16.385,0,0,0,820.4-1543.428Zm.016-30.093c-5.583,2.545-8.828,6.617-9.894,12.419-.111.6.17.677.662.673,1.983-.016,3.967-.041,5.949.011.778.021,1.065-.188,1.077-1a43.515,43.515,0,0,1,.676-6.428A34.225,34.225,0,0,1,820.421-1573.521Z"/><path class="a" d="M1026.375-1564.822a2.3,2.3,0,0,1-2.278-2.281,2.289,2.289,0,0,1,2.28-2.273,2.276,2.276,0,0,1,2.273,2.275A2.291,2.291,0,0,1,1026.375-1564.822Z" transform="translate(-187.121 -7.969)"/></g></svg>