<svg xmlns="http://www.w3.org/2000/svg" width="48.286" height="33.302" viewBox="0 0 48.286 33.302"><defs><style>.a{fill:#707070;}</style></defs><g transform="translate(613.462 1201.126)"><path class="a" d="M-584.077-1186.767a13.74,13.74,0,0,1,3.1,2.283c.238.248.4.22.62-.031a6.152,6.152,0,0,1,1.492-1.271c.419-.248.329-.413.078-.736a5.886,5.886,0,0,1,2.947-9.334,5.934,5.934,0,0,1,6.548,2.211,5.78,5.78,0,0,1-.013,6.919c-.369.488-.388.684.151,1.082a9.421,9.421,0,0,1,3.962,7.393c.151,2.91-1.393,4.718-4.288,5.188a37.3,37.3,0,0,1-7.028.2c-.358-.01-.548.043-.66.416-.685,2.28-2.4,3.412-4.592,3.978a33.194,33.194,0,0,1-8.895.613,25.743,25.743,0,0,1-6.222-.587c-2.255-.592-4-1.723-4.669-4.067-.129-.449-.412-.34-.708-.334a39.692,39.692,0,0,1-6.887-.217c-2.9-.45-4.422-2.246-4.323-5.162a9.3,9.3,0,0,1,4.055-7.544c.44-.319.384-.469.1-.833a5.82,5.82,0,0,1-.428-6.566,5.991,5.991,0,0,1,6.175-2.875,5.988,5.988,0,0,1,4.738,4.365,5.655,5.655,0,0,1-1.083,5.137c-.254.328-.321.5.09.744a5.544,5.544,0,0,1,1.384,1.182c.266.31.45.384.772.045a10.683,10.683,0,0,1,2.584-1.922c.4-.223.433-.327.087-.667a8.034,8.034,0,0,1-1.672-9.455,8.329,8.329,0,0,1,8.59-4.42,8.235,8.235,0,0,1,6.836,7.336A8.232,8.232,0,0,1-584.077-1186.767Zm-5.28,15.727c1.126,0,2.253.028,3.378-.007a13.053,13.053,0,0,0,4.018-.607,2.628,2.628,0,0,0,1.967-2.674,10.532,10.532,0,0,0-2.93-7.629,8.478,8.478,0,0,0-10.062-2.082,10.486,10.486,0,0,0-5.611,10.229,2.326,2.326,0,0,0,1.327,1.93,5.667,5.667,0,0,0,1.462.49A30.119,30.119,0,0,0-589.357-1171.04Zm-.005-17.011a4.939,4.939,0,0,0,5.03-4.855,5,5,0,0,0-5.034-5.1,5.014,5.014,0,0,0-4.993,4.851A4.924,4.924,0,0,0-589.362-1188.051Zm15.322,12.112a19.006,19.006,0,0,0,4.27-.252,1.577,1.577,0,0,0,1.466-1.929,6.811,6.811,0,0,0-1.6-4.019,5.331,5.331,0,0,0-8.422.009.738.738,0,0,0-.11.976,11,11,0,0,1,1.426,4.267c.068.706.338,1.016,1.074.958C-575.309-1175.978-574.674-1175.939-574.041-1175.939Zm-30.636.014c.774,0,1.547,0,2.321,0a.5.5,0,0,0,.584-.517,12.939,12.939,0,0,1,1.586-4.881.471.471,0,0,0-.029-.621,5.539,5.539,0,0,0-3.838-2.223,5.987,5.987,0,0,0-6.257,6.168c0,1.152.359,1.591,1.5,1.82A19.761,19.761,0,0,0-604.677-1175.925Zm-2.707-14.308a2.783,2.783,0,0,0,2.842,2.84,2.839,2.839,0,0,0,2.8-2.762,2.811,2.811,0,0,0-2.863-2.832A2.766,2.766,0,0,0-607.385-1190.233Zm30.465-.016a2.773,2.773,0,0,0,2.82,2.857,2.85,2.85,0,0,0,2.819-2.746,2.818,2.818,0,0,0-2.85-2.849A2.753,2.753,0,0,0-576.919-1190.249Z" transform="translate(0 0)"/></g></svg>