<svg xmlns="http://www.w3.org/2000/svg" width="50.012" height="28.602" viewBox="0 0 50.012 28.602"><defs><style>.a{fill:#707070;}</style></defs><g transform="translate(-1527.057 729.438)"><path class="a" d="M1562.806-723.126c.631-.23,1.229-.441,1.823-.664q4.786-1.795,9.572-3.593c1.789-.669,2.867.08,2.867,1.983q0,10.233,0,20.466c0,1.94-1.081,2.683-2.913,2q-5.217-1.95-10.43-3.91a2.1,2.1,0,0,0-.891-.255,15.878,15.878,0,0,1-.188,1.969,5.284,5.284,0,0,1-5.455,4.27q-12.233.05-24.466,0a5.365,5.365,0,0,1-5.66-5.736q-.013-8.54,0-17.08a5.386,5.386,0,0,1,5.792-5.755q11.964-.011,23.928,0c3.8,0,5.923,2.077,6,5.853C1562.781-723.456,1562.794-723.33,1562.806-723.126Zm-17.914,18.678q6,0,12,0c1.711,0,2.313-.6,2.314-2.314q0-8.386,0-16.772c0-1.7-.627-2.332-2.308-2.333q-11.964,0-23.927,0c-1.68,0-2.313.634-2.314,2.323q0,8.386,0,16.772c0,1.706.614,2.321,2.307,2.323Q1538.929-704.444,1544.892-704.447Zm28.607-10.7c0-2.513-.008-5.027.007-7.54,0-.438-.058-.6-.541-.417q-4.845,1.84-9.707,3.636a.649.649,0,0,0-.488.733q.022,3.616,0,7.232a.6.6,0,0,0,.459.665q4.827,1.779,9.637,3.6c.532.2.646.1.641-.449C1573.486-710.171,1573.5-712.659,1573.5-715.146Z"/><path class="a" d="M1611.659-644.817c-1,0-1.995-.016-2.991.008-.441.01-.657-.093-.637-.591.034-.842.02-1.687.006-2.531-.006-.359.122-.491.49-.488q3.107.02,6.213,0c.386,0,.475.16.468.506-.016.843-.026,1.688,0,2.531.015.432-.124.584-.561.573C1613.654-644.834,1612.656-644.817,1611.659-644.817Z" transform="translate(-73.848 -73.89)"/></g></svg>