<?xml version="1.0" encoding="utf-8"?>
<!-- Generator: Adobe Illustrator 25.4.1, SVG Export Plug-In . SVG Version: 6.00 Build 0)  -->
<svg version="1.1" id="Layer_1" xmlns="http://www.w3.org/2000/svg" xmlns:xlink="http://www.w3.org/1999/xlink" x="0px" y="0px"
	 viewBox="0 0 1074 320" enable-background="new 0 0 1074 320" xml:space="preserve">
<g>
	<g>
		<path fill="#E6A785" d="M634.8,92.89c1.35,2.86,2.26,5.86,2.9,8.95c0.89,4.31,2.14,8.52,3.25,12.77
			c1.29,4.96,1.34,9.99,0.96,15.06c-0.35,4.66-0.92,9.27-2.08,13.81c-1.31,5.11-3.38,9.94-5.46,14.76
			c-3.08,7.12-5.39,14.51-7.73,21.89c-1.87,5.9-3.72,11.8-5.57,17.7c-1.35,4.31-1.51,8.7-1.02,13.16c0.6,5.48,1.09,10.98,1.72,16.46
			c0.6,5.21,1.31,10.4,2.01,15.6c0.87,6.51,1.75,13.01,2.66,19.51c1.21,8.66,2.36,17.32,4.06,25.9c2.02,10.18,4.07,20.35,5.53,30.62
			c0.04,0.31,0.14,0.61,0.2,0.91c-15.82,0-31.65,0-47.47,0c-0.17-6.38-0.29-12.76-0.51-19.14c-0.17-5.09-0.42-10.18-0.7-15.26
			c-0.39-7.1-1.11-14.17-2.01-21.22c-0.54-4.19-1.02-8.4-1.28-12.63c-0.36-5.86-0.58-11.72-0.94-17.58
			c-0.24-3.96-0.32-7.93-0.49-11.89c-0.15-3.58-0.01-7.17-0.21-10.74c-0.09-1.62-0.44-3.23-0.69-4.84c-0.5-3.29-0.35-6.52,0.82-9.66
			c2.29-6.13,3.31-12.52,4.15-18.97c0.46-3.54,0.93-7.1,2.32-10.44c0.93-2.24,2.29-4.25,3.65-6.24c1.34-1.97,1.64-3.94,1.1-6.29
			c-1.85-8.03-4.8-15.68-7.77-23.33c-1-2.57-1.9-5.17-2.85-7.76c0.6-0.01,0.82,0.53,1.2,0.83c0.83,0.64,1.72,1.16,2.77,0.56
			c1.34-0.78,1.93-2.07,2.11-3.56c0.02-0.18,0.05-0.41-0.17-0.51s-0.37,0.07-0.49,0.21c-0.49,0.55-0.94,1.13-1.44,1.66
			c-1.19,1.24-1.47,1.24-2.71,0.05c-0.55-0.53-1.1-0.99-1.93-0.87c-0.77-1.79-1.55-3.58-1.66-5.55c-0.08-1.47,0.56-1.98,2-1.75
			c1.9,0.31,3.12,1.71,4.42,2.9c3.12,2.84,5.42,6.3,7.22,10.1c1.99,4.18,4.37,8.14,6.92,12.07c0.54-0.59,0.41-1.41,0.94-1.89
			c0.12,0.64-0.17,1.22-0.31,1.82c-0.15,0.62-0.2,1.23-0.05,1.84c0.64,2.61,2.13,4.81,3.54,7.03c0.56,0.88,1.81,0.9,3.06,0.27
			c0.99-0.49,1.42-1.18,1.13-2.35c-1.04-4.21-2.36-8.34-3.21-12.59c-0.15-0.74-0.62-1.26-1.51-1.12c0.45-0.73-0.05-1.28-0.42-1.79
			c-2.71-3.79-5.42-7.59-8.34-11.23c-2.5-3.12-4.97-6.27-7.45-9.4c-0.08-0.09-0.16-0.18-0.24-0.27l0.01,0.02
			c-0.99-1.58-1.97-3.16-2.97-4.73c-1.36-2.15-2.49-4.39-3.04-6.89c-0.39-1.8,0.53-2.7,2.29-2.31c1.54,0.34,2.91,1.06,4.24,1.88
			c1.23,0.75,2.49,1.46,3.84,2.25c-0.01-0.7-0.45-0.9-0.73-1.18c-1.73-1.78-3.76-3.25-5.27-5.27c-1.35-1.8-2.8-3.53-3.4-5.77
			c-0.42-1.59,0.12-2.77,1.54-2.95c1.3-0.16,2.65-0.22,3.95,0.05c2.43,0.51,4.6,1.63,6.69,2.93c3.53,2.2,6.85,4.67,10.02,7.37
			c3.43,2.91,7.05,5.59,10.2,8.84c1.27,1.31,2.69,2.46,4.04,3.69c0.99,1.33,2.49,2.14,3.48,3.47c-0.42,0.32-0.05,0.53,0.1,0.76
			c1.87,2.92,3.44,5.97,4.33,9.36c1.26,4.79,1.6,9.68,1.87,14.59c0.09,1.66,0.26,3.32,0.52,4.96c0.07,0.43-0.08,1.35,0.64,1.26
			c0.47-0.06,0.24-0.89,0.21-1.35c-0.21-4.1-0.47-8.2-0.68-12.3c-0.11-2.1-0.47-4.14-0.94-6.18c-0.57-2.49-1.75-4.72-2.82-7
			c1-3.1,0.96-6.25,0.36-9.4c-0.31-1.66-0.39-3.38-1.24-4.91c-0.02-0.31,0-0.63-0.08-0.93c-1.24-5.07-2.29-10.19-3.16-15.34
			c-0.27-1.6-0.69-3.18-0.55-4.84c0.09-1.13,0.88-2.04,1.97-2.09c1.36-0.06,2.62,0.3,3.64,1.26c1.88,1.77,2.88,4.12,4.05,6.35
			c0.63,1.2,1.22,2.42,1.82,3.63c0.27,0.83,0.53,1.65,0.8,2.48c-0.74,0.02-1.48,0.13-2.21,0.05c-1.53-0.17-3.14-0.21-4.15-1.68
			c-0.37-0.54-0.72-1.1-1.05-1.67c-1.47-2.58-2.31-5.41-3.3-8.19c-0.11-0.3-0.07-0.91-0.66-0.77c-0.57,0.14-0.29,0.59-0.24,0.96
			c0.51,3.55,1.87,6.79,3.63,9.86c1.17,2.04,2.94,3.18,5.39,2.9C632.88,93.46,633.87,93.3,634.8,92.89z M598.57,104.81
			c0.82,1.05,1.81,1.59,2.65,2.3c2.7,2.27,5.49,4.44,8.12,6.79c2.61,2.33,4.99,4.86,6.71,8c2.16,3.95,2.82,8.26,3.56,12.58
			c0.43,2.48,0.8,4.97,1.63,7.36c0.09,0.25,0.15,0.59,0.51,0.48c0.28-0.08,0.19-0.39,0.18-0.61c-0.01-0.23-0.08-0.46-0.12-0.68
			c-0.58-3.39-1.26-6.77-1.72-10.18c-0.73-5.42-2.96-10.12-6.55-14.16c-3.47-3.91-7.75-6.92-11.84-10.14
			C600.85,105.87,600,105,598.57,104.81z M593.99,95.46c3.3,0,4.36-0.71,4.86-2.62c0.16-0.59,0.49-1.42-0.07-1.69
			c-0.72-0.34-1.03,0.6-1.24,1.09c-0.59,1.35-1.62,1.59-2.92,1.6c-1.32,0.01-2.51-0.42-3.72-0.81c-1.29-0.41-2.56-0.86-3.85-1.27
			c-0.24-0.07-0.58-0.15-0.74,0.14c-0.15,0.27,0.13,0.41,0.32,0.52C589.22,93.93,591.83,95.36,593.99,95.46z M592.04,106.68
			c0.96,0.09,1.76-0.17,2.19-1.13c0.13-0.29,0.25-0.62-0.03-0.86c-0.26-0.22-0.5,0.01-0.72,0.17c-0.39,0.27-0.79,0.51-1.29,0.36
			c-0.85-0.24-1.7-0.48-2.48-0.94c-1.39-0.84-2.79-1.67-4.22-2.45c-0.28-0.15-0.73-0.49-1.03-0.01c-0.26,0.42,0.18,0.63,0.41,0.85
			c1.54,1.43,3.3,2.56,5.15,3.52C590.61,106.5,591.29,106.76,592.04,106.68z M623.51,115.27c-0.09-0.26-0.32-0.36-0.61-0.39
			c-1.18-0.14-4.01,1.72-4.37,2.91c-0.11,0.36-0.27,0.8,0.22,1.01c0.43,0.18,0.76-0.11,0.97-0.45c0.78-1.23,1.91-2,3.24-2.52
			C623.23,115.72,623.49,115.66,623.51,115.27z M636.8,120.95c-0.16,0-0.31-0.01-0.47,0c-0.6,0.03-1.45-0.12-1.44,0.72
			c0.01,0.69,0.84,0.63,1.4,0.68c1,0.08,2.02-0.15,3.01,0.15c0.34,0.1,0.66,0.09,0.79-0.26c0.13-0.37-0.19-0.61-0.46-0.71
			C638.72,121.19,637.8,120.89,636.8,120.95z M615.49,124.89c-1.16,0.21-2.43,0.26-3.41,1.15c-0.26,0.24-0.76,0.47-0.51,0.93
			c0.3,0.54,0.75,0.21,1.12,0.01c1.14-0.61,2.33-1.04,3.64-1.12c0.22-0.01,0.52,0.07,0.59-0.23c0.07-0.32-0.21-0.51-0.45-0.6
			C616.19,124.93,615.86,124.94,615.49,124.89z M638.37,118.15c-1.04-0.03-1.95,0.16-2.83,0.47c-0.31,0.11-0.54,0.36-0.42,0.73
			c0.11,0.36,0.43,0.51,0.74,0.41c1.32-0.45,2.67-0.47,4.03-0.44c0.24,0,0.48-0.06,0.49-0.37c0.01-0.27-0.17-0.43-0.4-0.52
			C639.43,118.21,638.87,118.07,638.37,118.15z M613.95,122.35c-0.09-0.38-0.42-0.49-0.79-0.45c-1.24,0.15-2.41,0.5-3.4,1.31
			c-0.3,0.25-0.6,0.57-0.3,0.99c0.31,0.42,0.69,0.22,1.03,0.03c1-0.58,2-1.16,3.14-1.42C613.86,122.75,613.98,122.63,613.95,122.35z
			 M591.4,138.89c0.08-0.03,0.16-0.04,0.22-0.08c1.3-0.89,2.53-1.9,3.94-2.63c0.18-0.09,0.22-0.34,0.1-0.51
			c-0.07-0.1-0.25-0.17-0.39-0.18c-0.74-0.07-3.98,2.09-4.15,2.78C591.07,138.51,591,138.82,591.4,138.89z M624.46,117.9
			c-0.91,0.04-1.77,0.39-2.6,0.79c-0.39,0.19-0.75,0.55-0.54,1.03c0.23,0.52,0.72,0.33,1.1,0.17c0.75-0.3,1.49-0.65,2.24-0.96
			c0.35-0.15,0.85-0.19,0.74-0.71C625.3,117.75,624.82,117.97,624.46,117.9z M593.78,141.76c0.08-0.04,0.26-0.06,0.36-0.16
			c0.9-0.86,1.9-1.58,2.94-2.26c0.17-0.11,0.32-0.29,0.17-0.47c-0.16-0.2-0.43-0.15-0.65-0.06c-1.16,0.48-2.11,1.28-3.15,1.96
			c-0.25,0.16-0.29,0.45-0.2,0.73C593.32,141.72,593.51,141.75,593.78,141.76z"/>
		<path fill="#E076A3" d="M633.67,89.64c-0.61-1.21-1.2-2.43-1.82-3.63c-1.17-2.23-2.17-4.58-4.05-6.35
			c-1.02-0.96-2.28-1.31-3.64-1.26c-1.09,0.04-1.87,0.96-1.97,2.09c-0.14,1.65,0.28,3.23,0.55,4.84c0.87,5.15,1.92,10.27,3.16,15.34
			c0.07,0.3,0.05,0.62,0.08,0.93c-1.75,2.42-3.8,4.57-5.83,6.75c-1.35-1.22-2.77-2.38-4.04-3.69c-3.15-3.24-6.77-5.92-10.2-8.84
			c-3.17-2.7-6.49-5.17-10.02-7.37c-2.09-1.3-4.26-2.42-6.69-2.93c-1.3-0.27-2.65-0.21-3.95-0.05c-1.41,0.18-1.96,1.36-1.54,2.95
			c0.6,2.24,2.05,3.97,3.4,5.77c1.51,2.01,3.54,3.48,5.27,5.27c0.28,0.29,0.72,0.49,0.73,1.18c-1.35-0.79-2.6-1.5-3.84-2.25
			c-1.33-0.81-2.7-1.53-4.24-1.88c-1.76-0.39-2.68,0.51-2.29,2.31c0.54,2.5,1.67,4.75,3.04,6.89c1,1.57,1.98,3.16,2.97,4.73
			c-1.34-0.33-2.43-1.18-3.61-1.83c-4.97-2.76-9.89-5.6-14.34-9.18c-6.23-5.01-10.81-11.17-12.25-19.16
			c-1.49-8.23,0.02-15.82,5.64-22.4c5.12-6,11.64-9.16,19.36-9.82c4.36-0.38,8.41,0.83,11.77,3.84c0.44,0.39,0.87,0.78,1.31,1.16
			c0.41,0.35,0.62,0.27,0.79-0.28c1.97-6.57,6.43-10.51,13.02-12.06c7.61-1.8,14.64-0.46,20.8,4.43c4.2,3.34,6.66,7.84,8.01,13
			c0.91,3.48,1.71,6.96,1.38,10.59c-0.43,4.73-1.77,9.23-3.57,13.6C636.02,84.82,635.04,87.31,633.67,89.64z"/>
		<path fill="#C49176" d="M605.18,133.13c0.89-0.15,1.36,0.38,1.51,1.12c0.85,4.25,2.17,8.39,3.21,12.59
			c0.29,1.17-0.14,1.86-1.13,2.35c-1.25,0.63-2.5,0.61-3.06-0.27c-1.41-2.22-2.9-4.42-3.54-7.03c-0.15-0.61-0.1-1.22,0.05-1.84
			c0.14-0.59,0.43-1.17,0.31-1.82v0.02c0.31-0.15,0.26-0.43,0.26-0.69l0,0c0.19-0.11,0.23-0.28,0.22-0.48v0.01
			c0.21-0.1,0.25-0.29,0.23-0.49C603.72,135.35,604.31,134.16,605.18,133.13z"/>
		<path fill="#C59176" d="M634.8,92.89c-0.93,0.41-1.93,0.57-2.92,0.69c-2.45,0.28-4.22-0.86-5.39-2.9
			c-1.76-3.08-3.12-6.32-3.63-9.86c-0.05-0.37-0.34-0.82,0.24-0.96c0.59-0.14,0.56,0.47,0.66,0.77c0.98,2.78,1.82,5.61,3.3,8.19
			c0.33,0.57,0.67,1.13,1.05,1.67c1.01,1.47,2.62,1.51,4.15,1.68c0.73,0.08,1.47-0.03,2.21-0.05
			C634.78,92.28,634.83,92.57,634.8,92.89z"/>
		<path fill="#C59176" d="M582.68,122.37c0.83-0.12,1.38,0.34,1.93,0.87c1.24,1.19,1.52,1.18,2.71-0.05
			c0.51-0.53,0.96-1.11,1.44-1.66c0.12-0.14,0.27-0.31,0.49-0.21s0.19,0.33,0.17,0.51c-0.18,1.49-0.76,2.78-2.11,3.56
			c-1.04,0.61-1.94,0.08-2.77-0.56c-0.39-0.3-0.61-0.84-1.2-0.83l0,0c0.02-0.2-0.03-0.37-0.21-0.48c-0.03-0.05-0.05-0.1-0.04-0.16
			c-0.06-0.1-0.12-0.2-0.17-0.31C582.85,122.83,582.77,122.6,582.68,122.37z"/>
		<path fill="#E6A785" d="M602.79,137.57c0,0.26,0.04,0.54-0.26,0.69C602.52,137.99,602.52,137.73,602.79,137.57z"/>
		<path fill="#E6A785" d="M583.15,123.52c0.19,0.11,0.23,0.28,0.21,0.48C583.16,123.9,583.13,123.72,583.15,123.52z"/>
		<path fill="#E6A785" d="M603.24,136.6c0.02,0.21-0.02,0.39-0.23,0.49C603,136.89,603.05,136.71,603.24,136.6z"/>
		<path fill="#E6A785" d="M603.01,137.09c0.01,0.2-0.03,0.37-0.22,0.48C602.77,137.37,602.82,137.19,603.01,137.09z"/>
		<path fill="#E076A3" d="M588.73,110.44c0.08,0.09,0.16,0.18,0.24,0.27C588.89,110.62,588.81,110.53,588.73,110.44z"/>
		<path fill="#E6A785" d="M582.93,123.06c0.06,0.1,0.12,0.2,0.17,0.31C583.05,123.26,582.99,123.16,582.93,123.06z"/>
		<path fill="#C79277" d="M598.57,104.81c1.43,0.19,2.28,1.06,3.15,1.74c4.09,3.21,8.37,6.23,11.84,10.14
			c3.59,4.04,5.82,8.75,6.55,14.16c0.46,3.41,1.14,6.79,1.72,10.18c0.04,0.23,0.11,0.46,0.12,0.68c0.01,0.22,0.09,0.53-0.18,0.61
			c-0.37,0.11-0.42-0.23-0.51-0.48c-0.84-2.39-1.21-4.88-1.63-7.36c-0.74-4.32-1.41-8.63-3.56-12.58c-1.72-3.15-4.1-5.67-6.71-8
			c-2.63-2.35-5.42-4.52-8.12-6.79C600.38,106.4,599.4,105.86,598.57,104.81z"/>
		<path fill="#C69277" d="M623.62,111.81c1.39,1.11,2.12,2.75,3.23,4.09c1.07,2.28,2.25,4.51,2.82,7c0.47,2.04,0.83,4.09,0.94,6.18
			c0.21,4.1,0.47,8.2,0.68,12.3c0.02,0.47,0.25,1.29-0.21,1.35c-0.71,0.09-0.57-0.82-0.64-1.26c-0.26-1.64-0.43-3.3-0.52-4.96
			c-0.27-4.91-0.61-9.8-1.87-14.59c-0.89-3.39-2.47-6.44-4.33-9.36C623.57,112.34,623.19,112.13,623.62,111.81z"/>
		<path fill="#C59176" d="M593.99,95.46c-2.17-0.1-4.78-1.54-7.35-3.05c-0.2-0.12-0.47-0.25-0.32-0.52c0.15-0.29,0.5-0.21,0.74-0.14
			c1.29,0.41,2.57,0.86,3.85,1.27c1.21,0.39,2.4,0.82,3.72,0.81c1.3-0.01,2.33-0.25,2.92-1.6c0.21-0.48,0.52-1.43,1.24-1.09
			c0.57,0.27,0.23,1.1,0.07,1.69C598.36,94.75,597.29,95.46,593.99,95.46z"/>
		<path fill="#C59176" d="M592.04,106.68c-0.74,0.08-1.42-0.18-2.02-0.49c-1.85-0.96-3.61-2.09-5.15-3.52
			c-0.23-0.21-0.67-0.43-0.41-0.85c0.3-0.48,0.76-0.14,1.03,0.01c1.43,0.78,2.82,1.61,4.22,2.45c0.77,0.47,1.62,0.7,2.48,0.94
			c0.5,0.14,0.91-0.1,1.29-0.36c0.22-0.16,0.46-0.39,0.72-0.17c0.28,0.24,0.16,0.56,0.03,0.86
			C593.79,106.51,593,106.77,592.04,106.68z"/>
		<path fill="#C69277" d="M623.51,115.27c-0.02,0.39-0.29,0.45-0.55,0.55c-1.33,0.52-2.46,1.29-3.24,2.52
			c-0.22,0.34-0.54,0.63-0.97,0.45c-0.49-0.2-0.32-0.65-0.22-1.01c0.36-1.19,3.19-3.05,4.37-2.91
			C623.2,114.91,623.42,115.01,623.51,115.27z"/>
		<path fill="#C69277" d="M636.8,120.95c0.99-0.07,1.92,0.24,2.83,0.57c0.28,0.1,0.59,0.34,0.46,0.71
			c-0.12,0.36-0.45,0.37-0.79,0.26c-0.99-0.3-2.01-0.07-3.01-0.15c-0.56-0.05-1.38,0.01-1.4-0.68c-0.01-0.84,0.84-0.7,1.44-0.72
			C636.49,120.95,636.64,120.95,636.8,120.95z"/>
		<path fill="#C69277" d="M615.49,124.89c0.37,0.05,0.69,0.04,0.97,0.15c0.24,0.09,0.52,0.27,0.45,0.6
			c-0.07,0.3-0.37,0.21-0.59,0.23c-1.3,0.08-2.49,0.51-3.64,1.12c-0.36,0.19-0.81,0.52-1.12-0.01c-0.26-0.46,0.25-0.69,0.51-0.93
			C613.06,125.15,614.33,125.1,615.49,124.89z"/>
		<path fill="#C69277" d="M638.37,118.15c0.5-0.07,1.06,0.07,1.61,0.28c0.23,0.09,0.41,0.25,0.4,0.52
			c-0.01,0.31-0.25,0.37-0.49,0.37c-1.36-0.03-2.72,0-4.03,0.44c-0.31,0.11-0.63-0.05-0.74-0.41c-0.11-0.37,0.11-0.61,0.42-0.73
			C636.42,118.3,637.33,118.12,638.37,118.15z"/>
		<path fill="#C59176" d="M613.95,122.35c0.03,0.28-0.1,0.4-0.31,0.45c-1.14,0.26-2.14,0.84-3.14,1.42c-0.34,0.2-0.73,0.4-1.03-0.03
			c-0.31-0.42,0-0.74,0.3-0.99c0.98-0.81,2.16-1.16,3.4-1.31C613.53,121.86,613.86,121.97,613.95,122.35z"/>
		<path fill="#C79377" d="M591.4,138.89c-0.4-0.07-0.34-0.38-0.27-0.63c0.17-0.69,3.41-2.85,4.15-2.78
			c0.14,0.01,0.32,0.08,0.39,0.18c0.12,0.17,0.07,0.42-0.1,0.51c-1.42,0.72-2.64,1.73-3.94,2.63
			C591.56,138.85,591.48,138.86,591.4,138.89z"/>
		<path fill="#C59176" d="M624.46,117.9c0.36,0.07,0.84-0.15,0.94,0.32c0.11,0.52-0.39,0.56-0.74,0.71
			c-0.75,0.31-1.48,0.66-2.24,0.96c-0.38,0.15-0.87,0.35-1.1-0.17c-0.21-0.48,0.15-0.83,0.54-1.03
			C622.69,118.28,623.56,117.94,624.46,117.9z"/>
		<path fill="#C89377" d="M593.78,141.76c-0.26-0.02-0.46-0.04-0.53-0.27c-0.09-0.29-0.05-0.57,0.2-0.73
			c1.04-0.67,1.99-1.48,3.15-1.96c0.22-0.09,0.49-0.14,0.65,0.06c0.15,0.18,0,0.36-0.17,0.47c-1.04,0.67-2.04,1.39-2.94,2.26
			C594.03,141.7,593.86,141.72,593.78,141.76z"/>
	</g>
</g>
<g>
	<g>
		<path fill="#92B4DA" d="M370.28,233.39c0.2,0.14,0.39,0.33,0.61,0.41c2.68,0.96,3.86,2.93,3.91,5.69
			c0.07,3.72-0.28,7.41-0.65,11.11c-0.35,3.53-0.69,7.05-1.07,10.58c-0.46,4.34-0.96,8.68-1.41,13.03c-0.23,2.3-0.38,4.6-0.57,6.9
			c-0.4,4.93-0.81,9.86-1.2,14.79c-0.2,2.51-0.37,5.02-0.54,7.53c-0.29,4.36-0.84,8.69-1.37,13.03c-0.14,1.19-0.27,2.37-0.4,3.56
			c-24.25,0-48.51,0-72.76,0c1.01-5.85,2.31-11.63,3.72-17.4c2.97-12.17,5.3-24.49,8.44-36.62c2.33-8.99,5.14-17.84,7.84-26.72
			c1.5-4.94,3.15-9.82,4.87-14.69c0.62-1.76,1.56-3,3.66-2.76c5.16,0.46,10.29,1.21,15.41,2.02c7.73,1.23,15.23,3.22,22.51,6.07
			C364.28,231.08,367.28,232.23,370.28,233.39z"/>
		<path fill="#EDC3B4" d="M370.28,233.39c-3-1.16-6-2.31-9-3.48c-7.28-2.86-14.78-4.85-22.51-6.07c-5.12-0.81-10.24-1.56-15.41-2.02
			c2.35-8.96,5.04-17.81,9.4-26.04c2.69-5.07,5.6-10.03,8.26-15.12c3.3-6.3,6.19-12.79,8.75-19.42c2.33-6.05,4.8-12.04,7.55-17.92
			c2.14-4.57,4.3-9.12,6.65-13.59c2.52-4.78,5.79-9.02,9.09-13.26c3.97-5.09,8.21-9.92,12.75-14.51c0.21-0.21,0.39-0.43,0.43-0.74
			c1.49-1.18,2.73-2.62,4.01-4.01c1.47-1.4,2.95-2.8,4.42-4.2c-0.08,0.86-0.01,1.64,0.94,2.04c1.57,0.67,3.12,0.49,4.45-0.45
			c3.01-2.13,4.8-5.24,6.43-8.45c0.16-0.31,0.25-0.76-0.14-1c-0.36-0.22-0.63,0.11-0.83,0.35c-1.42,1.71-2.78,3.46-4.24,5.13
			c-1.29,1.47-2.7,2.86-4.91,2.54c-0.57-0.08-1.14-0.15-1.71-0.17c0-0.53,0.44-0.77,0.74-1.1c0.77-0.86,1.58-1.69,2.37-2.52
			c1.99-2.08,3.81-4.37,6.28-5.94c1.08-0.69,2.18-0.51,3.14,0.33c1.35,1.19,1.59,2.79,1.58,4.39c-0.01,2.1-0.19,4.2-0.23,6.3
			c-0.06,3.86-1.4,7.31-3.58,10.48c-3.39,4.93-7.56,9.15-11.82,13.3c-0.41,0.4-0.92,0.73-1.04,1.35c-0.12,0.03-0.29,0.02-0.35,0.09
			c-1.94,2.72-3.95,5.32-3.56,9.05c0.57,5.41,0.85,10.85,1.25,16.28c0.27,3.66,0.5,7.32,0.79,10.98c0.54,6.82,1.14,13.64,1.66,20.46
			c0.3,3.91,2.41,6.17,6.28,6.73c2.72,0.39,5.45,0.12,8.16,0.3c-6.96,6.85-15.39,11.74-23.19,17.47c-1.39,1.02-2.75,2.1-4.08,3.22
			c-0.85,0.71-1.15,1.78-1.53,2.78C374.29,215.54,372.08,224.4,370.28,233.39z M368.38,208.73c0.05-0.12,0.1-0.24,0.15-0.35
			c-0.53-0.28-1.06-0.57-1.59-0.84c-3.63-1.82-7.08-3.92-10.06-6.69c-4.26-3.97-7.95-8.38-10.14-13.87
			c-0.09-0.23-0.19-0.54-0.48-0.45c-0.39,0.11-0.23,0.46-0.18,0.73c0.05,0.24,0.14,0.47,0.23,0.71c1.53,4.09,4.18,7.47,6.95,10.75
			c3.03,3.58,6.85,6.18,10.98,8.33C365.56,207.72,366.83,208.61,368.38,208.73z M359.95,181.45c2.88,0.14,5.54-0.74,8.18-1.69
			c0.54-0.19,1.5-0.45,1.27-1.07c-0.21-0.56-0.99,0.06-1.49,0.21c-3.84,1.19-7.7,1.92-11.75,1.06c-2.84-0.6-5.57-1.42-8.15-2.75
			c-0.35-0.18-0.84-0.52-1.09-0.07c-0.24,0.43,0.37,0.56,0.64,0.74C351.3,180.41,355.54,181.21,359.95,181.45z M361.95,200.6
			c-1-1.35-2.23-1.93-3.2-2.8c-3.81-3.46-6.69-7.59-9.12-12.09c-0.16-0.29-0.26-0.88-0.72-0.65c-0.39,0.19-0.12,0.66,0.03,0.99
			c0.09,0.19,0.18,0.37,0.27,0.56c2.1,4.58,5.15,8.44,8.91,11.75C359.16,199.26,360.22,200.2,361.95,200.6z M384.14,166.18
			c0.66-0.08,0.97-0.63,1.31-1.04c1.35-1.63,2.34-3.49,3.27-5.38c0.12-0.25,0.39-0.6,0.07-0.77c-0.42-0.24-0.52,0.26-0.68,0.5
			c-1.22,1.81-2.44,3.62-3.65,5.45C384.23,165.29,383.86,165.64,384.14,166.18z"/>
		<path fill="#47A58B" d="M390.25,97.21c-1.28,1.39-2.52,2.83-4.01,4.01c-0.58-7.94-1.2-15.89-1.73-23.83
			c-0.18-2.67,0.69-3.95,3.13-5.03c2.53-1.12,5.28-1.31,7.97-1.69c8.06-1.14,16.16-1.91,24.26-2.7c4.82-0.47,9.65-0.6,14.49-0.56
			c4.03,0.03,6.16,2.32,6.74,6.91c0.59,4.67,1.22,9.33,1.84,14c0.23,2.16,0.46,4.32,0.7,6.48c0.22,1.9,0.46,3.8,0.69,5.7
			c0.04,1.15-0.13,2.32,0.28,3.44c0.01,0.66-0.03,1.33,0.04,1.98c0.29,2.95,0.61,5.9,0.93,8.85c0.36,3.4,0.73,6.8,1.1,10.21
			c0.55,5.04,1.08,10.09,1.66,15.13c0.29,2.53,0.35,5.09,0.89,7.6c0.32,3.57,0.62,7.15,0.95,10.72c0.48,5.18,1.04,10.36,0.86,15.58
			c-0.09,2.69-2.1,5.03-4.89,5.66c-4.85,1.09-9.79,1.5-14.72,1.98c-7.64,0.74-15.35,0.62-22.97,1.72c-0.69,0.1-1.4,0.09-2.1,0.14
			c-2.72-0.18-5.44,0.09-8.16-0.3c-3.86-0.56-5.98-2.82-6.28-6.73c-0.52-6.82-1.12-13.64-1.66-20.46
			c-0.29-3.66-0.52-7.32-0.79-10.98c-0.4-5.43-0.68-10.87-1.25-16.28c-0.39-3.73,1.62-6.34,3.56-9.05c0.05-0.08,0.23-0.06,0.35-0.09
			c0.2,2.93,0.38,5.85,0.61,8.78c0.54,6.83,1.13,13.66,1.67,20.49c0.43,5.39,0.86,10.78,1.2,16.18c0.07,1.08,0.44,1.31,1.41,1.23
			c3.79-0.29,7.57-0.53,11.36-0.81c3.13-0.23,6.26-0.44,9.38-0.73c6.74-0.63,13.47-1.3,20.2-1.97c1.85-0.18,3.69-0.39,5.53-0.62
			c0.36-0.04,0.88,0.03,0.76-0.67c-0.12-0.73-0.12-1.48-0.21-2.22c-0.63-5.36-1.35-10.72-1.88-16.09c-0.66-6.69-1.2-13.4-1.75-20.1
			c-0.52-6.29-1.04-12.59-1.48-18.88c-0.52-7.41-1.11-14.81-2.28-22.15c-0.41-2.57-0.8-5.14-1.28-7.69
			c-0.3-1.56-0.84-1.94-2.13-1.88c-5.65,0.28-11.3,0.55-16.95,0.89c-5.93,0.35-11.86,0.77-17.75,1.56
			c-2.66,0.36-5.31,0.81-7.77,1.96c-0.68,0.32-1.37,0.64-1.54,1.48c-0.26,1.35-0.32,2.7-0.21,4.07
			C389.42,87.34,389.83,92.27,390.25,97.21z M425.51,171.87c0-2.63-2.04-4.84-4.46-4.86c-2.92-0.01-5.29,2.34-5.29,5.26
			c0,2.5,2.11,4.43,4.84,4.43C423.58,176.71,425.51,174.81,425.51,171.87z M428.64,172.61c-0.35,1.75-0.9,3.31-2.61,4.15
			c-0.22,0.11-0.39,0.33-0.25,0.62c0.07,0.16,0.22,0.25,0.4,0.2c1.07-0.26,1.86-0.92,2.33-1.88
			C428.98,174.72,429.47,173.71,428.64,172.61z"/>
		<path fill="#EDC4B4" d="M449.22,147.68c-0.54-2.5-0.6-5.06-0.89-7.6c-0.57-5.04-1.11-10.09-1.66-15.13
			c-0.37-3.4-0.74-6.8-1.1-10.21c-0.32-2.95-0.63-5.9-0.93-8.85c-0.07-0.66-0.03-1.32-0.04-1.98c4.04-2.07,7.96-4.39,12.23-5.99
			c2.67-0.99,5.35-1.54,8.23-1.01c2.94,0.54,3.42,2.92,2.56,5.31c-0.68,1.91-2.11,3.32-3.61,4.64c-4.07,3.57-8.55,6.61-12.89,9.82
			c-0.23,0.17-0.4,0.41-0.6,0.62c-0.19,0.04-0.39,0.07-0.38,0.33c0,0.03,0.05,0.07,0.08,0.08c0.26,0.02,0.31-0.17,0.34-0.36
			c1.54-0.43,2.7-1.55,4.07-2.27c2.96-1.56,5.88-3.24,9.37-3.23c2.97,0.01,4.39,1.89,3.5,4.75c-0.81,2.59-2.55,4.61-4.34,6.55
			c-1.85,2.01-3.84,3.87-5.98,5.57c-0.19,0.15-0.39,0.31-0.36,0.72c1.46-0.52,2.87-1.04,4.29-1.51c0.9-0.29,1.81-0.64,2.78-0.32
			c1.29,0.43,1.77,1.31,1.46,2.72c-0.39,1.82-1.22,3.44-2.48,4.78c-4.14,4.39-8.66,8.39-13.25,12.31
			C449.52,147.54,449.36,147.6,449.22,147.68z M451.04,119.96c0.01,0.08,0,0.17,0.02,0.25c0.84,2.64,2.71,4.48,4.82,6.12
			c0.26,0.2,0.55,0.2,0.75-0.11c0.19-0.29,0.1-0.57-0.13-0.78c-1.84-1.7-3.35-3.64-4.43-5.91c-0.12-0.24-0.36-0.49-0.71-0.32
			C451.06,119.36,451.04,119.66,451.04,119.96z M455.68,111.6c-0.06-0.12-0.09-0.24-0.17-0.33c-1.62-1.7-3.02-3.56-4.03-5.69
			c-0.11-0.23-0.31-0.42-0.59-0.28c-0.3,0.15-0.37,0.44-0.32,0.74c0.48,2.56,2.25,4.21,4.15,5.75
			C454.95,111.98,455.42,112.03,455.68,111.6z M451,135.6c0.47,1.68,1.5,3.15,3.05,4.27c0.23,0.17,0.46,0.42,0.75,0.12
			c0.35-0.36,0-0.58-0.19-0.83c-0.95-1.29-1.95-2.54-2.62-4.01c-0.12-0.27-0.22-0.71-0.66-0.58
			C450.9,134.68,451.09,135.11,451,135.6z"/>
		<path fill="#EDC4B4" d="M444.32,100.48c-0.23-1.9-0.47-3.8-0.69-5.7c-0.25-2.16-0.47-4.32-0.7-6.48c0.74-0.02,1.3-0.49,1.93-0.79
			c1.82-0.87,3.6-1.83,5.5-2.53c1.38-0.51,2.76-0.76,4.23-0.7c1.82,0.07,3.07,1.01,3.35,2.83c0.29,1.91-0.08,3.65-1.51,5.13
			c-2.7,2.8-6.07,4.66-9.33,6.66C446.2,99.47,445.39,100.22,444.32,100.48z"/>
		<path fill="#D9F2EC" d="M390.25,97.21c-0.42-4.93-0.83-9.87-1.25-14.8c-0.12-1.37-0.05-2.72,0.21-4.07
			c0.16-0.85,0.86-1.17,1.54-1.48c2.46-1.15,5.12-1.6,7.77-1.96c5.89-0.8,11.82-1.21,17.75-1.56c5.65-0.34,11.3-0.61,16.95-0.89
			c1.28-0.06,1.83,0.32,2.13,1.88c0.49,2.55,0.88,5.12,1.28,7.69c1.17,7.34,1.76,14.74,2.28,22.15c0.44,6.3,0.96,12.59,1.48,18.88
			c0.55,6.7,1.09,13.41,1.75,20.1c0.53,5.37,1.25,10.73,1.88,16.09c0.09,0.74,0.09,1.49,0.21,2.22c0.12,0.7-0.4,0.63-0.76,0.67
			c-1.84,0.23-3.69,0.44-5.53,0.62c-6.73,0.67-13.47,1.34-20.2,1.97c-3.12,0.29-6.25,0.5-9.38,0.73c-3.79,0.28-7.58,0.52-11.36,0.81
			c-0.96,0.08-1.34-0.15-1.41-1.23c-0.34-5.4-0.77-10.79-1.2-16.18c-0.54-6.83-1.13-13.66-1.67-20.49
			c-0.23-2.92-0.41-5.85-0.61-8.78c0.12-0.62,0.63-0.95,1.04-1.35c4.26-4.15,8.43-8.37,11.82-13.3c2.18-3.17,3.52-6.62,3.58-10.48
			c0.04-2.1,0.22-4.2,0.23-6.3c0.01-1.6-0.24-3.21-1.58-4.39c-0.95-0.84-2.05-1.02-3.14-0.33c-2.47,1.58-4.29,3.86-6.28,5.94
			c-0.8,0.83-1.6,1.66-2.37,2.52c-0.29,0.33-0.73,0.57-0.74,1.1l0,0C393.2,94.4,391.73,95.81,390.25,97.21z"/>
		<path fill="#D9A591" d="M394.67,93c0.57,0.02,1.14,0.09,1.71,0.17c2.21,0.32,3.62-1.07,4.91-2.54c1.46-1.67,2.82-3.42,4.24-5.13
			c0.2-0.24,0.47-0.57,0.83-0.35c0.4,0.24,0.3,0.69,0.14,1c-1.63,3.2-3.42,6.32-6.43,8.45c-1.33,0.94-2.87,1.12-4.45,0.45
			C394.67,94.64,394.59,93.87,394.67,93L394.67,93z"/>
		<path fill="#DAA793" d="M368.38,208.73c-1.55-0.11-2.82-1.01-4.14-1.7c-4.13-2.15-7.95-4.75-10.98-8.33
			c-2.77-3.28-5.42-6.66-6.95-10.75c-0.09-0.23-0.18-0.47-0.23-0.71c-0.06-0.27-0.22-0.62,0.18-0.73c0.29-0.08,0.39,0.22,0.48,0.45
			c2.2,5.49,5.88,9.91,10.14,13.87c2.98,2.77,6.43,4.87,10.06,6.69c0.54,0.27,1.06,0.56,1.59,0.84
			C368.48,208.49,368.43,208.61,368.38,208.73z"/>
		<path fill="#D9A592" d="M359.95,181.45c-4.4-0.24-8.64-1.04-12.39-3.57c-0.27-0.18-0.88-0.31-0.64-0.74
			c0.25-0.45,0.74-0.11,1.09,0.07c2.58,1.33,5.31,2.15,8.15,2.75c4.05,0.86,7.91,0.13,11.75-1.06c0.5-0.15,1.28-0.77,1.49-0.21
			c0.23,0.62-0.73,0.88-1.27,1.07C365.48,180.71,362.82,181.59,359.95,181.45z"/>
		<path fill="#DAA794" d="M361.95,200.6c-1.73-0.41-2.79-1.34-3.82-2.25c-3.77-3.3-6.81-7.17-8.91-11.75
			c-0.09-0.19-0.18-0.37-0.27-0.56c-0.15-0.34-0.42-0.8-0.03-0.99c0.46-0.23,0.56,0.36,0.72,0.65c2.43,4.49,5.31,8.63,9.12,12.09
			C359.72,198.68,360.95,199.25,361.95,200.6z"/>
		<path fill="#DAA793" d="M384.14,166.18c-0.29-0.54,0.09-0.89,0.33-1.24c1.21-1.82,2.43-3.64,3.65-5.45
			c0.17-0.25,0.27-0.74,0.68-0.5c0.31,0.18,0.05,0.52-0.07,0.77c-0.93,1.89-1.93,3.75-3.27,5.38
			C385.11,165.55,384.8,166.1,384.14,166.18z"/>
		<path fill="#FBFDFC" d="M425.51,171.87c0,2.94-1.93,4.84-4.92,4.84c-2.72,0-4.83-1.94-4.84-4.43c-0.01-2.92,2.36-5.27,5.29-5.26
			C423.47,167.02,425.51,169.24,425.51,171.87z"/>
		<path fill="#EFF7F5" d="M428.64,172.61c0.84,1.1,0.35,2.11-0.13,3.08s-1.26,1.62-2.33,1.88c-0.18,0.04-0.33-0.04-0.4-0.2
			c-0.13-0.29,0.03-0.51,0.25-0.62C427.74,175.92,428.28,174.36,428.64,172.61z"/>
		<path fill="#D9A591" d="M451.04,119.96c0-0.3,0.02-0.6,0.32-0.75c0.35-0.17,0.59,0.08,0.71,0.32c1.08,2.27,2.59,4.21,4.43,5.91
			c0.23,0.21,0.31,0.5,0.13,0.78c-0.2,0.31-0.49,0.31-0.75,0.11c-2.11-1.64-3.97-3.48-4.82-6.12
			C451.04,120.13,451.05,120.04,451.04,119.96z"/>
		<path fill="#D9A591" d="M455.68,111.6c-0.26,0.43-0.73,0.38-0.97,0.19c-1.9-1.53-3.67-3.18-4.15-5.75
			c-0.06-0.29,0.02-0.59,0.32-0.74c0.29-0.14,0.49,0.05,0.59,0.28c1.02,2.13,2.41,3.99,4.03,5.69
			C455.59,111.36,455.62,111.49,455.68,111.6z"/>
		<path fill="#D9A692" d="M451,135.6c0.09-0.5-0.1-0.92,0.33-1.04c0.44-0.13,0.54,0.31,0.66,0.58c0.67,1.47,1.67,2.73,2.62,4.01
			c0.19,0.25,0.53,0.47,0.19,0.83c-0.29,0.3-0.52,0.05-0.75-0.12C452.5,138.75,451.47,137.28,451,135.6z"/>
		<path fill="#FEFEFE" d="M450.57,117.37c-0.04,0.19-0.09,0.38-0.34,0.36c-0.03,0-0.08-0.05-0.08-0.08
			c-0.01-0.26,0.19-0.29,0.38-0.33C450.53,117.32,450.57,117.37,450.57,117.37z"/>
	</g>
</g>
<g>
	<path fill="#D5BA69" d="M912.71,235.04c1.5-0.32,2.7-1.36,4.37-1.41c3.22-0.1,5.72,1.32,7.97,3.34c2.73,2.45,4.73,5.53,6.88,8.47
		c3.2,4.37,6.09,8.97,10.13,12.67c3.37,3.09,7.13,5.66,10.81,8.32c6.36,4.59,12.61,9.3,18.02,15.03
		c5.11,5.42,9.47,11.41,13.61,17.58c4.46,6.66,8.9,13.33,13.82,19.67c0.3,0.39,0.75,0.71,0.6,1.3c-32.67,0-65.34,0-98.02,0
		c0.08-0.46-0.23-0.78-0.45-1.11c-1.73-2.73-3.51-5.43-5.2-8.18c-3.32-5.39-6.67-10.77-9.27-16.55c-2.21-4.9-4.34-9.82-4.09-15.43
		c0.11-2.41,0.9-4.31,2.53-5.98c0.43-0.44,1.08-0.74,1.11-1.49c0.42,0,0.77-0.16,1.13-0.4c2.21-1.5,4.58-2.75,6.8-4.22
		c2.1-1.39,4.27-2.73,5.87-4.81c3.04-3.95,4.86-8.48,6.39-13.11C907.37,243.77,909.09,238.93,912.71,235.04z"/>
	<path fill="#D5BA69" d="M832.63,294.54c1.57,4.37,0.91,8.91,0.84,13.38c-0.04,2.37-0.75,4.73-1.13,7.11
		c-0.26,1.65-0.48,3.32-0.71,4.97c-25.64,0-51.29,0-76.93,0c0.7-3.38,1.62-6.7,2.57-10.01c2.71-9.49,7.05-18.19,12.7-26.25
		c1.96-2.8,4.04-5.53,7.17-7.18c0.68-0.36,1.39-0.66,2.09-0.98c1.55-0.03,3.1,0.08,4.5,0.79c3.99,2.01,7.6,4.59,11.03,7.43
		c3.77,3.12,7.6,6.18,11.99,8.42c2.62,1.33,5.29,2.25,8.32,2.08c2.79-0.15,5.38-1.16,8.1-1.56
		C826.54,292.24,829.95,291.5,832.63,294.54z"/>
	<path fill="#D08B70" d="M885.54,271.27c-4.26-6.39-8.19-12.98-12.18-19.54c-3.69-6.07-7.34-12.17-11.87-17.66
		c-4.22-5.11-8.75-9.9-14.62-13.19c-1.03-0.58-2.11-1.07-3.17-1.6c-1.71-0.87-3.5-1.61-5.12-2.62c-5.78-3.59-11.58-7.15-17.22-10.96
		c-6.27-4.24-12.02-9.09-17.14-14.67c-1.22-1.33-2.39-2.7-3.73-3.91c-2.56-3.4-5.87-5.91-9.59-7.9c-2.03-1.09-4.13-2.06-6.08-3.32
		c0.3-0.27,0.66-0.49,0.9-0.8c1.84-2.35,1.82-5.2,2.09-7.97c0.03-0.32-0.11-0.69-0.5-0.69c-0.47,0-0.73,0.37-0.81,0.79
		c-0.55,2.81-1.36,5.54-2.29,8.24c-4.32-2.2-8.01-5.16-10.85-9.11c-1.27-1.77-1.34-3.91-0.7-5.77c0.83-2.41,3.15-3.09,5.51-3.34
		c5.51-0.6,10.52,0.94,15.29,3.55c0.19,0.11,0.42,0.15,0.63,0.23c3.06,1.82,6.12,3.61,9.11,5.56c5.3,3.45,10.27,7.33,15.31,11.14
		c0.56,0.42,1.17,1.31,1.73,0.93c0.54-0.36-0.11-1.24-0.36-1.85c-1.74-4.38-2.63-8.94-2.73-13.63c-0.09-4.27-0.48-8.52-0.8-12.77
		c-0.42-5.4-1.57-10.65-2.88-15.87c-0.28-1.13-0.5-2.03-1.01-3.09c-0.09-0.18-0.17-0.36-0.24-0.55c-0.2-0.56-1.03-3.83-1.29-4.6
		c-0.38-1.12-0.77-2.24-1.18-3.35c-0.79-2.17-1.64-4.32-2.52-6.46c-1.78-4.33-3.71-8.59-5.63-12.86
		c-2.55-5.67-4.25-11.57-3.51-17.87c0.32-2.73,0.29-5.53,1.31-8.15c0.31,0.3,0.2,0.68,0.2,1.04c0.01,1.73,0.22,3.41,0.82,5.04
		c1.07,2.88,4.55,5.16,7.62,3.24c1.36-0.85,1.8-0.14,2.32,0.94c3.47,7.32,7.18,14.51,11.38,21.44c2.47,4.07,4.77,8.24,7.15,12.36
		c1.45,2.51,2.9,5.03,4.38,7.52c1.3,2.19,2.74,4.29,4.34,6.27c0.3,0.37,0.74,0.66,1.19,0.35c0.41-0.29,0.16-0.74,0.03-1.13
		c-0.42-1.21-1.19-2.23-1.81-3.34c-3.26-5.8-6.47-11.64-9.75-17.42c-2.4-4.22-5-8.31-7.37-12.55c-3.11-5.57-5.95-11.28-8.83-16.96
		c-0.24-0.48-1.02-0.98-0.51-1.49c0.41-0.41,0.78,0.42,1.23,0.59c0.13,0.05,0.27,0.06,0.39,0.1c1.92,0.63,3.32-0.37,4.65-1.51
		c0.7-0.6,1.09-0.72,1.62,0.26c1.32,2.43,2.79,4.78,4.17,7.18c1.69,2.96,3.72,5.71,5.32,8.73c0.57,1.07,0.13,1.24-0.66,1.46
		c-1.33,0.38-2.5,1.07-3.61,1.87c-0.25,0.18-0.55,0.4-0.42,0.78c0.1,0.28,0.37,0.36,0.66,0.4c0.33,0.05,1-0.14,0.63,0.6
		c-0.55,1.13,0.07,1.04,0.84,0.88c1.35-0.29,2.51-1.03,3.69-1.67c0.97-0.53,1.4-0.27,1.85,0.51c1.92,3.29,3.8,6.6,5.77,9.85
		c3.26,5.4,6.59,10.76,9.88,16.15c1.18,1.93,2.15,4,3.74,5.67c0.27,0.28,0.54,0.73,1.01,0.51c0.47-0.22,0.23-0.73,0.27-1.11
		c0.04-0.43-0.17-0.8-0.38-1.15c-0.52-0.9-1.1-1.77-1.58-2.69c-2.72-5.22-5.65-10.31-8.75-15.32c-3.38-5.47-6.61-11.04-9.94-16.55
		c-1.73-2.87-3.56-5.68-5.31-8.53c-1.37-2.23-2.73-4.47-4.08-6.71c-1.2-1.98-2.25-4.42-3.91-6.03c-0.89-0.87-0.22-1.13,0.03-2.05
		c0.63-2.32,2.72-3.01,4.62-1.57c3.13,2.39,5.75,5.24,7.8,8.61c-2.76,0.37-4.99-0.31-6.33-3.01c-0.5-1.01-1.17-1.92-1.79-2.87
		c-0.16-0.25-0.29-0.66-0.69-0.55c-0.48,0.13-0.32,0.58-0.35,0.92c-0.08,0.97,0.45,1.75,0.87,2.54c2.08,3.92,4.34,6.28,9.31,4.67
		c0.85,0.93,0.65,1.41,1.6,2.25c0.53,0.46,2.55,1.78,2.47,2.68c-0.9,0.15-0.83,0.52-0.41,1.21c1.28,2.13,2.48,4.31,3.69,6.49
		c0.71,1.28,0.61,1.45-0.85,1.63c-0.69,0.08-1.66,0.19-1.49,0.98c0.16,0.78,1.16,0.32,1.79,0.32c0.24,0,0.46-0.3,0.71-0.38
		c0.37-0.11,0.78-0.24,1.14,0.23c-0.33,0.16-0.6,0.3-0.88,0.42c-0.34,0.13-0.68,0.26-1.03,0.35c-0.47,0.12-0.97,0.34-0.9,0.85
		c0.09,0.7,0.75,0.52,1.22,0.5c0.25-0.01,0.5-0.17,0.75-0.28c1.28-0.57,2.02-0.34,2.7,0.88c2.3,4.11,4.51,8.27,6.92,12.32
		c2.08,3.5,3.92,7.13,5.95,10.65c1.92,3.33,3.82,6.67,5.66,10.05c1.43,2.63,2.92,5.22,4.53,7.75c0.34,0.54,0.51,1.33,1.31,0.96
		c0.73-0.34,0.3-1.02,0.13-1.57c-0.05-0.17-0.14-0.33-0.21-0.5c-1.99-4.51-4.49-8.76-6.85-13.07c-3.41-6.23-7.08-12.31-10.63-18.47
		c-1.24-2.16-2.69-4.2-3.69-6.49c0.29-0.01,0.51,0.14,0.74,0.29c3.43,2.11,5.56,5.44,7.88,8.56c2.13,2.87,3.98,5.95,5.99,8.92
		c3.06,4.49,6.34,8.84,9.13,13.51c0.96,1.6,1.81,3.27,2.72,4.9c3.41,6.5,5.77,13.34,6.99,20.58c2.45,14.59,6.74,28.58,13.6,41.73
		c3.18,6.1,6.99,11.83,10.8,17.56c3.28,4.93,6.76,9.72,9.81,14.8c0.12,0.19,0.2,0.4,0.29,0.61c-3.62,3.9-5.34,8.73-6.98,13.68
		c-1.53,4.63-3.35,9.17-6.39,13.11c-1.61,2.08-3.77,3.42-5.87,4.81c-2.22,1.47-4.59,2.72-6.8,4.22
		C886.31,271.11,885.96,271.26,885.54,271.27z M861.4,220.32c3.34,0.1,6.93-0.79,10.32-2.5c0.93-0.47,1.83-1.01,2.37-1.97
		c0.21-0.37,0.39-0.76-0.01-1.11c-0.34-0.3-0.64-0.11-0.99,0.07c-4.16,2.25-8.64,3.05-13.32,3.01c-1.27-0.01-2.54,0.1-3.8-0.25
		c-0.46-0.13-1.06-0.13-1.27,0.49c-0.22,0.64,0.17,1.04,0.67,1.34c0.23,0.14,0.51,0.19,0.75,0.32
		C857.65,220.54,859.3,220.22,861.4,220.32z M815.83,104.14c-1.76-0.13-2.94,0.74-4.01,1.87c-0.29,0.31-0.61,0.63-0.29,1.07
		c0.33,0.45,0.77,0.4,1.22,0.16c1.08-0.57,2.14-1.16,3.25-1.68c0.52-0.24,1.16-0.43,1.03-1.06
		C816.89,103.84,816.17,104.25,815.83,104.14z M817.57,107.36c-0.22-0.53-0.68-0.58-1.04-0.45c-0.75,0.27-1.48,0.63-2.18,1.01
		c-0.26,0.14-0.54,0.4-0.36,0.78c0.16,0.34,0.49,0.4,0.81,0.35c1.01-0.18,1.81-0.78,2.59-1.38
		C817.48,107.59,817.52,107.44,817.57,107.36z"/>
	<path fill="#E4A790" d="M800.48,187.12c1.34,1.21,2.51,2.58,3.73,3.91c5.12,5.58,10.87,10.42,17.14,14.67
		c5.64,3.82,11.44,7.37,17.22,10.96c1.62,1.01,3.41,1.75,5.12,2.62c-1.17,2.06-1.38,4.4-1.85,6.65c-1.15,5.51-1.74,11.1-2.33,16.7
		c-0.43,4.01-1.14,7.99-1.74,11.98c-0.66,4.44-1.36,8.87-2,13.32c-0.75,5.21-1.51,10.41-2.14,15.64c-0.44,3.65-0.68,7.32-1,10.98
		c-2.68-3.04-6.09-2.31-9.45-1.81c-2.72,0.4-5.31,1.41-8.1,1.56c-3.03,0.17-5.71-0.75-8.32-2.08c-4.4-2.24-8.22-5.3-11.99-8.42
		c-3.43-2.84-7.04-5.42-11.03-7.43c-1.41-0.71-2.95-0.82-4.5-0.79c0.94-3.42,2.32-6.7,3.53-10.02c3.65-9.98,7.39-19.93,11.12-29.88
		c1.77-4.72,3.51-9.46,4.49-14.41c0.73-3.69,1.23-7.42,1.61-11.17c0.55-5.48,1.03-10.95,0.94-16.45
		C800.88,191.46,800.63,189.29,800.48,187.12z"/>
	<path fill="#E4A790" d="M871.23,139.77c-0.9-1.64-1.76-3.3-2.72-4.9c-2.8-4.67-6.07-9.01-9.13-13.51
		c-2.01-2.96-3.86-6.04-5.99-8.92c-2.32-3.12-4.44-6.45-7.88-8.56c-0.24-0.15-0.45-0.3-0.74-0.29c-1.61-2.03-2.5-4.5-3.97-6.63
		c-1.87-2.72-3.44-5.66-5.59-8.19c0.04-0.47-0.32-0.55-0.58-0.98c1.44-1.02,1.91-2.71,2.83-4.1c2.99-4.51,5.74-9.18,9.65-13
		c1.4-1.37,3.03-2.3,4.88-2.86c2.37-0.72,4.65,1.15,4.84,3.81c0.22,3.2-0.71,6.19-1.57,9.19c-0.45,1.56-1.47,4.78-1.45,4.65
		c0.78-0.15,0.81-0.91,1.08-1.43c1.73-3.35,3.39-6.74,5.35-9.96c1.16-1.92,2.61-3.64,4.55-4.83c2.12-1.31,4.34-1.61,6.56-0.2
		c0.89,0.57,1.33,1.39,1.41,2.5c0.13,1.95-0.31,3.8-0.73,5.66c-0.21,0.94-0.05,1.58,0.53,2.36c2.28,3.07,3.69,6.46,3.48,10.4
		c-0.11,2.09,0.14,4.19-0.51,6.24c-0.22,0.69-0.03,1.3,0.57,1.83c2.38,2.09,3.27,4.72,3.27,7.9c0,5.07-1.13,9.93-2.23,14.81
		c-1.32,5.87-3.46,11.49-5.51,17.13C871.38,138.52,871.31,139.14,871.23,139.77z M847.38,86.3c0.7,0,1.02,0.02,1.34-0.01
		c0.35-0.03,0.61-0.22,0.65-0.58c0.05-0.37-0.17-0.59-0.5-0.71c-1.45-0.51-2.93-0.86-4.47-0.87c-0.38,0-0.87-0.12-0.96,0.49
		c-0.07,0.49,0.26,0.72,0.64,0.94C845.23,86.2,846.52,86.14,847.38,86.3z M861.16,91.79c-0.14-0.17-0.29-0.48-0.54-0.63
		c-0.84-0.51-1.71-0.99-2.59-1.44c-0.39-0.2-0.82-0.15-1.07,0.27c-0.23,0.39-0.13,0.77,0.15,1.13c0.86,1.12,2.17,1.18,3.38,1.46
		C860.86,92.66,861.14,92.34,861.16,91.79z M868.08,101.39c0.54-0.16,1.54,0.39,1.69-0.48c0.14-0.77-0.89-0.87-1.47-1.1
		c-0.69-0.28-1.45-0.63-2.19-0.09c-0.33,0.24-0.32,0.64-0.15,0.99C866.42,101.6,867.27,101.35,868.08,101.39z M872.39,114.57
		c-0.26-0.63-0.94-0.84-1.5-1.18c-0.45-0.27-0.96-0.34-1.42-0.04c-0.37,0.24-0.42,0.69-0.14,0.95c0.69,0.63,1.5,1.1,2.49,1.02
		C872.17,115.28,872.38,115.02,872.39,114.57z"/>
	<path fill="#E4A790" d="M812.21,130.88c0.8,1.17,0.98,2.55,1.25,3.64c1.32,5.22,2.47,10.47,2.88,15.87
		c0.33,4.26,0.71,8.5,0.8,12.77c0.1,4.69,0.99,9.25,2.73,13.63c0.24,0.61,0.89,1.49,0.36,1.85c-0.56,0.38-1.18-0.51-1.73-0.93
		c-5.03-3.81-10.01-7.69-15.31-11.14c-2.98-1.94-6.05-3.74-9.11-5.56c-0.55-4.18-0.93-8.39-1.67-12.54
		c-1.43-8.09-3.01-16.16-6.42-23.73c-1.31-2.91-3.06-5.57-4.62-8.33c-1.88-3.34-3.68-6.71-4.57-10.48
		c-0.29-1.22-0.36-2.47-0.05-3.65c0.67-2.53,2.79-3.58,5.36-2.97c2.1,0.5,3.87,1.56,5.55,2.83c1.7,1.29,3.35,2.66,5.03,3.97
		c3.05,2.37,5.34,5.4,7,8.8c2.8,5.74,6.17,11.15,9.27,16.72c0.49,0.87,0.87,1.8,1.29,2.72c0.1,0.22,0.19,0.43,0.46,0.41
		c0.27-0.03,0.34-0.25,0.39-0.49C811.3,133.21,811.65,131.82,812.21,130.88z M792.84,120.83c0.25,0,0.42,0.05,0.52-0.01
		c2.03-1.32,4.21-2.44,5.72-4.44c0.18-0.24,0.38-0.6,0.08-0.86c-0.33-0.29-0.83-0.26-1.17-0.1c-2.14,0.99-4.14,2.21-5.77,3.94
		c-0.31,0.33-0.34,0.75-0.2,1.15C792.18,120.96,792.61,120.8,792.84,120.83z M812.46,142.02c0.27-0.96-0.24-2.14-0.31-3.36
		c-0.05-0.71-0.39-1.46-1.36-1.36c-0.95,0.09-0.81,0.86-0.76,1.46c0.14,1.8,0.57,3.56,0.55,5.38c0,0.55,0.34,1.01,0.9,1.02
		c0.64,0.01,0.95-0.48,0.98-1.09C812.49,143.48,812.46,142.89,812.46,142.02z"/>
	<path fill="#B6775E" d="M817.1,76.05c-0.01,0.92,0.88,1.22,1.27,1.86c2.42,4,4.84,8,7.28,11.99c1.75,2.86,3.58,5.67,5.31,8.53
		c3.33,5.51,6.56,11.07,9.94,16.55c3.1,5.01,6.03,10.1,8.75,15.32c0.48,0.92,1.06,1.79,1.58,2.69c0.21,0.35,0.42,0.72,0.38,1.15
		c-0.04,0.38,0.2,0.89-0.27,1.11c-0.48,0.23-0.75-0.23-1.01-0.51c-1.58-1.66-2.56-3.73-3.74-5.67c-3.29-5.39-6.62-10.75-9.88-16.15
		c-1.97-3.26-3.85-6.57-5.77-9.85c-0.45-0.78-0.89-1.04-1.85-0.51c-1.17,0.64-2.34,1.38-3.69,1.67c-0.77,0.17-1.39,0.25-0.84-0.88
		c0.36-0.74-0.3-0.55-0.63-0.6c-0.29-0.05-0.56-0.12-0.66-0.4c-0.13-0.38,0.17-0.6,0.42-0.78c1.11-0.8,2.28-1.5,3.61-1.87
		c0.79-0.22,1.23-0.39,0.66-1.46c-1.61-3.02-3.63-5.77-5.32-8.73c-1.38-2.4-2.85-4.75-4.17-7.18c-0.53-0.98-0.93-0.86-1.62-0.26
		c-1.33,1.14-2.74,2.13-4.65,1.51c-0.13-0.04-0.27-0.05-0.39-0.1c-0.44-0.17-0.81-1-1.23-0.59c-0.52,0.51,0.27,1.01,0.51,1.49
		c2.88,5.69,5.72,11.39,8.83,16.96c2.37,4.24,4.97,8.33,7.37,12.55c3.29,5.79,6.5,11.62,9.75,17.42c0.62,1.1,1.39,2.13,1.81,3.34
		c0.14,0.39,0.39,0.84-0.03,1.13c-0.45,0.31-0.89,0.03-1.19-0.35c-1.61-1.98-3.05-4.08-4.34-6.27c-1.48-2.5-2.93-5.01-4.38-7.52
		c-2.38-4.12-4.68-8.29-7.15-12.36c-4.2-6.93-7.91-14.13-11.38-21.44c-0.51-1.08-0.96-1.79-2.32-0.94
		c-3.07,1.93-6.55-0.35-7.62-3.24c-0.61-1.64-0.82-3.32-0.82-5.04c0-0.35,0.1-0.74-0.2-1.04c0.03-0.19,0.06-0.37,0.09-0.56
		c0.35-0.11,0.41-0.36,0.33-0.68c0.19-0.96,0.59-1.71,1.73-1.72c0.19,0.32,0.39,0.71,0.23,1.03c-0.85,1.7-0.22,3.36,0.03,5.05
		c0.47,3.15,2.32,4.83,5.33,4.79c1.53-0.02,1.88-0.53,1.18-1.93c-0.92-1.86-1.94-3.66-2.88-5.51c-0.52-1.03-1.25-1.96-1.55-3.13
		c1.08-0.33,1.5,0.38,2.05,1.01c1.25,1.43,1.77,3.37,3.25,4.63c0.03,0.24-0.08,0.55,0.24,0.67c0.05,0.02,0.23-0.12,0.24-0.21
		c0.06-0.36-0.21-0.43-0.48-0.47c-0.04-0.96-0.32-1.86-0.55-2.79c-0.34-1.35-0.57-2.74-0.81-4.11c-0.07-0.41,0.02-0.86,0.53-0.98
		c0.52-0.11,0.75,0.22,0.82,0.68c0.1,0.71,0.49,1.32,0.63,2.05c0.29,1.57,0.77,3.14,1.4,4.61c0.38,0.88,1.07,1.7,2.29,1.64
		c1.29-0.07,2.71-0.48,3.45-1.22c0.73-0.73-0.69-1.85-1-2.86c-0.07-0.21-0.24-0.39-0.32-0.6c-0.54-1.41-1.88-2.39-2.3-4
		c0.63-0.04,0.89,0.56,1.38,0.42C815.71,74.11,816.4,75.08,817.1,76.05z"/>
	<path fill="#D08B70" d="M814.7,73.42c-0.49,0.14-0.76-0.46-1.38-0.42c0.42,1.61,1.76,2.58,2.3,4c0.08,0.21,0.26,0.39,0.32,0.6
		c0.31,1.01,1.72,2.13,1,2.86c-0.74,0.74-2.16,1.15-3.45,1.22c-1.22,0.06-1.91-0.76-2.29-1.64c-0.63-1.47-1.11-3.04-1.4-4.61
		c-0.13-0.73-0.53-1.34-0.63-2.05c-0.06-0.46-0.3-0.8-0.82-0.68c-0.51,0.11-0.6,0.56-0.53,0.98c0.24,1.38,0.47,2.76,0.81,4.11
		c0.23,0.92,0.51,1.83,0.55,2.79l0,0c-1.49-1.26-2-3.2-3.25-4.63c-0.55-0.63-0.97-1.34-2.05-1.01c0.3,1.17,1.03,2.1,1.55,3.13
		c0.94,1.85,1.96,3.65,2.88,5.51c0.7,1.41,0.35,1.91-1.18,1.93c-3.02,0.04-4.87-1.64-5.33-4.79c-0.25-1.68-0.88-3.35-0.03-5.05
		c0.16-0.32-0.04-0.71-0.23-1.03c0.16-0.27,0.44-0.37,0.71-0.32c1.93,0.39,2.77-0.74,3.78-2.19c2.41-3.42,2.38-3.86,5.94-1.08
		C812.92,71.78,814.1,72.27,814.7,73.42z"/>
	<path fill="#B6775E" d="M831.13,83.84c-4.97,1.61-7.23-0.75-9.31-4.67c-0.42-0.78-0.94-1.57-0.87-2.54
		c0.03-0.34-0.14-0.8,0.35-0.92c0.4-0.1,0.53,0.31,0.69,0.55c0.62,0.94,1.3,1.86,1.79,2.87c1.33,2.7,3.57,3.38,6.33,3.01
		C830.83,82.48,831.21,83.03,831.13,83.84z"/>
	<path fill="#B6775E" d="M784.2,175.46c0.93-2.7,1.74-5.43,2.29-8.24c0.08-0.42,0.34-0.79,0.81-0.79c0.39,0,0.53,0.36,0.5,0.69
		c-0.27,2.77-0.25,5.62-2.09,7.97c-0.24,0.31-0.6,0.54-0.9,0.8C784.5,175.91,784.29,175.77,784.2,175.46z"/>
	<path fill="#D08B70" d="M799.81,76.34c0.08,0.32,0.02,0.57-0.33,0.68C799.35,76.68,799.52,76.48,799.81,76.34z"/>
	<path fill="#B6775E" d="M835.21,88.77c2.15,2.54,3.72,5.47,5.59,8.19c1.46,2.13,2.36,4.6,3.97,6.63c1,2.29,2.44,4.34,3.69,6.49
		c3.55,6.15,7.22,12.24,10.63,18.47c2.36,4.31,4.86,8.56,6.85,13.07c0.07,0.17,0.16,0.33,0.21,0.5c0.17,0.55,0.6,1.23-0.13,1.57
		c-0.8,0.37-0.97-0.42-1.31-0.96c-1.6-2.53-3.09-5.12-4.53-7.75c-1.84-3.38-3.74-6.72-5.66-10.05c-2.03-3.52-3.87-7.15-5.95-10.65
		c-2.41-4.05-4.62-8.21-6.92-12.32c-0.68-1.22-1.41-1.45-2.7-0.88c-0.25,0.11-0.5,0.27-0.75,0.28c-0.47,0.02-1.13,0.2-1.22-0.5
		c-0.06-0.51,0.43-0.73,0.9-0.85c0.35-0.09,0.69-0.21,1.03-0.35c0.28-0.11,0.55-0.26,0.88-0.42c-0.36-0.47-0.77-0.34-1.14-0.23
		c-0.25,0.08-0.47,0.37-0.71,0.38c-0.63,0-1.63,0.46-1.79-0.32c-0.17-0.79,0.81-0.9,1.49-0.98c1.47-0.18,1.57-0.35,0.85-1.63
		c-1.21-2.17-2.41-4.35-3.69-6.49C834.38,89.29,834.31,88.92,835.21,88.77z"/>
	<path fill="#B6775E" d="M861.4,220.32c-2.1-0.09-3.75,0.22-5.28-0.59c-0.24-0.13-0.52-0.18-0.75-0.32c-0.5-0.3-0.89-0.7-0.67-1.34
		c0.21-0.62,0.81-0.62,1.27-0.49c1.26,0.35,2.53,0.24,3.8,0.25c4.67,0.04,9.16-0.76,13.32-3.01c0.34-0.19,0.64-0.37,0.99-0.07
		c0.41,0.36,0.22,0.75,0.01,1.11c-0.54,0.96-1.44,1.5-2.37,1.97C868.33,219.52,864.74,220.42,861.4,220.32z"/>
	<path fill="#B6775E" d="M815.83,104.14c0.35,0.11,1.06-0.3,1.2,0.36c0.13,0.64-0.51,0.82-1.03,1.06c-1.1,0.51-2.17,1.11-3.25,1.68
		c-0.45,0.24-0.89,0.29-1.22-0.16c-0.32-0.44,0-0.76,0.29-1.07C812.88,104.88,814.07,104.01,815.83,104.14z"/>
	<path fill="#B6775E" d="M817.57,107.36c-0.05,0.09-0.09,0.23-0.18,0.3c-0.79,0.6-1.58,1.2-2.59,1.38
		c-0.32,0.06-0.65-0.01-0.81-0.35c-0.18-0.38,0.1-0.64,0.36-0.78c0.71-0.38,1.43-0.74,2.18-1.01
		C816.89,106.78,817.35,106.83,817.57,107.36z"/>
	<path fill="#D08B70" d="M847.38,86.3c-0.86-0.16-2.15-0.1-3.3-0.74c-0.38-0.21-0.7-0.44-0.64-0.94c0.08-0.61,0.57-0.49,0.96-0.49
		c1.54,0,3.02,0.36,4.47,0.87c0.33,0.12,0.55,0.34,0.5,0.71s-0.3,0.55-0.65,0.58C848.4,86.32,848.08,86.3,847.38,86.3z"/>
	<path fill="#D08B70" d="M861.16,91.79c-0.02,0.55-0.3,0.88-0.68,0.79c-1.21-0.28-2.52-0.34-3.38-1.46
		c-0.28-0.36-0.38-0.74-0.15-1.13c0.25-0.42,0.68-0.47,1.07-0.27c0.88,0.45,1.75,0.92,2.59,1.44
		C860.87,91.3,861.02,91.62,861.16,91.79z"/>
	<path fill="#D08B70" d="M868.08,101.39c-0.82-0.04-1.66,0.21-2.11-0.68c-0.18-0.35-0.18-0.75,0.15-0.99
		c0.73-0.54,1.49-0.19,2.19,0.09c0.58,0.23,1.61,0.34,1.47,1.1C869.62,101.77,868.62,101.22,868.08,101.39z"/>
	<path fill="#D08B70" d="M872.39,114.57c-0.01,0.45-0.22,0.71-0.56,0.74c-0.99,0.08-1.8-0.38-2.49-1.02
		c-0.29-0.26-0.23-0.71,0.14-0.95c0.46-0.3,0.97-0.23,1.42,0.04C871.45,113.73,872.13,113.94,872.39,114.57z"/>
	<path fill="#D08B70" d="M792.84,120.83c-0.22-0.03-0.66,0.14-0.82-0.32c-0.14-0.4-0.12-0.81,0.2-1.15
		c1.63-1.74,3.63-2.95,5.77-3.94c0.34-0.16,0.83-0.19,1.17,0.1c0.3,0.27,0.1,0.62-0.08,0.86c-1.5,1.99-3.68,3.12-5.72,4.44
		C793.26,120.88,793.09,120.83,792.84,120.83z"/>
	<path fill="#D08B70" d="M812.46,142.02c0,0.87,0.02,1.46-0.01,2.05c-0.03,0.61-0.34,1.1-0.98,1.09c-0.56-0.01-0.9-0.47-0.9-1.02
		c0.01-1.82-0.42-3.58-0.55-5.38c-0.05-0.6-0.19-1.37,0.76-1.46c0.97-0.1,1.31,0.65,1.36,1.36
		C812.23,139.88,812.73,141.06,812.46,142.02z"/>
	<path fill="#B6775E" d="M809.18,80.57c0.27,0.04,0.54,0.11,0.48,0.47c-0.01,0.08-0.19,0.23-0.24,0.21
		C809.11,81.12,809.22,80.81,809.18,80.57L809.18,80.57z"/>
</g>
<g>
	<path fill="none" d="M119.66,145.32c0.08-0.14,0.15-0.29,0.23-0.43c-0.13,0.23-0.27,0.45-0.44,0.65c-0.23,0.28-0.67,0.62-0.74,0.99
		c-0.1,0.52,0.15,0.66,0.64,0.31c0.12-0.09,0.22-0.2,0.33-0.3c0.08-0.07,0.17-0.12,0.25-0.19c-0.08,0.03-0.15,0.07-0.23,0.08
		C119.68,146.07,119.67,145.69,119.66,145.32z"/>
	<path fill="none" d="M125.75,157.86c0.16,0,0.39,0.1,0.63,0.26C126.13,157.96,125.91,157.87,125.75,157.86z"/>
	<path fill="none" d="M121.03,159.63c0.26-0.35,0.6-0.62,0.93-0.9C121.63,159.01,121.3,159.28,121.03,159.63z"/>
	<path fill="none" d="M124.67,160.01c-0.28-0.14-0.53-0.23-0.73-0.24c-0.18-0.01-0.37-0.01-0.52,0.05c0.16-0.05,0.34-0.06,0.52-0.05
		C124.14,159.79,124.4,159.88,124.67,160.01z"/>
	<path fill="none" d="M127.97,160.09c0,0.21-0.07,0.38-0.25,0.5C127.9,160.47,127.98,160.3,127.97,160.09c0-0.38-0.53-1.06-1.1-1.57
		C127.44,159.03,127.98,159.71,127.97,160.09z"/>
	<path fill="none" d="M122.24,158.49c0.04-0.04,0.07-0.08,0.11-0.12c-0.08,0.08-0.15,0.16-0.24,0.23
		C122.15,158.57,122.2,158.53,122.24,158.49z"/>
	<path fill="none" d="M125.12,119.38c-0.04,0.14-0.09,0.29-0.17,0.42C125.03,119.67,125.08,119.52,125.12,119.38z"/>
	<path fill="none" d="M107.22,148.54c0.18-0.21,0.5-0.21,0.8-0.22c0.65,0,1.76,0.67,2.41,1.36c-0.65-0.69-1.76-1.35-2.41-1.36
		C107.71,148.33,107.4,148.33,107.22,148.54z"/>
	<path fill="none" d="M125.61,117.43L125.61,117.43c-0.07,0.1-0.12,0.2-0.17,0.3C125.48,117.63,125.54,117.53,125.61,117.43z"/>
	<path fill="none" d="M117.31,93.09c-0.08-0.25-0.17-0.5-0.26-0.74C117.14,92.59,117.23,92.84,117.31,93.09z"/>
	<path fill="none" d="M116.33,93.02c0.07,0.08,0.14,0.15,0.21,0.23l0,0C116.48,93.17,116.4,93.1,116.33,93.02L116.33,93.02z"/>
	<path fill="none" d="M124.67,160.01c0.28,0.14,0.58,0.33,0.86,0.53C125.25,160.34,124.95,160.15,124.67,160.01z"/>
	<path fill="#BD836D" d="M131.83,125.93c-0.79-0.67-2.65-0.06-3.42,0.31c-1.58,0.76-3.01,1.75-4.44,2.75l0,0
		c-0.4,0.18-0.62,0.6-0.98,0.82c-0.12,0.07-0.26,0.13-0.42,0.14c-3.05,2.56-5.89,5.33-8.76,8.08c-0.46,0.52-0.91,1.06-1.51,1.43
		c-1.69,1.67-3.38,3.33-5.07,5c-0.15-0.06-0.3-0.12-0.45-0.18c0-3.24-0.02-6.49,0.01-9.73c0.01-1.04-0.13-2.07-0.38-3.05
		c-0.34-1.34-0.53-2.85-2.01-3.58c0,1.67,0.04,3.34-0.01,5c-0.07,2.48-1.94,4.19-4.54,3.47c-0.31,0.98-0.7,1.94-0.92,2.95
		c-1.21,5.57-2.32,11.16-3.58,16.72c-1.23,5.4-0.99,10.61,1.41,15.67c1.2,2.52,1.87,5.21,2.52,7.91c0.73,3.04,1.3,6.14,2.57,9.02
		c2.79,6.36,7.13,11.56,12.28,16.16c3.52,3.14,7,6.32,9.99,10.02c5.36,6.64,7.63,14.22,7.42,22.66c-0.11,4.36-0.58,8.69-1.16,13.01
		c-0.83,6.28-2.06,12.5-2.99,18.76c-0.48,3.21-0.87,6.43-1.31,9.65c-0.5,3.65-0.95,7.3-1.29,10.97c-0.31,3.35-0.74,6.69-1.11,10.03
		c-0.34,3.15-0.65,6.3-1.01,9.45c-0.42,3.61-0.89,7.22-1.34,10.83c12.39,0,24.79,0,37.18,0c-0.54-3.13-0.73-6.31-0.88-9.47
		c-0.35-7.41-0.58-14.83-0.61-22.26c-0.02-6.31,0.21-12.62,0.45-18.92c0.22-5.71-0.15-11.43-0.37-17.13
		c-0.19-4.97,0.17-9.91,0.65-14.85c0.44-4.58,1.03-9.14,1.38-13.73c0.35-4.61,0.32-9.2-1.69-13.55c-2.04-4.41-4.44-8.59-7.16-12.61
		c-5.71-8.43-13.25-15.02-21.25-21.15c-0.36-0.28-0.55-0.52-0.51-0.97c0.31-3.69,0.93-7.06,3.57-10.16
		c3.04-3.56,6.3-6.65,10.28-9.05c1.7-1.02,3.31-2.18,4.95-3.3c0.76-0.52,1.46-1.11,1.91-1.93c0.35-0.65,0.54-1.36,0.07-2.03
		c-0.46-0.65-1.19-0.82-1.91-0.71c-1.99,0.32-3.96,0.78-5.85,1.5c0.37,1.02,1.21,0.56,1.82,0.47c1.09-0.15,2.15-0.48,3.23-0.73
		c0.23-0.05,0.46-0.12,0.7-0.12c0.46,0,1.05-0.15,1.17,0.5c0.12,0.62-0.47,0.63-0.85,0.78c-2.07,0.82-4.17,1.43-6.43,0.87
		c-0.68-0.17-1.13-0.54-1.25-1.25c-0.2,0.02-0.4,0.02-0.59,0.08c-5.24,1.74-10.58,3.57-15.41,6.3c-0.27,0.15-0.55,0.31-0.75,0.54
		c-0.08,0.09-0.15,0.18-0.22,0.27c-0.15,0.3-0.36,0.54-0.6,0.77c-0.04,0.04-0.07,0.08-0.11,0.12s-0.09,0.07-0.13,0.11
		c-0.05,0.04-0.1,0.08-0.15,0.13c-0.33,0.28-0.67,0.55-0.93,0.9c0.21-0.75,0.56-1.4,1.13-1.91c0.43-0.49,0.89-0.97,1.41-1.37
		c3.66-2.85,7.46-5.51,11.27-8.17c3.28-2.29,6.25-4.95,9.1-7.75c0.65-1.24,1.55-2.36,1.92-3.75c-0.15-1.1-0.7-1.77-1.89-1.72
		c-0.64,0.08-1.28,0.16-1.93,0.24c-2.61,0.86-5.22,1.72-7.6,3.14c0.6,1.07,1.6,1.11,2.57,0.8c1.99-0.64,3.94-1.43,5.64-2.71
		c0.13-0.09,0.25-0.22,0.39-0.26c0.57-0.17,1.27-0.85,1.7-0.26c0.3,0.42-0.52,0.88-0.91,1.21c-2.13,1.84-4.61,3.04-7.36,3.53
		c-1.41,0.25-2.46-0.61-3.3-1.69c-0.26-0.34-6.44,3.29-7.06,3.65c-1.17,0.67-2.33,1.37-3.47,2.08c-0.62,0.38-1.32,0.75-1.97,1.15
		c0.01,0.03,0,0.05,0.01,0.08c-0.22,0.21-0.48,0.34-0.75,0.44c-0.08,0.06-0.18,0.12-0.25,0.19c-0.11,0.1-0.21,0.21-0.33,0.3
		c-0.48,0.35-0.73,0.2-0.64-0.31c0.07-0.37,0.51-0.72,0.74-0.99c0.17-0.2,0.31-0.43,0.44-0.65c0.25-0.47,0.52-0.93,0.95-1.28l0,0
		c2.12-2.81,4.26-5.61,6.58-8.26c1.84-2.11,3.84-4.12,4.88-6.81l0,0l0,0C132.46,127.6,132.24,126.75,131.83,125.93z M125.04,158.18
		c0.14-0.29,0.43-0.31,0.71-0.31c0.16,0,0.39,0.1,0.63,0.26c0.16,0.11,0.33,0.25,0.5,0.39c0.57,0.51,1.1,1.19,1.1,1.57
		c0,0.21-0.07,0.38-0.25,0.5c-0.2,0.13-0.37,0.03-0.53-0.1c-0.62-0.54-1.25-1.07-1.87-1.62C125.13,158.7,124.87,158.5,125.04,158.18
		z M123.07,160.2c0.07-0.21,0.2-0.32,0.35-0.37c0.16-0.05,0.34-0.06,0.52-0.05c0.19,0.01,0.45,0.1,0.73,0.24s0.58,0.33,0.86,0.53
		c0.57,0.41,1.07,0.91,1.19,1.26c0.09,0.25,0.05,0.46-0.14,0.64c-0.2,0.18-0.46,0.24-0.64,0.07c-0.73-0.69-1.7-0.97-2.49-1.56
		C123.19,160.75,122.94,160.56,123.07,160.2z M110.9,150.35c0.09,0.23,0.2,0.44-0.03,0.64c-0.29,0.26-0.55,0.15-0.85-0.03
		c-0.77-0.47-1.55-0.92-2.34-1.36c-0.31-0.18-0.68-0.32-0.59-0.77c0.02-0.13,0.07-0.22,0.13-0.3c0.18-0.21,0.5-0.21,0.8-0.22
		c0.65,0,1.76,0.67,2.41,1.36C110.65,149.91,110.81,150.14,110.9,150.35z M102.7,158.45c-0.21,2.3-0.11,4.58-0.19,6.88
		c-0.01,0.27-0.03,0.56-0.11,0.81c-0.05,0.17-0.21,0.38-0.36,0.41c-0.29,0.07-0.38-0.2-0.47-0.42c-0.37-0.83-0.23-1.72-0.24-2.58
		c-0.02-0.79,0-1.59,0-2.38c-0.2-2.71,0.04-5.39,0.98-7.95c1.14-3.13,2.98-5.82,5.45-8.07c0.21-0.19,0.54-0.5,0.82-0.24
		c0.32,0.29-0.04,0.57-0.22,0.81c-1.31,1.83-2.74,3.56-3.78,5.58C103.42,153.57,102.93,155.94,102.7,158.45z M109.05,153.24
		c-0.93-0.42-1.83-0.92-2.73-1.4c-0.31-0.17-0.27-0.47-0.16-0.73c0.04-0.1,0.1-0.17,0.17-0.23c0.2-0.17,0.48-0.16,0.75-0.16
		c0.43,0.01,1.67,0.82,2.31,1.45c0.21,0.21,0.36,0.4,0.38,0.53C109.88,153.29,109.47,153.43,109.05,153.24z M113.73,152.88
		c-1.75,2.4-2.2,5.24-2.42,8.14c-0.1,1.33-0.31,2.65-0.46,3.98c-0.03,0.29-0.1,0.59-0.43,0.63c-0.41,0.05-0.5-0.32-0.62-0.6
		c-0.08-0.18-0.14-0.38-0.13-0.57c0.17-3.1,0.31-6.19,1.25-9.21c0.94-3,3.13-4.85,5.42-6.68c0.4-0.32,0.84-0.59,1.25-0.9
		c0.23-0.17,0.46-0.39,0.73-0.17c0.25,0.2,0.17,0.51,0.06,0.77c-0.27,0.66-1.02,1.36-1.66,1.85c-0.13,0.1-0.25,0.19-0.37,0.26
		C115.28,151.1,114.49,151.84,113.73,152.88z M117.95,154.72c-0.75-0.65-1.59-0.97-2.59-0.93c-0.47,0.02-0.77-0.31-0.67-0.77
		c0.14-0.64,0.72-0.62,1.39-0.66c0.97,0.16,1.97,0.52,2.61,1.54c0.18,0.29,0.33,0.55,0.08,0.85
		C118.5,155.1,118.17,154.91,117.95,154.72z M120.14,172.61c0,1.14-0.34,2.26-0.26,3.41c0.02,0.34-0.1,0.8-0.51,0.83
		c-0.57,0.05-0.34-0.48-0.42-0.78c-0.34-1.2-0.19-2.43-0.22-3.46c0-0.95-0.04-1.7,0.01-2.45c0.03-0.48-0.02-1.22,0.6-1.23
		c0.54-0.01,0.71,0.72,0.76,1.19C120.19,170.94,120.13,171.77,120.14,172.61z M119.98,152.32c0.18,0.26,0.29,0.63,0.02,0.88
		c-0.32,0.29-0.59,0-0.81-0.23c-0.55-0.57-1.12-1.12-1.88-1.41c-0.42-0.16-0.75-0.83-0.46-1.22c0.01-0.01,0.02-0.02,0.03-0.04
		C117.63,149.4,119.58,151.75,119.98,152.32z M131.6,127.76c-1.27,1.75-2.4,3.62-4.2,4.93c-0.65,0.47-1.24,1.01-2.12,0.84
		c-1.16,0.2-1.82-0.58-2.5-1.31c-0.24-0.26-0.34-0.58-0.15-0.87c0.21-0.3,0.57-0.22,0.88-0.14c0.18,0.05,0.34,0.2,0.5,0.31
		c1.65,1.05,1.66,1.04,3.15-0.35c1.22-1.14,2.13-2.54,3.22-3.79c0.08-0.09,0.12-0.21,0.19-0.3c0.27-0.32,0.61-0.61,1.02-0.37
		C132.04,126.99,131.82,127.45,131.6,127.76z"/>
	<path fill="#E477A6" d="M165.88,63.34c-0.43-0.28-0.88-0.54-1.32-0.81c-1.85-1.11-3.11-2.59-3.47-4.84
		c-0.36-2.27-2.59-4.28-4.91-4.52c-2.13-0.22-4.27,0.02-6.4,0.15c-2.63,0.16-5.25,0.84-7.87-0.19c-1.63-0.64-3.15-1.5-4.72-2.25
		c-2.5-1.2-5.06-0.32-6.35,2.14c-0.72,1.37-0.92,2.86-1.06,4.35c-0.29,3-0.19,5.99,1.23,8.71c2.72,5.23,6.22,9.84,11.31,13.04
		c1.91,0.78,3.86,1.35,5.95,0.8c0.33-0.12,0.66-0.26,1-0.37c4.85-1.62,9.34-3.93,13.39-7.07c1.74-1.35,3.33-2.83,4.35-4.82
		C167.9,65.91,167.5,64.42,165.88,63.34z M156.01,71.09c-0.37,1.34-1.1,2.45-2.16,3.35c-2.32,1.97-4.73,3.75-7.96,3.79
		c-1.36,0.02-2.52-0.41-3.5-1.43c-1.85-1.91-3.26-3.98-3.21-6.71c-0.01-2.46,1.09-4.36,2.79-5.88c1.23-1.11,2.79-1.01,4.26-0.44
		c1.3,0.5,2.45,1.29,3.6,2.07c0.99,0.68,2.08,1.14,3.31,1.19C155.72,67.14,156.72,68.56,156.01,71.09z"/>
	<path fill="#4BA68D" d="M142.31,79.13c0.59,1.42,1.45,2.74,1.39,4.37c-0.1,2.54-0.08,5.09-0.28,7.62
		c-0.15,1.95-0.44,3.91-0.97,6.04c-0.2-0.53-0.33-0.85-0.44-1.18c-2.22-6.69-6.65-11.74-12.02-16.06c-0.52-0.42-1.09-0.96-1.81-0.51
		c-0.67,0.41-0.47,1.17-0.36,1.75c0.55,3.02,1.45,5.91,3.1,8.55c2.62,4.18,6.05,7.66,9.55,11.05c1.04,1,1.06,1.87,0.68,3.12
		c-2.33,7.65-5.18,15.07-9.39,21.92c0.02,0.05,0.04,0.09,0.06,0.14c0.4,0.82,0.63,1.67,0.47,2.6l0,0c1.21-1.58,2.19-3.3,3.09-5.06
		c2.03-3.95,3.86-7.99,5.5-12.12c0.82-2.06,2.85-2.48,4.48-0.93c0.14,0.14,0.28,0.28,0.43,0.41c0.35,0.33,0.76,0.46,1.2,0.26
		c0.41-0.19,0.48-0.61,0.53-1c0.13-1.16-0.76-2.08-2.25-2.26c-1.02-0.12-2.04-0.09-3.1,0.23c0.02-0.21,0.02-0.31,0.05-0.41
		c1.89-6.24,3.16-12.59,3.28-19.13c0.06-3.12,0.4-6.18,2.75-8.59C146.16,80.47,144.22,79.9,142.31,79.13z"/>
	<path fill="#7DACA0" d="M124.3,121.71c-0.02,0.7-0.57,1.53,0.37,2.07c2.47-3.7,4.14-7.83,6.2-11.75c0.71-1.34,1.08-2.81,1.32-4.3
		c0.22-1.33,0.37-2.66,0.97-3.9c0.19-0.4,0.23-0.88-0.23-1.17c-0.39-0.24-0.75-0.06-1.09,0.2c-1.38,1.05-2.53,2.3-3.26,3.87
		c-1.58,3.4-2.38,7.02-2.98,10.7l0,0l0,0l0,0c-0.07,0.1-0.12,0.2-0.17,0.3c-0.21,0.5-0.16,1.09-0.32,1.64
		c-0.04,0.14-0.09,0.29-0.17,0.42c-0.06,0.11-0.14,0.21-0.23,0.32c-0.72-1.32-0.3-2.78-0.77-4.06c-0.49-3.97-1.5-7.7-4.61-10.53
		c-0.62-0.57-1.16-1.22-1.55-1.96c-1.01-1.94-2.8-2.85-4.7-3.62c-0.32-0.13-0.72-0.27-0.98,0.09c-0.2,0.27-0.16,0.63,0,0.91
		c0.71,1.23,1.15,2.6,2.09,3.72c1.46,1.75,3.04,3.36,4.79,4.79c1.81,1.48,3.1,3.29,3.69,5.55c0.48,1.87,0.87,3.77,1.3,5.66
		C124.68,120.86,124.32,121.3,124.3,121.71z"/>
	<path fill="#4BA68D" d="M113.81,138.03c-0.06-2.34-0.25-4.68-0.73-6.97c-1.34-6.39-3.37-12.64-4.02-19.18
		c-0.36-0.1-0.71-0.19-1.07-0.29c0.03,5.5,1.52,10.78,2.76,16.39c-0.4-0.32-0.52-0.41-0.64-0.51c-1.97-1.54-3.92-3.09-5.91-4.6
		c-0.41-0.31-0.93-0.84-1.48-0.38c-0.57,0.48-0.04,1,0.17,1.49c0.75,1.75,2.02,2.98,3.66,3.92c1.59,0.9,3.05,2,4.33,3.32
		c0.54,0.55,0.88,1.15,0.99,1.96c0.28,2.09,0.42,4.18,0.44,6.28C112.91,139.09,113.35,138.55,113.81,138.03z"/>
	<path fill="#54AA93" d="M144.6,133.95c2.52-3.48,4.72-7.15,6.79-10.9c3.92-7.11,6.8-14.66,9.46-22.3c0.3-0.86,0.53-1.74,0.76-2.63
		c0.06-0.24,0.13-0.6-0.22-0.72c-0.34-0.12-0.51,0.17-0.62,0.41c-0.28,0.61-0.56,1.22-0.8,1.85c-1.98,5.23-3.86,10.49-6.18,15.58
		c-3.21,7.06-7.09,13.73-11.73,19.96c0.64-0.08,1.28-0.16,1.93-0.24C144.18,134.62,144.37,134.27,144.6,133.95z"/>
	<path fill="#7DACA0" d="M125.08,111.62c-0.36-2.88,0.05-5.68,0.87-8.44c0.44-1.48,0.79-2.99,1.22-4.47
		c0.6-2.09,0.11-3.99-0.93-5.81c-0.21-0.36-0.45-0.66-0.93-0.6c-0.43,0.05-0.56,0.36-0.66,0.73c-0.16,0.53-0.34,1.06-0.55,1.57
		c-0.92,2.19-1.46,4.43-1.14,6.83c0.06,0.42,0.26,0.95-0.17,1.34c0.22,0.66,0.42,1.32,0.6,1.99c0.53,2.01,0.87,4.05,1.05,6.13
		C124.47,111.34,124.55,111.65,125.08,111.62z"/>
	<path fill="#7DACA0" d="M147.74,140.5c3.07,0.22,5.51-1.15,7.81-2.94c0.43-0.33,0.77-0.75,0.48-1.32c-0.28-0.56-0.8-0.6-1.34-0.46
		c-2.9,0.73-5.86,0.85-8.83,0.91c-0.37,1.39-1.27,2.5-1.92,3.75C145.21,140.45,146.48,140.41,147.74,140.5z"/>
	<path fill="#E479A7" d="M111.23,111.32c0.62-0.32,0.99-0.85,0.96-1.52c-0.04-0.7-0.42-1.26-1.08-1.6
		c-0.73-0.38-1.37-0.06-2.08,0.33c-0.37-1.44-0.76-2.81-1.86-3.82c-0.56-0.52-1.2-0.65-1.87-0.44c-0.7,0.22-0.82,0.91-0.88,1.55
		c-0.18,1.92,0.86,3.23,2.29,4.29c0.55,0.41,1.06,0.82,1.28,1.49c0.36,0.1,0.71,0.2,1.07,0.29
		C109.78,111.72,110.54,111.67,111.23,111.32z"/>
	<path fill="#7DACA0" d="M117.31,93.09c0.09,0.29,0.17,0.58,0.21,0.89l0,0c0.47,0.77,0.93,1.55,1.41,2.31
		c0.17,0.26,0.28,0.77,0.75,0.28c-0.72-1.63-0.61-3.32-0.37-5.01c0.18-1.26,0.37-2.51,0.32-3.79c-0.07-1.84-0.77-3.38-2.18-4.58
		c-0.22-0.19-0.48-0.49-0.83-0.24c-0.29,0.21-0.12,0.51-0.06,0.77c0.15,0.7,0.3,1.39,0.25,2.11c-0.09,1.54-0.16,3.08-0.24,4.63
		c0.01,0.4,0.1,0.78,0.22,1.15c0.08,0.25,0.16,0.49,0.25,0.73C117.14,92.59,117.23,92.84,117.31,93.09z"/>
	<path fill="#52A891" d="M124.95,119.8c0.08-0.14,0.13-0.28,0.17-0.42c0.16-0.55,0.11-1.14,0.32-1.64c0.04-0.11,0.1-0.21,0.17-0.3
		l0,0l0,0c-0.42-0.22-0.3-0.61-0.28-0.95c0.06-1.63-0.11-3.24-0.24-4.86c-0.53,0.02-0.61-0.28-0.65-0.74
		c-0.18-2.08-0.52-4.12-1.05-6.13c-0.18-0.67-0.38-1.33-0.6-1.99c-0.76-2.2-1.76-4.29-3.11-6.2c-0.47,0.49-0.58-0.02-0.75-0.28
		c-0.48-0.76-0.94-1.54-1.41-2.31l0,0c-0.12,0.57,0.26,1.07,0.26,1.62c3.34,5.04,5.63,10.48,6.29,16.53
		c0.14,1.3,0.44,2.64-0.12,3.93c0.46,1.28,0.05,2.74,0.77,4.06C124.81,120.02,124.89,119.91,124.95,119.8z"/>
	<path fill="#7DACA0" d="M117.52,93.97c-0.32-0.24-0.65-0.48-0.97-0.72l0,0l0,0c-0.07-0.08-0.14-0.15-0.21-0.23l0,0
		c-0.15-0.05-0.3-0.1-0.44-0.16c-2.06-0.94-4.19-1.66-6.41-2.14c-0.5-0.11-1.08-0.24-1.4,0.32c-0.33,0.58,0.15,0.95,0.49,1.33
		c0.78,0.88,1.74,1.47,2.83,1.9c2.05,0.79,4.22,1.01,6.37,1.34C117.78,95.04,117.4,94.55,117.52,93.97z"/>
	<path fill="#D59B85" d="M136.47,140.65c2.76-0.49,5.24-1.69,7.36-3.53c0.39-0.34,1.21-0.8,0.91-1.21c-0.42-0.58-1.12,0.1-1.7,0.26
		c-0.14,0.04-0.27,0.17-0.39,0.26c-1.7,1.28-3.64,2.07-5.64,2.71c-0.96,0.31-1.96,0.27-2.57-0.8c-0.55-0.04-0.99,0.13-1.28,0.62
		C134.01,140.04,135.06,140.9,136.47,140.65z"/>
	<path fill="#81AEA3" d="M163.96,102.25c1.32-0.02,2.17-0.81,2.19-2.01c0.02-1.23-1.09-2.34-2.35-2.36
		c-1.01-0.01-1.86,0.98-1.89,2.2C161.89,101.25,162.84,102.26,163.96,102.25z"/>
	<path fill="#81AEA3" d="M155.29,107.87c-0.04-1.1-0.98-1.94-2.17-1.93c-1.1,0.01-2.07,1.22-2.01,2.5c0.06,1.05,0.92,1.79,2.02,1.73
		C154.25,110.12,155.33,108.96,155.29,107.87z"/>
	<path fill="#81AEA3" d="M152.48,113.64c0-1.25-1.04-2.29-2.26-2.27c-0.99,0.02-1.68,0.87-1.67,2.04c0.01,1.37,0.87,2.39,1.98,2.35
		C151.63,115.72,152.48,114.8,152.48,113.64z"/>
	<path fill="#81AEA3" d="M157.71,101.8c0.03-1.07-0.89-1.96-2.08-2c-0.95-0.03-1.86,1.03-1.88,2.21c-0.02,1.2,0.72,2.1,1.75,2.14
		C156.61,104.2,157.68,103.07,157.71,101.8z"/>
	<path fill="#81AEA3" d="M149.91,119.01c-0.01-1.07-0.98-2.07-2.03-2.09c-0.97-0.02-2.12,1.15-2.14,2.17
		c-0.03,1.08,0.95,2.04,2.05,2.03C148.94,121.1,149.92,120.12,149.91,119.01z"/>
	<path fill="#81AEA3" d="M160.34,96.79c0.01-1.1-0.94-2.04-2.05-2.05c-1.16-0.01-1.86,0.78-1.89,2.13
		c-0.03,1.19,0.72,2.05,1.81,2.07C159.33,98.95,160.34,97.94,160.34,96.79z"/>
	<path fill="#81AEA3" d="M160.21,106.2c0.01,1.17,0.7,1.87,1.84,1.87s2.12-1.06,2.11-2.28c-0.01-1.01-1.02-1.96-2.04-1.93
		C161.1,103.89,160.21,104.98,160.21,106.2z"/>
	<path fill="#D59B85" d="M104.4,132.92c0.04-1.67,0.01-3.34,0.01-5c-0.67-0.28-1.19-0.15-1.49,0.57c0.6,1.94,0.49,3.91-0.16,5.76
		c-0.37,1.04-1.54,1.26-2.63,1.21c-0.35,0.24-0.3,0.59-0.27,0.94C102.46,137.11,104.33,135.41,104.4,132.92z"/>
	<path fill="#C08771" d="M102.76,134.25c0.65-1.85,0.76-3.82,0.16-5.76c-1.53,2.08-2.29,4.47-2.79,6.97
		C101.22,135.51,102.4,135.29,102.76,134.25z"/>
	<path fill="#81AEA3" d="M158.76,111.98c-0.01,1.04,0.81,1.89,1.85,1.93c1.06,0.04,1.93-0.84,1.94-1.96
		c0.01-1.12-0.81-2.07-1.82-2.1C159.76,109.82,158.77,110.89,158.76,111.98z"/>
	<path fill="#82AFA4" d="M156.85,123.41c-0.03-1.08-0.74-1.79-1.79-1.79c-1.14,0-2.19,1.02-2.15,2.1c0.03,1.04,0.85,1.75,1.99,1.73
		C156.11,125.42,156.88,124.62,156.85,123.41z"/>
	<path fill="#82AFA4" d="M160.16,117.49c-0.02-1.01-0.87-1.78-1.98-1.79c-1.12,0-2,0.82-2.01,1.9c-0.01,1.06,0.77,1.84,1.88,1.86
		C159.12,119.49,160.18,118.5,160.16,117.49z"/>
	<path fill="#D59B85" d="M141.17,151.68c2.26,0.56,4.36-0.04,6.43-0.87c0.39-0.15,0.97-0.16,0.85-0.78c-0.12-0.65-0.71-0.5-1.17-0.5
		c-0.23,0-0.47,0.06-0.7,0.12c-1.08,0.25-2.14,0.57-3.23,0.73c-0.61,0.09-1.45,0.55-1.82-0.47c-0.57,0.08-1.16,0.09-1.62,0.53
		C140.04,151.14,140.48,151.51,141.17,151.68z"/>
	<path fill="#82AFA4" d="M150.21,129.06c0.01,0.99,0.81,1.75,1.86,1.76c1.12,0.01,2.05-0.9,2.05-2.03c0-0.91-0.73-1.65-1.64-1.67
		C151.23,127.09,150.2,127.98,150.21,129.06z"/>
	<path fill="#81AEA3" d="M144.82,122.63c-1.16-0.02-2.04,0.83-2.05,1.97c-0.01,1.06,0.68,1.75,1.78,1.78
		c1.12,0.02,2.05-0.87,2.07-1.98C146.63,123.36,145.9,122.64,144.82,122.63z"/>
	<path fill="#52A891" d="M123.98,128.99L123.98,128.99c0.07-1.76,0.69-3.45,0.7-5.21c-0.94-0.54-0.39-1.36-0.37-2.07
		c0.01-0.4,0.37-0.85-0.31-1.03c-0.28,3.12-0.8,6.2-1.42,9.27c0.16-0.02,0.3-0.07,0.42-0.14
		C123.35,129.58,123.58,129.16,123.98,128.99z"/>
	<path fill="#52A891" d="M116.55,93.25c0.32,0.24,0.65,0.48,0.97,0.72l0,0l0,0c-0.04-0.3-0.12-0.6-0.21-0.89
		c-0.08-0.25-0.17-0.5-0.26-0.74c-0.09-0.24-0.18-0.49-0.25-0.73c-0.11-0.37-0.2-0.75-0.22-1.15c-1.11-1.69-1.61-3.62-2.16-5.68
		c-0.58,0.61-0.44,1.15-0.34,1.68c0.25,1.33,0.78,2.57,1.27,3.83c0.35,0.9,0.97,1.71,1,2.72C116.53,92.97,116.52,93.13,116.55,93.25
		z"/>
	<path fill="#52A891" d="M116.33,93.02l-0.01-0.01C116.32,93.01,116.33,93.02,116.33,93.02L116.33,93.02L116.33,93.02z"/>
	<path fill="#D66796" d="M143.25,49.61c-0.13-0.8-0.49-1.42-1.42-1.4c-0.85,0.03-1.27,0.6-1.34,1.39c-0.07,0.79,0.63,1.47,1.41,1.41
		C142.73,50.95,143.17,50.46,143.25,49.61z"/>
	<path fill="#D66796" d="M151.61,48.56c0.03-0.88-0.36-1.33-1.32-1.36c-0.82,0.02-1.31,0.47-1.33,1.38
		c-0.02,0.9,0.44,1.46,1.33,1.46S151.58,49.45,151.61,48.56z"/>
	<path fill="#D66796" d="M147.88,50.83c-0.01-0.84-0.56-1.32-1.4-1.28c-0.75,0.03-1.14,0.49-1.1,1.26c0.04,0.83,0.5,1.21,1.25,1.23
		C147.46,52.01,147.89,51.55,147.88,50.83z"/>
	<path fill="#81AEA3" d="M114.92,83.19c0-0.67-0.37-1.05-0.99-1.08c-0.66-0.03-1.01,0.45-1.03,1.05c-0.02,0.63,0.35,1.02,0.99,1.05
		C114.59,84.2,114.92,83.86,114.92,83.19z"/>
	<path fill="#54AA93" d="M119.88,144.89c-0.08,0.14-0.15,0.29-0.23,0.43c0.01,0.37,0.02,0.75,0.03,1.12
		c0.08-0.02,0.15-0.06,0.23-0.08c0.28-0.09,0.53-0.23,0.75-0.44c-0.01-0.03,0-0.05-0.01-0.08c-0.16-0.76,0.16-1.49,0.17-2.24l0,0
		C120.41,143.96,120.14,144.41,119.88,144.89z"/>
	<path fill="#D59B85" d="M108.56,144.92c-0.28-0.26-0.61,0.05-0.82,0.24c-2.47,2.24-4.3,4.94-5.45,8.07
		c-0.94,2.56-1.18,5.23-0.98,7.95c0,0.79-0.01,1.59,0,2.38c0.02,0.87-0.12,1.75,0.24,2.58c0.1,0.22,0.19,0.49,0.47,0.42
		c0.15-0.04,0.3-0.25,0.36-0.41c0.08-0.26,0.1-0.54,0.11-0.81c0.08-2.29-0.02-4.58,0.19-6.88c0.23-2.51,0.72-4.88,1.87-7.13
		c1.03-2.02,2.47-3.76,3.78-5.58C108.52,145.49,108.88,145.21,108.56,144.92z"/>
	<path fill="#D59B85" d="M116.35,150.38c0.12-0.08,0.24-0.17,0.37-0.26c0.64-0.49,1.39-1.19,1.66-1.85
		c0.11-0.26,0.19-0.57-0.06-0.77c-0.27-0.22-0.5,0-0.73,0.17c-0.41,0.31-0.85,0.58-1.25,0.9c-2.29,1.83-4.49,3.68-5.42,6.68
		c-0.94,3.02-1.07,6.11-1.25,9.21c-0.01,0.19,0.05,0.39,0.13,0.57c0.12,0.28,0.21,0.65,0.62,0.6c0.33-0.04,0.4-0.34,0.43-0.63
		c0.16-1.33,0.36-2.65,0.46-3.98c0.22-2.89,0.66-5.73,2.42-8.14C114.49,151.84,115.28,151.1,116.35,150.38z"/>
	<path fill="#D59B85" d="M131.58,126.72c-0.4-0.24-0.75,0.05-1.02,0.37c-0.08,0.09-0.12,0.21-0.19,0.3
		c-1.08,1.25-1.99,2.66-3.22,3.79c-1.49,1.39-1.5,1.39-3.15,0.35c-0.17-0.11-0.32-0.26-0.5-0.31c-0.3-0.08-0.67-0.16-0.88,0.14
		c-0.2,0.29-0.09,0.61,0.15,0.87c0.68,0.73,1.34,1.51,2.5,1.31c0.89,0.16,1.47-0.37,2.12-0.84c1.8-1.31,2.93-3.18,4.2-4.93
		C131.82,127.45,132.04,126.99,131.58,126.72z"/>
	<path fill="#D59B85" d="M119.33,168.93c-0.61,0.01-0.56,0.76-0.6,1.23c-0.05,0.75-0.01,1.5-0.01,2.45
		c0.03,1.03-0.12,2.26,0.22,3.46c0.09,0.3-0.14,0.83,0.42,0.78c0.41-0.03,0.53-0.49,0.51-0.83c-0.08-1.16,0.26-2.27,0.26-3.41
		c0-0.83,0.05-1.67-0.04-2.49C120.04,169.64,119.87,168.91,119.33,168.93z"/>
	<path fill="#D59B85" d="M118.7,153.9c-0.64-1.03-1.65-1.38-2.61-1.54c-0.67,0.04-1.25,0.02-1.39,0.66
		c-0.1,0.46,0.19,0.79,0.67,0.77c1-0.04,1.84,0.28,2.59,0.93c0.22,0.19,0.55,0.38,0.83,0.04
		C119.03,154.45,118.88,154.19,118.7,153.9z"/>
	<path fill="#D59B85" d="M107.22,148.54c-0.06,0.07-0.11,0.17-0.13,0.3c-0.09,0.45,0.28,0.59,0.59,0.77
		c0.78,0.45,1.57,0.89,2.34,1.36c0.3,0.18,0.56,0.29,0.85,0.03c0.23-0.2,0.12-0.41,0.03-0.64c-0.08-0.21-0.25-0.44-0.47-0.67
		c-0.65-0.69-1.76-1.35-2.41-1.36C107.71,148.33,107.4,148.33,107.22,148.54z"/>
	<path fill="#D59B85" d="M123.46,160.96c0.79,0.59,1.76,0.87,2.49,1.56c0.18,0.17,0.45,0.11,0.64-0.07
		c0.19-0.18,0.23-0.39,0.14-0.64c-0.12-0.35-0.62-0.84-1.19-1.26c-0.28-0.21-0.59-0.39-0.86-0.53s-0.53-0.23-0.73-0.24
		c-0.18-0.01-0.37-0.01-0.52,0.05c-0.16,0.05-0.28,0.16-0.35,0.37C122.94,160.56,123.19,160.75,123.46,160.96z"/>
	<path fill="#D59B85" d="M109.38,152.17c-0.64-0.63-1.88-1.44-2.31-1.45c-0.27,0-0.55-0.01-0.75,0.16
		c-0.07,0.06-0.12,0.13-0.17,0.23c-0.11,0.26-0.16,0.56,0.16,0.73c0.9,0.48,1.8,0.98,2.73,1.4c0.42,0.19,0.83,0.05,0.72-0.54
		C109.74,152.56,109.6,152.37,109.38,152.17z"/>
	<path fill="#D59B85" d="M116.87,150.29c-0.01,0.01-0.02,0.02-0.03,0.04c-0.29,0.39,0.04,1.06,0.46,1.22
		c0.76,0.29,1.33,0.84,1.88,1.41c0.22,0.22,0.49,0.51,0.81,0.23c0.28-0.25,0.17-0.61-0.02-0.88
		C119.58,151.75,117.63,149.4,116.87,150.29z"/>
	<path fill="#D59B85" d="M125.33,158.87c0.61,0.55,1.24,1.08,1.87,1.62c0.15,0.13,0.32,0.23,0.53,0.1c0.18-0.12,0.26-0.29,0.25-0.5
		c0-0.38-0.53-1.06-1.1-1.57c-0.17-0.15-0.34-0.29-0.5-0.39c-0.24-0.16-0.46-0.26-0.63-0.26c-0.28,0-0.57,0.02-0.71,0.31
		C124.87,158.5,125.13,158.7,125.33,158.87z"/>
	<path fill="#BD836D" d="M121.03,159.63c0.26-0.35,0.6-0.62,0.93-0.9c0.05-0.04,0.1-0.08,0.15-0.13c0.08-0.07,0.16-0.15,0.24-0.23
		c0.24-0.22,0.45-0.47,0.6-0.77c0.02-0.04,0.06-0.07,0.08-0.12c-0.15-0.03-0.31-0.07-0.46-0.1c-0.15,0.1-0.28,0.21-0.4,0.33
		C121.6,158.23,121.24,158.88,121.03,159.63z"/>
	<path fill="#D46192" d="M153.14,67.03c-1.23-0.05-2.32-0.51-3.31-1.19c-1.15-0.78-2.3-1.58-3.6-2.07
		c-1.47-0.56-3.03-0.67-4.26,0.44c-1.69,1.52-2.79,3.43-2.79,5.88c-0.05,2.73,1.37,4.8,3.21,6.71c0.98,1.02,2.14,1.45,3.5,1.43
		c3.23-0.05,5.64-1.82,7.96-3.79c1.06-0.9,1.78-2.01,2.16-3.35C156.72,68.56,155.72,67.14,153.14,67.03z"/>
	<path fill="#52A891" d="M116.55,93.25L116.55,93.25c-0.03-0.12-0.01-0.28-0.21-0.24h-0.01l0.01,0.01
		C116.4,93.1,116.48,93.17,116.55,93.25z"/>
</g>
</svg>
