<?xml version="1.0" encoding="utf-8"?>
<!-- Generator: Adobe Illustrator 25.4.1, SVG Export Plug-In . SVG Version: 6.00 Build 0)  -->
<svg version="1.1" baseProfile="tiny" id="Layer_1" xmlns="http://www.w3.org/2000/svg" xmlns:xlink="http://www.w3.org/1999/xlink"
	 x="0px" y="0px" viewBox="0 0 410 410" overflow="visible" xml:space="preserve">
<g>
	<g>
		
			<line fill="none" stroke="#A185B9" stroke-width="5" stroke-linecap="round" stroke-linejoin="round" stroke-miterlimit="10" x1="286.14" y1="25.62" x2="286.14" y2="299.2"/>
		
			<line fill="none" stroke="#A185B9" stroke-width="5" stroke-linecap="round" stroke-linejoin="round" stroke-miterlimit="10" x1="286.14" y1="299.2" x2="9.82" y2="320.69"/>
		
			<line fill="none" stroke="#A185B9" stroke-width="5" stroke-linecap="round" stroke-linejoin="round" stroke-miterlimit="10" x1="286.14" y1="299.2" x2="404.65" y2="322.63"/>
	</g>
	<g>
		<g>
			<path fill="#484153" d="M327.27,300.63c-2.95-2.43-3.81-5.84-4.41-9.38c-0.68-3.97-0.83-7.99-1.06-12
				c-0.25-4.21-0.56-8.43-1.09-12.63c-0.39-3.13-0.5-6.3-0.81-9.45c-0.39-3.9-0.9-7.78-1.46-11.65c-0.45-3.13-0.74-6.28-1.05-9.42
				c-0.43-4.34-0.85-8.68-1.2-13.03c-0.2-2.47-0.33-4.94-0.5-7.41c-0.44-6.46,0.09-12.94-0.38-19.4c-0.1-1.32,0.17-2.67,0.26-4.01
				c0.98,0.16,1.89,0.67,2.91,0.55c2.62-0.3,5.26-0.21,7.9-0.51c2.63-0.3,5.02-0.97,7.23-2.4c5.11-3.3,9.63-7.27,15.47-9.15
				c0.16,0.11,0.94,0.19,1.05,0.02c0.82-0.11,1.65,0.46,2.47,0.35c0.06,0.38,0.03,0.74-0.16,1.09c-0.69,1.28-1.38,2.56-2.07,3.84
				c-0.97,0.05-1.27-0.97-2.02-1.29c-0.34-0.14-0.65-0.31-0.93,0.01c-0.31,0.35-0.05,0.62,0.19,0.89c1.46,1.59,2.94,3.15,4.37,4.77
				c1.6,1.82,3.18,3.67,4.47,5.74c0.27,0.43,0.48,0.91,0.77,1.33c0.22,0.31,0.57,0.39,0.92,0.19c0.33-0.19,0.44-0.47,0.3-0.87
				c-0.24-0.69-0.59-1.31-0.97-1.92c-0.23-0.37-0.59-0.69-0.52-1.19c0.8-0.58,1.02-1.45,1.01-2.35c-0.01-1.12,0.22-2.17,0.64-3.19
				c0.48-1.17,0.95-2.34,1.36-3.54c0.29-0.84,0.53-1.81,1.53-2.18c0.38,0.05,0.74-0.87,1.12-0.82c0.11,0.21,0.59,0.73,0.85,0.6
				c3.34,1.2,3.97,3.07,3.83,6.37c-0.05,1.22-0.13,2.46,0.11,3.68c-0.59,5.05-1.47,10.04-2.54,15.01
				c-0.83,3.85-1.45,7.75-2.09,11.65c-0.56,3.4-0.89,6.8-1.15,10.22c-0.27,3.56,0.32,7.05,0.93,10.54c0.94,5.4,2.5,10.63,4.52,15.71
				c2.17,5.47,4.89,10.7,7.59,15.92c0.53,1.02,1.03,2.06,1.47,3.13c0.43,1.03,0.64,2.19,1.1,3.18c0.06,0.12,0.06,0.26,0.07,0.4
				c0.02,1.2-0.4,2.11-1.04,3.11c-0.15,0.23-0.29,0.45-0.46,0.66c-0.67,0.81-1.3,1.58-2.02,2.34c-1.19,0.92-2.36,1.87-3.57,2.76
				c-1.93,1.42-3.72,3.09-6.24,3.44c-0.86-0.48-1.72-0.88-2.39-1.71c-1.58-1.95-2.92-4.07-4.35-6.12
				c-2.48-3.54-5.18-6.94-7.08-10.86c-1.09-2.25-2.27-4.44-3.02-6.87c-0.7-2.27-2.3-4.11-3.64-6.07c-2.22-3.24-4.03-6.72-5.76-10.23
				c-2.21-4.47-3.32-9.19-3.36-14.18c-0.03-3.95-0.1-7.91-0.19-11.86c-0.02-1.06-0.1-2.13-0.27-3.17c-0.41-2.5-0.98-4.98-1.31-7.49
				c-0.41-3.13-1.65-5.85-3.57-8.3c-0.89-1.13-1.83-2.23-2.64-3.41c-0.34-0.49-0.55-1.05-1.22-0.68c-0.72,0.4-0.44,1-0.07,1.5
				c0.94,1.31,1.89,2.61,2.85,3.9c1.33,1.78,2.4,3.66,2.86,5.87c0.41,1.94,0.65,3.91,1.06,5.85c0.51,2.39,0.76,4.82,0.87,7.23
				c0.19,4.15,0.02,8.32,0.22,12.48c0.12,2.6,0.5,5.12,1.31,7.56c2.18,6.58,5.55,12.54,9.78,18.02c1.16,1.51,2.15,3.07,2.4,5.04
				c0.19,1.49,0.6,2.95,0.88,4.43c0.39,2.01,0.93,4.01,1.08,6.04c0.16,2.12,0.26,4.26,0.27,6.38c0,4.04,0.14,8.08-0.51,12.12
				c-0.36,2.24-1.17,4.2-2.1,6.18c-0.33,0.7-0.93,1.12-1.65,1.3c-0.87,0.22-1.74,0.31-2.65,0.18c-0.8-0.11-1.6-0.49-2.43-0.19
				c-1.28-0.18-2.58-0.3-3.84-0.56C332.74,302.13,329.79,302.2,327.27,300.63z M358.95,235.45c-0.12-0.19-0.26-0.46-0.47-0.69
				c-1.12-1.21-2.35-2.31-3.65-3.32c-3.29-2.57-6.9-4.76-9.79-7.83c-0.17-0.18-0.37-0.5-0.68-0.24c-0.27,0.23-0.25,0.56-0.04,0.84
				c0.38,0.49,0.75,0.98,1.18,1.42c2.76,2.8,6.04,4.95,9.09,7.4c1.04,0.84,2.03,1.74,3.02,2.64c0.31,0.28,0.63,0.41,1.03,0.27
				C358.81,235.87,358.93,235.75,358.95,235.45z"/>
			<path fill="#DFC162" d="M367.42,192.24c-0.24-1.22-0.16-2.46-0.11-3.68c0.05-1.18,0-2.46-0.65-3.49
				c-0.74-1.16-2.08-1.66-3.25-2.25c-0.7-0.36-1.16-0.31-1.9-0.4c0.08-0.82,0.71-1.29,1.2-1.85c1.93-2.23,3.97-4.37,5.78-6.68
				c1.27-1.63,2.61-3.26,3.34-5.25c0.8-0.45,0.81-0.85-0.22-1.49c-2.69-1.69-5.12-3.85-8.15-4.92c-1.47-0.52-1.81-1.48-1.76-2.82
				c0.11-3.64,0.22-7.28,0.26-10.92c0.02-1.8,0.29-3.62,0.69-5.38c0.48-2.13,0.98-4.25,1.32-6.41c0.34-2.16,0.29-4.43,0.94-6.48
				c1.03-3.25,0.98-6.61,1.5-9.91c0.06-0.36-0.14-0.63-0.45-0.73c-0.44-0.14-0.47,0.26-0.58,0.54c-0.25,0.65-0.36,1.31-0.39,2.01
				c-0.07,1.67-0.28,3.35-0.74,4.95c-0.48,1.64-0.84,3.3-1.1,4.98c-0.39,2.53-0.58,5.11-1.16,7.59c-0.67,2.84-1.18,5.71-1.27,8.6
				c-0.1,3.26-0.34,6.52-0.29,9.78c0.02,1.67,0.08,3.28,0.87,4.79c-1.21,1.41-1.99,3.1-2.95,4.66c-1.15,1.87-1.85,3.96-2.83,5.91
				c-0.94,1.89-1.92,3.79-2.23,5.91c-0.1,0.67-0.34,1.24-0.71,1.78c-0.43,0.06-0.87,0.22-1.3,0.27c-0.47,0.05-0.94-0.05-1.41,0.05
				c-0.34,0.07-0.66,0.21-0.97,0.35c-5.3,2.34-10.44,4.97-15.31,8.12c-2.21,1.43-4.61,2.1-7.23,2.4c-2.63,0.3-5.28,0.21-7.9,0.51
				c-1.02,0.12-1.94-0.4-2.91-0.55c-0.87-1-0.56-2.23-0.6-3.36c-0.1-3.54,0.42-7.05,0.56-10.58c0.13-3.14,0.33-6.3,0.53-9.45
				c0.09-1.33-0.02-1.42-1.35-1.43c-0.6,0-1.04-0.21-1.45-0.63c-1.91-1.95-3.51-4.13-4.86-6.5c-0.66-1.16-1.34-2.31-2.18-3.36
				c-0.57-0.72-1.29-1.32-2.14-1.25c-2.54,0.2-4.31-1.38-6.3-2.47c-0.15-0.08-0.3-0.18-0.43-0.28c-1.26-1.01-1.42-1.57-0.93-3.11
				c0.58-1.8,1.64-3.31,2.83-4.74c0.31-0.37,0.67-0.7,0.71-1.22c0.93-0.74,1.48-1.77,2.02-2.77c0.96-1.79,1.76-3.67,2.74-5.46
				c0.32-0.58,0.61-1.33,1.43-1.49c1.48,0.55,2.43,1.74,3.45,2.85c1.02,1.11,1.89,2.36,3.1,3.29c0.54,0.42,0.74,0.4,0.91-0.35
				c1.02-4.37,1.67-8.81,2.51-13.22c0.72-3.78,2.22-7.28,4.49-10.42c1.43-1.98,2.9-3.92,4.6-5.67c1.73-1.78,3.72-3.12,6.18-3.74
				c1.38-0.35,2.73-0.06,4.09,0c0.81,0.21,1.6,0.52,2.45,0.61c1.29,0.13,2.58,0.26,3.87,0.45c0.55,0.08,1.05,0.12,1.62,0.06
				c2.85-0.33,5.49-1.4,8.19-2.24c0.73-0.23,1.58-0.48,2.1-1.2c0.35,0.1,0.67-0.02,0.99-0.15c4.68-1.92,8.36-1.22,11.64,2.66
				c1.46,1.73,3.01,3.4,4.33,5.23c2.26,3.14,3.48,6.77,4.46,10.46c1.33,4.96,2.59,9.94,3.44,15.01c0.24,1.42,0.38,2.85,0.46,4.29
				c0.29,5.18,0.09,10.37-0.04,15.55c-0.08,2.97-0.55,5.94-1.5,8.79c-0.69,2.08-1.53,2.69-3.72,2.63c-0.8-0.02-1,0.06-0.99,1.04
				c0.03,4.43,0.32,8.86-0.22,13.28c-0.33,2.67-0.67,5.3-2.01,7.7C369.74,192.47,368.96,192.79,367.42,192.24z M316.63,157.16
				c0.13,0.52-0.17,1.18,0.45,1.23c0.54,0.04,0.71-0.57,0.81-1.04c0.15-0.74,0.24-1.48,0.36-2.22c0.48-2.86,0.87-5.74,1.12-8.63
				c0.19-2.21,0.32-4.44,0.69-6.62c0.48-2.83,0.76-5.68,1.33-8.49c0.54-2.67,0.89-5.37,1.33-8.06c0.07-0.4,0.35-0.91-0.2-1.03
				c-0.41-0.09-0.53,0.5-0.6,0.83c-0.4,1.76-0.76,3.53-1.1,5.3c-0.48,2.51-0.96,5.02-1.37,7.55c-0.47,2.9-0.81,5.81-1.13,8.73
				c-0.23,2.14-0.42,4.28-0.74,6.41C317.27,153.17,317.25,155.27,316.63,157.16z M344.48,177.11c0.16,0.01,0.49,0.01,0.64-0.34
				c0.15-0.36-0.09-0.6-0.35-0.77c-0.49-0.31-0.97-0.61-1.54-0.82c-2.56-0.93-5.23-1.49-7.85-2.21c-2.36-0.65-4.69-1.38-6.94-2.36
				c-0.47-0.21-1.04-1.12-1.43-0.45c-0.35,0.61,0.59,1.02,1.12,1.33c2.19,1.29,4.65,1.92,7.03,2.72c2.49,0.84,5.09,1.33,7.55,2.29
				C343.23,176.71,343.7,177.11,344.48,177.11z M316.26,147.67c0.15-0.81-0.37-1.57-0.45-2.43c-0.11-1.18-0.56-2.31-1.01-3.42
				c-0.15-0.36-0.38-0.72-0.83-0.6c-0.5,0.13-0.26,0.53-0.19,0.85c0.42,2.07,0.85,4.13,1.28,6.2c0.08,0.4,0.31,0.73,0.76,0.68
				c0.45-0.05,0.45-0.45,0.45-0.8C316.26,148.02,316.26,147.89,316.26,147.67z"/>
			<path fill="#D69B7D" d="M353.69,104.56c-0.51,0.72-1.36,0.97-2.1,1.2c-2.7,0.84-5.34,1.91-8.19,2.24
				c-0.56,0.06-1.07,0.02-1.62-0.06c-1.28-0.19-2.58-0.32-3.87-0.45c-0.85-0.09-1.63-0.4-2.45-0.61c0.13-0.5,0.27-0.98,0.22-1.51
				c-0.17-1.7-0.76-2.35-2.34-1.97c-3.8,0.89-6.26-0.85-8.24-3.8c-1.5-2.23-2.91-4.51-3.87-7.02c-0.57-1.48-1.42-2.74-2.69-3.69
				c-0.13-0.93-1.09-1.08-1.58-1.68c-1.81-2.22-2.16-4.79-1.63-7.49c0.57-2.9,3.42-5.93,7.3-5.77c2.56,0.11,5.13,0.22,7.67-0.51
				c1.32-0.38,2.56,0.03,3.49,1.2c0.82,1.02,1.58,2.08,2.27,3.19c0.29,0.47,0.47,0.58,0.98,0.15c2.01-1.69,4.82-0.68,5.48,1.88
				c0.29,1.12-0.03,2.17-0.17,3.25c-0.1,0.72-0.28,1.51,0.38,2.02c0.9,0.69,1.65,1.51,2.4,2.34c0.03,0.81,0.45,1.5,0.69,2.24
				c0.66,2.09,1.4,4.15,2.06,6.23c0.84,2.68,2.47,4.86,4.31,6.91C352.71,103.42,353.2,103.99,353.69,104.56z"/>
			<path fill="#414447" d="M345.16,87.46c-0.75-0.83-1.5-1.65-2.4-2.34c-0.67-0.51-0.48-1.3-0.38-2.02
				c0.15-1.08,0.46-2.13,0.17-3.25c-0.66-2.56-3.46-3.57-5.48-1.88c-0.51,0.43-0.68,0.32-0.98-0.15c-0.69-1.11-1.45-2.16-2.27-3.19
				c-0.93-1.17-2.17-1.58-3.49-1.2c-2.54,0.73-5.11,0.62-7.67,0.51c-3.88-0.16-6.73,2.87-7.3,5.77c-0.53,2.7-0.18,5.26,1.63,7.49
				c0.49,0.6,1.44,0.75,1.58,1.68c-2.47-0.03-3.88-1.1-4.65-3.41c-0.33-0.99-1.28-1.57-1.92-2.35c-1.85-2.25-2.58-3.91-0.04-7.29
				c0.82-1.09,1.17-2.13,0.85-3.53c-0.45-1.97,0.55-3.88,2.56-4.82c1.82-0.85,3.54-1.79,5.03-3.16c0.87-0.79,2.03-1,3.18-1.04
				c0.97-0.03,1.81-0.32,2.58-0.9c2.18-1.63,4.54-1.92,7-0.76c1.46,0.69,2.91,1.09,4.55,1.04c1.55-0.04,2.62,0.93,3.37,2.22
				c0.61,1.04,1.05,2.17,1.4,3.32c0.23,0.76,0.63,1.32,1.33,1.75c1.79,1.1,2.61,2.73,2.23,4.82c-0.28,1.52-0.32,2.98,0.19,4.47
				c0.3,0.86,0.26,1.77,0.04,2.65c-0.28,1.15-0.37,2.29-0.14,3.47C346.29,86.24,346.01,87.01,345.16,87.46z"/>
			<path fill="#D69C7E" d="M306.15,134.13c-0.83,0.15-1.12,0.91-1.43,1.49c-0.97,1.79-1.78,3.66-2.74,5.46
				c-0.54,1-1.09,2.04-2.02,2.77c-3.65-4.44-7.15-8.96-9.39-14.34c-1.16-2.79-3.3-4.97-5.14-7.31c-0.56-0.71-1.07-1.45-1.33-2.31
				c-1.17-3.79-3.6-6.59-6.82-8.77c-1.85-1.25-3.69-2.52-5.53-3.78c-0.43-0.29-0.84-0.61-1.01-1.13c0.01-0.84,0.57-1.17,1.27-1.4
				c1.62-0.55,3.24-0.36,4.88-0.09c2.53,0.42,4.83,1.49,7.19,2.43c2.69,1.07,5.34,1.99,8.14,0.13c1.06-0.7,2.86-0.25,2.83,1.48
				c-0.26,2.15-0.8,4.26-1.41,6.33c-0.58,1.97-0.22,3.73,0.66,5.47c1.37,2.71,3.29,4.99,5.43,7.1c1.91,1.89,3.87,3.72,5.8,5.58
				C305.77,133.48,306.11,133.7,306.15,134.13z"/>
			<path fill="#434649" d="M382.8,300.4c2.23,1.38,4.34,2.92,5.63,5.29c1.36,2.5,1.12,4.55-0.79,6.73c-1.66,1.9-3.72,3.36-5.55,5.09
				c-2.57,2.44-5.18,4.83-7.78,7.24c-0.99,0.92-2.08,1.71-3.31,2.26c-1.8,0.82-3.2-0.11-3.17-2.09c0.03-1.56,0.42-3.06,1.02-4.5
				c0.92-2.19,1.84-4.37,2.83-6.53c0.57-1.24,0.94-2.48,0.83-3.88c-0.07-0.89,0.04-1.79,0.06-2.68c0.6-0.85,0.97-1.95,2.14-2.22
				c1.72-0.4,2.91-1.63,4.27-2.6C380.17,301.68,381,300.17,382.8,300.4z"/>
			<path fill="#E48FB1" d="M301.58,95.51c0.48,0.78,0.64,1.58,0.49,2.53c-0.24,1.58-0.35,3.17-0.74,4.73
				c-0.38-0.01-0.79,0.08-1.12-0.05c-1.37-0.54-2.65-0.36-4,0.15c-0.88,0.34-1.88,0.4-2.79-0.16c-1.33-0.83-2.71-0.9-4.12-0.24
				c-0.9,0.42-1.77,0.27-2.55-0.25c-1.12-0.75-2.32-0.89-3.54-0.49c-1.26,0.41-2.33,0.17-3.41-0.53c-1.22-0.8-2.56-1.18-4.01-0.65
				c-0.57,0.21-1.1,0.04-1.6-0.17c-0.63-0.26-1.23-0.61-1.82-0.95c-0.92-0.52-1.86-0.66-2.87-0.31c-0.99,0.35-1.99,0.22-2.93-0.14
				c-0.85-0.32-1.65-0.4-2.5-0.09c-0.54-1.53-0.33-3.08,0.05-4.58c0.29-1.18,0.04-2.51,0.92-3.53c2.63,0.24,5.18,0.92,7.78,1.33
				c3.95,0.62,7.9,1.23,11.87,1.76c2.81,0.38,5.61,0.82,8.43,1.18C295.92,95.4,298.72,96.04,301.58,95.51z"/>
			<path fill="#434649" d="M329.27,330.32c-3.07-0.09-6.15-0.23-9.22-0.37c-1.16-0.05-2.33-0.08-3.49-0.11
				c-1.09-0.03-3.72,0.36-4.39-0.66c-0.3-0.45-0.31-1.05-0.18-1.57c0.29-1.11,1.17-1.95,2.07-2.66c0.95-0.75,1.97-1.41,3.04-1.97
				c0.98-0.51,2.08-1.17,3.14-1.48c0.08-0.02,0.16-0.04,0.23-0.08c0.05-0.03,0.09-0.06,0.14-0.1c1.62-1.32,3.34-2.54,5.11-3.66
				c0.8-0.5,2.11-0.86,3.02-0.48c1.34,0.55,2.72,0.27,4.13,0.13c1.84-0.18,3.69-0.79,5.58-0.28c0.74,1.12,0.97,2.57,1.19,3.87
				c0.21,1.18,0.31,2.38,0.37,3.58c0.06,1.35-0.14,2.44-0.79,3.64c-0.07,0.14-0.15,0.27-0.22,0.41c-0.11,0.19-0.21,0.39-0.34,0.57
				c-0.36,0.51-0.91,0.88-1.52,1.04c-0.22,0.06-0.46,0.08-0.69,0.11c-2.01,0.24-4.06,0.14-6.08,0.09
				C330,330.34,329.64,330.33,329.27,330.32z"/>
			<path fill="#148170" d="M264.08,98.87c0.85-0.31,1.65-0.23,2.5,0.09c0.94,0.36,1.94,0.49,2.93,0.14
				c1.01-0.36,1.95-0.21,2.87,0.31c0.6,0.34,1.19,0.69,1.82,0.95c0.5,0.21,1.03,0.38,1.6,0.17c1.46-0.53,2.79-0.14,4.01,0.65
				c1.08,0.7,2.15,0.94,3.41,0.53c1.22-0.4,2.42-0.26,3.54,0.49c0.77,0.52,1.64,0.67,2.55,0.25c1.41-0.65,2.8-0.58,4.12,0.24
				c0.91,0.56,1.91,0.5,2.79,0.16c1.35-0.52,2.63-0.7,4-0.15c0.33,0.13,0.74,0.04,1.12,0.05c0.86,0.14,1.12,0.65,0.98,1.48
				c-0.13,0.78-0.16,1.57-0.32,2.34c-0.22,1.03-0.81,1.68-1.94,1.82c-1.67,0.21-3.34,0.35-5.02,0.35c0.03-1.73-1.77-2.18-2.83-1.48
				c-2.8,1.85-5.45,0.94-8.14-0.13c-2.35-0.94-4.66-2.01-7.19-2.43c-1.63-0.27-3.26-0.46-4.88,0.09c-0.7,0.24-1.26,0.56-1.27,1.4
				c-1.68-0.2-3.34-0.46-4.94-1C263.09,104.28,262.23,101.08,264.08,98.87z"/>
			<path fill="#F7C3D9" d="M301.58,95.51c-2.86,0.53-5.66-0.11-8.47-0.47c-2.81-0.36-5.62-0.8-8.43-1.18
				c-3.96-0.53-7.92-1.14-11.87-1.76c-2.6-0.41-5.15-1.1-7.78-1.33c-0.41-1.31-0.23-2.66-0.17-3.99c0.04-0.97,0.72-1.33,1.67-1.05
				c0.72,0.21,1.43,0.48,2.2,0.49c0.93,0.13,1.85,0.25,2.78,0.38c1.96,0.33,3.92,0.55,5.91,0.65c0.86,0.13,1.72,0.25,2.58,0.38
				c2.37,0.22,4.75,0.43,7.12,0.65c1.03,0.12,2.03,0.57,3.09,0.19c0.41,0.57,1.06,0.42,1.61,0.49c1.52,0.19,3.03,0.57,4.57,0.54
				c0.94,0.26,1.85,0.77,2.89,0.39c0.39,0.7,1.15,0.47,1.74,0.64c1.32,0.39,1.69,0.79,1.6,2.18
				C302.56,93.74,302.37,94.74,301.58,95.51z"/>
			<path fill="#D49B7E" d="M382.8,300.4c-1.79-0.23-2.62,1.28-3.81,2.12c-1.36,0.97-2.55,2.2-4.27,2.6
				c-1.17,0.27-1.54,1.37-2.14,2.22c-2.03-5.88-5.54-11.02-8.29-16.54c-0.06-0.11-0.2-0.18-0.3-0.28c0-0.08,0.01-0.15,0.01-0.23
				c2.52-0.36,4.31-2.02,6.24-3.44c1.21-0.89,2.38-1.84,3.57-2.76c0.21,0.5,0.4,1.02,0.65,1.51c1.82,3.69,3.66,7.38,5.48,11.08
				c0.56,1.13,1.53,1.93,2.26,2.92C382.39,299.87,382.74,300.02,382.8,300.4z"/>
			<path fill="#D39B7F" d="M338.44,317.04c-1.88-0.52-3.74,0.09-5.58,0.28c-1.41,0.14-2.78,0.42-4.13-0.13
				c-0.84-0.35-1.57,0-2.35,0.12c0.9-0.52,0.92-1.32,0.83-2.25c-0.46-4.81,0.11-9.62,0.05-14.43c2.53,1.57,5.47,1.5,8.25,2.08
				c1.26,0.26,2.56,0.38,3.84,0.56c0.01,0.08,0.02,0.15,0.03,0.23c-0.37,0.95-0.22,1.96-0.33,2.94c-0.29,2.75-0.48,5.51-0.67,8.27
				C338.34,315.48,338.42,316.26,338.44,317.04z"/>
			<path fill="#9183A7" d="M339.38,303.5c-0.01-0.08-0.02-0.15-0.03-0.23c0.84-0.3,1.63,0.08,2.43,0.19
				c0.91,0.13,1.79,0.04,2.65-0.18c0.72-0.19,1.32-0.6,1.65-1.3c0.93-1.98,1.74-3.94,2.1-6.18c0.65-4.04,0.51-8.08,0.51-12.12
				c0-2.13-0.11-4.27-0.27-6.38c-0.15-2.03-0.69-4.03-1.08-6.04c-0.29-1.48-0.69-2.94-0.88-4.43c-0.25-1.97-1.24-3.53-2.4-5.04
				c-4.22-5.48-7.6-11.44-9.78-18.02c-0.81-2.44-1.19-4.97-1.31-7.56c-0.2-4.16-0.03-8.32-0.22-12.48
				c-0.11-2.42-0.36-4.84-0.87-7.23c-0.41-1.94-0.66-3.91-1.06-5.85c-0.46-2.21-1.53-4.09-2.86-5.87c-0.97-1.29-1.91-2.59-2.85-3.9
				c-0.36-0.5-0.64-1.1,0.07-1.5c0.67-0.37,0.88,0.19,1.22,0.68c0.81,1.18,1.75,2.28,2.64,3.41c1.93,2.45,3.17,5.17,3.57,8.3
				c0.33,2.51,0.9,4.99,1.31,7.49c0.17,1.05,0.24,2.11,0.27,3.17c0.09,3.95,0.16,7.91,0.19,11.86c0.04,4.99,1.15,9.71,3.36,14.18
				c1.74,3.52,3.54,7,5.76,10.23c1.34,1.95,2.94,3.8,3.64,6.07c0.75,2.42,1.93,4.62,3.02,6.87c1.89,3.92,4.59,7.32,7.08,10.86
				c1.44,2.05,2.77,4.17,4.35,6.12c0.67,0.83,1.53,1.23,2.39,1.71c0,0.08-0.01,0.15-0.01,0.23c-0.88-0.01-1.66-0.31-2.18-1
				c-4.19-5.65-8.46-11.26-11.89-17.42c-0.85-1.53-1.53-3.14-2.3-4.72c-0.11-0.23-0.15-0.55-0.67-0.56c0.25,1.32,0.5,2.61,0.74,3.89
				c0.54,2.86,1.09,5.7,1.22,8.63c0.17,3.54,0.14,7.08,0.17,10.62c0.03,2.83-0.25,5.64-0.93,8.36c-0.4,1.61-1.06,3.2-2.21,4.49
				c-0.63,0.7-1.44,1.03-2.37,1.07C342.16,303.95,340.76,303.87,339.38,303.5z"/>
			<path fill="#AC4071" d="M299.29,89.89c-1.03,0.38-1.94-0.12-2.89-0.39c-0.14-1.25,0.21-1.88,1.18-2.14
				c0.61-0.16,1.15-0.04,1.58,0.44C299.74,88.46,299.64,89.17,299.29,89.89z"/>
			<path fill="#AC4071" d="M290.21,88.46c-1.06,0.38-2.06-0.07-3.09-0.19c-0.03-1.24,0.4-1.92,1.31-2.09
				C289.76,85.94,290.45,86.83,290.21,88.46z"/>
			<path fill="#AC4071" d="M280,87.62c-0.86-0.13-1.72-0.25-2.58-0.38c-0.01-0.21-0.03-0.41-0.04-0.62
				c-0.03-0.73,0.27-1.29,0.94-1.57c0.53-0.22,1.09-0.18,1.55,0.23c0.57,0.5,0.58,1.14,0.43,1.81
				C280.25,87.27,280.1,87.44,280,87.62z"/>
			<path fill="#AC4071" d="M271.51,86.59c-0.93-0.13-1.85-0.25-2.78-0.38c-0.09-0.76,0.01-1.45,0.76-1.85
				c0.53-0.28,1.08-0.2,1.53,0.19C271.67,85.09,271.8,85.8,271.51,86.59z"/>
			<path fill="#D59B7C" d="M352.6,181.1c0.37-0.54,0.61-1.11,0.71-1.78c0.31-2.13,1.29-4.03,2.23-5.91
				c0.98-1.96,1.67-4.05,2.83-5.91c0.97-1.57,1.74-3.25,2.95-4.66c1.44,0.67,2.93,1.23,4.29,2.11c2.02,1.31,3.97,2.76,6.22,3.7
				c-0.74,1.99-2.07,3.62-3.34,5.25c-1.82,2.32-3.86,4.46-5.78,6.68c-0.48,0.56-1.11,1.03-1.2,1.85c-1,0.38-1.24,1.34-1.53,2.18
				c-0.41,1.2-0.88,2.37-1.36,3.54c-0.42,1.03-0.64,2.07-0.64,3.19c0,0.89-0.21,1.77-1.01,2.35c-0.28-0.05-0.51-0.2-0.68-0.42
				c-1.31-1.67-2.72-3.24-4.14-4.8c-0.66-0.73-1.53-1.37-1.76-2.43c0.69-1.28,1.37-2.56,2.07-3.84
				C352.63,181.84,352.66,181.48,352.6,181.1z"/>
			<path fill="#9183A7" d="M358.95,235.45c-0.02,0.3-0.14,0.42-0.31,0.48c-0.4,0.14-0.72,0.01-1.03-0.27c-1-0.89-1.98-1.8-3.02-2.64
				c-3.04-2.45-6.33-4.61-9.09-7.4c-0.43-0.44-0.8-0.94-1.18-1.42c-0.21-0.27-0.24-0.6,0.04-0.84c0.31-0.26,0.5,0.06,0.68,0.24
				c2.89,3.08,6.5,5.26,9.79,7.83c1.3,1.02,2.53,2.11,3.65,3.32C358.69,234.98,358.82,235.26,358.95,235.45z"/>
			<path fill="#9183A7" d="M350.38,186.02c0.23,1.06,1.09,1.71,1.76,2.43c1.43,1.56,2.84,3.13,4.14,4.8
				c0.18,0.22,0.4,0.37,0.68,0.42c-0.08,0.5,0.29,0.83,0.52,1.19c0.38,0.61,0.73,1.23,0.97,1.92c0.14,0.4,0.03,0.68-0.3,0.87
				c-0.34,0.2-0.7,0.12-0.92-0.19c-0.29-0.42-0.5-0.89-0.77-1.33c-1.29-2.06-2.87-3.91-4.47-5.74c-1.42-1.62-2.91-3.19-4.37-4.77
				c-0.24-0.26-0.5-0.54-0.19-0.89c0.28-0.32,0.59-0.15,0.93-0.01C349.11,185.06,349.4,186.07,350.38,186.02z"/>
			<path fill="#C5A131" d="M371.84,168.63c-2.25-0.93-4.2-2.39-6.22-3.7c-1.36-0.88-2.85-1.43-4.29-2.11
				c-0.79-1.51-0.85-3.12-0.87-4.79c-0.05-3.27,0.19-6.52,0.29-9.78c0.09-2.89,0.6-5.76,1.27-8.6c0.58-2.48,0.78-5.06,1.16-7.59
				c0.26-1.68,0.62-3.34,1.1-4.98c0.47-1.6,0.68-3.28,0.74-4.95c0.03-0.7,0.13-1.36,0.39-2.01c0.11-0.28,0.14-0.68,0.58-0.54
				c0.3,0.1,0.5,0.36,0.45,0.73c-0.52,3.3-0.47,6.65-1.5,9.91c-0.65,2.05-0.61,4.32-0.94,6.48c-0.34,2.16-0.84,4.28-1.32,6.41
				c-0.4,1.76-0.67,3.58-0.69,5.38c-0.03,3.64-0.14,7.28-0.26,10.92c-0.04,1.34,0.29,2.3,1.76,2.82c3.04,1.07,5.46,3.23,8.15,4.92
				C372.64,167.78,372.63,168.19,371.84,168.63z"/>
			<path fill="#C5A131" d="M316.63,157.16c0.63-1.89,0.64-3.99,0.95-6.05c0.32-2.12,0.52-4.27,0.74-6.41
				c0.31-2.92,0.66-5.83,1.13-8.73c0.41-2.53,0.88-5.04,1.37-7.55c0.34-1.77,0.7-3.54,1.1-5.3c0.07-0.33,0.19-0.92,0.6-0.83
				c0.55,0.12,0.27,0.64,0.2,1.03c-0.45,2.69-0.79,5.39-1.33,8.06c-0.57,2.81-0.85,5.67-1.33,8.49c-0.37,2.18-0.5,4.41-0.69,6.62
				c-0.25,2.89-0.64,5.77-1.12,8.63c-0.12,0.74-0.22,1.49-0.36,2.22c-0.09,0.47-0.26,1.08-0.81,1.04
				C316.46,158.34,316.76,157.68,316.63,157.16z"/>
			<path fill="#C5A131" d="M344.48,177.11c-0.78,0-1.25-0.4-1.79-0.61c-2.46-0.96-5.06-1.45-7.55-2.29
				c-2.38-0.8-4.84-1.44-7.03-2.72c-0.52-0.31-1.47-0.72-1.12-1.33c0.39-0.67,0.96,0.25,1.43,0.45c2.25,0.98,4.58,1.71,6.94,2.36
				c2.62,0.72,5.29,1.28,7.85,2.21c0.56,0.2,1.05,0.5,1.54,0.82c0.26,0.17,0.51,0.42,0.35,0.77
				C344.97,177.11,344.63,177.11,344.48,177.11z"/>
			<path fill="#C5A131" d="M316.26,147.67c0,0.22,0,0.35,0,0.49c0,0.35,0,0.75-0.45,0.8c-0.44,0.04-0.68-0.29-0.76-0.68
				c-0.43-2.06-0.85-4.13-1.28-6.2c-0.07-0.32-0.31-0.72,0.19-0.85c0.45-0.12,0.68,0.24,0.83,0.6c0.45,1.11,0.9,2.23,1.01,3.42
				C315.88,146.1,316.41,146.86,316.26,147.67z"/>
		</g>
	</g>
	<g>
		<g>
			<path fill="#F16EA4" d="M96.91,177.8c0.67,1.13,0.87,2.4,0.86,3.66c-0.01,5.04,0.94,9.95,2.01,14.84
				c0.64,2.94,1.11,5.92,1.75,8.86c0.71,3.25,1.51,6.47,2.28,9.71c0.74,3.1,1.46,6.2,2.26,9.28c1.06,4.08,1.71,8.24,2.68,12.34
				c0.81,3.43,1.47,6.89,2.26,10.33c0.72,3.17,1.35,6.36,1.83,9.58c0.7,4.71,1.59,9.38,2.3,14.09c0.87,5.86,2.2,11.64,3.78,17.37
				c1.03,3.73,1.92,7.5,2.49,11.33c-0.07,0.36,0,0.74-0.3,1.05c-1.41,1.45-3.66,2.58-5.89,1.53c-0.6-0.28-1.2-0.64-1.91-0.66
				c-2.82-1.96-4.19-4.97-5.53-7.93c-1.75-3.85-3.41-7.74-4.8-11.73c-1.63-4.67-2.97-9.43-4.3-14.19c-1.21-4.33-2.23-8.7-3.01-13.13
				c-0.37-2.09-0.52-4.22-0.71-6.33c-0.4-4.64-0.37-9.36-1.9-13.82c-1.61-4.71-3.31-9.4-5.74-13.78c-0.57-1.03-1.41-1.85-2.26-2.66
				c-0.42-0.4-0.8-0.38-1.29-0.09c-0.83,0.48-1.25,1.25-1.68,2.03c-1.87,3.43-3.02,7.14-4.4,10.77c-3.05,7.99-5.69,16.14-8.66,24.16
				c-1.77,4.77-3.32,9.61-5.31,14.29c-2.31,5.45-5.07,10.69-7.78,15.95c-1.82,3.52-3.59,7.05-5.44,10.55
				c-1.62,3.07-3.39,6.06-5.31,8.95c-0.51,0.77-1.19,1.42-1.79,2.12c-1.3,0.91-2.7,1.03-4.21,0.65c-1.02-0.26-2.05-0.58-3.14-0.44
				c-0.37-0.45-0.46-0.98-0.43-1.55c0.13-2.5,0.36-4.99,0.83-7.45c0.94-4.88,1.98-9.75,3.37-14.52c1-3.42,1.71-6.93,2.86-10.31
				c1.56-4.58,3.25-9.13,4.76-13.72c1.61-4.89,3.75-9.53,6.01-14.12c1.52-3.09,2.42-6.26,2.22-9.72c-0.21-3.72,0.31-7.41,0.68-11.09
				c0.4-3.98,1.06-7.94,1.84-11.86c1.47-7.49,3.96-14.62,7.87-21.23c1.34-2.27,2.58-4.62,3.55-7.09c0.28-0.71,0.29-1.4,0.26-2.12
				c-0.02-0.53,0.02-1.03,0.41-1.44c1.78-0.01,3.56-0.03,5.34,0.18c2.44,0.29,4.91,0.35,7.31,0.93c0.76,0.18,1.55,0.27,2.33,0.32
				c2.91,0.19,5.37-1.08,7.84-2.38C94.31,178.7,95.33,177.51,96.91,177.8z"/>
			<path fill="#D79E7F" d="M91.11,129.83c1.58-1.41,3.01-2.97,4.29-4.67c0.69-0.92,1.47-1.76,2.26-2.59
				c2.11-2.21,4.28-4.36,6.36-6.59c3.35-3.58,6.63-7.22,9.59-11.13c1.26-1.66,2.64-3.26,4.1-4.75c3.67-3.74,6.81-7.9,9.92-12.09
				c1.43-1.93,3.13-3.65,4.46-5.65c0.44-0.66,0.82-1.35,1.22-2.02c0.03-0.11,0.06-0.22,0.09-0.33c1.23-0.94,1.39-2.3,1.48-3.7
				c0.99-0.24,1.96-0.54,2.99-0.59c0.57-0.03,1.3-0.07,1.21-0.89c-0.15-1.38-0.53-2.65-1.99-3.33c-0.9-0.41-1.56-1.11-1.47-2.23
				c1.31-1.04,2.9-1.43,4.47-1.62c2.85-0.35,5.64,0.12,8.29,1.27c0.4,0.17,0.75,0.45,1.04,0.76c0.06,0.06,0.11,0.13,0.17,0.19
				c0.36,0.42,0.72,0.82,0.94,1.34c0.21,0.5,0.33,1.03,0.46,1.56c0.34,1.31,0.02,2.58-0.06,3.87c-0.52,1.71-2.01,2.03-3.45,2.38
				c-0.66,0.16-1.35,0.22-2.03,0.3c-1.21,0.14-1.82,1.12-2.43,1.93c-4.05,5.29-7.76,10.82-10.84,16.75
				c-1.76,3.38-4.01,6.48-6.23,9.58c-2.22,3.09-4.41,6.21-6.79,9.19c-3.3,4.13-6.62,8.24-9.58,12.62
				c-3.09,4.56-5.83,9.32-8.43,14.17c-0.31,0.58-0.68,1.12-1.19,1.54c-0.27-0.23-0.39-0.56-0.51-0.88c-0.8-2.08-1.53-4.17-2.65-6.12
				c-1.39-2.42-3.31-4.45-4.76-6.82C91.75,130.78,91.16,130.48,91.11,129.83z"/>
			<path fill="#D79E7F" d="M66.51,159.1c0.08,0.68-0.24,1.18-0.63,1.71c-2.07,2.78-3.82,5.77-5.58,8.76
				c-1.7,2.91-3.27,5.88-4.89,8.83c-1.82,3.33-3.03,6.91-4.41,10.42c-0.93,2.36-1.9,4.71-2.96,7.02c-1.76,3.87-3.59,7.72-5.61,11.47
				c-0.98,1.82-2.14,3.51-3.65,4.96c-0.55,0.53-1.28,0.77-1.86,1.31c-0.06,0.05-0.11,0.11-0.18,0.14c-0.09,0.04-0.2,0.05-0.3,0.05
				c-1.05,0.02-2.12-0.09-3.11-0.44c-1.17-0.41-2.03-1.37-3.17-1.77c-0.13-0.04-0.26-0.08-0.37-0.14c-0.57-0.29-1.07-1.07-1.5-1.52
				c-0.58-0.61-0.79-1.26-0.32-2.03c0.4-1.71,1.56-3.26,4.26-3.02c1.37,0.27,1.53,0.23,1.87-1.15c1.26-5.17,3.64-9.91,5.6-14.8
				c3.45-8.6,7.36-17.02,10.8-25.63c1.54-3.84,3.71-7.44,5.66-11.11c1.23-2.3,2.33-4.67,3.61-6.94c1.71-3.04,3.76-5.84,6.83-7.69
				c0.93-0.56,3.02-2.11,4-2.6c0.36-0.18-0.21,1.24,0.01,1.37c0.03,0.24,0.26,0.47,0.28,0.72c-0.05,0.08,0.51,4.65,0.51,4.65
				c0.13,0.67,0.7,1.52,0.68,1.53c0.01,0.02,0.35,0.61,0.11,0.6c0.18,0.4,0.46,2.54,0.44,2.93c0.55,0.46-0.24,1.38-0.24,1.9
				c-0.2,0.58-0.46,1.07-0.89,1.57c-1.86,2.16-3.76,4.3-4.65,7.1l-0.07-0.01c0,0,0,0.07,0,0.07c-0.04,0.26-0.09,0.51-0.13,0.77
				c0,0-0.08,0-0.08,0l0.02,0.07C66.56,158.5,66.54,158.8,66.51,159.1z"/>
			<path fill="#D79E7F" d="M99.04,110.27c-0.93-1.11-1.74-2.3-2.44-3.56c-0.55-0.98-1.27-1.86-1.83-2.83
				c-0.6-1.04-0.8-2.03-0.84-3.22c-0.17-0.04-0.35-0.15-0.55-0.39c-0.78-0.91-1.81-0.59-2.27,0.66c-0.6,1.64-1.54,3.06-2.69,4.36
				c-1.79,2.03-4.18,2.94-6.67,3.68c-0.67,0.2-1.4,0.39-1.81,0.93c-0.53,0.7-0.79,0.33-1.16-0.07c-0.32-0.34-0.7-2-1.23-2.09
				c-4.09-0.75-2,7.15-1.35,8.21c1.15,1.87,3.54,4.37,2.63,6.46c-0.22,0.5-0.56,0.99-0.76,1.51c-0.23,0.6-0.06,1.18-0.23,1.78
				c-0.37,1.29-1.18,2.39-1.91,3.5c-0.61,0.92-1.58,1.62-1.75,2.81c0.81,0.51,0.83,1.43,1.08,2.2c0.22,0.67-0.2,1.28,0.04,1.94
				l0.46,0.17l-0.17,0.53c0.15,1.76,1.44,2.76,1.72,4.49c0.3,1.82,0.76,3.62,0.84,5.47c0.04,0.9,0.31,1.06,1.21,0.92
				c1.69-0.27,3.42-0.27,5.11-0.51c2.66-0.38,5.35-0.01,8.01-0.42c0.71-0.11,0.9-0.42,0.78-1.02c-0.62-3.06-1.26-6.11-2.6-8.96
				c-0.91-1.93-1.59-3.95-2.6-5.83c-0.17-0.32-0.16-0.66-0.15-1.01c-0.2-0.83-0.29-1.68-0.65-2.47c-0.4-0.9,0.59-0.86,1.18-0.95
				c1.63-0.26,3.33-0.36,4.8-1.17c1.31-0.72,2.34-1.83,3.23-3.01c1.16-1.57,1.72-3.42,1.42-5.43c-0.22-1.52,0.24-2.85,1.17-4.04
				C99.77,112.02,99.74,111.11,99.04,110.27z"/>
			<path fill="#9E58D2" d="M74.17,132.01c0.81,0.51,0.83,1.43,1.08,2.2c0.21,0.65,0.44,1.29,0.62,1.94c0.18,0.66,0.3,1.34,0.5,1.99
				c0.2,0.64,0.43,1.26,0.63,1.9c0.13,0.43,0.24,0.86,0.31,1.3c0.3,1.82,0.76,3.62,0.84,5.47c0.04,0.9,0.31,1.06,1.21,0.92
				c1.69-0.27,3.42-0.27,5.11-0.51c2.66-0.38,5.35-0.01,8.01-0.42c0.71-0.11,0.9-0.42,0.78-1.02c-0.62-3.06-1.26-6.11-2.6-8.96
				c-0.91-1.93-1.59-3.95-2.6-5.83c-0.17-0.32-0.16-0.66-0.15-1.01c0.56-0.23,1.13-0.43,1.68-0.68c0.69-0.31,1,0.4,1.52,0.53
				c0.05,0.65,0.63,0.95,0.93,1.43c1.45,2.37,3.36,4.4,4.76,6.82c1.12,1.95,1.85,4.05,2.65,6.12c0.12,0.32,0.23,0.65,0.51,0.88
				c-0.23,1.15,0.36,2.15,0.66,3.19c1.06,3.71,0.71,7.24-1.06,10.66c-0.74,1.43-1.44,2.88-2.33,4.23c-0.42,0.64-0.61,1.37-0.96,2.03
				c-1.27,0.41-2.59,0.48-3.9,0.31c-1.03-0.14-2.06-0.16-3.08-0.07c-6.75,0.6-13.54,1.17-20.32,1.28c-0.43-0.29-0.4-0.78-0.5-1.19
				c-0.31-1.23-0.64-2.46-1.04-3.67c-0.2-0.62-0.42-1.23-0.66-1.83c-0.12-0.29-0.22-0.51-0.23-0.83c-0.03-1.25,0.44-2.42,0.98-3.52
				c0.28-0.56,0.59-1.1,0.94-1.62c0.69-1.05,1.49-2.01,2.3-2.97c0.25-0.3,0.51-0.59,0.76-0.88c0.4-0.47,0.77-1.06,0.91-1.67
				c0.18-0.78-0.03-1.66-0.15-2.44c-0.22-1.44-0.54-2.86-0.86-4.28c-0.18-0.78-0.35-1.55-0.53-2.32c-0.09-0.39-0.18-0.77-0.28-1.16
				c-0.06-0.22-0.13-0.45-0.18-0.67c-0.08-0.44-0.13-0.87-0.19-1.31c-0.03-0.21-0.06-0.4-0.03-0.62c0.07-0.44,0.35-0.81,0.69-1.09
				c0.87-0.72,1.8-1.38,2.44-2.34C73.52,132.01,73.84,131.95,74.17,132.01z"/>
			<path fill="#414548" d="M39.13,325.86c-0.11,0.21-0.22,0.41-0.32,0.62c-0.16,0.31-0.32,0.62-0.49,0.92
				c-0.43,0.77-0.93,1.51-1.42,2.24c-0.43,0.65-0.87,1.29-1.31,1.93c-0.23,0.34-0.4,0.75-0.66,1.06c-0.87,1.06-1.7,2.15-2.56,3.22
				c-0.44,0.55-0.88,1.09-1.33,1.62c-0.44,0.51-0.71,0.94-1.31,1.32c-0.65,0.41-1.29,0.76-2.08,0.74c-0.83-0.03-1.61-0.37-2.31-0.78
				c-2.45-1.44-3.38-3.85-3.78-6.42c-0.55-3.49,0.87-6.62,2.38-9.64c1.77-3.54,4.01-6.87,6.25-10.12c1.01-1.46,1.93-3.08,3.33-4.2
				c0.14-0.11,2.01-1.5,2.14-1.28c0.25,0.44,0.21,0.89,0.15,1.38c-0.22,1.79-0.4,3.59-0.55,5.39c-0.08,1.04,0.44,1.8,1.38,2.19
				c0.97,0.4,1.5-0.32,2.08-0.92c1.45-1.49,2.44-3.3,3.45-5.09c0.21-0.36,0.39-0.73,0.89-0.73c0.14,0,0.37,1.03,0.41,1.15
				c0.33,0.85,0.24,1.72,0.17,2.6c-0.08,1.01-0.23,2.01-0.44,3c-0.41,1.99-1.04,3.93-1.98,5.74c-0.19,0.36-0.38,0.72-0.56,1.08
				c-0.29,0.56-0.58,1.12-0.87,1.67C39.58,325.01,39.36,325.43,39.13,325.86z"/>
			<path fill="#D79E7F" d="M78,166.34c3.76-0.24,7.52-0.57,11.29-0.9c1.02-0.09,2.05-0.07,3.08,0.07c1.31,0.18,2.62,0.11,3.9-0.31
				c0.1,2.74,0.29,5.48,0.28,8.22c-0.01,1.49,0.58,2.9,0.37,4.39c-1.58-0.29-2.6,0.89-3.8,1.52c-2.48,1.31-4.93,2.57-7.84,2.38
				c-0.78-0.05-1.57-0.14-2.33-0.32c-2.41-0.57-4.87-0.64-7.31-0.93c-1.78-0.21-3.56-0.19-5.34-0.18c0.19-1.9,0.29-3.79,0.01-5.71
				c-0.34-2.29-0.65-4.58-1.15-6.84c-0.07-0.33-0.12-0.67-0.17-1.01C71.99,166.67,75,166.53,78,166.34z"/>
			<path fill="#756789" d="M150.94,76.64c0.08-1.29,0.4-2.56,0.06-3.87c-0.3-1.18-1.02-2.65-1.97-3.47c0.41-0.01,0.82-0.02,1.12,0
				c2.23,0.13,4.46,0.24,6.68,0.46c0.71,0.07,0.87-0.13,0.83-0.74c-0.01-0.24,0-0.48,0-0.72c-0.01-3.12,1.01-3.33,3.59-3.58
				c0.55-0.05,1.1-0.01,1.65-0.01c2.34,0.01,3.5,0.99,3.61,3.3c0.24,5.13-0.44,10.14-2.13,15c-0.5,1.44-1.32,1.8-2.83,1.43
				c-0.8-0.2-1.6-0.36-2.34-0.77c-1.67-0.92-2.28-2.15-1.96-4.01c0.37-2.13,0.39-2.27-1.68-2.53
				C154.04,76.94,152.52,76.5,150.94,76.64z"/>
			<path fill="#756789" d="M133.41,80.01c-0.03,0.11-0.06,0.22-0.09,0.33c-0.69,0.83-1.6,1-2.6,0.85c-1.25-0.18-2.51-0.35-3.73-0.7
				c-1.15-0.33-1.78-1.08-1.99-2.24c-0.3-1.67-0.16-3.36-0.15-5.04c0-1.77-0.39-3.53-0.06-5.33c0.38-2.07,1.65-3.62,3.73-4.01
				c1.32-0.25,2.66-0.29,3.99-0.02c1.04,0.21,1.68,1.05,1.76,2.36c0.04,0.58,0.06,1.17,0.01,1.75c-0.1,1.05,0.33,1.47,1.36,1.31
				c-0.09,1.12,0.57,1.82,1.47,2.23c1.46,0.67,1.84,1.94,1.99,3.33c0.09,0.82-0.65,0.86-1.21,0.89c-1.03,0.06-2,0.35-2.99,0.59
				c-0.52,0.02-0.78,0.3-0.87,0.81C133.84,78.09,133.62,79.04,133.41,80.01z"/>
			<path fill="#756789" d="M29.77,211.46c0.59,0.02,1.02,0.4,1.45,0.72c1.71,1.26,3.6,1.78,5.71,1.47c0.44,0.42,0.53,1.02,0.76,1.55
				c0.3,0.68,0.71,0.77,1.29,0.39c0.32-0.21,0.62-0.44,0.95-0.62c0.76-0.42,1.82-0.25,2.35,0.42c0.62,0.78,1.22,1.58,1.75,2.42
				c0.72,1.14,0.64,2-0.26,3.01c-0.39,0.43-0.81,0.87-1.3,1.16c-2.24,1.34-4.51,2.63-6.79,3.92c-0.38,0.22-0.83,0.35-1.26,0.44
				c-1.27,0.28-2.3-0.09-2.99-1.24c-0.5-0.82-0.98-1.66-1.48-2.48c-0.49-0.81-0.29-1.49,0.29-2.16c0.69-0.79,1.5-1.41,2.43-1.89
				c0.73-0.37,0.78-0.84,0.38-1.5C31.94,215.2,30.86,213.33,29.77,211.46z"/>
			<path fill="#756789" d="M32.24,204.84c-2.7-0.23-3.86,1.31-4.26,3.02c-0.42-0.13-0.52-0.53-0.71-0.84
				c-0.78-1.23-0.76-1.22-2.1-0.55c-1.13,0.57-2.24,1.2-3.59,1.13c-0.72-0.04-1.25-0.26-1.64-0.87c-0.63-0.96-1.02-2.03-1.36-3.11
				c-0.25-0.8-0.05-1.53,0.64-2.14c0.81-0.71,1.69-1.32,2.59-1.86c2.35-1.43,4.74-2.8,7.15-4.13c1.18-0.65,1.96-0.48,2.84,0.52
				c0.45,0.51,0.89,1.06,1.22,1.66c0.97,1.73,0.77,2.87-0.79,4.03c-0.76,0.56-0.95,1.08-0.47,1.89
				C31.98,203.97,32.08,204.42,32.24,204.84z"/>
			<path fill="#D79E7F" d="M129.19,309.95c-3.07-0.24-6.75-0.73-9.82-0.81c-1.13-0.03-2.63,0.23-3.75,0.33
				c0.56-0.35,1.04-0.86,0.72-1.51c-0.98-1.99-1.86-4.02-2.77-6.05c-0.11-0.25-0.17-0.52-0.25-0.78c0.71,0.01,1.31,0.37,1.91,0.66
				c2.23,1.05,4.48-0.08,5.89-1.53c0.3-0.31,0.24-0.69,0.3-1.05c0.72,1.2,0.77,2.59,1.11,3.9c0.39,1.52,0.63,3.07,1.03,4.59
				c0.25,0.94,0.69,1.2,1.59,1.16c1.02-0.04,1.98,0.22,2.99,0.53C128.3,309.44,129.14,309.75,129.19,309.95z"/>
			<path fill="#D79E7F" d="M43.06,309.33c-0.5,0-0.68,0.37-0.89,0.73c-1.01,1.79-2,3.59-3.45,5.09c-0.58,0.6-1.11,1.32-2.08,0.92
				c-0.94-0.39-1.47-1.15-1.38-2.19c0.15-1.8,0.33-3.6,0.55-5.39c0.06-0.49,0.1-0.94-0.15-1.38c0.13-0.2,0.26-0.4,0.4-0.6
				c1.09-0.14,2.11,0.18,3.14,0.44c1.51,0.39,2.91,0.26,4.21-0.65c0.13,0.58-0.31,1.02-0.38,1.56
				C42.96,308.36,42.92,308.84,43.06,309.33z"/>
			<path fill="#D79E7F" d="M133.41,80.01c0.21-0.96,0.43-1.92,0.61-2.89c0.09-0.52,0.35-0.79,0.87-0.81
				C134.8,77.7,134.65,79.07,133.41,80.01z"/>
			<polygon fill="#FEFEFE" points="66.65,158.13 66.67,158.2 66.59,158.2 66.57,158.13 			"/>
			<polygon fill="#FEFEFE" points="66.85,157.3 66.87,157.37 66.78,157.36 66.78,157.29 			"/>
			<path fill="#414548" d="M75.83,111.05c0.29,2.04,1.82,4.9,2.19,5.51c1.15,1.87,1.71,3.76,0.8,5.85
				c-0.89,2.05-2.19,3.84-4.44,4.41c-2.68,0.69-4.86,2.2-7.07,3.72c-1.19,0.82-2.35,1.67-3.51,2.53c-0.34,0.25-0.71,0.43-1.11,0.53
				c-0.51,0.13-1.03,0.16-1.43-0.29c-0.4-0.45-0.21-0.92,0-1.35c0.45-0.93,0.98-1.82,1.41-2.76c0.77-1.69,0.46-3.02-0.93-4.26
				c-1.22-1.08-2.72-1.58-4.23-2.06c-0.88-0.28-1.79-0.5-2.66-0.81c-1.34-0.48-1.59-1.3-0.82-2.46c0.67-1.01,1.55-1.84,2.4-2.69
				c1.34-1.33,2.73-2.63,3.79-4.21c1.29-1.92,0.99-3.57-0.79-5.09c-1.32-1.13-2.86-1.89-4.33-2.78c-0.32-0.2-0.64-0.4-0.96-0.6
				c-2.25-1.44-1.61-3.43-0.19-4.59c1.78-1.45,3.78-2.47,5.99-3.11c2.12-0.61,4.28-1.01,6.46-1.19c3.34-0.27,5.38-2.11,6.78-4.96
				c0.95-1.94,1.89-3.91,3.49-5.45c1.81-1.75,3.39-1.72,5.19,0.06c1.04,1.03,1.84,2.22,2.59,3.46c1.93,3.19,3.46,3.43,7.28,2.99
				c1.56-0.18,3.1-0.58,4.67-0.79c1.79-0.25,2.99,0.45,3.26,1.76c0.14,0.67-0.06,1.33-0.29,1.91c-0.98,2.44-2.59,4.42-4.65,6.05
				c-0.49,0.39-0.83,0.51-1.36-0.09c-0.78-0.91-1.81-0.59-2.27,0.66c-0.6,1.64-1.54,3.06-2.69,4.36c-1.79,2.03-4.18,2.94-6.67,3.68
				c-0.67,0.2-1.4,0.39-1.81,0.93c-0.53,0.7-0.79,0.33-1.16-0.07c-0.32-0.34-0.61-0.75-1.13-0.85
				C75.99,108.68,75.63,109.68,75.83,111.05z"/>
			<path fill="#414548" d="M113.6,318.3c-0.22-1.01-0.21-2.1-0.04-3.09c0.25-1.52-0.24-4.82,1.52-5.61c0.48-0.21,1.01-0.26,1.53-0.3
				c4.84-0.36,9.73-0.32,14.54,0.43c2.52,0.39,5.05,0.88,7.47,1.7c3.75,1.28,6.95,3.13,7.92,7.25c0.07,0.31,0.13,0.63,0.09,0.94
				c-0.28,2.08-3.51,1.72-4.87,1.68c-3.01-0.09-6.02-0.39-9.03-0.5c-4.5-0.18-9-0.11-13.49,0.2c-1.2,0.08-2.45,0.19-3.63-0.12
				C114.35,320.56,113.87,319.52,113.6,318.3z"/>
		</g>
	</g>
	<g>
		<g>
			<path fill="#E58EB2" d="M281.64,322.43c-0.41-1.91-1.01-3.78-1.98-5.49c-2.01-3.56-3.77-7.22-4.95-11.16
				c-0.99-3.33-2.48-6.48-3.75-9.71c-1.85-4.7-3.68-9.41-6.02-13.89c-2.36-4.53-5.41-8.6-8.48-12.66c-0.97-1.28-2.63-1.59-4.16-1.21
				c-0.1,0.03-0.42,0.02-0.51,0.08c-0.12,0.08,0.01,0.23-0.07,0.34c-1.63,2.04-4.87,2.72-7.04,4.05c-0.73,0.45-1.45,0.91-2.28,1.17
				c-0.46,0.14-0.99,0.59-1.41,0.5c-0.47,0.09-0.95,0.17-1.43,0.24c-0.28,1.14-0.42,2.31-0.65,3.46c-0.22,1.1-0.44,2.21-0.5,3.36
				c-0.13,2.61-0.28,5.22-0.42,7.82c-0.04,0.79-0.11,1.58-0.25,2.36c-0.12,0.7-0.2,1.58-1.04,1.74c-0.85,0.16-1.21-0.65-1.56-1.27
				c-0.43-0.75-0.67-1.58-0.84-2.43c-0.58-2.86-0.92-5.78-2.23-8.45c-0.39-0.81-0.51-1.73-0.44-2.63c0.05-0.61,0.21-1.44,0.24-2.06
				c-0.68,0.04-1.51,0.22-2.15,0.22c-0.16,0-0.28-0.06-0.36-0.15c-1.81-0.01-3.6-0.26-5.35-0.7c-2.7-0.68-5.38-1.49-8.12-1.97
				c-3.11-0.54-6.1-1.42-8.94-2.77c-0.82-0.39-1.62-0.5-2.48-0.25c-1.2,0.16-2.27,0.65-3.13,1.45c-1.44,1.33-2.87,2.67-3.92,4.36
				c-4.21,6.84-7.73,14.02-10.45,21.58c-1.62,4.5-3.24,8.99-5.83,13.05c-1.46,2.29-3.07,4.48-4.06,7.04
				c-0.58,1.49-0.62,2.87,0.38,4.18c0.04,0.29,0.21,0.5,0.43,0.68c1.3,1.08,2.49,2.25,3.65,3.48c2.22,2.33,5.06,3.76,7.9,5.18
				c0.31,0.15,0.63,0.29,0.92,0.46c1.38,0.8,2.72,0.71,4.12-0.03c1.94-1.03,3.29-2.59,4.17-4.55c0.96-2.13,1.83-4.31,2.86-6.41
				c0.79-1.61,1.36-3.35,2.56-5.02c0.11,1.65,0.42,3.04,0.24,4.5c-0.46,3.69-1.67,7.16-3.12,10.55c-0.71,1.67-1.56,3.3-1.85,5.13
				c-0.09,0.57-0.25,1.16,0.19,1.67c0.15,0.1,0.31,0.15,0.49,0.12c3.56-0.5,7.06,0.05,10.54,0.72c2.19,0.42,4.38,0.99,6.6,1.13
				c3.85,0.23,7.66,0.72,11.47,1.24c3.74,0.51,7.34,0,10.9-0.99c2.61-0.73,5.1-1.86,7.64-2.83c2.58-0.99,5.15-2.2,8.05-1.84
				c0.69-0.24,0.52-0.8,0.46-1.3c-0.23-2.05-0.67-4.08-1.17-6.07c-0.77-3.05-1.4-6.09-1.2-9.27c0.07-1.05,0.27-2.04,0.62-3.02
				c0.2-0.55,0.5-0.63,0.86-0.12c0.44,0.62,0.81,1.28,1.13,1.97c1.23,2.65,2.25,5.4,3.69,7.95c1.42,2.51,3.38,4.41,6.24,5.2
				c0.76-0.04,1.48,0.21,2.24,0.23c3.11,0.11,5.89-1.12,8.71-2.16c1.13-0.41,2.17-1.02,3.1-1.78c0.55-0.45,0.93-0.98,1-1.71
				C281.51,324.73,281.9,323.62,281.64,322.43z"/>
			<path fill="#50413A" d="M242.01,272.83c-0.96,0.68-1.48,0.84-1.71,1.85c-1.06,4.7-1.88,9.61-1.99,14.42
				c-0.03,1.25-0.08,2.54-0.54,3.75c-0.47,1.24-1.3,1.43-2.22,0.46c-0.89-0.93-1.27-2.12-1.54-3.32c-0.39-1.74-0.73-3.49-1.01-5.24
				c-0.19-1.15-0.79-2.12-1.18-3.18c-0.58-1.59-0.67-3.2-0.39-4.86c0.27-1.62,0.13-3.27,0.47-4.91c0.71-3.35,1.07-6.76,1.87-10.1
				c0.91-3.76,1.81-7.53,2.6-11.31c0.25-1.18,0.31-2.47-0.49-3.56c-1.97-2.93-5.24-4.28-7.83-6.45c-1-0.85-1.97-1.72-2.8-2.74
				c-0.62-0.75-0.86-0.76-1.47-0.09c-3.18,3.47-4.8,7.54-4.32,12.26c0.25,2.5,1.41,4.75,3.26,6.42c2.1,1.9,3.54,2.84,2.45,5.3
				c-0.4,0.91-1.95,2.92-2.27,3.87c-0.22,0.64-0.67,0.91-1.34,0.92c-3.61,0.02-7,0.93-10.25,2.48c-1.18,0.56-2.5,0.76-3.7,1.28
				c-0.56,0.24-0.92-0.02-1.19-0.61c-1.57-3.45-1.71-6.87,0-10.32c0.88-1.78,1.41-3.71,2.18-5.55c0.45-1.06,0.46-2.34,0.25-3.55
				c-0.45-2.62,0.15-5.04,1.38-7.34c0.84-1.34,1.71-2.66,2.5-4.02c0.56-0.97,0.53-2.12,0.81-3.17c0.78-3,1.82-5.85,4.5-7.75
				c1.14-0.81,2.49-1.17,3.79-1.57c1.91-0.6,3.44-1.67,4.62-3.29c0.48-0.67,1.02-1.3,1.53-1.94c0.88-1.11,2.11-1.53,3.45-1.58
				c6.04-0.23,8.64,4.55,8.17,9.12c-0.1,0.97,0.1,1.82,0.69,2.61c0.96,1.27,2.02,2.45,3.13,3.57c2.11,2.13,2.82,4.7,2.68,7.62
				c-0.08,1.71-0.21,3.42,0.15,5.14c0.33,1.6,1.53,2.57,2.44,3.76c0.24,0.85,0.97,1.31,1.55,1.85c2.04,1.9,2.93,4.27,2.97,6.99
				c0.02,1.64,0.19,3.28-0.3,4.91c-0.2,0.67-0.19,1.43,0.1,2.13c0.21,0.49,0.43,1,0.04,1.45c-0.36,0.41-0.84,0-1.26,0
				c-1.71-0.06-2.88-1.16-4.08-2.16c-0.59-0.49-1.19-0.92-1.91-1.18c-1.11-0.4-1.61-0.09-1.59,1.18c0.02,1.51,0.1,2.75-0.82,3.92
				C242.89,270.89,242.68,272.4,242.01,272.83z"/>
			<path fill="#FED0B9" d="M236.62,246.82c-0.36-1.17-1.16-2.01-2.16-2.72c-3.17-2.24-6.7-4.06-9.05-7.25
				c-0.37-0.5-0.69-0.38-1.1,0.05c-2.21,2.3-3.89,4.88-4.63,7.98c-0.58,2.42-0.67,4.81,0.27,7.18c0.82,2.07,2.15,3.77,3.76,5.31
				c0.82,0.79,1.28,1.7,1.01,2.97c-0.37,1.74-1.2,3.29-1.77,4.95c-0.23,0.66-0.62,0.82-1.27,0.78c-1.61-0.1-3.18,0.18-4.75,0.47
				c-1.82,0.34-3.54,1.01-5.26,1.69c-1,0.4-1.97,0.88-3,1.23c-0.77,0.26-1.58,0.29-2.36,0.5c-0.72,0.2-1.23,0.78-1.95,0.96
				c0.7,0.1,1.39,0.21,2.07,0.49c1.39,0.59,2.78,1.2,4.24,1.64c3.58,1.09,7.34,1.45,10.93,2.49c2.9,0.83,5.82,1.42,8.86,1.44
				c0.93,0.01,1.25-0.34,1.38-1.14c0.17-1.02-0.03-2.05,0.19-3.08c0.36-1.71,0.68-3.43,0.93-5.15c0.51-3.6,1.49-7.1,2.28-10.64
				C235.98,253.63,237.32,250.36,236.62,246.82z"/>
			<path fill="#FED0B9" d="M241.21,272.95c0.15-0.25,1.24-1.84,1.39-2.03c1.23-1.61,1.4-2.37,1.36-4.57
				c-0.03-1.65,0.57-2.03,2.1-1.39c0.44,0.18,0.91,0.38,1.25,0.69c1.31,1.24,2.75,2.27,4.47,2.85c0.3,0.38,0.36,0.64-0.17,0.93
				c-1.12,0.59-2.19,1.26-3.35,1.8c-1.46,0.67-2.87,1.47-4.28,2.25c-1,0.56-2.06,0.93-3.13,1.29c-0.52,0.18-0.64,0.49-0.55-0.11
				C240.4,274.01,240.8,273.67,241.21,272.95z"/>
			<path fill="#A9D8EC" d="M301.34,347.74c-1.67-1.48-3.63-2.48-5.72-3.2c-3.48-1.2-7.11-1.86-10.67-2.76
				c-0.58-0.03-1.16-0.03-1.74-0.14c-2.53-0.51-5.08-0.78-7.65-0.94c-1.88-0.11-3.74-0.43-5.61-0.69c-0.52-0.07-0.95-0.31-0.92-0.91
				c0.06-1.32-0.76-2-1.81-2.49c-2.98-1.4-6.06-1.77-9.18-0.55c-1.06,0.41-1.94,0.57-2.75-0.37c-0.49-0.18-0.98-0.28-1.51-0.25
				c-2.19,0.11-4.19,0.92-6.18,1.69c-4.17,1.61-8.26,3.36-12.75,4.04c-2.96,0.45-5.82,0.02-8.69-0.31
				c-2.48-0.28-4.96-0.65-7.44-0.82c-2.72-0.18-5.35-0.76-8.01-1.21c-2.47-0.42-4.91-0.92-7.42-0.93c-1.25,0-2.49-0.03-3.73,0.2
				c-0.17,0.07-0.27,0.2-0.37,0.35c-1.87,2.9-4.39,4.54-7.99,4.35c-1.33-0.07-2.73,0.18-3.82,1.03c-1.21,0.94-2.57,1.3-4.01,1.43
				c-2.43,0.22-4.86,0.45-7.28,0.7c-3.59,0.37-7.21,0.32-10.77,1c-1.51,0.37-2.93,0.99-4.35,1.57c-3.94,1.62-6.71,4.47-8.45,8.31
				c-0.63,1.38-1.25,2.85-0.55,4.44c0.14,0.43,0.31,0.84,0.4,1.28c0.45,2.23,1.56,4.14,3.19,5.63c2.91,2.67,6.45,4.1,10.34,4.63
				c8.94,1.21,17.89,1.08,26.69-0.96c3.15-0.73,6.32-1.42,9.46-2.22c3.58-0.91,7.18-1.71,10.81-2.34c3.95-0.68,7.74-1.94,11.61-2.9
				c3.09-0.77,6.14-0.69,9.14-0.15c2.75,0.5,5.32,1.76,7.95,2.73c3.65,1.34,7.15,3.08,10.98,3.97c3.47,0.81,6.97,1.51,10.5,1.82
				c4.39,0.39,8.77-0.07,13.12-0.74c3.12-0.48,6.26-0.67,9.41-0.87c2.4-0.15,4.77,0.49,7.19,0.03c2.8-0.53,5.03-1.71,6.21-4.47
				c1.27-2.95,2.51-5.92,3.45-8.99c0.67-0.81,0.72-1.85,0.98-2.8C304.13,352.16,303.56,349.71,301.34,347.74z"/>
			<path fill="#426E9A" d="M231.81,346.63c1.92-3.24,5.01-4.28,8.4-4.77c2.79-0.41,5.65-0.38,8.38-1.26
				c2.09-0.68,3.96-1.79,5.81-2.97c2.26-1.44,4.68-2.49,7.31-2.8c2.37-0.27,4.68,0.29,6.69,1.66c1.7,1.15,0.98,2.4-0.76,3.55
				c-1.89,1.25-4.07,1.91-6.08,2.92c-2.3,1.15-4.65,2.19-6.8,3.65c-2.33,1.35-4.71,2.59-7.15,3.72l0,0
				c-2.44,1.42-5.2,2.16-7.59,3.69l0,0c-0.56,0.37-1.11,0.75-1.69,1.08c-1.32,0.76-2.37,1.89-3.62,2.76
				c-0.44,0.3-0.86,0.63-1.44,0.53c-1.73-0.36-2.86-1.63-3.92-2.91c-0.77-0.93-1.48-1.9-2.36-2.74c-0.77-0.74-0.65-1.44,0.23-2.03
				c0.18-0.12,0.33-0.3,0.52-0.36C229.69,349.77,230.82,348.28,231.81,346.63z"/>
			<path fill="#426E9B" d="M185.44,344.6c1.54-1.55,3.54-1.74,5.52-1.68c4.57,0.14,8.94,1.44,13.38,2.37
				c1.36,0.28,2.51,1.09,3.74,1.69c1.74,0.9,3.19,2.24,4.85,3.27c0.33,0.2,0.85,0.5,0.63,1.01c-0.21,0.48-0.74,0.33-1.17,0.29
				c-3.82-0.35-7.62-0.98-11.45-1.15c-2.93-0.13-5.86-0.3-8.79-0.46c-1.17-0.06-2.15-0.35-3.09-1.1c-1.04-0.83-2.33-1.31-3.21-2.38
				C185.38,345.89,185.12,345.33,185.44,344.6z"/>
			<path fill="#80BDC3" d="M229.86,356.02c-0.91-1.11-1.77-2.26-2.82-3.26c-0.24-0.23-0.38-0.57-0.26-0.9
				c0.04-0.1,0.1-0.2,0.11-0.31c0.02-0.29-0.34-0.19-0.5-0.3c-0.89,0.29-1.84,0.46-2.85,0.53c-1.68,0.12-3.34,0-5-0.01
				c-1.53-0.01-2.94-0.24-4.24-0.8c-0.3,0-0.61-0.02-0.9-0.09c0.04,0.09,0.05,0.19,0.01,0.32c-0.08,0.21-0.36,0.14-0.56,0.12
				c-2-0.21-4.02-0.39-6.01-0.67c-2.25-0.32-4.52-0.46-6.79-0.56c-1.13-0.05-2.27-0.09-3.4-0.15c-1.11-0.05-2.23-0.03-3.34-0.1
				c-0.47-0.03-0.94-0.1-1.41-0.15c-1.93-0.19-3.81,0.16-5.74,0.16c-2.25-0.01-4.39,0.5-6.54,1c-2.42,0.56-4.6,1.73-6.84,2.75
				c-1.12,0.51-2.2,1.1-3.27,1.71c-0.36,0.2-0.81,0.57-0.57,1.04c0.17,0.33,0.62,0.16,0.93-0.02c1.61-0.94,3.32-1.69,5.04-2.39
				c2.82-1.15,5.74-2.21,8.78-2.59c1.23-0.15,2.47-0.21,3.72-0.2c5.82,0.03,11.64-0.11,17.46,0.57c2.64,0.31,5.29,0.58,7.96,0.75
				c1.86,0.12,3.71,0.39,5.56,0.58c0.93,0.09,1.86,0.17,2.79,0.19c0.82,0.02,1.54-0.14,2.34-0.26c1.35-0.2,2.67-0.73,3.9,0.67
				c1.05,1.2,1.97,2.52,3.21,3.56c0.75,0.63,1.49,1.2,2.53,1.18C231.92,357.78,230.76,357.1,229.86,356.02z"/>
			<path fill="#82BFC5" d="M239.77,354.23c1.09-0.92,2.4-1.52,3.7-2.07c0.6-0.25,1.23-0.47,1.81-0.79c0.64-0.35,1.72-0.78,2.35-1.06
				c-0.06,0.14-0.68,0.64-0.81,0.71s-0.27,0.14-0.34,0.27c-0.07,0.13-0.04,0.33,0.1,0.37c0.08,0.03,0.17-0.01,0.25-0.04
				c1-0.37,2.18-0.44,3.23-0.6c1.16-0.18,2.32-0.35,3.48-0.5c2.14-0.29,4.28-0.58,6.45-0.62c2.16-0.04,4.31-0.18,6.47-0.28
				c2.22-0.11,4.45-0.17,6.68-0.03c0.68,0.04,1.35,0.1,2.03,0.17c3.61,0.41,7.16,1.39,10.47,2.9c0.17,0.08,0.35,0.17,0.46,0.33
				c0.1,0.16,0.09,0.41-0.08,0.5c-0.08,0.04-0.18,0.04-0.27,0.03c-1.13-0.09-2.21-0.49-3.29-0.85c-4.05-1.34-8.16-1.85-12.41-1.99
				c-1.31-0.04-2.62,0.01-3.93,0.1c-2.92,0.22-5.83,0.16-8.73,0.39c-3.81,0.3-7.61,0.71-11.37,1.51c-1.09,0.23-2.23,0.57-3.43,0.37
				c-0.64-0.11-1.18,0.49-1.76,0.78C240.47,354.02,240.2,354.33,239.77,354.23z"/>
			<path fill="#A9D8EC" d="M186.06,348.88c-0.28-0.08-0.8,0.17-0.76-0.39c0.03-0.47,0.43-0.67,0.9-0.65
				c0.42,0.02,0.82,0.2,0.79,0.63C186.95,349,186.43,348.83,186.06,348.88z"/>
			<path fill="#A9D8EC" d="M268.06,349.67c-0.82,0-1.63,0-2.45,0.01"/>
			<path fill="#82BFC5" d="M239.77,354.24"/>
			<path fill="#F4C2A9" d="M189.04,331.52c-2.69-1.42-5.43-2.77-7.5-5.07c-1.26-1.4-2.67-2.62-4.11-3.81
				c-0.45,0.68-1.2,1.02-1.75,1.59c-3.13,3.23-6.3,6.43-9.43,9.67c-0.88,0.91-1.68,1.9-2.53,2.84c-1.85,2.03-3.66,4.11-5.7,5.95
				c-0.99,0.88-2.25,1.2-3.56,1.49c-2.01,0.44-4.04,0.23-6.05,0.39c-1.95,0.15-3.61,1.44-3.47,3.56c0.07,1.03-0.03,2.07,0.03,3.09
				c0.07,1.15-0.26,2.12-0.93,3.07c-0.95,1.34-2.1,2.54-2.8,4.05c-0.54,1.18-0.23,2.04,0.88,2.68c0.96,0.55,2.03,0.57,3.06,0.8
				c2.32,0.51,4.56,0.3,6.76-0.52c0.08-1.08-0.01-2.15,0.39-3.23c1.2-3.24,3.13-5.88,6-7.81c2.09-1.41,4.49-2.15,6.83-3.02
				c0.62-0.3,1.14-0.75,1.69-1.16c2.51-1.91,4.88-4.02,7.75-5.41c2.56-1.24,5.08-2.58,7.58-3.94c2.2-1.2,4.45-2.31,6.49-3.78
				c0.38-0.27,0.62-0.4,1.66-0.5C190.22,332.35,189.16,331.58,189.04,331.52z M150.5,351.35c-0.94,0-1.71-0.76-1.71-1.71
				s0.76-1.71,1.71-1.71s1.71,0.76,1.71,1.71S151.44,351.35,150.5,351.35z"/>
			<path fill="#F4C2A9" d="M308.76,353.79c-0.31-1.23-1.03-2.15-1.89-2.99c-1.47-1.45-2.04-3.1-1.71-5.22
				c0.39-2.49-0.04-4.56-3.21-5.45c-1.04-0.29-2.16-0.32-3.22-0.56c-2.34-0.52-4.67-1.1-6.56-2.73c-0.93-0.81-1.85-1.63-2.75-2.48
				c-2.39-2.27-4.57-4.76-7.1-6.88c-0.58-0.49-1.42-0.78-1.46-1.74c-0.53,1.05-1.39,1.74-2.38,2.32c-2.14,1.27-4.55,1.86-6.89,2.62
				c-1.91,0.62-3.85,0.68-5.79,0.47c-0.06,0.36,3.56,1.14,4.8,2.3c0.17,0.16,0.4,0.27,0.61,0.39c2.77,1.67,5.53,3.35,8.28,5.05
				c1.81,1.12,3.58,2.3,5.54,3.15c1.89,0.47,3.77,0.98,5.66,1.42c3.31,0.77,6.53,1.75,9.43,3.64c2.39,1.56,3.66,4.16,3.1,6.95
				c-0.25,1.24-0.55,2.46-0.83,3.69c1.54,0.41,3.05,0.32,4.53-0.24C308.54,356.89,309.18,355.43,308.76,353.79z M301.02,346.58
				c-0.52,0-0.94-0.42-0.94-0.94s0.42-0.94,0.94-0.94s0.94,0.42,0.94,0.94S301.54,346.58,301.02,346.58z"/>
		</g>
	</g>
</g>
</svg>
