<svg xmlns="http://www.w3.org/2000/svg" width="88.461" height="90.409" viewBox="0 0 88.461 90.409"><defs><style>.a{fill:#7851cb;stroke:#8c3ee8;}</style></defs><g transform="translate(-83.578 -73.282)"><path class="a" d="M142.277,141.647l3.827,3.831c-1.554,1.6-3.176,3.285-4.806,4.958q-5.618,5.767-11.242,11.528c-1.6,1.637-2.99,1.639-4.607-.015q-20.11-20.577-40.215-41.16c-1.582-1.62-1.588-2.972-.025-4.573q20.163-20.649,40.331-41.293c1.482-1.517,2.936-1.526,4.422-.006q20.239,20.7,40.467,41.405c1.353,1.385,1.417,2.853.118,4.19q-7.482,7.7-15.005,15.355a1.581,1.581,0,0,1-.2.15l-3.791-3.946c2.335-2.425,4.774-4.959,7.215-7.492q2.656-2.756,5.315-5.509c.716-.744.723-.954.026-1.675q-17.789-18.416-35.571-36.838c-.584-.606-.945-.533-1.492.034q-17.774,18.43-35.583,36.826c-.58.6-.581,1,0,1.6q17.806,18.4,35.573,36.833c.605.628.983.581,1.56-.021Q135.414,148.72,142.277,141.647Z"/><path class="a" d="M400.039,380.272c3.443,3.427,6.851,6.822,10.262,10.213a2.955,2.955,0,0,1,1.033,2.989,2.834,2.834,0,0,1-4.446,1.648,7.69,7.69,0,0,1-.912-.823c-3.34-3.336-6.677-6.676-10.059-10.059a17.854,17.854,0,0,1-15.286,2.377A17.045,17.045,0,0,1,371,379.49a17.762,17.762,0,1,1,29.037.782Zm-26.8-10.672a12.519,12.519,0,1,0,12.519-12.521A12.5,12.5,0,0,0,373.239,369.6Z" transform="translate(-256.72 -251.395)"/></g></svg>