<?xml version="1.0" encoding="utf-8"?>
<!-- Generator: Adobe Illustrator 25.4.1, SVG Export Plug-In . SVG Version: 6.00 Build 0)  -->
<svg version="1.1" baseProfile="tiny" id="Layer_1" xmlns="http://www.w3.org/2000/svg" xmlns:xlink="http://www.w3.org/1999/xlink"
	 x="0px" y="0px" viewBox="0 0 481 387" overflow="visible" xml:space="preserve">
<g>
	<g>
		<path fill="#716387" d="M47.82,293.25c0.03-1.49,0.16-2.97,0.41-4.44c0.34,0.18,0.72,0.91,1.01-0.03c0.2-0.64,0.38-1.27,0.45-1.95
			c0.32-2.84,0.44-5.71,0.82-8.53c0.42-3.09,0.69-6.17,0.68-9.28c0-0.73-0.03-1.47,0.05-2.19c0.54-4.91,1.67-9.7,2.75-14.5
			c1.32-5.88,2.61-11.76,2.91-17.8c0.21-4.13,0.2-8.28,0.36-12.42c0.26-6.99-0.11-14,0.77-20.99c0.65-5.13,1.5-10.22,2.48-15.29
			c1.14-5.86,3.39-11.31,6.27-16.5c1.14-2.06,2.34-4.1,4.07-5.81c-0.19,1.8-0.51,3.57-0.84,5.33c-0.27,1.45-0.3,2.91-0.06,4.36
			c0.09,0.53,0.35,1.08,0.96,1.24c0.65,0.17,1.01-0.31,1.33-0.76c0.29-0.39,0.55-0.81,0.8-1.22c1.69-2.79,4.08-4.83,6.97-6.28
			c1.58-0.79,3.2-1.5,4.8-2.26c5.15-2.45,10.03-1.93,14.7,1.26c1.2,0.82,2.42,1.67,3.81,2.15c2.76,0.95,5.19,2.4,7.07,4.68
			c0.15,0.19,0.35,0.33,0.54,0.5c2.54,2.3,5.58,3.91,8.28,6c0.45,0.35,0.97,0.72,1.84,0.6c-1.17-1.98-3.07-2.98-4.63-4.34
			c-1.6-1.39-3.42-2.56-4.81-4.57c3.06,0.79,5.59,1.9,7.4,4.22c0.67,0.86,1.31,1.76,1.89,2.69c1.21,1.93,2.85,3.31,4.95,4.16
			c0.85,0.34,1.72,0.62,2.54,1.02c3.64,1.75,6.89,3.92,8.46,7.9c0.51,1.3,0.68,2.16,0.43,3.37c-2.28-2.59-4.82-4.72-7.57-6.66
			c-0.13,1.28-0.16,1.3,0.35,1.86c0.41,0.45,0.84,0.9,1.32,1.26c4.64,3.47,7.57,8.22,9.9,13.37c1.66,3.66,2.33,7.69,4.05,11.35
			c2.87,6.12,6.24,11.87,11.95,15.86c3.13,2.19,5.88,4.72,7.84,8.06c0.86,1.46,2.17,2.55,3.87,2.85c2.94,0.52,5.39,1.77,7.32,4.09
			c0.93,1.12,2.19,1.7,3.74,1.49c0.91-0.12,1.8,0.08,2.71,0.22c3.5,0.54,7.02,0.74,10.55,0.17c2.25-0.36,4.47-0.32,6.61,0.61
			c0.44,0.19,0.92,0.3,1.38,0.45c0.15,0.49,0.31,0.99,0.46,1.48c0,0.24-0.05,0.5,0.02,0.72c1.01,3.2,1.6,6.46,1.95,9.82
			c0.27,2.56,0.05,4.99-0.64,7.39c-0.61,2.12-1.87,3.83-3.87,4.89c-1.89,1-3.86,1.84-5.91,2.42c-6.84,1.94-13.65,4.06-20.79,4.65
			c-2.25,0.18-4.5,0.25-6.75-0.06c-3.55-0.49-6.53-2.22-9.38-4.27c-6.04-4.34-12.57-7.67-19.82-9.52c-3.42-0.87-6.9-1.51-10.25-2.64
			c-3.81-1.29-7.53-2.81-11.19-4.48c-3.07-1.41-6.25-2.34-9.62-2.74c-2.95-0.36-5.89-0.88-8.83-1.31c-2.71-0.4-5.4-0.98-8.12-1.12
			c-3.77-0.2-7.57-0.13-11.34-0.02c-1.49,0.04-3.05,0.18-4.41,1c-0.35,0.21-0.81,0.39-0.48,1.07c1.77-0.03,3.59-0.26,5.38-0.48
			c3.8-0.47,7.54,0,11.28,0.39c3.62,0.37,7.21,1.05,10.82,1.6c2.7,0.41,5.41,0.79,8.11,1.25c3.53,0.6,6.67,2.28,9.91,3.67
			c4.99,2.14,10.09,3.93,15.44,4.98c3.11,0.61,6.1,1.69,9.1,2.69c1.15,0.39,1.66,1.14,1.79,2.25c0.05,0.42,0.06,0.85,0.07,1.28
			c0.09,3.39-0.66,6.65-1.65,9.86c-0.91,2.96-2.05,5.86-2.63,8.92c-0.44,2.34-0.84,4.7-0.72,7.06c0.19,3.46,0.64,6.91,0.62,10.38
			c0,0.54,0.04,1.1,0.13,1.63c0.11,0.63,0.5,0.95,1.17,0.87c-0.67,2.04-0.99,2.37-2.93,2.28c-1.33-0.06-2.38,0.4-3.32,1.23
			c-1.37,1.21-2.76,2.4-4.09,3.66c-1.95,1.84-4.22,3.09-6.74,3.92c-6.77,2.24-13.68,3.96-20.68,5.3c-2.69,0.51-5.34,0.03-7.93-0.79
			c-2.62-0.83-5.1-2.01-7.54-3.25c-2.93-1.49-5.84-3.04-8.97-4.1c-5.49-1.85-11.14-1.84-16.82-1.4c-1.58,0.12-3.15,0.3-4.73,0.48
			c-1.59,0.18-2.83-0.51-3.93-1.56c-0.97-4.59-2.1-9.14-3.55-13.6C48.74,300.72,47.9,297.05,47.82,293.25z"/>
		<path fill="#E6BE5F" d="M331.01,236.85c7.88,1.18,15.76,2.38,23.64,3.55c9.39,1.39,18.79,2.74,28.17,4.15
			c9.33,1.4,18.64,2.85,27.97,4.28c8.72,1.33,17.44,2.68,26.16,3.99c6.92,1.04,13.85,2.03,20.77,3.08
			c5.35,0.81,10.7,1.67,16.05,2.51c0.5,0.08,0.96,0.19,1.13,0.75c-0.8-0.09-1.38,0.36-2,0.75c-3.93,2.43-7.87,4.85-11.82,7.26
			c-9.19,5.61-18.4,11.19-27.59,16.81c-5.4,3.3-10.76,6.66-16.14,9.99c-7.04,4.34-14.1,8.67-21.14,13.02
			c-2.17,1.34-4.31,2.75-6.49,4.08c-0.77,0.47-1.57,0.96-2.57,0.76c-1.49-0.29-2.98-0.56-4.47-0.86c-5.24-1.04-10.47-2.09-15.7-3.14
			c-5.95-1.18-11.9-2.36-17.85-3.54c-5.77-1.14-11.54-2.28-17.32-3.38c-5.6-1.06-11.21-2.06-16.81-3.12
			c-4.71-0.89-9.4-1.87-14.11-2.75c-5.48-1.04-10.98-2-16.46-3.03c-5.54-1.04-11.07-2.16-16.61-3.2c-6.79-1.28-13.6-2.49-20.39-3.76
			c-5.01-0.93-10.01-1.91-15.01-2.86c-5-0.95-10-1.92-15.01-2.85c-3.58-0.67-7.18-1.2-10.74-1.95c-3.03-0.64-6.12-0.96-9.1-1.83
			c0.79-0.42,1.55-0.87,2.36-1.25c1.33-0.62,2.41-1.5,3.17-2.77c0.61,0.03,1.21,0.11,1.8-0.11c3.75-1.38,7.5-2.74,11.24-4.15
			c3-1.13,5.89-2.57,9.01-3.39c0.25,0.34,0.62,0.31,0.99,0.36c1.32,0.19,2.63,0.41,3.95,0.61c2.82,0.41,5.69,0.61,8.44,1.29
			c2.02,0.5,3.36-0.34,4.82-1.32c0.76-0.51,1.55-0.97,2.3-1.48c8.14-5.45,16.28-10.91,24.41-16.37c1.41-0.95,2.8-1.94,4.2-2.9
			c0.37-0.25,0.71-0.52,0.62-1.02c-0.11-0.59-0.58-0.71-1.1-0.77c-4.64-0.49-9.29-0.91-13.92-1.53c-1.68-0.23-3.4-0.14-5.05-0.64
			c-0.44-0.79-0.71-1.68-1.39-2.33c-0.5-0.48-0.55-1.04-0.31-1.67c0.17-0.45,0.35-0.91,0.47-1.38c0.56-2.32-1.11-4.8-3.51-4.57
			c-0.9,0.09-1.82,0.01-2.73,0.01c1.23-1.94,2.69-3.71,4.15-5.48c3.09,0.29,6.08,1.16,9.16,1.58c4.03,0.54,8.06,1.15,12.09,1.7
			c6.98,0.96,13.96,1.91,20.94,2.86c2.83,0.39,5.66,0.78,8.48,1.17c0.81,1.94,1.01,3.98,1.01,6.06c0,1.69-0.02,1.64-1.75,1.68
			c-2.02,0.06-4-0.3-6-0.39c-1.21-0.05-2.1,0.45-2,1.09c0.16,1.01,1.02,1,1.82,1.12c2.53,0.36,5.06,0.61,7.6,0.83
			c3.2,0.27,6.38,0.81,9.59,1c1.45,0.09,2.9,0.25,4.35,0.44c3.55,0.46,7.09,1,10.64,1.44c1.76,0.22,3.54,0.11,5.26,0.47
			c0.84,0.17,1.56-0.02,2.33-0.16c0.52-0.09,0.97-0.28,1.03-0.86c0.07-0.71-0.49-0.87-1.03-1.06c-0.83-0.3-1.68-0.25-2.53-0.32
			c-0.67-0.06-1.24-0.25-0.94-1.13c0.23-0.67,0.05-1.3-0.06-1.97C331.33,239.14,330.9,238.03,331.01,236.85z M306.16,277.89
			c1.7-0.62,3.96-0.69,5.72-2.1c1.94-1.55,2.8-3.71,2.49-6.13c-0.28-2.22-1.42-4.12-2.97-5.74c-3.79-3.98-8.65-5.42-13.94-5.86
			c-1.84-0.15-3.65,0.19-5.44,0.44c-3.32,0.45-5.73,2.17-6.81,5.53c-0.59,1.85-0.55,3.47,1.05,4.79c0.49,0.41,0.8,0.82,0.53,1.56
			c-0.29,0.79,0.31,1.32,0.98,1.49c0.76,0.19,1.52,0.4,2.31,0.49c2.49,0.27,4.89,0.86,7.12,2.1c1.6,0.88,3.26,1.65,4.9,2.47
			C303.27,277.5,304.51,277.76,306.16,277.89z M299.75,245.18c0.9,0.55,1.57,0.71,2.3,0.8c1.98,0.25,3.94,0.65,5.94,0.82
			c2.96,0.25,5.9,0.67,8.85,1c2.53,0.28,5.07,0.48,7.59,0.82c3.06,0.41,6.15,0.64,9.2,1.07c2.05,0.29,4.11,0.2,6.16,0.55
			c1.48,0.26,3.04,0.35,4.63-0.13c-0.18-0.23-0.24-0.39-0.32-0.4c-14.19-1.8-28.45-2.96-42.63-4.82c-0.3-0.04-0.61-0.03-0.91,0
			C300.4,244.91,300.25,245,299.75,245.18z"/>
		<path fill="#614C41" d="M74.2,156.66c3.22-2.98,3.1-6.6,1.72-10.27c-1.54-4.09-2.36-8.31-3.07-12.58
			c-0.61-3.66-0.28-7.28,0.45-10.89c0.89-4.36,1.72-8.74,1.52-13.22c-0.13-2.92-0.41-5.83-0.62-8.75c-0.47-6.66,1.4-12.66,5.16-18.1
			c6.25-9.04,14.28-15.78,24.99-18.96c3.94-1.17,7.93-1.91,12.08-1.39c1.71,0.22,3.36,0.62,4.94,1.27c1.29,0.54,2.59,1.09,3.79,1.81
			c4.46,2.65,8.99,5.14,13.74,7.23c1.65,0.73,3.03,1.8,4.14,3.23c0.68,0.87,1.48,1.63,2.62,1.89c0.16,1.29,1.3,1.69,2.17,2.29
			c3.47,2.45,5.09,5.93,5.5,10.01c0.28,2.85-0.48,5.67-0.43,8.53c0,0.02-0.1,0.04-0.27,0.11c-0.54-0.66-0.54-1.72-1.28-2.25
			c-0.95-0.68-0.82-1.48-0.47-2.4c1.01-2.66,0.72-5.25-0.59-7.72c-1.08-2.04-2.61-3.78-4.04-5.59c-0.3-0.38-0.69-0.68-1.07-0.99
			c-0.2-0.17-0.47-0.18-0.68-0.05c-0.26,0.16-0.21,0.42-0.09,0.64c0.17,0.32,0.36,0.63,0.56,0.94c0.97,1.47,1.97,2.92,2.93,4.4
			c1.72,2.65,2.15,5.42,1.07,8.48c-0.73,2.07-2.31,3.22-3.93,4.4c-1.27,0.93-2.08,2.1-2.49,3.64c-0.22,0.85-0.08,1.7-0.31,2.53
			c-1.19-1.73-1.32-3.61-0.72-5.57c0.25-0.81,0.55-1.61,0.79-2.43c0.52-1.8,1.02-3.61,1.17-5.74c-0.78,0.78-1.03,1.61-1.44,2.32
			c-1.69,2.91-3.94,5.41-5.88,8.13c-1.58,2.23-3.27,4.46-2.35,7.52c0.2,0.66-0.33,1.03-1,0.77c-1.86-0.72-3.43-1.75-4.35-3.66
			c-0.75-1.56-1.71-3.03-2.58-4.54c-0.37-0.31-0.77-0.58-1.1-0.92c-1.2-1.23-2.61-1.42-4.19-0.97c-2.55,0.72-4.17,2.71-5.02,5.18
			c-0.82-0.09-1.4-0.21-1.6,0.73c-0.2,0.94-0.52,1.87-0.84,2.78c-1.44,4.17-3.57,7.96-6.09,11.58c-2.74,3.94-5.51,7.89-6.84,12.61
			c-0.05,0.19-0.16,0.32-0.64,0.26c0.2-3.43,0.47-6.87,1.05-10.28c0.59-3.47,1.42-6.88,2.56-10.22c1.14-3.32,2.97-6.3,4.91-9.56
			c-1.4,0.55-1.39,0.56-1.89,1.2c-2.32,2.96-3.94,6.3-5.07,9.84c-1.72,5.38-2.87,10.87-3.15,16.55c-0.08,1.66-0.1,3.39-0.63,5.03
			c-1.2,1.12-2.34,2.29-3.43,3.51c-1.25,1.4-2.57,2.76-4.08,3.88c-0.89,0.66-1.69,1.38-2.37,2.24c-1.05,1.34-2.26,2.54-3.47,3.73
			c-2.64,2.59-5.45,5-7.91,7.78C75.45,156.37,74.83,157.38,74.2,156.66z"/>
		<path fill="#E6BE60" d="M475.06,259.84c0.37,0.41,0.24,0.92,0.26,1.4c0.1,2.58-0.33,5.1-0.77,7.62c-0.24,1.37-0.86,2.5-2.12,3.25
			c-1.46,0.88-2.87,1.84-4.28,2.8c-11.14,7.58-22.55,14.76-34,21.86c-5.18,3.21-10.11,6.82-15.37,9.91
			c-5.32,3.12-10.38,6.62-15.54,9.99c-2.96,1.93-6,3.74-9,5.61c-0.69,0.43-1.44,0.52-2.25,0.62c-3.16,0.39-6.18-0.42-9.21-0.99
			c-12.56-2.34-25.12-4.75-37.67-7.15c-9.15-1.75-18.28-3.56-27.43-5.31c-9.26-1.78-18.54-3.52-27.8-5.29
			c-7.35-1.41-14.7-2.84-22.05-4.24c-11.3-2.15-22.61-4.27-33.91-6.42c-7.77-1.48-15.54-2.98-23.31-4.48
			c-9.86-1.9-19.72-3.82-29.58-5.73c-2.63-0.51-5.26-1.03-7.88-1.55c0.16-0.08,0.32-0.21,0.49-0.22c3.64-0.31,7.17-1.19,10.69-2.13
			c3.46-0.92,6.92-1.81,10.38-2.72c1.62,0.24,3.23,0.56,4.83,0.88c6.96,1.38,13.93,2.7,20.9,4.02c6.32,1.2,12.63,2.43,18.94,3.64
			c7.74,1.48,15.48,3,23.24,4.42c4.65,0.85,9.27,1.88,13.92,2.76c7.57,1.43,15.15,2.78,22.72,4.2c5.48,1.03,10.95,2.13,16.43,3.17
			c5.12,0.98,10.25,1.93,15.37,2.89c3.28,0.62,6.55,1.26,9.83,1.86c5.73,1.05,11.46,2.08,17.18,3.13c4.29,0.78,8.58,1.59,12.88,2.37
			c5.07,0.92,10.16,1.76,15.22,2.74c1.16,0.22,2.16,0.21,3.15-0.38c2.09-1.25,4.18-2.49,6.26-3.76c5.19-3.17,10.38-6.35,15.57-9.54
			c6.38-3.91,12.76-7.83,19.13-11.75c5.54-3.42,11.07-6.86,16.6-10.29c7.4-4.58,14.8-9.16,22.22-13.71
			C471.07,262.13,472.87,260.66,475.06,259.84z"/>
		<path fill="#FDB491" d="M76.08,156.63c2.46-2.77,5.27-5.19,7.91-7.78c1.21-1.19,2.42-2.39,3.47-3.73
			c0.68-0.86,1.48-1.59,2.37-2.24c1.52-1.12,2.83-2.48,4.08-3.88c1.09-1.22,2.24-2.39,3.43-3.51c0.1,2.19,0.06,4.38-0.22,6.56
			c-0.47,3.73-1.83,7.18-3.33,10.59c-0.18,0.4-0.62,0.8-0.23,1.35c0.55,0.04,0.87-0.35,1.22-0.68c1.59-1.48,2.75-3.24,3.57-5.24
			c1.35-3.28,2.41-6.66,2.95-10.15c0.74-4.78,2.35-9.18,5.08-13.18c1.23-1.81,2.35-3.71,3.59-5.52c1.13-1.66,2.03-3.46,2.78-5.29
			c0.89-2.17,1.47-4.47,2.19-6.71c0.38,0.34,0.61,0.79,0.63,1.28c0.13,3.15,1.07,6.22,0.76,9.4c-0.1,1.05,0.12,2.06,0.41,3.05
			c0.5,1.69,1.78,2.66,3.27,3.48c1.29,0.71,2.23-0.04,3.22-0.57c0.63-0.34,1.92-0.43,1.6-1.34c-0.26-0.71-1.37-0.23-2.13-0.06
			c-1.62,0.37-3.04-0.29-3.81-1.78c-0.47-0.92-0.77-1.9-0.73-2.98c0.03-0.91,0.08-1.84-0.06-2.73c-0.4-2.5-0.97-4.98-1.32-7.49
			c-0.45-3.22,1.09-5.66,4.7-6.44c0.91-0.2,1.69,0.2,2.16,1.01c0.3,0.52,0.54,1.09,0.72,1.66c0.19,0.6,0.13,1.57,0.98,1.39
			c0.77-0.17,0.5-1.12,0.48-1.76c-0.01-0.23-0.14-0.46-0.21-0.69c-0.12-0.38-0.1-0.72,0.25-0.98c0.87,1.51,1.83,2.97,2.58,4.54
			c0.92,1.91,2.48,2.94,4.35,3.66c0.67,0.26,1.2-0.11,1-0.77c-0.92-3.06,0.78-5.29,2.35-7.52c1.93-2.73,4.18-5.23,5.88-8.13
			c0.41-0.71,0.66-1.54,1.44-2.32c-0.15,2.13-0.64,3.94-1.17,5.74c-0.24,0.82-0.54,1.61-0.79,2.43c-0.6,1.96-0.47,3.84,0.72,5.57
			c0.13,0.65,0.52,1.07,1.13,1.33c0.44,0.19,0.72,0.08,0.76-0.4c0.04-0.42,0.01-0.85-0.01-1.27c-0.06-1.36,0.42-2.53,1.35-3.47
			c1.43-1.43,3.21-2.48,4.37-4.13c0.51,0.31,0.54,0.63,0.62,0.92c0.6,2.16,0.39,4.34,0.13,6.51c-0.17,1.39-0.35,2.77-0.18,4.17
			c-1.12,3.49-0.93,6.94,0.37,10.35c0.63,1.65,1.21,3.31,1.61,5.04c0.31,1.37-0.01,2.2-1.15,2.96c-0.51,0.34-1.05,0.61-1.57,0.93
			c-0.81,0.51-1.11,1.19-0.89,2.17c0.47,2.12,0.25,4.11-1.37,5.76c-0.34,0.34-0.63,0.8-0.64,1.29c-0.04,1.75-0.63,3.33-1.3,4.9
			c-0.23,0.52-0.15,1.08-0.16,1.62c-0.02,2.72-1.41,4.77-3.95,5.75c-1.08,0.42-2.2,0.71-3.38,0.7c-2.07-0.01-4.14-0.08-6.21-0.12
			c-2.68-0.05-5.1,0.57-6.87,2.98c-1.99,2.72-3.6,5.64-5.23,8.56c-1.54,2.76-3,5.56-4.49,8.35c-3.07-0.86-6.27-1.36-8.99-3.23
			c-0.15-0.1-0.33-0.17-0.5-0.23c-1.96-0.7-3.79-1.64-5.54-2.76c-2.76-1.76-5.73-2.98-9.06-2.86c-2.7,0.1-5.21,0.98-7.69,2.06
			c-4.39,1.91-8.61,3.98-11.38,8.13l0.02,0.02c-0.09-1.96,0.48-3.83,0.71-5.75C73.13,162.04,74.23,159.19,76.08,156.63z
			 M119.28,112.62c0.26,1.57,0.86,2.87,2.11,3.78c0.45,0.33,1,0.96,1.58,0.36c0.67-0.69-0.22-1.03-0.54-1.46
			c-0.66-0.88-1.49-1.8-1.21-2.92c0.38-1.52,0.23-3.02,0.25-4.52c0.01-1.42,0.19-2.68,1.73-3.26c0.43-0.16,0.52-0.48,0.35-0.87
			c-0.17-0.36-0.48-0.57-0.88-0.5c-0.61,0.11-1.12,0.43-1.57,0.87c-1.27,1.25-1.71,2.82-1.4,4.5c0.21,1.12-0.02,2.15-0.18,3.21
			C119.46,112.11,119.35,112.39,119.28,112.62z"/>
		<path fill="#E6BE60" d="M47.82,293.25c0.09,3.81,0.93,7.47,2.1,11.08c1.45,4.46,2.59,9.01,3.55,13.6c-0.38,1-1.24,1.47-2.13,1.89
			c-2.15,1.03-4.35,1.97-6.65,2.54c-2.65,0.66-4.62,2.08-6.07,4.35c-0.49,0.77-1.09,1.47-1.65,2.19c-0.18,0.24-0.37,0.49-0.58,0.71
			c-2.35,2.43-4.64,2-5.91-1.13c-1.42-3.51-2.42-7.11-2.88-10.91c-0.37-3-1.29-5.94-2.06-8.89c-2.14-8.19-3.94-16.46-5.75-24.73
			c-2.67-12.2-6.01-24.23-9.01-36.34c-2.01-8.09-3.59-16.29-4.97-24.51c-0.59-3.51,0.59-5.35,4.13-6.36
			c2.23-0.64,4.55-0.84,6.85-1.08c1.63-0.17,3.26-0.46,4.92-0.41c2.59,0.08,3.92,0.97,4.86,3.38c2.18,5.57,3.98,11.25,5.53,17.02
			c4.67,17.35,9.36,34.69,14.07,52.02C46.68,289.54,46.91,291.49,47.82,293.25z M13.29,220.46c-0.43,0.7-0.15,1.3,0.01,1.93
			c1.75,7.14,3.65,14.23,5.51,21.34c2.67,10.22,5.56,20.39,8.3,30.59c3.3,12.31,7.28,24.44,10.14,36.88c0.06,0.24,0.1,0.51,0.41,0.5
			c0.36,0,0.52-0.29,0.59-0.59c0.09-0.36-0.03-0.71-0.1-1.07c-1.23-5.95-2.97-11.77-4.56-17.63c-1.69-6.21-3.44-12.41-5.15-18.61
			c-1.69-6.15-3.34-12.31-5.02-18.46c-1.99-7.32-3.99-14.65-5.99-21.97c-1.03-3.75-2.07-7.49-3.13-11.23
			C14.13,221.55,14.1,220.82,13.29,220.46z"/>
		<path fill="#93A7AA" d="M331.01,236.85c-0.11,1.18,0.32,2.28,0.5,3.42c0.1,0.67,0.29,1.3,0.06,1.97
			c-0.31,0.88,0.26,1.07,0.94,1.13c0.85,0.07,1.7,0.02,2.53,0.32c0.54,0.19,1.09,0.35,1.03,1.06c-0.06,0.58-0.51,0.77-1.03,0.86
			c-0.77,0.14-1.49,0.33-2.33,0.16c-1.72-0.36-3.5-0.25-5.26-0.47c-3.55-0.44-7.09-0.98-10.64-1.44c-1.44-0.19-2.9-0.35-4.35-0.44
			c-3.21-0.19-6.39-0.73-9.59-1c-2.54-0.22-5.08-0.46-7.6-0.83c-0.8-0.12-1.67-0.11-1.82-1.12c-0.1-0.64,0.79-1.14,2-1.09
			c2,0.09,3.98,0.44,6,0.39c1.74-0.05,1.75,0.01,1.75-1.68c0.01-2.07-0.2-4.12-1.01-6.06c-0.48-3.81-1.31-7.56-2.07-11.32
			c-0.92-4.47-1.86-8.94-2.44-13.48c-0.1-0.79-0.37-1.19-1.22-1.27c-3.09-0.31-6.18-0.69-9.26-1.04c-4-0.45-7.99-0.91-11.99-1.36
			c-3.63-0.41-7.27-0.81-10.9-1.22c-5.03-0.56-10.05-1.14-15.08-1.69c-2.85-0.31-5.7-0.56-8.55-0.86c-0.97-0.1-1.93-0.26-2.89-0.43
			c-3.05-0.54-6.12-4.01-5.75-7.46c0.27-2.55,0.8-5.05,1.26-7.57c1.43-7.91,2.88-15.82,4.32-23.72c1.68-9.23,3.36-18.45,5.03-27.68
			c2.12-11.68,4.22-23.37,6.35-35.05c0.27-1.5,0.62-2.98,0.98-4.46c0.65-2.61,2.06-3.98,4.7-4.06c3.6-0.12,7.2-0.01,10.8,0.08
			c0.78,0.02,1.58,0.13,2.37,0.13c6.04,0.05,12.09-0.02,18.13,0.18c6.28,0.2,12.57,0.12,18.85,0.4c5.67,0.25,11.35,0.07,17.02,0.35
			c5.67,0.28,11.35,0.08,17.02,0.37c5.61,0.29,11.23,0.08,16.83,0.36c4.94,0.25,9.89,0.09,14.82,0.38
			c3.66,0.21,7.33,0.07,10.97,0.32c5.3,0.37,10.61,0.13,15.9,0.65c1.12,0.11,2.14,0.39,3.09,1c1.36,0.86,2.03,2.03,1.97,3.66
			c-0.1,2.63-0.64,5.2-0.93,7.8c-0.5,4.42-1.12,8.82-1.69,13.23c-0.54,4.17-1.07,8.34-1.6,12.5c-0.56,4.41-1.12,8.82-1.68,13.23
			c-0.57,4.47-1.14,8.94-1.69,13.41c-0.55,4.47-1.08,8.95-1.62,13.42c-0.56,4.59-1.14,9.18-1.69,13.78
			c-0.55,4.6-1.06,9.2-1.63,13.79c-0.44,3.57-0.93,7.13-1.43,10.68c-0.18,1.28-0.73,2.44-1.47,3.51c-1.39,2.01-3.29,2.75-5.7,2.46
			c-5.26-0.62-10.54-1.16-15.8-1.76c-5.87-0.67-11.74-1.4-17.61-2.06c-4-0.45-8-0.81-12-1.23c-2.97-0.31-5.93-0.66-8.9-0.97
			c-0.42-0.04-0.85-0.16-1.36,0.12c0.44,1.97,0.93,3.95,1.31,5.96c1.25,6.7,2.45,13.42,3.68,20.12
			C330.73,235.79,330.88,236.32,331.01,236.85z M257.02,156.64l-0.02-0.01c0.08,0.16,0.17,0.31,0.25,0.47
			c0.39,0.83,1.65,0.43,1.95,1.45c0.24,0.81,0.64,1.58,0.99,2.35c0.3,0.67,0.71,1.27,1.17,1.85c1.9,2.41,4.3,4.33,6.29,6.64
			c0.99,1.15,2.28,1.77,3.68,2.28c1.57,0.58,2.82,0.26,4-0.88c1.46-1.4,2.74-2.95,4.04-4.48c3.02-3.57,5.43-7.51,6.81-12.01
			c0.74-2.4,0.7-2.4-1.76-2.42c-0.92-0.01-1.82,0.1-2.72,0.24c-0.32,0.05-0.62-0.15-0.71-0.46c-0.1-0.34,0.15-0.58,0.44-0.71
			c0.33-0.15,0.68-0.26,1.03-0.36c1.2-0.33,2.42-0.22,3.64-0.15c0.76,0.04,0.94-0.36,0.95-1c0.01-0.65-0.33-0.83-0.91-0.83
			c-1.04,0.01-2.07,0-3.09,0.26c-0.32,0.08-0.82,0.2-0.96-0.22c-0.19-0.54,0.34-0.7,0.71-0.87c1.08-0.47,2.21-0.81,3.38-0.55
			c0.9,0.2,1.08-0.27,1.17-0.93c0.06-0.42,0.08-0.85,0.07-1.28c-0.02-0.87,0.21-1.69,0.51-2.49c0.08-0.23,0.26-0.45,0.53-0.42
			c0.42,0.05,0.42,0.43,0.35,0.7c-0.33,1.26-0.26,2.54-0.28,3.82c-0.01,0.57,0.01,1.07,0.69,1.31c0.38,0.13,0.6,0.65,0.11,0.79
			c-0.78,0.23-0.76,0.78-0.96,1.36c-0.3,0.87,0.21,1.2,0.75,1.62c0.27,0.21,0.19,0.73-0.14,0.68c-1.12-0.16-1.09,0.6-1.29,1.3
			c-0.28,1-0.61,1.98-1.02,2.93c-1.82,4.31-4.38,8.15-7.47,11.64c-1,1.13-1.01,1.46-0.04,2.65c0.62,0.75,1.34,1.4,2.17,1.95
			c1.65,1.09,3.49,1.76,5.37,2.28c6.24,1.74,8.8,6.71,10.86,12.14c0.13,0.34,0.28,0.86-0.37,1c-0.52-0.41-0.66-1.03-0.92-1.57
			c-0.82-1.71-1.79-3.33-2.81-4.92c-1.6-2.51-3.74-4.28-6.65-5.11c-1.58-0.45-3.12-1.05-4.59-1.81c-1.98-1.03-3.72-2.31-4.53-4.52
			c-1.04,0.41-0.86,1.3-0.89,2.06c-0.1,2.56-0.95,4.73-3,6.4c-1.56,1.27-2.96,2.73-4.5,4.02c-0.79,0.66-1.51,1.49-2.7,2
			c0.21-0.99,0.83-1.35,1.28-1.79c1.71-1.65,3.44-3.29,5.19-4.9c1.41-1.3,2.09-2.97,2.56-4.76c0.08-0.31,0.22-0.73-0.36-0.97
			c-1.16,0.94-2.58,0.88-3.95,0.55c-1.55-0.37-2.97-1.06-4.12-2.25c-2.07-2.16-4.2-4.26-6.27-6.42c-0.68-0.71-1.27-1.51-2.04-2.43
			c-0.03,2.96-0.79,5.47-2.07,7.77c-0.65,1.16-0.53,2.01,0.21,2.99c0.85,1.12,1.61,2.29,2.44,3.43c1.14,1.56,1.82,3.27,1.97,5.22
			c0.11,1.39,0.54,2.74,1.09,4.04c0.27,0.62,0.63,0.95,1.36,0.99c1.58,0.08,3.16,0.24,4.73,0.37c3.15,0.26,6.31,0.51,9.46,0.78
			c3.76,0.33,7.51,0.7,11.27,1.03c3.21,0.28,6.43,0.52,9.64,0.81c3.7,0.33,7.39,0.69,11.09,1.03c3.15,0.28,6.31,0.53,9.46,0.81
			c3.51,0.32,7.02,0.68,10.54,1c3.21,0.29,6.43,0.54,9.64,0.83c3.51,0.32,7.02,0.68,10.54,1c3.15,0.29,6.31,0.52,9.46,0.82
			c4.48,0.43,8.96,0.92,13.44,1.35c4.48,0.43,8.97,0.81,13.46,1.23c1.23,0.12,1.34,0.08,1.49-1.13c0.51-3.92,1.01-7.84,1.5-11.77
			c0.54-4.29,1.05-8.58,1.6-12.86c0.68-5.31,1.39-10.62,2.08-15.93c0.45-3.44,0.91-6.87,1.34-10.31c0.42-3.32,0.81-6.64,1.21-9.97
			c0.42-3.5,0.83-7.01,1.27-10.51c0.42-3.38,0.86-6.76,1.28-10.14c0.46-3.68,0.96-7.36,1.33-11.05c0.21-2.06,0.63-4.1,0.57-6.18
			c-0.05-1.73-0.58-2.4-2.27-2.81c-0.53-0.13-1.07-0.27-1.61-0.29c-2.74-0.12-5.47-0.38-8.22-0.4c-7.62-0.06-15.25,0.09-22.87-0.29
			c-5.91-0.29-11.83-0.03-17.74-0.38c-5.05-0.29-10.12-0.07-15.18-0.35c-5.66-0.3-11.34-0.07-17.01-0.39
			c-4.93-0.28-9.87-0.09-14.81-0.33c-5.97-0.29-11.95-0.11-17.92-0.41c-3.41-0.17-6.84,0.03-10.25-0.18
			c-5.48-0.34-10.96-0.35-16.44-0.55c-2.92-0.11-4.33,1.14-4.71,4c-0.41,3.02-0.99,6-1.53,9c-1.52,8.51-3.03,17.01-4.57,25.51
			c-1.14,6.29-2.33,12.56-3.48,18.85c-1.44,7.84-2.86,15.68-4.3,23.52c-0.64,3.47-1.29,6.94-1.91,10.41
			c-0.25,1.42-0.1,1.56,1.31,1.66c2.13,0.14,4.26,0.26,6.38,0.44c4.97,0.43,9.94,0.93,14.91,1.34c1.02,0.09,2.06,0.21,3.19-0.01
			c-0.62-1.77-1.25-3.48-1.53-5.28c-0.25-1.62-0.92-3.03-1.92-4.29c-0.92-1.15-1.69-2.39-2.41-3.67c-1.17-2.1-2.16-4.26-1.34-6.77
			c0.03-0.08-0.09-0.2-0.14-0.32c-0.65-0.05-0.95,0.49-1.32,0.85c-1.35,1.29-2.9,2.3-4.68,2.77c-2.9,0.77-5.73,1.65-8.23,3.36
			c-0.02,0.01-0.09-0.04-0.14-0.07c0.27-1.09,0.34-1.22,1.21-1.81c1.63-1.11,3.47-1.77,5.36-2.28c1.84-0.5,3.61-1.19,5.07-2.43
			c1.69-1.42,3.32-2.89,5.56-3.39c0.4-0.09,0.66-0.29,0.62-0.74c-0.13-1.38-0.05-2.8-0.9-4.04
			C255.91,156.97,255.93,156.96,257.02,156.64z M387.6,199.15c-2.89-0.28-5.61-0.55-8.33-0.8c-2.97-0.28-5.94-0.52-8.91-0.8
			c-3.57-0.34-7.14-0.7-10.71-1.04c-2.91-0.28-5.82-0.52-8.72-0.8c-3.39-0.32-6.78-0.69-10.17-1c-3.27-0.3-6.56-0.48-9.82-0.82
			c-3.87-0.4-7.75-0.75-11.63-1.04c-2.97-0.23-5.94-0.49-8.91-0.77c-3.51-0.33-7.02-0.69-10.53-1.01c-3.21-0.29-6.43-0.53-9.64-0.81
			c-3.76-0.34-7.52-0.64-11.26-1.08c-2.43-0.28-4.87-0.18-7.29-0.41c-4.85-0.46-9.69-0.93-14.56-1.05
			c-0.43-0.01-0.85-0.04-1.28-0.09c-2.78-0.31-5.55-0.71-8.34-0.92c-3.82-0.29-7.64-0.56-11.45-1.03c-0.8-0.1-1.19,0.18-1.29,0.88
			c-0.25,1.91-0.83,3.76-0.58,5.76c0.37,3.01,1.62,4.59,4.58,4.95c3.68,0.44,7.38,0.75,11.08,1.11c2.97,0.29,5.94,0.54,8.91,0.85
			c4.3,0.44,8.59,0.92,12.89,1.37c2.6,0.28,5.21,0.54,7.81,0.83c4.05,0.44,8.1,0.9,12.15,1.35c2.66,0.29,5.33,0.55,7.99,0.86
			c3.69,0.43,7.37,0.89,11.06,1.32c3.63,0.42,7.26,0.81,10.89,1.23c3.75,0.44,7.49,0.91,11.23,1.35c3.57,0.41,7.14,0.8,10.7,1.2
			c4.11,0.46,8.22,0.93,12.33,1.38c2.72,0.29,5.45,0.54,8.17,0.83c3.09,0.32,6.17,0.65,9.25,0.99c2.6,0.29,5.21,0.52,7.8,0.91
			c2.86,0.43,4.4-0.43,5.27-3.17c0.16-0.52,0.3-1.06,0.36-1.6C386.97,205.16,387.27,202.25,387.6,199.15z M329.81,242.88
			c0.18-0.99,0.15-1.82-0.01-2.67c-1.3-6.94-2.61-13.87-3.89-20.81c-0.59-3.17-1.16-6.35-1.68-9.53c-0.14-0.87-0.48-1.3-1.41-1.26
			c-1.1,0.06-2.18-0.23-3.27-0.33c-5.94-0.53-11.88-1.14-17.81-1.82c-0.89-0.1-1.8-0.23-2.73,0c-0.03,0.99,0.34,1.84,0.52,2.73
			c1.57,7.88,3.17,15.75,4.74,23.63c0.46,2.32,1.07,4.64,0.45,7.16C313.11,240.96,321.42,241.92,329.81,242.88z M255.5,169.25
			c0.55-0.88,1.84-4.29,1.87-4.95c0.01-0.25,0-0.49-0.26-0.6c-0.24-0.1-0.48-0.02-0.67,0.15
			C255.18,164.95,254.72,167.65,255.5,169.25z"/>
		<path fill="#E6BE60" d="M157.35,228.44c4.48-0.87,8.97-1.73,13.45-2.61c10.34-2.02,20.73-3.8,30.97-6.28
			c1.65-0.4,3.34-0.69,5.01-1c0.97-0.17,1.95-0.1,2.92,0.06c3.54,0.6,7.08,1.24,10.62,1.8c3.85,0.61,7.7,1.16,11.56,1.73
			c4.76,0.7,9.52,1.4,14.27,2.1c0.54,0.08,1.09,0.09,1.64,0.14c-1.58,2.31-3.15,4.62-4.73,6.93c-2.24-0.72-4.41-0.39-6.57,0.37
			c-0.61,0-1.22,0-1.83,0.01c-3.18-1.2-6.54-1.71-9.8-2.62c-1.93-0.54-3.89-0.42-5.81-0.22c-1.92,0.2-3.81,0.73-5.68,1.22
			c-5.38,1.41-10.83,2.04-16.4,2.02c-2.44-0.01-4.86-0.29-7.27-0.51c-2.59-0.23-5.17-0.72-7.79-0.63
			c-3.65,0.12-7.29-0.05-10.95,0.27c-3.19,0.28-6.42,0.64-9.65,0.5C159.91,230.75,158.5,229.76,157.35,228.44z"/>
		<path fill="#BAA7D6" d="M157.35,228.44c1.14,1.32,2.56,2.3,3.98,3.28c0.29,0.45,0.66,0.82,1.13,1.08
			c1.02,1.28,2.31,2.34,3.06,3.84c0.96,1.92,2.51,3.04,4.64,3.48c2.49,0.52,4.73,1.59,6.4,3.61c0.15,0.19,0.35,0.34,0.51,0.52
			c0.86,0.98,1.9,1.46,3.24,1.35c0.72-0.06,1.46-0.07,2.18,0.13c3.41,0.95,6.92,0.81,10.35,0.5c2.17-0.2,4.21-0.27,6.27,0.45
			c0.49,0.26,0.86,0.75,1.47,0.77c0.15,0.24,0.39,0.35,0.66,0.41c0.12,0.22,0.25,0.44,0.37,0.66c-0.11,0-0.22,0-0.33,0.02
			c-0.46-0.15-0.94-0.25-1.38-0.45c-2.14-0.94-4.36-0.97-6.61-0.61c-3.53,0.57-7.05,0.37-10.55-0.17c-0.91-0.14-1.8-0.35-2.71-0.22
			c-1.55,0.21-2.81-0.37-3.74-1.49c-1.93-2.32-4.39-3.57-7.32-4.09c-1.7-0.3-3.02-1.39-3.87-2.85c-1.95-3.34-4.71-5.87-7.84-8.06
			c-5.71-3.99-9.07-9.73-11.95-15.86c-1.72-3.65-2.39-7.68-4.05-11.35c-2.33-5.15-5.26-9.9-9.9-13.37
			c-0.48-0.36-0.91-0.81-1.32-1.26c-0.51-0.56-0.48-0.58-0.35-1.86c2.76,1.94,5.3,4.07,7.57,6.66c0.25-1.22,0.08-2.08-0.43-3.37
			c-1.57-3.98-4.82-6.15-8.46-7.9c-0.82-0.39-1.7-0.68-2.54-1.02c-2.1-0.85-3.74-2.24-4.95-4.16c-0.58-0.93-1.22-1.83-1.89-2.69
			c-1.81-2.32-4.34-3.43-7.4-4.22c1.39,2.01,3.21,3.19,4.81,4.57c1.56,1.35,3.46,2.35,4.63,4.34c-0.87,0.12-1.39-0.25-1.84-0.6
			c-2.69-2.09-5.74-3.7-8.28-6c-0.18-0.16-0.38-0.31-0.54-0.5c-1.88-2.28-4.31-3.72-7.07-4.68c-1.39-0.48-2.6-1.33-3.81-2.15
			c-4.67-3.19-9.55-3.71-14.7-1.26c-1.6,0.76-3.22,1.46-4.8,2.26c-2.89,1.45-5.28,3.49-6.97,6.28c-0.25,0.42-0.51,0.83-0.8,1.22
			c-0.33,0.44-0.68,0.92-1.33,0.76c-0.61-0.16-0.87-0.7-0.96-1.24c-0.25-1.45-0.21-2.91,0.06-4.36c0.33-1.76,0.64-3.52,0.84-5.33
			c-1.73,1.71-2.93,3.75-4.07,5.81c-2.88,5.2-5.13,10.64-6.27,16.5c-0.99,5.07-1.83,10.16-2.48,15.29
			c-0.89,6.98-0.52,13.99-0.77,20.99c-0.15,4.14-0.15,8.28-0.36,12.42c-0.3,6.03-1.59,11.92-2.91,17.8c-1.08,4.8-2.21,9.6-2.75,14.5
			c-0.08,0.72-0.05,1.46-0.05,2.19c0.01,3.11-0.26,6.19-0.68,9.28c-0.38,2.82-0.5,5.69-0.82,8.53c-0.08,0.68-0.26,1.31-0.45,1.95
			c-0.29,0.94-0.66,0.21-1.01,0.03c0.21-4.74,0.25-9.48,0.68-14.21c0.17-1.82,0.41-3.64,0.37-5.46c-0.1-3.69,0.63-7.25,1.38-10.83
			c1.22-5.83,2.81-11.58,3.7-17.47c0.58-3.85,0.74-7.74,0.86-11.64c0.2-6.82,0.29-13.64,0.45-20.46c0.1-4.18,0.69-8.35,1.39-12.48
			c0.82-4.79,1.59-9.59,2.82-14.3c1.75-6.75,4.85-12.86,8.88-18.5c1.69-2.37,3.48-4.66,5.45-6.81c0.64,0.72,1.25-0.29,1.88-0.02
			c-1.85,2.55-2.95,5.41-3.33,8.53c-0.23,1.92-0.8,3.79-0.71,5.75c-0.18,0.05-0.21,0.1-0.09,0.13c0.01,0,0.05-0.1,0.08-0.15
			c2.77-4.15,6.99-6.22,11.38-8.13c2.48-1.08,4.99-1.96,7.69-2.06c3.33-0.12,6.3,1.11,9.06,2.86c1.75,1.11,3.58,2.06,5.54,2.76
			c0.17,0.06,0.35,0.12,0.5,0.23c2.71,1.87,5.91,2.38,8.99,3.23c2.76,1.19,5.08,2.93,6.53,5.6c1.45,2.64,3.78,4.02,6.46,5.05
			c3.3,1.26,6.06,3.39,8.46,5.92c2.15,2.25,2.84,5.2,3.12,8.21c0.19,1.97,0.65,3.8,1.72,5.51c1.27,2.02,2.02,4.29,2.7,6.57
			c1.73,5.75,4.11,11.2,7.59,16.13C153.31,224.97,154.99,227.05,157.35,228.44z"/>
		<path fill="#B9943E" d="M475.06,259.84c-2.19,0.82-3.99,2.29-5.96,3.49c-7.42,4.54-14.82,9.13-22.22,13.71
			c-5.54,3.42-11.06,6.87-16.6,10.29c-6.37,3.93-12.75,7.84-19.13,11.75c-5.19,3.18-10.37,6.37-15.57,9.54
			c-2.08,1.27-4.17,2.51-6.26,3.76c-0.99,0.6-2,0.61-3.15,0.38c-5.06-0.98-10.14-1.83-15.22-2.74c-4.3-0.78-8.59-1.59-12.88-2.37
			c-5.73-1.05-11.46-2.07-17.18-3.13c-3.28-0.6-6.56-1.24-9.83-1.86c-5.12-0.96-10.25-1.91-15.37-2.89
			c-5.48-1.05-10.95-2.14-16.43-3.17c-7.57-1.42-15.15-2.77-22.72-4.2c-4.65-0.88-9.27-1.9-13.92-2.76
			c-7.76-1.42-15.49-2.93-23.24-4.42c-6.31-1.21-12.62-2.44-18.94-3.64c-6.97-1.33-13.94-2.64-20.9-4.02
			c-1.6-0.32-3.21-0.64-4.83-0.88c0.91-0.5,1.83-0.97,2.87-1.11c2.98,0.87,6.07,1.19,9.1,1.83c3.56,0.75,7.16,1.29,10.74,1.95
			c5.01,0.93,10.01,1.9,15.01,2.85c5,0.95,10,1.93,15.01,2.86c6.8,1.27,13.6,2.48,20.39,3.76c5.54,1.04,11.07,2.16,16.61,3.2
			c5.48,1.03,10.98,1.99,16.46,3.03c4.71,0.89,9.4,1.86,14.11,2.75c5.6,1.06,11.21,2.05,16.81,3.12c5.78,1.1,11.55,2.24,17.32,3.38
			c5.95,1.17,11.9,2.35,17.85,3.54c5.24,1.04,10.47,2.09,15.7,3.14c1.49,0.3,2.98,0.56,4.47,0.86c0.99,0.2,1.8-0.29,2.57-0.76
			c2.18-1.33,4.32-2.74,6.49-4.08c7.04-4.35,14.1-8.67,21.14-13.02c5.39-3.32,10.75-6.68,16.14-9.99
			c9.19-5.62,18.4-11.2,27.59-16.81c3.95-2.41,7.89-4.83,11.82-7.26c0.63-0.39,1.21-0.84,2-0.75
			C474.96,259.39,475.01,259.62,475.06,259.84z"/>
		<path fill="#B6A5D5" d="M197.57,275.57c-1.05,0.14-1.97,0.61-2.87,1.11c-3.46,0.91-6.92,1.8-10.38,2.72
			c-3.52,0.93-7.04,1.82-10.69,2.13c-0.17,0.01-0.33,0.15-0.49,0.22c-2.79-0.01-5.57,0.25-8.37-0.21c-2.02-0.33-3.86-1.04-5.66-1.94
			c-0.71-0.35-1.41-0.72-2.11-1.09c-0.11-0.14-0.19-0.32-0.33-0.43c-3.09-2.36-6.38-4.4-9.82-6.2c-0.38-0.2-0.77-0.35-1.22-0.27
			c-0.04-0.16-0.08-0.19-0.11-0.09c0,0.01,0.08,0.05,0.13,0.07c0.39,1.54,0.41,3.12,0.43,4.7c-0.19,3.24-0.96,6.37-2.05,9.41
			c-1.8,5.04-2.8,10.19-2.5,15.56c0.08,1.4,0.03,2.8,0.03,4.2c0.01,2.24,0.09,4.49-0.44,6.7c-0.67,0.08-1.06-0.24-1.17-0.87
			c-0.09-0.54-0.14-1.09-0.13-1.63c0.02-3.48-0.43-6.92-0.62-10.38c-0.13-2.35,0.28-4.72,0.72-7.06c0.58-3.07,1.72-5.96,2.63-8.92
			c0.99-3.21,1.74-6.46,1.65-9.86c-0.01-0.43-0.02-0.85-0.07-1.28c-0.13-1.11-0.64-1.87-1.79-2.25c-3-1.01-5.99-2.08-9.1-2.69
			c-5.35-1.05-10.45-2.84-15.44-4.98c-3.24-1.39-6.38-3.07-9.91-3.67c-2.7-0.46-5.41-0.84-8.11-1.25c-3.6-0.55-7.2-1.23-10.82-1.6
			c-3.74-0.39-7.48-0.85-11.28-0.39c-1.78,0.22-3.6,0.45-5.38,0.48c-0.32-0.69,0.14-0.86,0.48-1.07c1.35-0.83,2.91-0.96,4.41-1
			c3.78-0.11,7.57-0.18,11.34,0.02c2.72,0.14,5.42,0.72,8.12,1.12c2.94,0.44,5.88,0.96,8.83,1.31c3.36,0.41,6.55,1.34,9.62,2.74
			c3.66,1.68,7.38,3.19,11.19,4.48c3.35,1.14,6.83,1.77,10.25,2.64c7.25,1.85,13.78,5.18,19.82,9.52c2.85,2.05,5.83,3.77,9.38,4.27
			c2.25,0.31,4.5,0.25,6.75,0.06c7.14-0.59,13.95-2.71,20.79-4.65c2.05-0.58,4.02-1.42,5.91-2.42c2-1.06,3.26-2.77,3.87-4.89
			c0.69-2.4,0.91-4.83,0.64-7.39c-0.35-3.35-0.94-6.61-1.95-9.82c-0.07-0.22-0.02-0.48-0.02-0.72c0.95-0.1,1.39,0.46,1.77,1.25
			c1.07,2.23,1.59,4.63,1.72,7.03c0.13,2.28,0.66,4.53,0.21,6.89c-0.28,1.45-0.81,2.78-1.22,4.17c-0.58,0.63-0.89,1.41-1.15,2.2
			c-0.76,1.26-1.83,2.15-3.17,2.77C199.12,274.69,198.36,275.15,197.57,275.57z"/>
		<path fill="#69645C" d="M243.07,231.31c1.58-2.31,3.15-4.62,4.73-6.93c1.62-2.29,3.23-4.58,4.87-6.86
			c0.64-0.89,1.3-1.78,2.13-2.51c0.45-0.39,0.97-0.54,1.49-0.14c0.52,0.4,0.85,0.94,0.58,1.59c-0.23,0.56-0.58,1.07-0.91,1.58
			c-1.47,2.23-2.96,4.46-4.45,6.68c-1.46,1.77-2.92,3.54-4.15,5.48c-0.55,0.69-1.1,1.39-1.67,2.07c-0.58,0.7-1.75,1.03-2.55,0.72
			c-0.31-0.12-0.51-0.34-0.43-0.68C242.8,231.98,242.95,231.65,243.07,231.31z"/>
		<path fill="#E6BE60" d="M145.64,271.61c0.44-0.08,0.83,0.07,1.22,0.27c3.44,1.8,6.73,3.84,9.82,6.2c0.14,0.11,0.22,0.28,0.33,0.43
			c-3.67-0.6-7.29-1.42-10.91-2.22c-0.02-1.58-0.05-3.16-0.43-4.7L145.64,271.61z"/>
		<path fill="#FDB491" d="M204.25,269.35c0.41-1.39,0.94-2.71,1.22-4.17c0.46-2.35-0.08-4.61-0.21-6.89
			c-0.14-2.41-0.65-4.8-1.72-7.03c-0.38-0.79-0.82-1.34-1.77-1.25c-0.15-0.49-0.31-0.99-0.46-1.48c0.11-0.02,0.22-0.03,0.33-0.02
			c0.67-0.03,1.35,0.01,2-0.09c2.81-0.43,5.6-0.97,8.42-1.33c4.33-0.56,8.64-1.18,12.87-2.25c1.18-0.3,2.4-0.63,3.31-1.46
			c1.57-1.43,3.15-2.88,4.11-4.84c0.71-1.44,1.82-2.57,2.97-3.67c0.53-0.5,1.03-0.9,1.68-0.15c0.26,0.3,0.67,0.26,1.03,0.17
			c2.01-0.51,4.06-0.64,6.13-0.69c1.25-0.03,2.6-0.29,2.98-1.86c0.13-0.53,0.46-0.66,0.93-0.66c0.67,0,1.34-0.03,2.01,0
			c1.48,0.08,2.4,1.33,2.04,2.78c-0.12,0.47-0.28,0.94-0.48,1.38c-0.56,1.23-0.43,2.25,0.52,3.32c0.95,1.05,1.48,2.29,0.93,3.86
			c-0.33,0.95-0.28,2.05,0.28,3.01c0.4,0.69,0.45,1.33-0.07,2.03c-0.57,0.78-1.14,1.63-1.05,2.66c0.21,2.3-1.13,3.46-3.02,4.24
			c-1.84,0.75-3.82,0.59-5.73,0.85c-1.74,0.24-3.47,0.45-5.17,0.93c-2.26,0.63-4.18,1.98-6.36,2.74c-4.08,1.41-8.16,2.82-12.12,4.54
			c-4.85,2.1-9.85,3.81-14.84,5.55C204.67,269.69,204.44,269.66,204.25,269.35z"/>
		<path fill="#E99D77" d="M204.25,269.35c0.19,0.31,0.43,0.34,0.77,0.22c4.99-1.74,9.98-3.45,14.84-5.55
			c3.96-1.72,8.04-3.13,12.12-4.54c2.18-0.75,4.11-2.11,6.36-2.74c1.7-0.47,3.43-0.69,5.17-0.93c1.91-0.26,3.89-0.1,5.73-0.85
			c1.9-0.77,3.23-1.94,3.02-4.24c-0.1-1.04,0.48-1.88,1.05-2.66c0.51-0.71,0.46-1.35,0.07-2.03c-0.56-0.96-0.61-2.07-0.28-3.01
			c0.55-1.57,0.01-2.8-0.93-3.86c-0.95-1.06-1.09-2.09-0.52-3.32c0.2-0.44,0.36-0.91,0.48-1.38c0.36-1.45-0.56-2.7-2.04-2.78
			c-0.67-0.04-1.34,0-2.01,0c-0.47,0-0.8,0.13-0.93,0.66c-0.38,1.56-1.73,1.83-2.98,1.86c-2.07,0.05-4.12,0.17-6.13,0.69
			c-0.36,0.09-0.77,0.13-1.03-0.17c-0.65-0.75-1.15-0.36-1.68,0.15c-1.15,1.1-2.26,2.22-2.97,3.67c-0.96,1.96-2.54,3.41-4.11,4.84
			c-0.91,0.83-2.13,1.17-3.31,1.46c-4.23,1.06-8.54,1.69-12.87,2.25c-2.82,0.36-5.61,0.9-8.42,1.33c-0.66,0.1-1.33,0.07-2,0.09
			c-0.13-0.22-0.25-0.44-0.37-0.66c0.82-0.42,1.68-0.65,2.59-0.82c2.59-0.48,5.17-1.04,8.15-1.65c-3.96-0.55-7.29,0.42-10.63,1.35
			c-0.37,0.1-0.63,0.36-0.78,0.72c-0.61-0.02-0.98-0.5-1.47-0.77c0.58-0.57,1.34-0.79,2.07-1.1c4.16-1.79,8.63-1.83,13.02-2.12
			c1.66-0.11,3.25-0.31,4.81-0.86c1.09-0.38,2.17-0.8,3.29-1.09c1.69-0.44,3.38-1.05,5.17-0.43c0.54,0.19,0.96-0.02,1.3-0.41
			c0.76-0.85,1.5-1.71,1.77-2.91c-1.18-0.43-2.28-0.65-3.46-0.6c-1.34,0.05-2.68-0.05-4.02,0.02c-2.6,0.13-4.67-1.01-6.62-2.54
			c-0.25-0.2-0.5-0.39-0.37-0.74c0.18-0.46,0.56-0.38,0.91-0.25c0.95,0.36,1.89,0.73,2.84,1.09c0.08-0.2,0.14-0.31,0.16-0.42
			c0.1-0.43-0.13-1.12,0.62-1.08c0.58,0.03,0.51,0.6,0.5,1.01c-0.03,1.06,0.65,1.43,1.51,1.42c2.74-0.04,5.46,0.15,8.18,0.4
			c0.88,0.08,1.54-0.23,1.98-1c0.56-0.98,1.43-1.62,2.34-2.25c0.49-0.33,1.14-0.5,1.38-1.14c2.15-0.76,4.33-1.09,6.57-0.37
			c-0.12,0.34-0.27,0.66-0.35,1.01c-0.08,0.34,0.12,0.56,0.43,0.68c0.79,0.31,1.97-0.02,2.55-0.72c0.56-0.68,1.11-1.38,1.67-2.07
			c0.91,0,1.83,0.08,2.73-0.01c2.4-0.23,4.07,2.25,3.51,4.57c-0.11,0.47-0.3,0.92-0.47,1.38c-0.24,0.63-0.19,1.19,0.31,1.67
			c0.68,0.65,0.95,1.54,1.39,2.33c0.01,0.46,0.01,0.92,0.02,1.38c-0.01,0.3,0.05,0.63-0.05,0.91c-0.49,1.36-0.26,2.57,0.48,3.8
			c0.61,1.02,0.24,2.04-0.51,2.84c-0.81,0.86-1.15,1.83-1.05,2.98c0.06,0.77-0.2,1.44-0.66,2.03c-1.26,1.6-2.92,2.54-4.92,2.84
			c-1.43,0.22-2.89,0.3-4.33,0.44c-2.02,0.2-4.06,0.42-6.01,1.24c-2.45,1.03-4.74,2.42-7.36,3.1c-1.05,0.27-2.23,0.61-3.09,1.45
			c-0.83-0.04-1.49,0.41-2.19,0.75c-3.12,0.82-6.01,2.26-9.01,3.39c-3.74,1.4-7.5,2.76-11.24,4.15c-0.59,0.22-1.2,0.14-1.8,0.11
			C203.36,270.76,203.67,269.99,204.25,269.35z"/>
		<path fill="#B9943E" d="M306.16,277.89c-1.65-0.12-2.89-0.39-4.05-0.97c-1.64-0.82-3.3-1.58-4.9-2.47
			c-2.23-1.23-4.63-1.82-7.12-2.1c-0.8-0.09-1.56-0.29-2.31-0.49c-0.67-0.17-1.27-0.7-0.98-1.49c0.27-0.75-0.04-1.15-0.53-1.56
			c-1.6-1.32-1.64-2.95-1.05-4.79c1.07-3.36,3.49-5.08,6.81-5.53c1.79-0.24,3.6-0.59,5.44-0.44c5.29,0.44,10.14,1.88,13.94,5.86
			c1.55,1.62,2.69,3.52,2.97,5.74c0.3,2.42-0.55,4.58-2.49,6.13C310.12,277.19,307.86,277.26,306.16,277.89z M307.89,275.25
			c1.4,0.19,2.49-0.33,3.42-1.35c1.67-1.83,1.85-4.46,0.37-6.76c-1.91-2.99-4.65-4.94-7.94-6.17c-3.67-1.37-7.45-1.77-11.29-1.05
			c-2.74,0.51-4.91,1.92-5.62,4.82c-0.47,1.93-0.25,2.93,1.94,3.26c0.6,0.09,1.17,0.29,1.8,0.29c5.12-0.03,9.47,1.88,13.27,5.23
			C304.98,274.52,306.18,275.53,307.89,275.25z M303.04,275.44c-0.03-0.23-0.02-0.36-0.07-0.46c-0.34-0.62-1.02-0.85-1.53-1.28
			c-3.69-3.11-8.03-4.13-12.74-3.95c-0.29,0.01-0.67-0.02-0.72,0.38c-0.05,0.46,0.32,0.6,0.69,0.68c0.18,0.04,0.36,0.04,0.54,0.05
			c4.45,0.36,8.5,1.93,12.35,4.11C301.97,275.22,302.37,275.56,303.04,275.44z"/>
		<path fill="#B9943E" d="M225.15,263.91c0.7-0.34,1.36-0.79,2.19-0.75c3.64,0.61,7.3,1.14,10.92,1.85
			c1.67,0.33,2.96-0.01,4.34-0.99c4.25-3.03,8.58-5.96,12.92-8.87c5.35-3.58,10.75-7.1,16.13-10.65c0.42-0.28,0.91-0.5,1.19-1.04
			c-1.56-0.09-3-0.35-4.44-0.52c-1.33-0.16-2.67-0.16-3.98-0.35c-3.18-0.46-6.37-0.8-9.56-1.06c-0.01-0.46-0.01-0.92-0.02-1.38
			c1.64,0.5,3.37,0.41,5.05,0.64c4.62,0.62,9.28,1.04,13.92,1.53c0.52,0.05,0.99,0.18,1.1,0.77c0.09,0.49-0.25,0.76-0.62,1.02
			c-1.41,0.96-2.79,1.95-4.2,2.9c-8.13,5.46-16.27,10.92-24.41,16.37c-0.76,0.51-1.55,0.97-2.3,1.48c-1.46,0.98-2.8,1.82-4.82,1.32
			c-2.75-0.68-5.62-0.88-8.44-1.29c-1.32-0.19-2.63-0.42-3.95-0.61C225.78,264.22,225.4,264.25,225.15,263.91z"/>
		<path fill="#B9943E" d="M299.75,245.18c0.49-0.18,0.65-0.27,0.81-0.28c0.3-0.03,0.61-0.04,0.91,0
			c14.18,1.86,28.44,3.02,42.63,4.82c0.08,0.01,0.14,0.17,0.32,0.4c-1.59,0.48-3.16,0.38-4.63,0.13c-2.05-0.35-4.11-0.27-6.16-0.55
			c-3.05-0.43-6.14-0.65-9.2-1.07c-2.52-0.34-5.06-0.54-7.59-0.82c-2.95-0.33-5.89-0.75-8.85-1c-2-0.17-3.96-0.57-5.94-0.82
			C301.33,245.89,300.66,245.73,299.75,245.18z"/>
		<path fill="#594941" d="M114.95,107.23c-0.72,2.24-1.3,4.54-2.19,6.71c-0.75,1.83-1.64,3.63-2.78,5.29
			c-1.24,1.81-2.35,3.7-3.59,5.52c-2.72,4-4.33,8.4-5.08,13.18c-0.54,3.49-1.6,6.87-2.95,10.15c-0.82,2-1.98,3.77-3.57,5.24
			c-0.35,0.32-0.67,0.72-1.22,0.68c-0.4-0.55,0.05-0.95,0.23-1.35c1.5-3.41,2.87-6.86,3.33-10.59c0.27-2.18,0.32-4.37,0.22-6.56
			c0.53-1.63,0.54-3.36,0.63-5.03c0.28-5.68,1.43-11.17,3.15-16.55c1.13-3.54,2.75-6.88,5.07-9.84c0.5-0.64,0.49-0.65,1.89-1.2
			c-1.94,3.26-3.78,6.24-4.91,9.56c-1.14,3.34-1.97,6.75-2.56,10.22c-0.58,3.41-0.85,6.85-1.05,10.28c0.48,0.05,0.59-0.08,0.64-0.26
			c1.33-4.72,4.1-8.67,6.84-12.61c2.52-3.62,4.66-7.41,6.09-11.58c0.32-0.92,0.64-1.84,0.84-2.78c0.2-0.94,0.76-1.15,1.59-1.06
			C115.78,105.6,114.77,106.28,114.95,107.23z"/>
		<path fill="#E99D77" d="M114.95,107.23c-0.04-0.06-0.07-0.12-0.08-0.19c-0.02-0.12,0.03-0.24,0.07-0.35
			c0.18-0.44,0.38-0.88,0.52-1.34c0.14-0.47,0.16-0.96,0.36-1.42c0.27-0.61,0.61-1.2,1.02-1.72c0.83-1.05,1.94-1.8,3.2-2.25
			c0.18-0.06,0.36-0.12,0.54-0.17c1.59-0.45,3-0.26,4.19,0.97c0.33,0.34,0.73,0.62,1.1,0.92c-0.35,0.26-0.37,0.6-0.25,0.98
			c0.07,0.23,0.2,0.46,0.21,0.69c0.02,0.65,0.29,1.6-0.48,1.76c-0.85,0.18-0.79-0.79-0.98-1.39c-0.18-0.57-0.42-1.14-0.72-1.66
			c-0.47-0.81-1.25-1.21-2.16-1.01c-3.62,0.78-5.16,3.22-4.7,6.44c0.35,2.51,0.92,4.99,1.32,7.49c0.14,0.89,0.1,1.82,0.06,2.73
			c-0.04,1.07,0.26,2.05,0.73,2.98c0.77,1.49,2.18,2.15,3.81,1.78c0.76-0.17,1.87-0.66,2.13,0.06c0.33,0.91-0.96,1.01-1.6,1.34
			c-0.98,0.52-1.93,1.28-3.22,0.57c-1.49-0.82-2.77-1.79-3.27-3.48c-0.29-0.98-0.51-2-0.41-3.05c0.31-3.18-0.63-6.26-0.76-9.4
			c-0.01-0.29-0.1-0.59-0.25-0.83C115.23,107.52,115.05,107.39,114.95,107.23z"/>
		<path fill="#E99D77" d="M119.28,112.62c0.07-0.23,0.18-0.51,0.23-0.81c0.17-1.06,0.39-2.09,0.18-3.21
			c-0.31-1.68,0.13-3.25,1.4-4.5c0.44-0.44,0.95-0.76,1.57-0.87c0.4-0.07,0.71,0.14,0.88,0.5c0.18,0.39,0.09,0.71-0.35,0.87
			c-1.54,0.57-1.72,1.84-1.73,3.26c-0.02,1.51,0.13,3.01-0.25,4.52c-0.28,1.12,0.55,2.04,1.21,2.92c0.32,0.43,1.21,0.76,0.54,1.46
			c-0.58,0.6-1.13-0.03-1.58-0.36C120.14,115.49,119.54,114.19,119.28,112.62z"/>
		<path fill="#B9943E" d="M13.29,220.46c0.81,0.36,0.84,1.09,1.01,1.69c1.06,3.74,2.1,7.48,3.13,11.23c2.01,7.32,4,14.65,5.99,21.97
			c1.68,6.15,3.33,12.31,5.02,18.46c1.7,6.21,3.46,12.4,5.15,18.61c1.59,5.86,3.33,11.68,4.56,17.63c0.07,0.36,0.2,0.71,0.1,1.07
			c-0.08,0.3-0.24,0.58-0.59,0.59c-0.31,0-0.35-0.26-0.41-0.5c-2.86-12.43-6.83-24.57-10.14-36.88c-2.74-10.2-5.63-20.37-8.3-30.59
			c-1.86-7.11-3.75-14.21-5.51-21.34C13.14,221.75,12.86,221.15,13.29,220.46z"/>
		<path fill="#E6F8FC" d="M257.02,156.64c-1.09,0.32-1.12,0.34-0.57,1.13c0.85,1.23,0.77,2.65,0.9,4.04
			c0.04,0.46-0.21,0.65-0.62,0.74c-2.23,0.51-3.87,1.97-5.56,3.39c-1.47,1.24-3.23,1.93-5.07,2.43c-1.89,0.51-3.73,1.16-5.36,2.28
			c-0.86,0.59-0.93,0.72-1.21,1.81c0.05,0.02,0.12,0.08,0.14,0.07c2.5-1.72,5.33-2.59,8.23-3.36c1.77-0.47,3.33-1.48,4.68-2.77
			c0.38-0.36,0.68-0.9,1.32-0.85c0.05,0.12,0.17,0.24,0.14,0.32c-0.82,2.51,0.17,4.68,1.34,6.77c0.71,1.27,1.49,2.52,2.41,3.67
			c1,1.26,1.68,2.67,1.92,4.29c0.28,1.8,0.91,3.51,1.53,5.28c-1.13,0.22-2.18,0.1-3.19,0.01c-4.97-0.42-9.94-0.91-14.91-1.34
			c-2.12-0.19-4.25-0.31-6.38-0.44c-1.41-0.09-1.57-0.23-1.31-1.66c0.62-3.47,1.28-6.94,1.91-10.41c1.43-7.84,2.86-15.68,4.3-23.52
			c1.15-6.28,2.34-12.56,3.48-18.85c1.54-8.5,3.05-17.01,4.57-25.51c0.53-2.99,1.12-5.98,1.53-9c0.39-2.87,1.79-4.11,4.71-4
			c5.48,0.2,10.97,0.22,16.44,0.55c3.41,0.21,6.84,0,10.25,0.18c5.97,0.3,11.96,0.12,17.92,0.41c4.94,0.24,9.88,0.05,14.81,0.33
			c5.67,0.32,11.35,0.09,17.01,0.39c5.06,0.27,10.13,0.05,15.18,0.35c5.92,0.34,11.84,0.08,17.74,0.38
			c7.63,0.38,15.25,0.23,22.87,0.29c2.75,0.02,5.48,0.28,8.22,0.4c0.54,0.02,1.08,0.16,1.61,0.29c1.69,0.41,2.23,1.08,2.27,2.81
			c0.06,2.08-0.36,4.12-0.57,6.18c-0.38,3.69-0.88,7.37-1.33,11.05c-0.42,3.38-0.86,6.76-1.28,10.14c-0.43,3.5-0.84,7.01-1.27,10.51
			c-0.4,3.32-0.79,6.65-1.21,9.97c-0.43,3.44-0.89,6.88-1.34,10.31c-0.69,5.31-1.4,10.62-2.08,15.93c-0.55,4.29-1.06,8.58-1.6,12.86
			c-0.49,3.92-0.99,7.85-1.5,11.77c-0.16,1.21-0.26,1.25-1.49,1.13c-4.49-0.42-8.97-0.8-13.46-1.23c-4.48-0.43-8.96-0.92-13.44-1.35
			c-3.15-0.3-6.31-0.53-9.46-0.82c-3.51-0.32-7.02-0.68-10.54-1c-3.21-0.29-6.43-0.54-9.64-0.83c-3.51-0.32-7.02-0.68-10.54-1
			c-3.15-0.29-6.31-0.53-9.46-0.81c-3.7-0.33-7.39-0.7-11.09-1.03c-3.21-0.28-6.43-0.52-9.64-0.81c-3.76-0.33-7.51-0.7-11.27-1.03
			c-3.15-0.28-6.31-0.52-9.46-0.78c-1.58-0.13-3.15-0.29-4.73-0.37c-0.72-0.03-1.09-0.36-1.36-0.99c-0.56-1.3-0.99-2.65-1.09-4.04
			c-0.15-1.96-0.83-3.66-1.97-5.22c-0.83-1.13-1.59-2.31-2.44-3.43c-0.74-0.97-0.86-1.83-0.21-2.99c1.29-2.31,2.04-4.82,2.07-7.77
			c0.77,0.92,1.36,1.72,2.04,2.43c2.07,2.15,4.2,4.26,6.27,6.42c1.15,1.2,2.57,1.89,4.12,2.25c1.37,0.32,2.79,0.38,3.95-0.55
			c0.58,0.24,0.45,0.65,0.36,0.97c-0.47,1.79-1.15,3.46-2.56,4.76c-1.75,1.61-3.48,3.24-5.19,4.9c-0.46,0.44-1.07,0.8-1.28,1.79
			c1.19-0.51,1.91-1.34,2.7-2c1.54-1.29,2.95-2.74,4.5-4.02c2.05-1.67,2.9-3.84,3-6.4c0.03-0.76-0.15-1.64,0.89-2.06
			c0.81,2.2,2.55,3.49,4.53,4.52c1.47,0.76,3.01,1.36,4.59,1.81c2.91,0.83,5.05,2.6,6.65,5.11c1.02,1.59,2,3.21,2.81,4.92
			c0.26,0.54,0.4,1.16,0.92,1.57c0.64-0.14,0.49-0.66,0.37-1c-2.06-5.43-4.62-10.4-10.86-12.14c-1.87-0.52-3.71-1.19-5.37-2.28
			c-0.83-0.55-1.55-1.19-2.17-1.95c-0.97-1.18-0.96-1.52,0.04-2.65c3.09-3.5,5.65-7.34,7.47-11.64c0.4-0.95,0.74-1.94,1.02-2.93
			c0.2-0.71,0.17-1.46,1.29-1.3c0.33,0.05,0.41-0.47,0.14-0.68c-0.54-0.43-1.06-0.76-0.75-1.62c0.2-0.57,0.18-1.13,0.96-1.36
			c0.49-0.14,0.27-0.66-0.11-0.79c-0.69-0.24-0.71-0.74-0.69-1.31c0.03-1.28-0.05-2.56,0.28-3.82c0.07-0.27,0.08-0.65-0.35-0.7
			c-0.27-0.03-0.44,0.19-0.53,0.42c-0.3,0.8-0.53,1.62-0.51,2.49c0.01,0.43-0.01,0.86-0.07,1.28c-0.09,0.66-0.27,1.13-1.17,0.93
			c-1.16-0.26-2.3,0.08-3.38,0.55c-0.37,0.16-0.9,0.32-0.71,0.87c0.15,0.42,0.64,0.3,0.96,0.22c1.02-0.26,2.05-0.25,3.09-0.26
			c0.59,0,0.93,0.18,0.91,0.83c-0.01,0.64-0.19,1.04-0.95,1c-1.22-0.07-2.44-0.18-3.64,0.15c-0.35,0.1-0.7,0.21-1.03,0.36
			c-0.29,0.13-0.53,0.37-0.44,0.71c0.09,0.31,0.39,0.51,0.71,0.46c0.9-0.14,1.8-0.25,2.72-0.24c2.47,0.02,2.5,0.02,1.76,2.42
			c-1.38,4.5-3.79,8.44-6.81,12.01c-1.3,1.53-2.58,3.09-4.04,4.48c-1.19,1.13-2.43,1.45-4,0.88c-1.4-0.51-2.68-1.13-3.68-2.28
			c-1.99-2.31-4.4-4.23-6.29-6.64c-0.46-0.58-0.86-1.18-1.17-1.85c-0.35-0.78-0.75-1.54-0.99-2.35c-0.3-1.02-1.57-0.62-1.95-1.45
			c-0.07-0.16-0.16-0.31-0.25-0.47c0.43-0.15,1.28,0.07,0.75-0.91c-0.57-1.04-0.7-1.97,0.42-2.87c0.72-0.57,0.43-1.43-0.47-1.7
			c-0.22-0.06-0.27-0.14-0.31-0.3c-0.24-0.94,0.05-1.82,0.87-2.31c0.35-0.21,0.66-0.35,0.48-0.8c-0.15-0.36-0.47-0.57-0.86-0.59
			c-0.7-0.04-1.15,0.39-1.44,0.95c-0.49,0.95-0.66,1.97-0.42,3.02c0.12,0.54,0.38,1.08,0.17,1.61
			C255.63,154.23,256.15,155.46,257.02,156.64z M370.19,118.19c-0.23-0.74,0.19-1.28,0.58-1.82c0.25-0.34,0.58-0.64,0.75-1.02
			c0.39-0.86,0.04-2.01-0.66-2.44c-0.65-0.4-1.54-0.18-2.08,0.54c-0.21,0.28-0.48,0.63-0.19,0.98c0.36,0.44,0.62,0.04,0.89-0.18
			c0.27-0.22,0.56-0.59,0.91-0.22c0.29,0.3,0.17,0.71-0.06,1c-0.71,0.91-1.28,1.9-1.69,2.98c-0.2,0.51-0.72,0.73-1.21,0.55
			c-1.12-0.42-1.24,0.25-1.27,1.07c-0.48,0.44-0.49,1.09-0.69,1.65c-0.75,2.06-1.54,2.64-3.77,2.72c-0.79,0.03-1.64-0.12-2.35,0.14
			c-1,0.36-1.29-0.14-1.62-0.85c-0.78-1.68-2.16-2.72-3.75-3.57c-1.15-0.61-2.19-0.62-3.18,0.28c-0.88-1.63-1.04-3.28-0.3-5.02
			c0.38-0.89,0.86-1.76,0.99-2.74c0.04-0.33,0.21-0.48,0.52-0.64c0.91-0.46,0.93-0.55,0.07-1.08c-0.45-0.28-0.63-0.54-0.5-1.01
			c0.17-0.61,0.61-0.45,1.03-0.32c0.17,0.05,0.34,0.14,0.52,0.16c0.3,0.03,0.63,0.06,0.75-0.32c0.08-0.27-0.11-0.45-0.25-0.64
			c-0.27-0.39-0.99-0.37-1-0.97c-0.01-0.59,0.51-0.94,0.83-1.38c0.36-0.49,0.76-0.95,1.09-1.46c0.24-0.37,0.7-0.7,0.39-1.37
			c-1.11,0.43-1.65,1.39-2.34,2.2c-0.84,0.99-1.31,2.35-2.86,2.63c-0.49,0.09-0.64,0.67-0.01,0.88c1.11,0.37,0.71,0.92,0.27,1.49
			c-0.21,0.28-0.76,0.59-0.47,0.86c1.21,1.13,0.24,2.08-0.13,3.1c-0.68,1.85-0.89,3.67,0.51,5.32c0.18,0.21,0.18,0.44,0.18,0.68
			c-0.6-0.31-1.2-0.58-1.88-0.67c-3.03-0.41-6.07-0.59-9.12-0.4c-3.47,0.22-6.2,1.72-7.74,4.97c-1.57,3.3-3.09,6.63-4.61,9.95
			c-0.46,1-0.86,2.02-1.23,3.05c-0.1,0.27-0.48,0.66,0.16,0.94c0.62-0.41,0.84-1.13,1.16-1.77c1.96-3.93,3.95-7.84,5.85-11.8
			c1.11-2.31,2.96-3.43,5.37-3.94c3.58-0.76,7.1,0.14,10.7,0.09c-0.15,0.79-0.74,0.98-1.07,1.38c-0.38,0.46-1,0.82-0.8,1.53
			c0.25,0.88,1.03,0.67,1.68,0.74c0.1,0.01,0.19,0.11,0.39,0.24c-0.44,0.95-1.37,1.51-1.94,2.34c-0.73,1.08-0.36,1.91,0.92,2.03
			c0.54,0.05,0.97-0.29,0.52-0.73c-0.71-0.69-0.2-1.11,0.19-1.5c1.45-1.48,2.29-3.62,5.03-4.12c-2.18-1.16-3.58,0.57-5.29,0.37
			c1.03-1.06,2.25-1.74,3.45-2.45c0.46-0.27,0.92-0.25,1.38,0.02c1.17,0.68,2.4,1.35,3.04,2.57c1.67,3.19,3.22,6.43,4.82,9.65
			c0.13,0.27,0.34,0.62,0,0.82c-1.29,0.77-1.99,2.37-3.67,2.58c-0.14-0.3-0.4-0.44-0.71-0.52c-1.62-0.41-2.53-1.59-3.19-3.01
			c-0.31-0.66-0.51-1.37-0.83-2.01c-0.7-1.41-2.11-2-3.46-1.48c0.21,0.42,0.64,0.54,1.03,0.68c0.9,0.32,1.39,0.96,1.53,1.86
			c0.22,1.36,0.91,2.49,1.62,3.63c-0.51,0.17-1.13,0.2-1.45,0.67c-1.03,1.49-1.99,3.03-2.5,4.79c-0.07,0.23-0.04,0.49,0.22,0.61
			c0.27,0.12,0.51-0.05,0.63-0.24c1.18-1.87,2.71-3.56,3.09-5.85c0.74,0.62,1.51,1.11,2.51,1.26c0.43,0.06,0.98,0.08,1.25,0.58
			c-0.91,1.17-1.65,2.43-2.27,3.93c1.23-0.02,1.71-0.78,2.11-1.49c1.11-1.99,3.01-3.16,4.63-4.63c0.47-0.43,0.99-0.49,1.47-0.02
			c1.21,1.2,2.73,2.05,3.83,3.44c-0.91,1.37-2.83,1.65-3.68,3.56c2.04-0.58,3.31-1.78,4.74-2.89c1.48,1.51,3.06,2.82,4.39,4.54
			c-0.34,0.06-0.51,0.13-0.67,0.12c-5.28-0.35-10.57-0.69-15.85-1.07c-2.31-0.17-4.62-0.29-6.93-0.41
			c-4.86-0.26-9.71-0.74-14.58-0.94c-3.53-0.15-7.06-0.43-10.59-0.54c-2.19-0.07-4.38-0.28-6.57-0.3c-0.85-0.01-1.26-0.32-1.14-1.2
			c0.04-0.3,0.04-0.61,0.09-0.91c0.85-5.59,1.7-11.19,2.55-16.78c1.06-6.98,2.12-13.96,3.17-20.94c0.12-0.78,0.17-1.57,0.25-2.36
			c0.06-0.55-0.13-1.01-0.66-1.17c-0.64-0.2-0.85,0.3-0.99,0.79c-0.13,0.47-0.26,0.94-0.33,1.42c-0.66,4.02-1.31,8.05-1.96,12.07
			c-1.18,7.27-2.37,14.53-3.54,21.8c-0.29,1.8-0.52,3.61-0.81,5.42c-0.24,1.49-0.31,1.52-1.91,1.51c-0.55,0-1.1,0.02-1.65-0.04
			c-3.7-0.38-7.42-0.44-11.12-0.69c-3.64-0.24-7.3-0.42-10.94-0.61c-5.35-0.28-10.71-0.5-16.06-0.78
			c-4.08-0.21-8.16-0.32-12.24-0.47c-0.18-0.01-0.37-0.02-0.55-0.05c-3.21-0.47-6.46-0.15-9.67-0.57c-0.56-0.07-1.47-0.19-1.53,0.56
			c-0.06,0.76,0.84,0.72,1.41,0.76c2,0.16,4.01,0.27,6.02,0.4c5.1,0.35,10.2,0.72,15.31,1.04c3.04,0.19,6.09,0.26,9.13,0.49
			c2.31,0.17,4.62,0.26,6.93,0.39c5.23,0.29,10.45,0.72,15.68,0.98c2.98,0.15,5.95,0.49,8.95,0.47c1.51-0.01,1.67,0.31,1.44,1.78
			c-0.68,4.39-1.36,8.78-2.02,13.17c-0.68,4.57-1.32,9.15-1.98,13.73c-0.67,4.64-1.37,9.27-2.02,13.91
			c-0.09,0.66-0.04,1.34-0.02,2.01c0.01,0.26,0.2,0.46,0.44,0.53c0.35,0.11,0.62-0.11,0.7-0.41c0.24-0.88,0.48-1.76,0.63-2.66
			c0.82-4.8,1.63-9.6,2.42-14.4c0.81-4.92,1.6-9.85,2.39-14.78c0.62-3.85,1.24-7.69,1.83-11.54c0.11-0.75,0.48-1.03,1.22-1.03
			c1.16,0,2.31,0.22,3.46,0.28c5.66,0.32,11.32,0.57,16.98,0.84c0.69,0.03,1.42-0.06,2.16,0.61c-1.51,1.08-2.63,2.38-3.96,3.44
			c-3.45,2.76-5.34,6.22-5.2,10.74c0.1,3.08-0.79,5.82-2.93,8.21c-2.05,2.27-2.99,5.02-2.17,8.13c0.67,2.56,0.78,5.17,0.68,7.8
			c-0.05,1.34-0.01,2.68,0.05,4.02c0.03,0.63,0.1,1.32,1.11,1.57c-0.25-2.98,0.25-5.82,0.32-8.67c0.04-1.53-0.08-3.04-0.48-4.53
			c-0.8-2.95-0.17-5.55,1.97-7.76c1.36-1.4,2.09-3.1,2.58-4.97c0.41-1.56,0.36-3.15,0.36-4.73c0-2.9,1-5.35,3.08-7.37
			c0.74-0.72,1.49-1.44,2.23-2.18c0.87-0.86,1.96-1.6,2.52-2.63c0.73-1.34,1.67-1.45,2.96-1.37c4.13,0.28,8.27,0.57,12.4,0.69
			c4.94,0.14,9.86,0.51,14.79,0.7c5.91,0.23,11.8,0.66,17.71,0.86c0.67,0.02,1.33,0.02,2,0.17c0.62,0.14,1.49,0.43,1.62-0.56
			c0.12-0.95-0.8-0.89-1.43-1.01c-0.35-0.07-0.73-0.02-1.1-0.03c-1.34-0.03-2.69,0.01-4.03-0.09c-2.66-0.2-2.43-0.46-2.09-2.66
			c0.36-2.36,0.66-4.7,0.57-7.09c-0.17-4.66-2.18-8.13-6.41-10.28c-2.58-1.31-5.35-2.03-8.11-2.78c-1.5-0.41-1.5-0.4-1.51-2.04
			c1.29,0.62,2.27-0.1,3.26-0.76c0.11,1.05,0.64,0.86,1.2,0.37c1.23-1.08,2.15-2.4,3.22-3.86c-1.32-0.18-1.93,0.57-2.59,1.23
			C371.16,117.15,370.97,117.95,370.19,118.19z M346.75,181.15c1.81,2.03,3.66,4.03,5.43,6.1c0.73,0.86,0.91,1.97,0.73,3.11
			c-0.1,0.66-0.17,1.32-0.23,1.99c-0.03,0.3,0,0.66,0.37,0.73c0.33,0.06,0.57-0.21,0.7-0.48c0.59-1.27,1.07-2.58,1.45-3.92
			c0.92-3.21,1.49-6.44,0.74-9.93c2.4,1.84,2.48,2.13,1.41,4.67c-0.79,1.88-1.19,3.83-1.03,5.87c0.06,0.73,0.11,1.52,1.2,2.01
			c-0.47-3.02,0.13-5.59,1.59-8.05c0.97-1.65,0.62-2.92-0.77-4.28c-1.03-1.01-1.98-1.98-1.74-3.6c0.1-0.69-0.4-0.79-0.95-0.72
			c-0.05-0.04-0.1-0.09-0.15-0.13c0.14-1.17,0.58-2.16,1.4-3.08c1.49-1.7,2.79-3.58,3.28-5.84c0.64-3,0.57-6.06,0.42-9.1
			c-0.04-0.75-0.82-1.62,0.41-2.14c0.07-0.03,0.05-0.5-0.06-0.67c-1.13-1.57-2.06-3.29-4.21-3.82c-1.65-0.41-3.23-1.09-4.83-1.69
			c-1.04-0.39-2.02-0.88-2.52-1.98c-0.11-0.24-0.3-0.37-0.61-0.24c-0.32,0.67-0.16,1.28,0.31,1.84c0.56,0.68,1.27,1.14,2.08,1.44
			c1.78,0.64,3.55,1.3,5.34,1.89c0.97,0.32,1.73,0.88,2.36,1.65c0.37,0.45,0.55,0.91,0.11,1.55c-0.74-0.76-1.69-1.01-2.64-1.2
			c-1.3-0.26-2.55-0.05-3.66,0.73c-0.24,0.17-0.41,0.46-0.24,0.8c0.12,0.24,0.35,0.35,0.6,0.34c0.3-0.01,0.6-0.13,0.9-0.14
			c1.52-0.06,3.02-0.25,4.55,0.13c0.63,0.15,0.74,0.32,0.83,0.86c0.36,2.12,0.36,4.27,0.13,6.38c-0.15,1.37-0.06,2.81-0.69,4.13
			c-1.25,2.63-2.96,4.89-5.25,6.71c-1.78,1.41-3.6,1.71-5.54,0.35c-0.3-0.21-0.65-0.33-0.96-0.54c-2.55-1.69-5.72-2.65-6.99-5.87
			c-0.08-0.2-0.33-0.4-0.59-0.2c-0.21,0.16-0.23,0.41-0.17,0.66c0.38,1.72,1.41,2.96,2.87,3.84c1.62,0.98,3.32,1.82,4.88,2.88
			c2.05,1.4,4.08,1.79,6.29,0.47c0.03-0.02,0.1,0.04,0.15,0.07c0.01,0.05,0.06,0.11,0.04,0.14c-0.13,0.2-0.26,0.41-0.41,0.6
			c-1.05,1.32-1.27,2.87-1.17,4.49c0.03,0.44,0.09,1,0.56,1.03c0.6,0.04,0.49-0.57,0.5-0.97c0.03-1.09,0.24-2.12,1.04-3.2
			c1.18,3.47,1.09,6.72,0.18,9.68c-1.03-0.88-2.16-1.72-3.13-2.72c-0.97-1-1.77-2.17-2.68-3.23c-0.95-1.12-1.72-2.37-2.63-3.51
			c-0.83-1.05-0.85-2.59-2.09-3.61c-0.39,1.67,0.2,2.87,0.81,4.07c0.38,0.75,1.1,1.32,1.22,2.21c-0.67,0.06-1.29,0.14-0.73,1.06
			c1.14,1.89,0.97,3.83,0.22,5.79c-0.17,0.45-0.32,0.92-0.44,1.39c-0.29,1.11-0.08,2.17,0.32,3.21c0.11,0.28,0.3,0.55,0.68,0.43
			c0.29-0.09,0.31-0.37,0.29-0.6c-0.14-1.87,0.47-3.59,0.97-5.35c0.3-1.05,0.27-2.17-0.04-3.24
			C346.82,181.99,346.65,181.59,346.75,181.15z M296.84,118.88c1.4,2.73,3.27,5.2,1.31,8.35c-0.13,0.2-0.16,0.46-0.25,0.69
			c-1.29,3.33-0.39,6.32,1.4,9.17c0.24,0.38,0.58,0.76,1.11,0.65c0.06-0.14,0.1-0.2,0.1-0.25c0-0.12,0.01-0.26-0.05-0.35
			c-2.03-3.31-2.39-6.71-0.56-10.24c0.88-1.7,0.77-3.41-0.03-5.1c-0.26-0.55-0.49-1.12-0.81-1.64c-1.65-2.72-1.84-5.49-0.43-8.36
			c0.59-1.2,1.14-2.43,1.65-3.67c1.36-3.35,0.66-5.53-2.31-7.55c-1.63-1.11-3.48-1.76-5.27-2.52c-1.53-0.64-3.02-1.32-3.95-2.81
			c-0.16-0.26-0.39-0.47-0.84-0.35c-0.21,0.92,0.35,1.56,0.9,2.19c1.22,1.38,2.9,2.01,4.52,2.7c1.3,0.55,2.58,1.12,3.78,1.83
			c2.31,1.37,2.95,3.05,2.06,5.56c-0.38,1.09-0.93,2.12-1.41,3.17c-0.79,1.73-1.57,3.5-1.45,5.42c0.14,2.14-0.96,3.46-2.53,4.53
			c-1.71,1.17-3.48,2.25-5.25,3.34c-0.83,0.51-1.74,0.9-2.69,1.12c-1.16,0.26-1.64,0.03-2.26-1c-0.85-1.41-1.62-2.87-2.54-4.23
			c-1.92-2.83-2.57-5.83-1.76-9.21c0.24-1.01,0.42-1.44,1.48-1.05c0.4,0.15,0.93,0.18,1.07-0.36c0.16-0.61-0.34-0.84-0.81-1.03
			c-0.29-0.11-0.58-0.11-0.89-0.12c-0.97-0.03-1.27-0.39-1.15-1.32c0.13-1,0.82-0.65,1.39-0.56c0.18,0.03,0.35,0.12,0.53,0.15
			c0.36,0.05,0.78,0.15,0.93-0.3c0.17-0.52-0.24-0.77-0.62-0.97c-0.21-0.11-0.47-0.13-0.71-0.17c-1.33-0.24-1.88-0.13-1.06-2.04
			c0.14-0.34,0.26-0.68,0.4-1.02c0.83-2.07,2.05-3.69,4.36-4.33c0.99-0.27,1.91-0.82,2.62-1.62c0.71-0.8,0.75-1.05,0.24-2.59
			c-0.64,2.06-2.25,2.75-3.91,3.39c-0.17,0.07-0.33,0.15-0.5,0.23c-1.62,0.76-2.79,1.92-3.34,3.67c-0.4,1.28-0.82,2.55-1.3,3.8
			c-0.32,0.84-1.17,1.52-0.19,2.54c0.31,0.32,0.26,1.17-0.07,1.75c-0.23,0.41-0.32,0.77,0.16,1.1c0.52,0.35,0.3,0.87,0.2,1.33
			c-0.52,2.34-0.31,4.61,0.67,6.79c1.15,2.56,2.71,4.91,4.11,7.34c0.54,0.94,1.39,1.31,2.46,1.27c1.2-0.04,2,0.41,2.35,1.46
			c0.23,0.67,0.43,1.37,0.26,2.14c-0.22,1.05-0.31,2.12-0.46,3.28c1.1-0.18,1.1-1.04,1.3-1.67c0.67-2.12,0.67-4.19-1-5.89
			C290.85,123.27,294.5,122.16,296.84,118.88z M368.76,194.6c1.28-0.85,1.15-2.1,0.94-3.35c-0.32-1.88-1.16-3.59-1.96-5.29
			c-0.8-1.71-0.81-3.38-0.2-5.12c0.36-1.03,0.67-2.09,1.02-3.12c0.94-2.79,0.52-5.39-1.05-7.85c-0.46-0.72-0.9-1.45-1.32-2.19
			c-0.59-1.07-1.13-2.17-1.16-3.43c-0.05-2.31-0.15-4.62,0.27-6.92c0.23-1.25,0.44-2.55,0.35-3.8c-0.32-4.45-2.63-6.81-6.69-8.48
			c-0.23-0.1-0.47-0.07-0.77,0.33c0.87,0.59,1.75,1.17,2.61,1.79c2.26,1.64,3.65,3.77,3.45,6.65c-0.15,2.18-0.43,4.35-0.75,6.52
			c-0.44,3.01,0.05,5.8,1.69,8.38c0.49,0.77,0.96,1.56,1.39,2.36c0.89,1.66,1.34,3.38,0.72,5.26c-0.4,1.21-0.71,2.46-1.15,3.65
			c-0.96,2.56-0.73,4.92,0.65,7.33c1.22,2.14,2.36,4.41,1.73,7.05C368.53,194.4,368.61,194.45,368.76,194.6z M303.75,136.04
			c0.66,0.09,0.97-0.23,1.28-0.51c2.85-2.49,4.94-5.51,6.41-8.99c0.8-1.88,0.48-3.54-0.63-5.17c-0.79-1.17-1.73-2.2-2.73-3.18
			c-1.81-1.78-2.36-3.88-1.81-6.35c0.26-1.19,0.57-2.36,0.94-3.52c0.5-1.57,0.9-3.17,1.04-4.8c0.31-3.75-2.08-7.65-6.9-10.25
			c-0.19,0.74,0.27,1.14,0.72,1.55c0.54,0.49,1.11,0.95,1.64,1.45c2.9,2.81,3.82,6.11,2.52,9.99c-0.52,1.56-1.05,3.12-1.39,4.73
			c-0.63,2.98-0.46,5.81,1.93,8.13c0.83,0.8,1.55,1.72,2.29,2.6c1.38,1.64,1.72,3.37,0.68,5.38c-1.32,2.56-2.85,4.96-4.8,7.08
			C304.46,134.7,303.85,135.14,303.75,136.04z M283.56,92.71c-0.29-0.05-0.5,0.07-0.66,0.25c-1.27,1.42-2.83,2.49-4.42,3.52
			c-2.01,1.31-3.06,3.2-3.55,5.52c-0.35,1.61-0.04,3.15,0.23,4.69c0.42,2.42,0.36,4.69-1.1,6.82c-0.82,1.2-1.44,2.54-2.15,3.82
			c-0.48,0.87-0.62,1.82-0.68,2.81c-0.09,1.62,0.51,2.99,1.36,4.27c0.94,1.41,1.06,2.74,0.12,4.24c-0.81,1.29-1.2,2.79-1.6,4.26
			c-0.25,0.89-0.31,1.8,0.01,2.69c0.07,0.2,0.23,0.45,0.54,0.35c0.2-0.06,0.28-0.23,0.29-0.41c0.15-2.63,1.2-4.93,2.56-7.14
			c0.61-0.99,0.61-2.1,0.11-3.16c-0.31-0.66-0.6-1.35-1.02-1.94c-1.62-2.26-1.16-4.46,0.13-6.64c0.53-0.89,1.02-1.81,1.64-2.64
			c1.46-1.96,1.58-4.16,1.33-6.45c-0.07-0.66-0.22-1.32-0.37-1.97c-0.92-3.87,0.4-6.8,3.72-8.89c1.14-0.72,2.15-1.61,3.04-2.62
			C283.46,93.72,283.97,93.35,283.56,92.71z M255.58,139.67c-0.98-0.17-1.46,0.25-1.81,0.72c-1.06,1.4-1.73,2.97-1.31,4.77
			c0.27,1.18,0.65,2.35,1.04,3.5c0.36,1.06,0.48,2.01-0.58,2.77c-0.54,0.39-0.7,0.99-0.63,1.63c0.07,0.7-0.26,1.08-0.84,1.46
			c-1.87,1.21-2.86,2.95-2.84,5.21c0.01,1.13-0.35,2.12-1.08,3.03c-0.69,0.85-1.28,1.79-1.83,2.73c-0.36,0.62-0.66,1.32,0.26,1.99
			c0.57-1.06,0.95-2.2,1.83-2.94c1.68-1.42,2.35-3.2,2.23-5.35c-0.09-1.65,0.89-2.72,2.02-3.71c0.4-0.35,0.74-0.34,1.05,0.14
			c0.23,0.36,0.52,0.69,0.91,0.88c0.64,0.3,1.35,0.07,1.46-0.59c0.17-1,0.2-2.02-0.55-2.83c-0.83,0.31-0.09,1.21-0.74,1.52
			c-0.85-1.56-0.86-1.57,0.28-2.68c0.51-0.5,0.73-1.09,0.77-1.8c0.06-1.2-0.34-2.27-0.76-3.36c-0.52-1.32-0.83-2.63-0.43-4.08
			C254.31,141.6,255.12,140.82,255.58,139.67z M374.25,114.39c1.11-0.51,1.06-1.27,1.08-1.99c0.02-0.97,0.36-1.71,1.16-2.35
			c1.3-1.03,1.38-1.91,0.47-3.3c-0.4-0.61-0.92-1.14-1.27-1.77c-1.39-2.43-3.32-4.16-6.04-4.98c-0.46-0.14-0.97-0.28-1.34-0.56
			c-2.01-1.54-4.2-1.67-6.59-1.1c-1.22,0.29-2.52,0.44-3.58-0.69c-0.55-0.59-1.24-0.39-1.78,0.15c-1.07,1.08-1.63,2.4-1.85,3.88
			c-0.06,0.42,0.08,0.81,0.53,0.93c0.47-0.27,0.45-0.65,0.51-1.01c0.11-0.74,0.48-1.38,0.86-2c0.42-0.69,0.89-1.15,1.72-0.4
			c0.84,0.76,1.9,0.74,2.94,0.54c0.54-0.1,1.07-0.22,1.6-0.37c1.56-0.44,2.99-0.25,4.35,0.66c0.91,0.61,1.91,1.05,2.97,1.37
			c1.83,0.55,3.22,1.67,4.21,3.3c0.54,0.88,1.01,1.79,1.71,2.58c0.55,0.61,0.65,1.28-0.24,1.81c-0.82,0.49-1.38,1.21-1.41,2.21
			C374.23,112.29,374.25,113.26,374.25,114.39z M346.24,144.98c-0.66,2.1-2.05,3.26-3.51,4.34c-1.03,0.77-1.95,1.66-2.78,2.63
			c-1.31,1.53-1.94,3.35-2.02,5.35c-0.01,0.3-0.19,0.76,0.37,0.83c0.44-0.25,0.39-0.74,0.57-1.11c0.17-0.33,0.32-0.67,0.75-0.71
			c1.61-0.14,3.12-1.14,4.82-0.5c0.26,0.1,0.6,0,0.9-0.06c0.24-0.05,0.46-0.21,0.5-0.47c0.04-0.27-0.17-0.44-0.39-0.55
			c-1.3-0.62-2.62-0.92-4.06-0.42c-0.45,0.15-0.9,0.7-1.46,0.27c-0.06-0.45,0.23-0.72,0.42-1.02c1.12-1.71,2.67-2.98,4.2-4.28
			C345.77,148.24,346.78,147.1,346.24,144.98z M370.07,105.86c-0.07,0.88-0.61,1.26-0.98,1.7c-1.13,1.34-1.17,2.88-1,4.49
			c0.03,0.27,0.13,0.49,0.41,0.48c0.15-0.01,0.35-0.16,0.43-0.3c0.12-0.2,0.23-0.46,0.21-0.68c-0.2-1.61,0.6-2.81,1.56-3.94
			c0.5-0.59,0.87-1.23,0.54-1.99c-0.37-0.84-1.16-0.99-2-0.99c-1.16,0-2.32-0.05-3.47,0.01c-1.42,0.07-2.65-0.25-3.6-1.38
			c-0.56-0.67-1.3-0.84-2.13-0.8c-1.41,0.06-2.68,0.77-4.1,0.83c-0.37,0.02-0.32,0.44-0.06,0.69c0.4,0.39,0.91,0.33,1.38,0.23
			c0.65-0.14,1.3-0.31,1.94-0.5c0.96-0.28,1.79-0.18,2.47,0.64c0.93,1.13,2.17,1.43,3.6,1.39
			C366.82,105.68,368.4,105.55,370.07,105.86z M259.8,155.89c0.75-0.29,1.01-0.84,1.33-1.35c1.28-2.01,2.01-4.14,1.7-6.57
			c-0.27-2.18,0.49-4.05,1.79-5.78c0.42-0.56,1.59-1.16,0.8-1.86c-0.55-0.49-1.32,0.56-1.94,1.01c-0.05,0.03-0.08,0.09-0.12,0.14
			c-1.46,1.74-2.34,3.7-2.23,6.01c0.1,2.28,0.01,4.5-1.27,6.51C259.52,154.53,259.37,155.13,259.8,155.89z M271.12,161.75
			c-2.02-0.06-2.69,0.8-2.3,2.52c0.47,2.04,2.31,3.69,4.33,3.86c1.64,0.14,3.64-1.19,4.44-2.95c0.54-1.18,0.16-2.18-1.03-2.66
			c-0.34-0.13-0.69-0.27-1.05-0.3C273.94,162.1,272.36,162.08,271.12,161.75z M335.11,170.29c-0.69,0.43-0.74,1.07-0.78,1.74
			c-0.11,1.74,0.48,3.36,0.93,5c0.47,1.7,1.01,3.38,1.58,5.04c0.18,0.53,0.34,1.46,1.02,1.29c0.74-0.19,0.37-1.01,0.23-1.58
			c-0.01-0.06-0.03-0.12-0.05-0.18c-0.75-3.63-2.09-7.11-2.62-10.8C335.4,170.65,335.25,170.52,335.11,170.29z M324.34,184.23
			c-0.18-0.95-0.35-2.08-0.32-3.24c0.01-0.32-0.16-0.64-0.49-0.67c-0.33-0.03-0.48,0.29-0.62,0.58c-0.3,0.62-0.39,1.29-0.31,1.96
			c0.16,1.54-0.21,2.84-1.31,3.99c-0.61,0.64-1.19,1.41-1.27,2.37c-0.03,0.34-0.13,0.78,0.33,0.92c0.36,0.12,0.55-0.21,0.69-0.47
			c0.62-1.14,1.49-2.06,2.41-2.96C324.07,186.1,324.37,185.33,324.34,184.23z M347.8,131.47c0-0.2,0.06-0.7-0.5-0.79
			c-0.45-0.07-0.59,0.37-0.71,0.7c-0.58,1.59-1.14,3.19-1.71,4.78c-0.39,1.08-0.79,2.16-1.18,3.24c-0.15,0.42-0.28,0.92,0.16,1.15
			c0.61,0.32,0.87-0.32,1.07-0.69c0.46-0.85,0.83-1.75,1.21-2.64C346.9,135.45,347.61,133.65,347.8,131.47z M349.81,165.39
			c-1.61-0.09-3.22,1.18-3.25,2.57c-0.02,1.06,1.14,2.04,2.56,2.15c1.45,0.11,2.98-1.22,3.01-2.6
			C352.15,166.37,351.16,165.47,349.81,165.39z M336.81,158.86c-0.61,0.03-1.03,0.46-1.31,1.03c-0.53,1.08-0.38,2.16,0.24,3.13
			c0.69,1.07,1.44,2.1,1.84,3.34c0.11,0.34,0.35,0.74,0.76,0.66c0.59-0.12,0.39-0.67,0.38-1.06c-0.04-1.33-0.66-2.43-1.4-3.5
			c-0.77-1.11-0.71-1.44,0.22-2.49c0.17-0.19,0.36-0.34,0.25-0.6C337.63,158.99,337.29,158.86,336.81,158.86z M265.63,146.74
			c0.29,0.49,0.71,0.36,1.02,0.28c2.13-0.57,4.07-0.04,5.99,0.87c0.64,0.31,1.53,1.23,2.02,0.34c0.38-0.68-0.77-1.2-1.37-1.68
			c-0.19-0.15-0.42-0.25-0.65-0.33c-1.76-0.63-3.57-0.73-5.4-0.43C266.63,145.9,265.95,146.09,265.63,146.74z M270.5,148.96
			c-0.88,0.18-1.84,0.34-2.77,0.59c-0.42,0.11-1.1,0.23-0.91,0.88c0.15,0.51,0.77,0.36,1.13,0.25c1.48-0.45,2.9-0.07,4.33,0.18
			c0.36,0.06,0.7,0.21,1.06,0.26c0.29,0.04,0.64,0.07,0.74-0.33c0.07-0.26-0.1-0.47-0.28-0.63
			C272.88,149.35,271.75,149.13,270.5,148.96z M294.99,105.21c-0.12-0.13-0.25-0.37-0.44-0.47c-1.8-0.93-3.69-1.14-5.65-0.58
			c-0.23,0.06-0.45,0.2-0.64,0.35c-0.3,0.23-0.58,0.52-0.35,0.92c0.17,0.31,0.53,0.28,0.81,0.17c0.88-0.34,1.8-0.22,2.71-0.25
			c0.98-0.04,1.94,0.06,2.88,0.34C294.6,105.76,294.93,105.72,294.99,105.21z M354.75,123.7c-0.36-0.5-0.89-0.39-1.22-0.06
			c-1.11,1.09-2.15,2.25-3.2,3.39c-0.13,0.15-0.12,0.37,0.04,0.47c0.13,0.08,0.35,0.11,0.49,0.06c0.22-0.07,0.41-0.26,0.63-0.35
			c1.48-0.61,1.84-2.37,3.2-3.11C354.74,124.06,354.72,123.88,354.75,123.7z M359.19,108.47c-0.12,0.03-0.36,0.08-0.59,0.14
			c-0.36,0.09-0.76,0.18-0.78,0.63c-0.02,0.49,0.41,0.5,0.77,0.57c1.19,0.24,2.41,0.33,3.51,0.94c0.21,0.12,0.5,0.14,0.67-0.09
			c0.22-0.29,0.09-0.61-0.13-0.81C361.7,109.01,360.54,108.64,359.19,108.47z M290.28,107.25c-1.27-0.07-2.11,0.01-2.8,0.61
			c-0.19,0.17-0.31,0.38-0.22,0.64c0.09,0.26,0.33,0.43,0.56,0.36c1.13-0.31,2.29-0.27,3.44-0.3c0.27-0.01,0.48-0.16,0.52-0.42
			c0.04-0.24-0.1-0.46-0.32-0.61C290.97,107.2,290.41,107.26,290.28,107.25z M285.57,118.59c1.06-0.02,1.86,0.01,2.57-0.42
			c0.21-0.13,0.38-0.31,0.31-0.59c-0.07-0.3-0.32-0.38-0.56-0.31c-1.3,0.33-2.53,0-3.77-0.32c-0.26-0.07-0.51-0.08-0.65,0.14
			c-0.18,0.29-0.04,0.58,0.18,0.82C284.26,118.57,285.04,118.6,285.57,118.59z M340.96,158.93c1.58-0.16,3.11-0.64,4.69-0.44
			c0.3,0.04,0.66-0.03,0.62-0.45c-0.03-0.33-0.31-0.55-0.61-0.6c-1.54-0.26-3.04-0.15-4.43,0.62
			C341.01,158.17,340.86,158.37,340.96,158.93z M358.06,157.39c-1.46-1.02-2.94-1.41-4.61-0.93c-0.32,0.09-0.76,0.26-0.64,0.73
			c0.11,0.44,0.5,0.46,0.89,0.35c0.96-0.28,1.92-0.25,2.88-0.04C357.04,157.59,357.48,157.86,358.06,157.39z M356.48,118.45
			c-1.27-0.79-2.77-0.5-4.13-0.92c-0.15-0.05-0.34,0.11-0.38,0.31c-0.08,0.36,0.13,0.58,0.42,0.71
			C353.72,119.17,355.07,119.05,356.48,118.45z M360.83,112.88c-1.11-1.85-2.65-2.26-4.13-1.15
			C358.02,112.46,359.51,112.34,360.83,112.88z M252.69,163.16c1.23-0.95,1.58-2.18,2.02-3.35c0.04-0.1-0.13-0.33-0.25-0.42
			c-0.17-0.13-0.4-0.02-0.47,0.13C253.42,160.61,252.63,161.62,252.69,163.16z M372.53,108.16c-0.11,1.08-0.22,2.15-0.36,3.47
			C373.3,110.22,373.38,109.61,372.53,108.16z M368.27,115.67c-0.72,0.63-1.17,1.07-0.8,1.98
			C368.12,117.18,368.51,116.74,368.27,115.67z"/>
		<path fill="#E6F8FC" d="M387.6,199.15c-0.33,3.1-0.63,6.01-0.96,8.91c-0.06,0.54-0.2,1.08-0.36,1.6
			c-0.86,2.75-2.41,3.61-5.27,3.17c-2.59-0.39-5.2-0.62-7.8-0.91c-3.08-0.34-6.17-0.67-9.25-0.99c-2.72-0.28-5.45-0.53-8.17-0.83
			c-4.11-0.45-8.22-0.92-12.33-1.38c-3.57-0.4-7.14-0.78-10.7-1.2c-3.75-0.44-7.49-0.91-11.23-1.35c-3.63-0.42-7.26-0.81-10.89-1.23
			c-3.69-0.43-7.37-0.9-11.06-1.32c-2.66-0.31-5.33-0.57-7.99-0.86c-4.05-0.45-8.1-0.91-12.15-1.35c-2.6-0.29-5.21-0.55-7.81-0.83
			c-4.3-0.46-8.59-0.93-12.89-1.37c-2.97-0.3-5.94-0.56-8.91-0.85c-3.69-0.36-7.39-0.67-11.08-1.11c-2.97-0.36-4.21-1.94-4.58-4.95
			c-0.25-2,0.33-3.85,0.58-5.76c0.09-0.7,0.48-0.98,1.29-0.88c3.8,0.47,7.63,0.73,11.45,1.03c2.79,0.21,5.56,0.61,8.34,0.92
			c0.42,0.05,0.85,0.08,1.28,0.09c4.87,0.12,9.71,0.59,14.56,1.05c2.42,0.23,4.86,0.12,7.29,0.41c3.74,0.44,7.51,0.74,11.26,1.08
			c3.21,0.29,6.43,0.52,9.64,0.81c3.51,0.32,7.02,0.69,10.53,1.01c2.97,0.27,5.94,0.54,8.91,0.77c3.88,0.3,7.76,0.64,11.63,1.04
			c3.27,0.34,6.55,0.53,9.82,0.82c3.39,0.31,6.78,0.68,10.17,1c2.91,0.28,5.82,0.52,8.72,0.8c3.57,0.34,7.14,0.71,10.71,1.04
			c2.97,0.28,5.94,0.53,8.91,0.8C381.99,198.6,384.71,198.87,387.6,199.15z"/>
		<path fill="#E6F8FC" d="M329.81,242.88c-8.39-0.97-16.7-1.93-25.09-2.9c0.62-2.52,0.01-4.84-0.45-7.16
			c-1.58-7.88-3.17-15.75-4.74-23.63c-0.18-0.88-0.55-1.74-0.52-2.73c0.93-0.24,1.85-0.11,2.73,0c5.93,0.68,11.86,1.29,17.81,1.82
			c1.09,0.1,2.17,0.38,3.27,0.33c0.93-0.05,1.26,0.38,1.41,1.26c0.52,3.18,1.1,6.36,1.68,9.53c1.29,6.94,2.59,13.88,3.89,20.81
			C329.96,241.06,329.99,241.89,329.81,242.88z"/>
		<path fill="#E6F8FC" d="M255.5,169.25c-0.78-1.61-0.31-4.3,0.94-5.41c0.19-0.17,0.43-0.25,0.67-0.15c0.26,0.11,0.27,0.36,0.26,0.6
			C257.33,164.97,256.05,168.38,255.5,169.25z"/>
		<path fill="#FDB491" d="M236.51,231.69c-0.24,0.64-0.89,0.81-1.38,1.14c-0.91,0.63-1.78,1.27-2.34,2.25
			c-0.45,0.78-1.11,1.08-1.98,1c-2.72-0.24-5.44-0.44-8.18-0.4c-0.86,0.01-1.54-0.36-1.51-1.42c0.01-0.41,0.08-0.99-0.5-1.01
			c-0.75-0.04-0.52,0.65-0.62,1.08c-0.03,0.11-0.08,0.22-0.16,0.42c-0.94-0.36-1.89-0.74-2.84-1.09c-0.35-0.13-0.73-0.21-0.91,0.25
			c-0.13,0.35,0.12,0.54,0.37,0.74c1.95,1.53,4.02,2.67,6.62,2.54c1.34-0.07,2.68,0.03,4.02-0.02c1.17-0.04,2.28,0.17,3.46,0.6
			c-0.27,1.19-1.01,2.06-1.77,2.91c-0.35,0.39-0.76,0.59-1.3,0.41c-1.78-0.62-3.48,0-5.17,0.43c-1.12,0.29-2.2,0.7-3.29,1.09
			c-1.56,0.54-3.15,0.74-4.81,0.86c-4.4,0.3-8.86,0.34-13.02,2.12c-0.72,0.31-1.48,0.53-2.07,1.1c-2.05-0.72-4.09-0.65-6.27-0.45
			c-3.43,0.31-6.94,0.45-10.35-0.5c-0.72-0.2-1.46-0.19-2.18-0.13c-1.34,0.11-2.38-0.37-3.24-1.35c-0.16-0.18-0.36-0.33-0.51-0.52
			c-1.67-2.02-3.91-3.08-6.4-3.61c-2.13-0.45-3.68-1.56-4.64-3.48c-0.75-1.51-2.04-2.57-3.06-3.84c1.17-0.15,2.25,0.56,3.43,0.32
			c3.41-0.7,6.9-0.29,10.34-0.63c2.81-0.27,5.69-0.15,8.55,0.2c1.79,0.22,3.62,0.38,5.43,0.53c3.14,0.27,6.27,0.62,9.43,0.63
			c1.27,0.01,2.5-0.49,3.8-0.35c1.59,0.16,3.15-0.2,4.69-0.51c3.56-0.71,7.09-1.58,10.65-2.3c1.89-0.39,3.75-0.49,5.73,0.04
			c2.91,0.78,5.94,1.13,8.92,1.64c0.55,0.09,1.14,0.1,1.24-0.69C235.29,231.69,235.9,231.69,236.51,231.69z"/>
		<path fill="#E99D77" d="M234.68,231.69c-0.1,0.79-0.69,0.78-1.24,0.69c-2.98-0.51-6.01-0.87-8.92-1.64
			c-1.98-0.53-3.84-0.42-5.73-0.04c-3.56,0.72-7.09,1.59-10.65,2.3c-1.54,0.31-3.1,0.68-4.69,0.51c-1.3-0.13-2.53,0.36-3.8,0.35
			c-3.15-0.01-6.29-0.36-9.43-0.63c-1.81-0.16-3.64-0.31-5.43-0.53c-2.86-0.35-5.74-0.47-8.55-0.2c-3.45,0.33-6.93-0.07-10.34,0.63
			c-1.18,0.24-2.26-0.47-3.43-0.32c-0.47-0.26-0.85-0.63-1.14-1.08c3.23,0.14,6.45-0.22,9.65-0.5c3.66-0.32,7.3-0.15,10.95-0.27
			c2.62-0.09,5.19,0.4,7.79,0.63c2.41,0.21,4.83,0.5,7.27,0.51c5.56,0.02,11.02-0.61,16.4-2.02c1.87-0.49,3.77-1.03,5.68-1.22
			c1.92-0.2,3.88-0.31,5.81,0.22C228.13,229.98,231.5,230.49,234.68,231.69z"/>
		<path fill="#E6BE60" d="M200.59,247.45c0.15-0.36,0.41-0.61,0.78-0.72c3.34-0.93,6.67-1.9,10.63-1.35
			c-2.98,0.61-5.56,1.18-8.15,1.65c-0.91,0.17-1.77,0.4-2.59,0.82C200.99,247.8,200.75,247.69,200.59,247.45z"/>
		<path fill="#FDB491" d="M72.02,170.9c-0.03,0.05-0.07,0.15-0.08,0.15c-0.12-0.04-0.09-0.09,0.09-0.13
			C72.03,170.92,72.02,170.9,72.02,170.9z"/>
		<path fill="#E6BE60" d="M145.67,271.59c-0.05-0.02-0.13-0.06-0.13-0.07c0.03-0.1,0.07-0.07,0.11,0.09
			C145.64,271.61,145.67,271.59,145.67,271.59z"/>
		<path fill="#594941" d="M155.66,102.68c-0.19-0.72-0.47-1.43-0.6-2.17c-0.22-1.29-0.2-2.62,0.01-3.91
			c0.15-0.96,0.27-1.93,0.34-2.9c0.23-3.4-0.23-6.66-1.94-9.68c-1.53-2.69-3.51-4.88-6.61-5.73c-0.41-0.11-0.6-0.94-1.2-0.37
			c0.16,1.29,1.3,1.69,2.17,2.29c3.47,2.45,5.09,5.93,5.5,10.01c0.28,2.85-0.48,5.67-0.43,8.53c0,0.02-0.1,0.04-0.27,0.11
			c-0.54-0.66-0.54-1.72-1.28-2.25c-0.95-0.68-0.82-1.48-0.47-2.4c1.01-2.66,0.72-5.25-0.59-7.72c-1.08-2.04-2.61-3.78-4.04-5.59
			c-0.3-0.38-0.69-0.68-1.07-0.99c-0.2-0.17-0.47-0.18-0.68-0.05c-0.26,0.16-0.21,0.42-0.09,0.64c0.17,0.32,0.36,0.63,0.56,0.94
			c0.97,1.47,1.97,2.92,2.93,4.4c1.72,2.65,2.15,5.42,1.07,8.48c-0.73,2.07-2.31,3.22-3.93,4.4c-1.27,0.93-2.08,2.1-2.49,3.64
			c-0.22,0.85-0.08,1.7-0.31,2.52c0.13,0.65,0.52,1.07,1.13,1.33c0.44,0.19,0.72,0.08,0.76-0.4c0.04-0.42,0.01-0.85-0.01-1.27
			c-0.06-1.36,0.42-2.53,1.35-3.47c1.43-1.43,3.21-2.48,4.37-4.13c0.51,0.31,0.54,0.63,0.62,0.92c0.6,2.16,0.39,4.34,0.13,6.51
			c-0.17,1.39-0.35,2.77-0.18,4.17c0.96,0.15,1.1-0.62,1.27-1.22c0.44-1.51,0.82-3.03,0.89-4.61c-0.02-0.41-0.03-0.81,0.38-1.07
			c-0.25-0.52-0.45-1.07-0.25-1.64c-0.19,0.45-0.05,0.97,0.13,1.42c0.04,0.1,0.09,0.21,0.2,0.25c0.19,0.07,0.23-0.01,0.31,0.17
			c0.04,0.09,0.03,0.27,0.04,0.37c0.02,0.21,0.02,0.47,0.1,0.67c0.25,0.57,0.59,1.18,0.98,1.66c0.26,0.32,0.58,0.64,1.04,0.44
			c0.41-0.18,0.35-0.66,0.35-1.03C155.85,103.52,155.77,103.1,155.66,102.68z"/>
		<path fill="#E6BE5F" d="M254.85,241.53c3.2,0.26,6.39,0.6,9.56,1.06c1.32,0.19,2.65,0.19,3.98,0.35c1.44,0.17,2.88,0.43,4.44,0.52
			c-0.27,0.54-0.76,0.76-1.19,1.04c-5.38,3.55-10.77,7.07-16.13,10.65c-4.34,2.91-8.67,5.84-12.92,8.87
			c-1.38,0.98-2.67,1.32-4.34,0.99c-3.62-0.71-7.28-1.25-10.92-1.85c0.86-0.84,2.04-1.18,3.09-1.45c2.62-0.67,4.91-2.07,7.36-3.1
			c1.95-0.82,3.98-1.04,6.01-1.24c1.44-0.14,2.89-0.22,4.33-0.44c2-0.31,3.66-1.24,4.92-2.84c0.46-0.59,0.73-1.26,0.66-2.03
			c-0.1-1.15,0.24-2.12,1.05-2.98c0.75-0.8,1.13-1.82,0.51-2.84c-0.74-1.23-0.97-2.44-0.48-3.8
			C254.9,242.17,254.84,241.84,254.85,241.53z"/>
		<path fill="#E6BE5F" d="M307.89,275.25c-1.71,0.28-2.91-0.73-4.05-1.74c-3.8-3.35-8.15-5.26-13.27-5.23c-0.62,0-1.2-0.2-1.8-0.29
			c-2.19-0.33-2.41-1.32-1.94-3.26c0.71-2.9,2.88-4.31,5.62-4.82c3.84-0.72,7.62-0.32,11.29,1.05c3.29,1.23,6.03,3.18,7.94,6.17
			c1.48,2.3,1.29,4.93-0.37,6.76C310.38,274.92,309.29,275.45,307.89,275.25z M292.89,262.43c-0.65,0-1.19-0.01-1.74,0
			c-0.54,0.02-1.27-0.07-1.33,0.62c-0.06,0.7,0.69,0.69,1.2,0.81c0.06,0.01,0.12,0.01,0.18,0.01c2.58-0.15,5.05,0.47,7.52,1.04
			c0.34,0.08,0.78,0.2,0.94-0.25c0.16-0.45-0.26-0.62-0.58-0.78C297.11,262.88,295.03,262.33,292.89,262.43z M304.19,263.55
			c0.04-0.6-0.58-0.96-1.07-0.63c-1.87,1.23-3.13,2.97-3.91,5.05c-0.09,0.24,0.03,0.49,0.28,0.58c0.15,0.05,0.36,0.04,0.51-0.02
			c0.16-0.06,0.31-0.19,0.41-0.34c1.02-1.5,2.17-2.89,3.47-4.15C304.05,263.88,304.14,263.64,304.19,263.55z"/>
		<path fill="#E6BE5F" d="M303.04,275.44c-0.68,0.11-1.07-0.22-1.48-0.45c-3.85-2.18-7.89-3.75-12.35-4.11
			c-0.18-0.01-0.37-0.02-0.54-0.05c-0.37-0.08-0.74-0.22-0.69-0.68c0.05-0.4,0.43-0.37,0.72-0.38c4.71-0.18,9.05,0.84,12.74,3.95
			c0.51,0.43,1.19,0.65,1.53,1.28C303.02,275.08,303.01,275.22,303.04,275.44z"/>
		<path fill="#93A7AA" d="M357.37,136.26c1.68-0.21,2.38-1.81,3.67-2.58c0.34-0.2,0.13-0.55,0-0.82c-1.6-3.22-3.15-6.47-4.82-9.65
			c-0.64-1.22-1.87-1.89-3.04-2.57c-0.47-0.27-0.92-0.29-1.38-0.02c-1.2,0.71-2.41,1.39-3.45,2.45c1.71,0.21,3.11-1.53,5.29-0.37
			c-2.73,0.5-3.58,2.64-5.03,4.12c-0.38,0.39-0.89,0.81-0.19,1.5c0.45,0.44,0.02,0.78-0.52,0.73c-1.28-0.11-1.65-0.95-0.92-2.03
			c0.57-0.84,1.5-1.4,1.94-2.34c-0.2-0.13-0.29-0.23-0.39-0.24c-0.64-0.06-1.43,0.14-1.68-0.74c-0.2-0.72,0.42-1.08,0.8-1.53
			c0.33-0.41,0.92-0.6,1.07-1.38c-3.6,0.06-7.12-0.85-10.7-0.09c-2.41,0.51-4.26,1.63-5.37,3.94c-1.9,3.96-3.88,7.87-5.85,11.8
			c-0.32,0.63-0.53,1.35-1.16,1.77c-0.65-0.28-0.26-0.67-0.16-0.94c0.37-1.03,0.78-2.05,1.23-3.05c1.52-3.33,3.05-6.65,4.61-9.95
			c1.54-3.25,4.27-4.76,7.74-4.97c3.05-0.19,6.09,0,9.12,0.4c0.68,0.09,1.28,0.36,1.88,0.67c0.29-0.01,0.56-0.08,0.71-0.37
			c0.99-0.9,2.03-0.89,3.18-0.28c1.59,0.84,2.97,1.89,3.75,3.57c0.33,0.71,0.62,1.21,1.62,0.85c0.71-0.26,1.56-0.11,2.35-0.14
			c2.24-0.08,3.03-0.66,3.77-2.72c0.2-0.56,0.22-1.2,0.69-1.65c0.14,0.01,0.29,0.02,0.43,0.03c0.01,1.64,0.01,1.63,1.51,2.04
			c2.76,0.75,5.53,1.47,8.11,2.78c4.23,2.15,6.24,5.62,6.41,10.28c0.08,2.39-0.21,4.73-0.57,7.09c-0.33,2.19-0.57,2.46,2.09,2.66
			c1.34,0.1,2.68,0.07,4.03,0.09c0.37,0.01,0.74-0.04,1.1,0.03c0.62,0.12,1.55,0.07,1.43,1.01c-0.12,0.99-1,0.7-1.62,0.56
			c-0.67-0.15-1.33-0.15-2-0.17c-5.91-0.2-11.8-0.63-17.71-0.86c-4.93-0.19-9.85-0.56-14.79-0.7c-4.14-0.12-8.27-0.41-12.4-0.69
			c-1.28-0.09-2.23,0.03-2.96,1.37c-0.56,1.03-1.65,1.77-2.52,2.63c-0.74,0.73-1.48,1.45-2.23,2.18c-2.07,2.02-3.08,4.48-3.08,7.37
			c0,1.58,0.05,3.16-0.36,4.73c-0.49,1.86-1.22,3.56-2.58,4.97c-2.14,2.2-2.76,4.81-1.97,7.76c0.4,1.49,0.52,2.99,0.48,4.53
			c-0.07,2.86-0.57,5.69-0.32,8.67c-1.01-0.25-1.08-0.94-1.11-1.57c-0.06-1.34-0.11-2.69-0.05-4.02c0.11-2.63,0-5.23-0.68-7.8
			c-0.82-3.11,0.12-5.85,2.17-8.13c2.15-2.38,3.03-5.12,2.93-8.21c-0.14-4.52,1.75-7.98,5.2-10.74c1.32-1.06,2.44-2.35,3.96-3.44
			c-0.74-0.66-1.47-0.57-2.16-0.61c-5.66-0.27-11.32-0.52-16.98-0.84c-1.15-0.06-2.29-0.29-3.46-0.28c-0.74,0-1.1,0.29-1.22,1.03
			c-0.59,3.85-1.21,7.69-1.83,11.54c-0.79,4.93-1.58,9.85-2.39,14.78c-0.79,4.8-1.6,9.6-2.42,14.4c-0.15,0.9-0.39,1.78-0.63,2.66
			c-0.08,0.3-0.35,0.52-0.7,0.41c-0.24-0.07-0.43-0.27-0.44-0.53c-0.02-0.67-0.08-1.35,0.02-2.01c0.66-4.64,1.35-9.27,2.02-13.91
			c0.67-4.58,1.31-9.16,1.98-13.73c0.65-4.39,1.33-8.78,2.02-13.17c0.23-1.47,0.08-1.79-1.44-1.78c-2.99,0.02-5.96-0.33-8.95-0.47
			c-5.23-0.26-10.45-0.69-15.68-0.98c-2.31-0.13-4.62-0.22-6.93-0.39c-3.04-0.23-6.09-0.29-9.13-0.49c-5.1-0.32-10.2-0.7-15.31-1.04
			c-2.01-0.14-4.01-0.25-6.02-0.4c-0.58-0.04-1.47,0-1.41-0.76c0.06-0.75,0.96-0.63,1.53-0.56c3.21,0.42,6.46,0.1,9.67,0.57
			c0.18,0.03,0.36,0.04,0.55,0.05c4.08,0.15,8.17,0.25,12.24,0.47c5.35,0.28,10.71,0.51,16.06,0.78c3.65,0.19,7.3,0.36,10.94,0.61
			c3.71,0.25,7.42,0.31,11.12,0.69c0.54,0.06,1.1,0.03,1.65,0.04c1.6,0.01,1.66-0.02,1.91-1.51c0.3-1.8,0.52-3.61,0.81-5.42
			c1.17-7.27,2.36-14.53,3.54-21.8c0.65-4.02,1.3-8.05,1.96-12.07c0.08-0.48,0.2-0.95,0.33-1.42c0.14-0.49,0.34-0.99,0.99-0.79
			c0.53,0.16,0.71,0.62,0.66,1.17c-0.08,0.79-0.13,1.58-0.25,2.36c-1.05,6.98-2.11,13.96-3.17,20.94
			c-0.85,5.59-1.7,11.19-2.55,16.78c-0.05,0.3-0.05,0.61-0.09,0.91c-0.12,0.88,0.28,1.19,1.14,1.2c2.19,0.02,4.38,0.23,6.57,0.3
			c3.54,0.12,7.06,0.4,10.59,0.54c4.86,0.2,9.72,0.68,14.58,0.94c2.31,0.12,4.62,0.24,6.93,0.41c5.28,0.38,10.57,0.72,15.85,1.07
			c0.16,0.01,0.33-0.06,0.67-0.12c-1.34-1.72-2.91-3.03-4.39-4.54c-1.43,1.11-2.7,2.31-4.74,2.89c0.85-1.91,2.78-2.18,3.68-3.56
			c-1.1-1.38-2.62-2.24-3.83-3.44c-0.48-0.47-0.99-0.41-1.47,0.02c-1.62,1.47-3.52,2.64-4.63,4.63c-0.4,0.71-0.87,1.47-2.11,1.49
			c0.62-1.5,1.36-2.76,2.27-3.93C357.41,136.96,357.39,136.61,357.37,136.26z M381.21,136.32c0.11-1.23-0.22-2.42-0.34-3.63
			c-0.28-2.88-1.8-4.95-4.14-6.54c-2.74-1.85-5.96-2.39-8.99-3.47c-0.67-0.24-0.75,0.26-0.86,0.8c-0.61,2.86-1.9,5.24-4.7,6.55
			c-0.31,0.15-0.69,0.27-0.75,0.71c-0.09,0.58,0.8,2.24,1.36,2.63c3.84,2.71,7.42,5.71,10.21,9.54c0.28,0.39,0.45,0.9,1.04,0.9
			c1.95-0.01,3.87,0.46,5.82,0.39c0.69-0.02,1.02-0.28,0.99-0.97C380.73,140.92,381.1,138.63,381.21,136.32z M365.29,124.28
			c-1.38,0.74-2.74,1.07-4.24,0.62c-0.53-0.16-1.08-0.05-1.62,0.13c-0.53,0.17-0.67,0.5-0.43,0.97c0.59,1.13,1.2,2.25,1.83,3.43
			C363.04,128.31,364.54,126.66,365.29,124.28z"/>
		<path fill="#95AAAD" d="M355.64,174.65c0.55-0.06,1.05,0.03,0.95,0.72c-0.24,1.62,0.72,2.59,1.74,3.6
			c1.39,1.36,1.74,2.63,0.77,4.28c-1.46,2.46-2.06,5.03-1.59,8.05c-1.1-0.5-1.15-1.28-1.2-2.01c-0.15-2.04,0.24-3.99,1.03-5.87
			c1.07-2.54,0.99-2.83-1.41-4.67c0.75,3.49,0.18,6.72-0.74,9.93c-0.39,1.34-0.87,2.65-1.45,3.92c-0.13,0.27-0.37,0.54-0.7,0.48
			c-0.37-0.07-0.4-0.42-0.37-0.73c0.06-0.66,0.13-1.33,0.23-1.99c0.18-1.14,0.01-2.24-0.73-3.11c-1.76-2.07-3.61-4.07-5.43-6.1
			l0.01,0.02c-0.07-0.72-0.49-1.18-1.11-1.48l0.01,0.02c-0.12-0.89-0.84-1.46-1.22-2.21c-0.61-1.2-1.2-2.4-0.81-4.07
			c1.25,1.02,1.26,2.56,2.09,3.61c0.91,1.14,1.68,2.39,2.63,3.51c0.91,1.07,1.71,2.23,2.68,3.23c0.97,1,2.1,1.84,3.13,2.72
			c0.91-2.97,1-6.21-0.18-9.68c-0.81,1.08-1.01,2.11-1.04,3.2c-0.01,0.4,0.1,1.01-0.5,0.97c-0.46-0.03-0.53-0.59-0.56-1.03
			c-0.09-1.62,0.12-3.16,1.17-4.49c0.15-0.19,0.28-0.39,0.41-0.6c0.02-0.03-0.02-0.09-0.04-0.14c-0.05-0.02-0.13-0.08-0.15-0.07
			c-2.21,1.32-4.24,0.92-6.29-0.47c-1.56-1.06-3.26-1.91-4.88-2.88c-1.47-0.89-2.5-2.13-2.87-3.84c-0.06-0.26-0.03-0.5,0.17-0.66
			c0.26-0.2,0.51-0.01,0.59,0.2c1.27,3.22,4.44,4.18,6.99,5.87c0.3,0.2,0.66,0.33,0.96,0.54c1.95,1.35,3.76,1.06,5.54-0.35
			c2.3-1.82,4-4.08,5.25-6.71c0.63-1.31,0.54-2.75,0.69-4.13c0.23-2.11,0.23-4.26-0.13-6.38c-0.09-0.54-0.2-0.71-0.83-0.86
			c-1.53-0.37-3.03-0.19-4.55-0.13c-0.3,0.01-0.6,0.13-0.9,0.14c-0.25,0.01-0.48-0.1-0.6-0.34c-0.18-0.34-0.01-0.62,0.24-0.8
			c1.1-0.78,2.36-0.99,3.66-0.73c0.95,0.19,1.91,0.44,2.64,1.2c0.44-0.64,0.26-1.1-0.11-1.55c-0.64-0.77-1.39-1.33-2.36-1.65
			c-1.79-0.59-3.57-1.25-5.34-1.89c-0.82-0.3-1.53-0.76-2.08-1.44c-0.46-0.56-0.63-1.16-0.31-1.84c0.31-0.13,0.5,0,0.61,0.24
			c0.5,1.1,1.48,1.59,2.52,1.98c1.6,0.6,3.18,1.28,4.83,1.69c2.15,0.53,3.09,2.25,4.21,3.82c0.12,0.17,0.13,0.64,0.06,0.67
			c-1.23,0.52-0.45,1.4-0.41,2.14c0.15,3.05,0.22,6.1-0.42,9.1c-0.48,2.26-1.78,4.14-3.28,5.84c-0.81,0.92-1.25,1.91-1.4,3.08
			c-0.26,0.16-0.33,0.43-0.39,0.71c-0.21,0.15-0.37,0.44-0.14,0.56c0.31,0.16,0.28-0.21,0.31-0.41
			C355.52,175.2,355.59,174.93,355.64,174.65z"/>
		<path fill="#95AAAD" d="M296.84,118.88c-2.34,3.29-6,4.39-9.05,6.63c1.67,1.7,1.67,3.77,1,5.89c-0.2,0.62-0.2,1.49-1.3,1.67
			c0.16-1.16,0.24-2.23,0.46-3.28c0.17-0.77-0.04-1.47-0.26-2.14c-0.35-1.04-1.16-1.5-2.35-1.46c-1.07,0.04-1.92-0.34-2.46-1.27
			c-1.4-2.43-2.96-4.77-4.11-7.34c-0.98-2.18-1.19-4.45-0.67-6.79c0.1-0.47,0.32-0.98-0.2-1.33c-0.48-0.33-0.39-0.69-0.16-1.1
			c0.33-0.58,0.38-1.43,0.07-1.75c-0.98-1.02-0.13-1.71,0.19-2.54c0.48-1.25,0.9-2.53,1.3-3.8c0.55-1.75,1.71-2.91,3.34-3.67
			c0.17-0.08,0.33-0.16,0.5-0.23c1.66-0.63,3.27-1.33,3.91-3.39c0.51,1.54,0.48,1.79-0.24,2.59c-0.71,0.8-1.64,1.34-2.62,1.62
			c-2.3,0.64-3.53,2.26-4.36,4.33c-0.14,0.34-0.25,0.69-0.4,1.02c-0.82,1.91-0.26,1.8,1.06,2.04c0.24,0.04,0.5,0.07,0.71,0.17
			c0.38,0.19,0.8,0.45,0.62,0.97c-0.15,0.45-0.58,0.35-0.93,0.3c-0.18-0.02-0.35-0.12-0.53-0.15c-0.57-0.09-1.26-0.43-1.39,0.56
			c-0.12,0.93,0.17,1.29,1.15,1.32c0.31,0.01,0.6,0.01,0.89,0.12c0.47,0.19,0.97,0.42,0.81,1.03c-0.14,0.54-0.67,0.51-1.07,0.36
			c-1.06-0.39-1.24,0.04-1.48,1.05c-0.81,3.38-0.15,6.38,1.76,9.21c0.92,1.36,1.69,2.83,2.54,4.23c0.62,1.03,1.11,1.26,2.26,1
			c0.95-0.22,1.86-0.6,2.69-1.12c1.76-1.09,3.54-2.17,5.25-3.34c1.57-1.07,2.67-2.39,2.53-4.53c-0.13-1.92,0.65-3.69,1.45-5.42
			c0.48-1.05,1.03-2.08,1.41-3.17c0.89-2.52,0.25-4.19-2.06-5.56c-1.21-0.72-2.49-1.28-3.78-1.83c-1.62-0.69-3.3-1.32-4.52-2.7
			c-0.56-0.63-1.11-1.27-0.9-2.19c0.45-0.13,0.68,0.09,0.84,0.35c0.93,1.49,2.43,2.17,3.95,2.81c1.8,0.76,3.64,1.4,5.27,2.52
			c2.97,2.02,3.67,4.21,2.31,7.55c-0.5,1.24-1.06,2.47-1.65,3.67c-1.41,2.88-1.21,5.65,0.43,8.36c0.31,0.52,0.55,1.09,0.81,1.64
			c0.8,1.69,0.91,3.41,0.03,5.1c-1.83,3.53-1.47,6.93,0.56,10.24c0.06,0.09,0.04,0.23,0.05,0.35c0,0.05-0.04,0.11-0.1,0.25
			c-0.53,0.1-0.87-0.27-1.11-0.65c-1.79-2.85-2.69-5.85-1.4-9.17c0.09-0.23,0.12-0.49,0.25-0.69
			C300.11,124.08,298.25,121.61,296.84,118.88z"/>
		<path fill="#95AAAD" d="M368.76,194.6c-0.15-0.14-0.23-0.19-0.22-0.22c0.64-2.64-0.5-4.91-1.73-7.05
			c-1.38-2.41-1.6-4.77-0.65-7.33c0.45-1.19,0.75-2.44,1.15-3.65c0.62-1.88,0.18-3.6-0.72-5.26c-0.43-0.8-0.9-1.59-1.39-2.36
			c-1.64-2.58-2.13-5.37-1.69-8.38c0.32-2.16,0.6-4.34,0.75-6.52c0.2-2.88-1.19-5.02-3.45-6.65c-0.86-0.62-1.74-1.2-2.61-1.79
			c0.3-0.4,0.53-0.43,0.77-0.33c4.05,1.67,6.37,4.02,6.69,8.48c0.09,1.25-0.12,2.55-0.35,3.8c-0.42,2.3-0.33,4.61-0.27,6.92
			c0.03,1.25,0.57,2.36,1.16,3.43c0.41,0.74,0.86,1.47,1.32,2.19c1.57,2.46,1.99,5.06,1.05,7.85c-0.35,1.04-0.66,2.09-1.02,3.12
			c-0.61,1.74-0.6,3.41,0.2,5.12c0.8,1.7,1.63,3.41,1.96,5.29C369.92,192.49,370.04,193.75,368.76,194.6z"/>
		<path fill="#95AAAD" d="M303.75,136.04c0.1-0.9,0.72-1.34,1.2-1.86c1.95-2.12,3.48-4.52,4.8-7.08c1.04-2.02,0.7-3.74-0.68-5.38
			c-0.74-0.89-1.47-1.8-2.29-2.6c-2.38-2.31-2.56-5.15-1.93-8.13c0.34-1.6,0.86-3.17,1.39-4.73c1.3-3.88,0.38-7.18-2.52-9.99
			c-0.52-0.51-1.1-0.96-1.64-1.45c-0.45-0.41-0.91-0.81-0.72-1.55c4.82,2.61,7.2,6.5,6.9,10.25c-0.13,1.64-0.53,3.24-1.04,4.8
			c-0.37,1.16-0.68,2.33-0.94,3.52c-0.55,2.46,0,4.57,1.81,6.35c1,0.98,1.94,2.02,2.73,3.18c1.11,1.63,1.43,3.29,0.63,5.17
			c-1.48,3.48-3.57,6.5-6.41,8.99C304.72,135.81,304.4,136.13,303.75,136.04z"/>
		<path fill="#95AAAD" d="M283.56,92.71c0.41,0.63-0.11,1.01-0.45,1.4c-0.89,1.01-1.9,1.89-3.04,2.62c-3.32,2.1-4.63,5.03-3.72,8.89
			c0.15,0.65,0.3,1.31,0.37,1.97c0.25,2.29,0.13,4.49-1.33,6.45c-0.62,0.83-1.11,1.75-1.64,2.64c-1.3,2.18-1.76,4.38-0.13,6.64
			c0.42,0.59,0.71,1.28,1.02,1.94c0.5,1.06,0.5,2.17-0.11,3.16c-1.36,2.21-2.41,4.51-2.56,7.14c-0.01,0.18-0.09,0.35-0.29,0.41
			c-0.32,0.1-0.47-0.15-0.54-0.35c-0.32-0.89-0.26-1.8-0.01-2.69c0.4-1.47,0.8-2.97,1.6-4.26c0.93-1.5,0.81-2.83-0.12-4.24
			c-0.86-1.28-1.46-2.65-1.36-4.27c0.06-0.99,0.19-1.94,0.68-2.81c0.71-1.28,1.33-2.62,2.15-3.82c1.46-2.13,1.52-4.4,1.1-6.82
			c-0.27-1.54-0.57-3.08-0.23-4.69c0.5-2.32,1.55-4.21,3.55-5.52c1.59-1.03,3.14-2.1,4.42-3.52
			C283.06,92.78,283.27,92.66,283.56,92.71z"/>
		<path fill="#95AAAD" d="M255.58,139.67c-0.46,1.15-1.27,1.93-1.56,3.01c-0.4,1.46-0.09,2.77,0.43,4.08
			c0.43,1.08,0.83,2.16,0.76,3.36c-0.04,0.71-0.26,1.3-0.77,1.8c-1.14,1.11-1.14,1.11-0.28,2.68c0.65-0.32-0.09-1.22,0.74-1.52
			c0.75,0.81,0.72,1.84,0.55,2.83c-0.11,0.66-0.82,0.89-1.46,0.59c-0.4-0.19-0.68-0.52-0.91-0.88c-0.31-0.48-0.65-0.49-1.05-0.14
			c-1.12,0.99-2.11,2.06-2.02,3.71c0.12,2.14-0.56,3.93-2.23,5.35c-0.88,0.74-1.26,1.88-1.83,2.94c-0.92-0.67-0.63-1.38-0.26-1.99
			c0.55-0.94,1.14-1.88,1.83-2.73c0.73-0.9,1.08-1.89,1.08-3.03c-0.01-2.26,0.97-4,2.84-5.21c0.58-0.38,0.91-0.75,0.84-1.46
			c-0.06-0.64,0.09-1.24,0.63-1.63c1.06-0.76,0.94-1.71,0.58-2.77c-0.39-1.15-0.76-2.32-1.04-3.5c-0.41-1.8,0.25-3.36,1.31-4.77
			C254.12,139.92,254.59,139.5,255.58,139.67z"/>
		<path fill="#95AAAD" d="M374.25,114.39c0-1.13-0.02-2.1,0.01-3.07c0.03-1,0.59-1.72,1.41-2.21c0.89-0.53,0.79-1.2,0.24-1.81
			c-0.7-0.78-1.17-1.7-1.71-2.58c-0.99-1.63-2.38-2.75-4.21-3.3c-1.06-0.32-2.06-0.76-2.97-1.37c-1.36-0.92-2.8-1.11-4.35-0.66
			c-0.53,0.15-1.06,0.27-1.6,0.37c-1.05,0.2-2.1,0.22-2.94-0.54c-0.83-0.75-1.3-0.3-1.72,0.4c-0.38,0.62-0.75,1.26-0.86,2
			c-0.05,0.36-0.04,0.74-0.51,1.01c-0.44-0.11-0.59-0.5-0.53-0.93c0.22-1.48,0.78-2.81,1.85-3.88c0.54-0.55,1.23-0.74,1.78-0.15
			c1.06,1.13,2.36,0.98,3.58,0.69c2.39-0.57,4.57-0.44,6.59,1.1c0.37,0.29,0.88,0.42,1.34,0.56c2.71,0.82,4.65,2.55,6.04,4.98
			c0.36,0.63,0.87,1.17,1.27,1.77c0.92,1.39,0.84,2.27-0.47,3.3c-0.8,0.63-1.14,1.38-1.16,2.35
			C375.31,113.12,375.36,113.88,374.25,114.39z"/>
		<path fill="#95AAAD" d="M350.79,120.02c-0.15,0.29-0.41,0.36-0.71,0.37c0-0.24,0-0.47-0.18-0.68c-1.41-1.65-1.19-3.47-0.51-5.32
			c0.38-1.02,1.34-1.96,0.13-3.1c-0.29-0.27,0.26-0.58,0.47-0.86c0.44-0.57,0.84-1.13-0.27-1.49c-0.63-0.21-0.48-0.79,0.01-0.88
			c1.55-0.28,2.02-1.64,2.86-2.63c0.68-0.81,1.23-1.77,2.34-2.2c0.31,0.67-0.15,1-0.39,1.37c-0.33,0.51-0.73,0.97-1.09,1.46
			c-0.32,0.44-0.84,0.78-0.83,1.38c0.01,0.59,0.73,0.57,1,0.97c0.14,0.2,0.33,0.37,0.25,0.64c-0.12,0.39-0.45,0.35-0.75,0.32
			c-0.18-0.02-0.35-0.11-0.52-0.16c-0.42-0.13-0.86-0.28-1.03,0.32c-0.13,0.47,0.04,0.73,0.5,1.01c0.86,0.53,0.84,0.63-0.07,1.08
			c-0.31,0.16-0.48,0.31-0.52,0.64c-0.13,0.98-0.61,1.85-0.99,2.74C349.74,116.73,349.9,118.39,350.79,120.02z"/>
		<path fill="#95AAAD" d="M346.24,144.98c0.54,2.12-0.47,3.27-1.7,4.31c-1.53,1.3-3.09,2.58-4.2,4.28c-0.19,0.3-0.48,0.56-0.42,1.02
			c0.56,0.42,1.02-0.12,1.46-0.27c1.44-0.49,2.76-0.2,4.06,0.42c0.23,0.11,0.43,0.27,0.39,0.55c-0.04,0.25-0.25,0.42-0.5,0.47
			c-0.29,0.06-0.64,0.15-0.9,0.06c-1.7-0.64-3.21,0.36-4.82,0.5c-0.43,0.04-0.58,0.38-0.75,0.71c-0.19,0.37-0.13,0.86-0.57,1.11
			c-0.56-0.07-0.38-0.53-0.37-0.83c0.08-2,0.72-3.82,2.02-5.35c0.83-0.97,1.74-1.87,2.78-2.63
			C344.19,148.24,345.58,147.08,346.24,144.98z"/>
		<path fill="#95AAAD" d="M370.07,105.86c-1.67-0.31-3.25-0.18-4.82-0.13c-1.43,0.04-2.66-0.26-3.6-1.39
			c-0.68-0.82-1.51-0.92-2.47-0.64c-0.64,0.19-1.29,0.37-1.94,0.5c-0.48,0.1-0.98,0.16-1.38-0.23c-0.26-0.25-0.31-0.67,0.06-0.69
			c1.42-0.06,2.69-0.77,4.1-0.83c0.83-0.04,1.57,0.14,2.13,0.8c0.94,1.13,2.18,1.45,3.6,1.38c1.15-0.06,2.31-0.01,3.47-0.01
			c0.83,0,1.63,0.15,2,0.99c0.34,0.76-0.04,1.4-0.54,1.99c-0.96,1.14-1.76,2.34-1.56,3.94c0.03,0.22-0.09,0.48-0.21,0.68
			c-0.08,0.14-0.28,0.29-0.43,0.3c-0.28,0.02-0.38-0.2-0.41-0.48c-0.16-1.61-0.12-3.15,1-4.49
			C369.46,107.12,370,106.74,370.07,105.86z"/>
		<path fill="#95AAAD" d="M259.8,155.89c-0.42-0.76-0.27-1.36,0.06-1.88c1.29-2.01,1.38-4.23,1.27-6.51
			c-0.1-2.31,0.77-4.27,2.23-6.01c0.04-0.05,0.07-0.11,0.12-0.14c0.62-0.45,1.38-1.49,1.94-1.01c0.8,0.7-0.38,1.3-0.8,1.86
			c-1.3,1.72-2.06,3.6-1.79,5.78c0.3,2.43-0.42,4.56-1.7,6.57C260.8,155.05,260.54,155.6,259.8,155.89z"/>
		<path fill="#95AAAD" d="M271.12,161.75c1.24,0.33,2.82,0.35,4.39,0.48c0.36,0.03,0.71,0.16,1.05,0.3
			c1.19,0.48,1.57,1.48,1.03,2.66c-0.8,1.76-2.81,3.1-4.44,2.95c-2.02-0.17-3.86-1.82-4.33-3.86
			C268.42,162.55,269.1,161.69,271.12,161.75z M273.37,166.93c1.18,0,1.89-0.41,2.73-1.55c0.97-1.34,0.84-1.77-0.72-2.05
			c-1.56-0.27-3.17,0-4.73-0.34c-0.39-0.08-0.46,0.29-0.5,0.61C270.02,164.79,271.65,167.18,273.37,166.93z"/>
		<path fill="#95AAAD" d="M335.11,170.29c0.14,0.22,0.29,0.36,0.31,0.51c0.53,3.68,1.87,7.17,2.62,10.8
			c0.01,0.06,0.03,0.12,0.05,0.18c0.14,0.58,0.51,1.39-0.23,1.58c-0.68,0.17-0.84-0.76-1.02-1.29c-0.57-1.67-1.11-3.35-1.58-5.04
			c-0.45-1.63-1.04-3.25-0.93-5C334.37,171.37,334.42,170.73,335.11,170.29z"/>
		<path fill="#95AAAD" d="M346.75,181.15c-0.11,0.44,0.07,0.83,0.19,1.24c0.31,1.08,0.34,2.19,0.04,3.24
			c-0.5,1.76-1.11,3.48-0.97,5.35c0.02,0.22,0,0.51-0.29,0.6c-0.38,0.12-0.57-0.16-0.68-0.43c-0.4-1.04-0.6-2.11-0.32-3.21
			c0.12-0.47,0.27-0.94,0.44-1.39c0.75-1.96,0.92-3.9-0.22-5.79c-0.55-0.92,0.07-1,0.73-1.06c0,0-0.01-0.02-0.01-0.02
			c0.02,0.76,0.47,1.2,1.11,1.48L346.75,181.15z"/>
		<path fill="#95AAAD" d="M257.02,156.64c-0.88-1.17-1.4-2.4-0.82-3.9c0.2-0.53-0.05-1.08-0.17-1.61c-0.24-1.05-0.07-2.07,0.42-3.02
			c0.29-0.56,0.73-0.99,1.44-0.95c0.39,0.02,0.71,0.23,0.86,0.59c0.18,0.44-0.12,0.59-0.48,0.8c-0.82,0.49-1.11,1.37-0.87,2.31
			c0.04,0.16,0.09,0.24,0.31,0.3c0.91,0.27,1.2,1.12,0.47,1.7c-1.13,0.89-1,1.82-0.42,2.87c0.54,0.98-0.31,0.76-0.75,0.91
			C257.01,156.62,257.02,156.64,257.02,156.64z"/>
		<path fill="#95AAAD" d="M324.34,184.23c0.03,1.09-0.27,1.87-0.92,2.49c-0.92,0.89-1.79,1.82-2.41,2.96
			c-0.14,0.25-0.32,0.58-0.69,0.47c-0.46-0.15-0.35-0.58-0.33-0.92c0.08-0.96,0.66-1.73,1.27-2.37c1.1-1.16,1.47-2.46,1.31-3.99
			c-0.07-0.67,0.01-1.33,0.31-1.96c0.14-0.28,0.29-0.6,0.62-0.58c0.33,0.03,0.5,0.34,0.49,0.67
			C323.99,182.15,324.16,183.29,324.34,184.23z"/>
		<path fill="#95AAAD" d="M347.8,131.47c-0.19,2.18-0.9,3.98-1.66,5.76c-0.38,0.89-0.75,1.79-1.21,2.64c-0.2,0.37-0.46,1-1.07,0.69
			c-0.44-0.23-0.32-0.73-0.16-1.15c0.39-1.08,0.79-2.16,1.18-3.24c0.57-1.59,1.13-3.19,1.71-4.78c0.12-0.33,0.26-0.77,0.71-0.7
			C347.86,130.77,347.8,131.27,347.8,131.47z"/>
		<path fill="#95AAAD" d="M357.37,136.26c0.02,0.35,0.04,0.7-0.27,0.96c-0.27-0.5-0.82-0.51-1.25-0.58c-1-0.15-1.77-0.65-2.51-1.26
			l0.02,0.02c-0.71-1.13-1.4-2.27-1.62-3.62c-0.15-0.9-0.63-1.54-1.53-1.86c-0.38-0.13-0.81-0.25-1.03-0.68
			c1.36-0.52,2.76,0.07,3.46,1.48c0.32,0.65,0.52,1.36,0.83,2.01c0.66,1.42,1.57,2.6,3.19,3.01
			C356.97,135.82,357.22,135.96,357.37,136.26z"/>
		<path fill="#95AAAD" d="M349.81,165.39c1.34,0.08,2.34,0.99,2.32,2.11c-0.03,1.39-1.56,2.71-3.01,2.6
			c-1.42-0.11-2.58-1.09-2.56-2.15C346.59,166.57,348.2,165.29,349.81,165.39z M347.91,167.87c0,0.55,0.7,1.12,1.42,1.15
			c0.8,0.04,1.47-0.5,1.51-1.22c0.04-0.74-0.45-1.24-1.22-1.25C348.81,166.54,347.91,167.24,347.91,167.87z"/>
		<path fill="#95AAAD" d="M336.81,158.86c0.48,0,0.82,0.12,0.98,0.5c0.11,0.26-0.08,0.41-0.25,0.6c-0.93,1.05-0.99,1.38-0.22,2.49
			c0.74,1.07,1.36,2.17,1.4,3.5c0.01,0.39,0.21,0.94-0.38,1.06c-0.41,0.08-0.65-0.31-0.76-0.66c-0.4-1.23-1.15-2.26-1.84-3.34
			c-0.62-0.96-0.77-2.05-0.24-3.13C335.78,159.32,336.2,158.9,336.81,158.86z"/>
		<path fill="#95AAAD" d="M366.59,119.67c-0.14-0.01-0.29-0.02-0.43-0.03c0.03-0.82,0.15-1.48,1.27-1.07
			c0.49,0.18,1.01-0.03,1.21-0.55c0.42-1.08,0.98-2.07,1.69-2.98c0.23-0.29,0.35-0.7,0.06-1c-0.36-0.37-0.64-0.01-0.91,0.22
			c-0.27,0.22-0.53,0.62-0.89,0.18c-0.29-0.35-0.02-0.7,0.19-0.98c0.54-0.72,1.43-0.94,2.08-0.54c0.71,0.43,1.05,1.58,0.66,2.44
			c-0.17,0.37-0.51,0.67-0.75,1.02c-0.39,0.54-0.81,1.08-0.58,1.82l0.01-0.02c-0.43,0.1-0.43,0.41-0.38,0.75l0.01-0.02
			C368.85,119.57,367.88,120.28,366.59,119.67z"/>
		<path fill="#95AAAD" d="M265.63,146.74c0.32-0.65,1-0.84,1.61-0.94c1.82-0.3,3.64-0.2,5.4,0.43c0.23,0.08,0.46,0.18,0.65,0.33
			c0.59,0.48,1.74,0.99,1.37,1.68c-0.49,0.89-1.38-0.03-2.02-0.34c-1.92-0.91-3.86-1.44-5.99-0.87
			C266.34,147.11,265.93,147.24,265.63,146.74z"/>
		<path fill="#95AAAD" d="M270.5,148.96c1.24,0.17,2.37,0.39,3.28,1.2c0.18,0.16,0.35,0.37,0.28,0.63c-0.1,0.4-0.45,0.37-0.74,0.33
			c-0.36-0.05-0.7-0.19-1.06-0.26c-1.43-0.25-2.85-0.63-4.33-0.18c-0.35,0.11-0.98,0.26-1.13-0.25c-0.19-0.65,0.49-0.77,0.91-0.88
			C268.66,149.3,269.63,149.14,270.5,148.96z"/>
		<path fill="#95AAAD" d="M294.99,105.21c-0.06,0.5-0.39,0.55-0.68,0.46c-0.94-0.28-1.9-0.38-2.88-0.34
			c-0.91,0.03-1.83-0.09-2.71,0.25c-0.29,0.11-0.64,0.15-0.81-0.17c-0.22-0.4,0.06-0.69,0.35-0.92c0.19-0.15,0.41-0.28,0.64-0.35
			c1.96-0.55,3.85-0.35,5.65,0.58C294.74,104.85,294.87,105.08,294.99,105.21z"/>
		<path fill="#95AAAD" d="M353.34,135.38c-0.38,2.29-1.91,3.98-3.09,5.85c-0.12,0.19-0.36,0.36-0.63,0.24
			c-0.26-0.12-0.29-0.38-0.22-0.61c0.52-1.76,1.48-3.3,2.5-4.79c0.33-0.47,0.94-0.5,1.45-0.67
			C353.36,135.4,353.34,135.38,353.34,135.38z"/>
		<path fill="#95AAAD" d="M354.75,123.7c-0.03,0.18-0.01,0.36-0.07,0.39c-1.35,0.74-1.72,2.5-3.2,3.11
			c-0.22,0.09-0.4,0.28-0.63,0.35c-0.15,0.05-0.36,0.02-0.49-0.06c-0.16-0.1-0.17-0.32-0.04-0.47c1.06-1.14,2.1-2.3,3.2-3.39
			C353.86,123.31,354.39,123.2,354.75,123.7z"/>
		<path fill="#95AAAD" d="M370.19,118.19c0.78-0.24,0.97-1.04,1.47-1.54c0.66-0.66,1.28-1.42,2.59-1.23
			c-1.07,1.46-1.99,2.78-3.22,3.86c-0.56,0.49-1.09,0.68-1.2-0.37c0,0-0.01,0.02-0.01,0.02c0.31-0.16,0.42-0.42,0.38-0.75
			L370.19,118.19z"/>
		<path fill="#95AAAD" d="M359.19,108.47c1.35,0.18,2.5,0.54,3.44,1.39c0.23,0.2,0.35,0.52,0.13,0.81c-0.17,0.22-0.46,0.2-0.67,0.09
			c-1.09-0.61-2.32-0.7-3.51-0.94c-0.36-0.07-0.78-0.08-0.77-0.57c0.02-0.45,0.42-0.54,0.78-0.63
			C358.84,108.55,359.07,108.5,359.19,108.47z"/>
		<path fill="#95AAAD" d="M290.28,107.25c0.14,0.01,0.7-0.05,1.18,0.29c0.21,0.15,0.36,0.36,0.32,0.61
			c-0.04,0.25-0.25,0.41-0.52,0.42c-1.15,0.03-2.31-0.01-3.44,0.3c-0.23,0.06-0.47-0.11-0.56-0.36c-0.09-0.26,0.03-0.47,0.22-0.64
			C288.17,107.26,289.01,107.18,290.28,107.25z"/>
		<path fill="#93A7AA" d="M285.57,118.59c-0.53,0.01-1.32-0.02-1.91-0.68c-0.22-0.24-0.36-0.53-0.18-0.82
			c0.14-0.22,0.39-0.21,0.65-0.14c1.24,0.31,2.47,0.65,3.77,0.32c0.24-0.06,0.49,0.01,0.56,0.31c0.07,0.28-0.1,0.46-0.31,0.59
			C287.43,118.6,286.63,118.57,285.57,118.59z"/>
		<path fill="#93A7AA" d="M340.96,158.93c-0.1-0.56,0.06-0.76,0.27-0.88c1.4-0.77,2.89-0.88,4.43-0.62c0.3,0.05,0.58,0.27,0.61,0.6
			c0.04,0.42-0.32,0.49-0.62,0.45C344.07,158.29,342.53,158.77,340.96,158.93z"/>
		<path fill="#95AAAD" d="M358.06,157.39c-0.58,0.47-1.03,0.2-1.47,0.1c-0.96-0.21-1.93-0.24-2.88,0.04
			c-0.39,0.11-0.77,0.09-0.89-0.35c-0.12-0.47,0.32-0.63,0.64-0.73C355.12,155.98,356.61,156.37,358.06,157.39z"/>
		<path fill="#95AAAD" d="M356.48,118.45c-1.41,0.59-2.76,0.72-4.09,0.1c-0.29-0.13-0.5-0.35-0.42-0.71
			c0.04-0.2,0.23-0.36,0.38-0.31C353.71,117.95,355.22,117.67,356.48,118.45z"/>
		<path fill="#95AAAD" d="M360.83,112.88c-1.32-0.53-2.82-0.42-4.13-1.15C358.19,110.61,359.72,111.02,360.83,112.88z"/>
		<path fill="#95AAAD" d="M252.69,163.16c-0.06-1.54,0.72-2.55,1.3-3.64c0.08-0.15,0.3-0.26,0.47-0.13c0.13,0.1,0.29,0.32,0.25,0.42
			C254.27,160.98,253.92,162.22,252.69,163.16z"/>
		<path fill="#95AAAD" d="M372.53,108.16c0.86,1.45,0.78,2.06-0.36,3.47C372.3,110.31,372.41,109.24,372.53,108.16z"/>
		<path fill="#95AAAD" d="M368.27,115.67c0.24,1.06-0.15,1.51-0.8,1.98C367.1,116.75,367.54,116.3,368.27,115.67z"/>
		<path fill="#B9943E" d="M292.89,262.43c2.14-0.1,4.22,0.45,6.2,1.45c0.32,0.16,0.73,0.34,0.58,0.78c-0.16,0.45-0.6,0.33-0.94,0.25
			c-2.48-0.57-4.95-1.19-7.52-1.04c-0.06,0-0.12,0-0.18-0.01c-0.51-0.12-1.26-0.11-1.2-0.81c0.06-0.69,0.79-0.61,1.33-0.62
			C291.7,262.42,292.24,262.43,292.89,262.43z"/>
		<path fill="#B9943E" d="M304.19,263.55c-0.06,0.09-0.14,0.33-0.3,0.49c-1.31,1.26-2.45,2.66-3.47,4.15
			c-0.1,0.14-0.25,0.27-0.41,0.34c-0.15,0.06-0.36,0.08-0.51,0.02c-0.25-0.09-0.37-0.34-0.28-0.58c0.78-2.09,2.04-3.82,3.91-5.05
			C303.62,262.59,304.23,262.95,304.19,263.55z"/>
		<path fill="#E6F8FC" d="M381.21,136.32c-0.11,2.31-0.48,4.6-0.37,6.92c0.03,0.69-0.29,0.94-0.99,0.97
			c-1.96,0.07-3.87-0.4-5.82-0.39c-0.59,0-0.76-0.51-1.04-0.9c-2.79-3.83-6.37-6.83-10.21-9.54c-0.55-0.39-1.44-2.06-1.36-2.63
			c0.07-0.44,0.44-0.57,0.75-0.71c2.8-1.3,4.09-3.69,4.7-6.55c0.11-0.54,0.19-1.04,0.86-0.8c3.03,1.07,6.25,1.61,8.99,3.47
			c2.35,1.59,3.86,3.66,4.14,6.54C380.98,133.9,381.31,135.09,381.21,136.32z"/>
		<path fill="#E6F8FC" d="M365.29,124.28c-0.75,2.38-2.25,4.03-4.46,5.14c-0.63-1.18-1.24-2.29-1.83-3.43
			c-0.24-0.47-0.1-0.8,0.43-0.97c0.54-0.18,1.09-0.29,1.62-0.13C362.55,125.35,363.91,125.02,365.29,124.28z"/>
		<path fill="#E6F8FC" d="M346.77,181.17c-0.65-0.29-1.1-0.72-1.11-1.48C346.28,179.99,346.69,180.45,346.77,181.17z"/>
		<path fill="#E6F8FC" d="M355.28,175.39c-0.04,0.2,0,0.56-0.31,0.4c-0.23-0.12-0.07-0.41,0.14-0.56
			C355.16,175.28,355.22,175.34,355.28,175.39z"/>
		<path fill="#E6F8FC" d="M355.64,174.65c-0.05,0.28-0.12,0.55-0.37,0.74c-0.06-0.05-0.12-0.1-0.17-0.15
			c0.05-0.28,0.13-0.55,0.39-0.71C355.54,174.56,355.59,174.61,355.64,174.65z"/>
		<path fill="#E6F8FC" d="M273.37,166.93c-1.72,0.25-3.35-2.14-3.23-3.33c0.03-0.31,0.11-0.69,0.5-0.61
			c1.56,0.34,3.17,0.07,4.73,0.34c1.56,0.27,1.7,0.71,0.72,2.05C275.26,166.53,274.55,166.93,273.37,166.93z"/>
		<path fill="#E6F8FC" d="M347.91,167.87c0-0.64,0.9-1.33,1.71-1.32c0.77,0.01,1.26,0.51,1.22,1.25c-0.04,0.72-0.71,1.26-1.51,1.22
			C348.61,168.99,347.91,168.42,347.91,167.87z"/>
		<path fill="#E6F8FC" d="M370.21,118.18c0.04,0.34-0.06,0.6-0.38,0.75C369.78,118.59,369.78,118.27,370.21,118.18z"/>
	</g>
</g>
</svg>
