<svg xmlns="http://www.w3.org/2000/svg" width="76.604" height="93.379" viewBox="0 0 76.604 93.379"><defs><style>.a{fill:#7851cb;stroke:#7851cb;stroke-miterlimit:10;stroke-width:2px;}</style></defs><g transform="translate(-142.589 -53.445)"><path class="a" d="M217.6,105.631c-1.915-3.938-3.861-7.86-5.736-11.816a4.022,4.022,0,0,1-.352-2.026,32.55,32.55,0,0,0-.577-10.352,33.3,33.3,0,0,0-11.4-18.942,32.749,32.749,0,0,0-27.648-7.477c-11.433,2.016-19.8,8.47-24.957,18.937a32.725,32.725,0,0,0-3.16,18.015,33.472,33.472,0,0,0,7.532,18.186,12.6,12.6,0,0,1,2.914,8.347c-.047,7.46-.016,14.92-.013,22.38a11.543,11.543,0,0,0,.05,1.193,4.041,4.041,0,0,0,4.118,3.747q14.417.013,28.833,0a3.993,3.993,0,0,0,3.938-2.935,5.456,5.456,0,0,0,.171-1.512c.015-2.983.007-5.967.007-9.047.64,0,1.15.009,1.66,0,2.585-.053,5.183.04,7.751-.2a12.521,12.521,0,0,0,10.7-10.733c.232-2.486.157-5,.181-7.505a.9.9,0,0,1,.609-.956c1.141-.51,2.258-1.073,3.383-1.619C218.135,110.09,218.823,108.144,217.6,105.631Zm-9.526,4.52a1.13,1.13,0,0,0-.764,1.214c0,3.1.03,6.207-.141,9.3a8.1,8.1,0,0,1-7.187,7.195c-3.944.175-7.9.119-11.848.163-.335,0-.67,0-1.1,0V141.5h-28.5V140.43c0-7.09-.058-14.181.021-21.27a18.51,18.51,0,0,0-4.194-12.133,28.332,28.332,0,0,1-6.213-21.237c1.194-11.057,6.892-19.147,16.83-24.022a29.678,29.678,0,0,1,42.361,28,8.923,8.923,0,0,1-.173,1.867,5.464,5.464,0,0,0,.713,3.972c1.887,3.7,3.675,7.445,5.5,11.174.1.2.189.409.317.686C211.8,108.375,209.954,109.294,208.076,110.151Z"/><path class="a" d="M341.73,260.223a.818.818,0,0,1-1.229.019A10.474,10.474,0,0,0,333.02,258a9.789,9.789,0,0,0-8.637,12.759,19.5,19.5,0,0,0,4.726,7.719c3.811,4.027,7.764,7.921,11.661,11.867a2.1,2.1,0,0,0,.331.23,1.107,1.107,0,0,0,.252-.138c4.08-4.165,8.222-8.272,12.207-12.526a17.132,17.132,0,0,0,4.382-7.621,9.661,9.661,0,0,0-1.885-8.752A10.318,10.318,0,0,0,341.73,260.223Zm11.944,9.211a15.991,15.991,0,0,1-2.038,3.9c-2.988,4.193-6.843,7.588-10.515,11.234-.754-.72-1.481-1.393-2.186-2.088-3.138-3.094-6.372-6.1-8.847-9.8a8.807,8.807,0,0,1-1.819-4.8,5.4,5.4,0,0,1,6.016-5.659,6.054,6.054,0,0,1,5.055,3.147c.566.947,1.111,1.907,1.765,3.033.61-1.049,1.148-1.959,1.671-2.878a6.177,6.177,0,0,1,3.76-3.017,5.681,5.681,0,0,1,5.851,1.331A5.053,5.053,0,0,1,353.674,269.434Z" transform="translate(-163.37 -184.335)"/></g></svg>