<svg xmlns="http://www.w3.org/2000/svg" width="91.606" height="81.015" viewBox="0 0 91.606 81.015"><defs><style>.a{fill:#8c3ee8;stroke:#fff;}</style></defs><g transform="translate(-1755.341 2145.306)"><path class="a" d="M1801.158-2144.794q14.715,0,29.43-.006a16.418,16.418,0,0,1,9.854,3.155,14.789,14.789,0,0,1,5.652,14.894c-2.49,10.754-5.061,21.49-7.47,32.263a15.5,15.5,0,0,1-15.758,12.419c-1.8-.034-3.6.039-5.4-.025a1.57,1.57,0,0,0-1.6.947c-2.271,3.928-4.626,7.807-6.88,11.745a9.078,9.078,0,0,1-13.013,3,11.414,11.414,0,0,1-3.192-3.637c-2.187-3.729-4.4-7.446-6.555-11.191a1.48,1.48,0,0,0-1.511-.863c-1.841.051-3.684.021-5.526.016-7.888-.021-13.708-4.446-15.569-12.138q-3.819-15.782-7.339-31.635c-2.225-10.092,4.958-18.893,15.316-18.94,8.139-.037,16.278-.008,24.418-.008Zm-.042,7.848h-29.044a8.438,8.438,0,0,0-4.573,1.007c-3.217,1.973-4.39,5.1-3.428,9.125q1.774,7.426,3.552,14.852c1.276,5.328,2.53,10.66,3.836,15.981.964,3.927,3.53,5.984,7.524,6.05,2.741.045,5.485.08,8.224-.011a4.807,4.807,0,0,1,4.694,2.7c2.561,4.453,5.2,8.865,7.809,13.288.972,1.645,1.916,1.653,2.9.028,2.69-4.428,5.416-8.835,8.033-13.3a4.755,4.755,0,0,1,4.629-2.577c2.654.07,5.312.028,7.967.014,4.154-.02,6.9-2.155,7.842-6.192q3.677-15.684,7.295-31.382a7.462,7.462,0,0,0-.06-4.054c-1.17-3.595-3.949-5.519-8.029-5.523Q1815.7-2136.961,1801.116-2136.946Z" transform="translate(0)"/><path class="a" d="M1897.726-2069.229a3.991,3.991,0,0,1-1.209,3.021q-8.946,8.949-17.9,17.886a3.84,3.84,0,0,1-5.813-.012q-5.076-5.006-10.092-10.074a3.809,3.809,0,0,1-.1-5.521,3.761,3.761,0,0,1,5.509-.087c2.326,2.213,4.592,4.492,6.821,6.8.643.667.966.592,1.578-.027q7.137-7.214,14.345-14.359c2.1-2.088,5.036-1.751,6.392.676A3.3,3.3,0,0,1,1897.726-2069.229Z" transform="translate(-78.452 -53.367)"/></g></svg>