<svg xmlns="http://www.w3.org/2000/svg" width="31.559" height="31.559" viewBox="0 0 31.559 31.559"><defs><style>.a{opacity:0.57;}.b{fill:#8c3ee8;stroke:#f0dbd8;stroke-width:0.5px;}</style></defs><g class="a" transform="translate(-3.125 -3.125)"><path class="b" d="M10.4,14.84a1.447,1.447,0,0,0,0,2.038L17.548,24a1.439,1.439,0,0,0,1.986.045l7.04-7.018a1.439,1.439,0,1,0-2.031-2.038L18.5,20.947l-6.055-6.115A1.44,1.44,0,0,0,10.4,14.84Z" transform="translate(0.409 0.683)"/><path class="b" d="M3.375,18.9A15.529,15.529,0,1,0,18.9,3.375,15.527,15.527,0,0,0,3.375,18.9ZM28.192,9.617A13.135,13.135,0,1,1,9.617,28.192,13.135,13.135,0,1,1,28.192,9.617Z" transform="translate(0 0)"/></g></svg>