<svg xmlns="http://www.w3.org/2000/svg" width="19.552" height="19.552" viewBox="0 0 19.552 19.552"><defs><style>.a{fill:#d2cece;}</style></defs><path class="a" d="M10.247,14.682a.911.911,0,0,0,0,1.283l4.5,4.484a.906.906,0,0,0,1.25.028l4.432-4.418a.906.906,0,1,0-1.278-1.283l-3.807,3.751L11.53,14.677A.906.906,0,0,0,10.247,14.682Z" transform="translate(-5.566 -7.035)"/><path class="a" d="M3.375,13.151a9.776,9.776,0,1,0,9.776-9.776A9.775,9.775,0,0,0,3.375,13.151ZM19,7.3A8.269,8.269,0,1,1,7.3,19,8.269,8.269,0,1,1,19,7.3Z" transform="translate(-3.375 -3.375)"/></svg>